<?xml version="1.0" encoding="utf-8" standalone="yes"?><svg xmlns="http://www.w3.org/2000/svg" xmlns:xlink="http://www.w3.org/1999/xlink" version="1.1" width="816" height="1056"><!--Generated by Aspose.Words for .NET 18.5--><defs><clipPath id="clip1"><path d="M-1,-1 L269.899993896,-1 L269.899993896,61.5 L-1,61.5 Z" clip-rule="evenodd"></path></clipPath><clipPath id="clip2"><path d="M-0.5,-1 L269.899993896,-1 L269.899993896,61.5 L-0.5,61.5 Z" clip-rule="evenodd"></path></clipPath><style type="text/css">svg{background:white}</style></defs><g transform="scale(1.33333)"><g><path d="M0,0 L600,0 L600,450 L0,450 Z" fill="#ffffff" fill-rule="evenodd"></path><g transform="matrix(1,0,0,1,600,0)"><path d="M0,0 L600,0 L600,450 L0,450 Z" fill="#ffffff" fill-rule="evenodd"></path></g><g transform="matrix(1,0,0,1,0,450)"><path d="M0,0 L600,0 L600,450 L0,450 Z" fill="#ffffff" fill-rule="evenodd"></path></g><g transform="matrix(1,0,0,1,600,450)"><path d="M0,0 L600,0 L600,450 L0,450 Z" fill="#ffffff" fill-rule="evenodd"></path></g><g transform="matrix(1,0,0,1,37,25)"><text><tspan x="187.546005249" y="35.808998108" font-family="Times New Roman" font-weight="bold" font-style="normal" font-size="24" fill="#000000">J</tspan><tspan x="199.546005249" y="35.808998108" font-family="Times New Roman" font-weight="bold" font-style="normal" font-size="19" fill="#000000">ESSICA </tspan><tspan x="272.938995361" y="35.808998108" font-family="Times New Roman" font-weight="bold" font-style="normal" font-size="24" fill="#000000">C</tspan><tspan x="290.270996094" y="35.808998108" font-family="Times New Roman" font-weight="bold" font-style="normal" font-size="19" fill="#000000">LAIRE</tspan></text><path d="M-1.450000048,0.5 L539.450012207,0.5 " stroke-width="1" stroke-miterlimit="10" stroke="#000000" fill="none" fill-rule="evenodd"></path><path d="M-1.450000048,57.5 L539.450012207,57.5 " stroke-width="1" stroke-miterlimit="10" stroke="#000000" fill="none" fill-rule="evenodd"></path><g transform="matrix(1,0,0,1,0,58)"><text><tspan x="0" y="5.934000015" font-family="Times New Roman" font-weight="normal" font-style="normal" font-size="1" fill="#000000"> </tspan></text></g><path d="M-1.450000048,61.5 L539.450012207,61.5 " stroke-width="3" stroke-miterlimit="10" stroke="#000000" fill="none" fill-rule="evenodd"></path><g transform="matrix(1,0,0,1,0,64.150001526)"><text><tspan x="0" y="0.934000015" font-family="Times New Roman" font-weight="normal" font-style="normal" font-size="1" fill="#000000"> </tspan></text></g><g transform="matrix(1,0,0,1,0,65.300003052)"><text><tspan x="100.994003296" y="26.62100029" font-family="Times New Roman" font-weight="normal" font-style="normal" font-size="11" fill="#000000">San Francisco, CA 94105 ♦ (555) 432-1000 ♦ resumesample@example.com </tspan></text></g><g transform="matrix(1,0,0,1,0,104.300003052)"><text><tspan x="0" y="29.754999161" font-family="Times New Roman" font-weight="normal" font-style="normal" font-size="9.5" fill="#000000"> </tspan><tspan x="185.850006104" y="29.754999161" font-family="Times New Roman" font-weight="normal" font-style="normal" font-size="12" fill="#000000">   </tspan><tspan x="194.850006104" y="29.754999161" font-family="Times New Roman" font-weight="normal" font-style="normal" font-size="15" fill="#000000">P</tspan><tspan x="203.192001343" y="29.754999161" font-family="Times New Roman" font-weight="normal" font-style="normal" font-size="12" fill="#000000">ROFESSIONAL </tspan><tspan x="287.537994385" y="29.754999161" font-family="Times New Roman" font-weight="normal" font-style="normal" font-size="15" fill="#000000">S</tspan><tspan x="295.880004883" y="29.754999161" font-family="Times New Roman" font-weight="normal" font-style="normal" font-size="12" fill="#000000">UMMARY   </tspan></text><path d="M2.375,26.304998398 L185.850006104,26.304998398 " stroke-width="0.75" stroke-miterlimit="10" stroke="#000000" fill="none" fill-rule="evenodd"></path><path d="M360.221984863,26.304998398 L538,26.304998398 " stroke-width="0.75" stroke-miterlimit="10" stroke="#000000" fill="none" fill-rule="evenodd"></path></g><g transform="matrix(1,0,0,1,0,137.300003052)"><text><tspan x="0" y="17.403999329" font-family="Times New Roman" font-weight="normal" font-style="normal" font-size="12" fill="#000000">Highly motivated Sales Associate with extensive customer service and sales experience. Outgoing sales </tspan><tspan x="0" y="37.403999329" font-family="Times New Roman" font-weight="normal" font-style="normal" font-size="12" fill="#000000">professional with track record of driving increased sales, improving buying experience and elevating company </tspan><tspan x="0" y="57.403999329" font-family="Times New Roman" font-weight="normal" font-style="normal" font-size="12" fill="#000000">profile with target market.</tspan></text></g><g transform="matrix(1,0,0,1,0,197.300003052)"><text><tspan x="0" y="29.754999161" font-family="Times New Roman" font-weight="normal" font-style="normal" font-size="9.5" fill="#000000"> </tspan><tspan x="242.649993896" y="29.754999161" font-family="Times New Roman" font-weight="normal" font-style="normal" font-size="12" fill="#000000">   </tspan><tspan x="251.649993896" y="29.754999161" font-family="Times New Roman" font-weight="normal" font-style="normal" font-size="15" fill="#000000">S</tspan><tspan x="259.992004395" y="29.754999161" font-family="Times New Roman" font-weight="normal" font-style="normal" font-size="12" fill="#000000">KILLS   </tspan></text><path d="M2.375,26.304998398 L242.649993896,26.304998398 " stroke-width="0.75" stroke-miterlimit="10" stroke="#000000" fill="none" fill-rule="evenodd"></path><path d="M302.988006592,26.304998398 L538,26.304998398 " stroke-width="0.75" stroke-miterlimit="10" stroke="#000000" fill="none" fill-rule="evenodd"></path></g><g transform="matrix(1,0,0,1,0,230.300003052)"><g transform="matrix(1,0,0,1,0,0)" clip-path="url(#clip1)"><g transform="matrix(1,0,0,1,12.75,0.25)"><text><tspan x="-0.5" y="16.653999329" font-family="Symbol" font-weight="normal" font-style="normal" font-size="9" fill="#000000">●</tspan><tspan x="10.5" y="17.403999329" font-family="Times New Roman" font-weight="normal" font-style="normal" font-size="12" fill="#000000">Guest services</tspan></text></g><g transform="matrix(1,0,0,1,12.75,20.25)"><text><tspan x="-0.5" y="16.653999329" font-family="Symbol" font-weight="normal" font-style="normal" font-size="9" fill="#000000">●</tspan><tspan x="10.5" y="17.403999329" font-family="Times New Roman" font-weight="normal" font-style="normal" font-size="12" fill="#000000">Inventory control procedures</tspan></text></g><g transform="matrix(1,0,0,1,12.75,40.25)"><text><tspan x="-0.5" y="16.653999329" font-family="Symbol" font-weight="normal" font-style="normal" font-size="9" fill="#000000">●</tspan><tspan x="10.5" y="17.403999329" font-family="Times New Roman" font-weight="normal" font-style="normal" font-size="12" fill="#000000">Merchandising expertise</tspan></text></g></g><g transform="matrix(1,0,0,1,268.899993896,0)" clip-path="url(#clip2)"><g transform="matrix(1,0,0,1,13,0.25)"><text><tspan x="-0.5" y="16.653999329" font-family="Symbol" font-weight="normal" font-style="normal" font-size="9" fill="#000000">●</tspan><tspan x="10.5" y="17.403999329" font-family="Times New Roman" font-weight="normal" font-style="normal" font-size="12" fill="#000000">Loss prevention</tspan></text></g><g transform="matrix(1,0,0,1,13,20.25)"><text><tspan x="-0.5" y="16.653999329" font-family="Symbol" font-weight="normal" font-style="normal" font-size="9" fill="#000000">●</tspan><tspan x="10.5" y="17.403999329" font-family="Times New Roman" font-weight="normal" font-style="normal" font-size="12" fill="#000000">Cash register operations</tspan></text></g><g transform="matrix(1,0,0,1,13,40.25)"><text><tspan x="-0.5" y="16.653999329" font-family="Symbol" font-weight="normal" font-style="normal" font-size="9" fill="#000000">●</tspan><tspan x="10.5" y="17.403999329" font-family="Times New Roman" font-weight="normal" font-style="normal" font-size="12" fill="#000000">Product promotions</tspan></text></g></g><path d="M268.899993896,0 L268.899993896,60.5 " stroke-width="1" stroke-miterlimit="10" stroke="#fefdfd" fill="none" fill-rule="evenodd"></path></g><g transform="matrix(1,0,0,1,0,290.799987793)"><text><tspan x="0" y="29.754999161" font-family="Times New Roman" font-weight="normal" font-style="normal" font-size="9.5" fill="#000000"> </tspan><tspan x="214.600006104" y="29.754999161" font-family="Times New Roman" font-weight="normal" font-style="normal" font-size="12" fill="#000000">   </tspan><tspan x="223.600006104" y="29.754999161" font-family="Times New Roman" font-weight="normal" font-style="normal" font-size="15" fill="#000000">W</tspan><tspan x="237.757995605" y="29.754999161" font-family="Times New Roman" font-weight="normal" font-style="normal" font-size="12" fill="#000000">ORK </tspan><tspan x="266.093994141" y="29.754999161" font-family="Times New Roman" font-weight="normal" font-style="normal" font-size="15" fill="#000000">H</tspan><tspan x="276.927001953" y="29.754999161" font-family="Times New Roman" font-weight="normal" font-style="normal" font-size="12" fill="#000000">ISTORY   </tspan></text><path d="M2.375,26.304998398 L214.600006104,26.304998398 " stroke-width="0.75" stroke-miterlimit="10" stroke="#000000" fill="none" fill-rule="evenodd"></path><path d="M329.263000488,26.304998398 L538,26.304998398 " stroke-width="0.75" stroke-miterlimit="10" stroke="#000000" fill="none" fill-rule="evenodd"></path></g><g transform="matrix(1,0,0,1,0,323.799987793)"><text><tspan x="0" y="17.403999329" font-family="Times New Roman" font-weight="bold" font-style="normal" font-size="12" fill="#000000">Senior Sales Associate</tspan><tspan x="113.325996399" y="17.403999329" font-family="Times New Roman" font-weight="normal" font-style="normal" font-size="12" fill="#000000">, 03/2015 to Current </tspan></text></g><g transform="matrix(1,0,0,1,0,343.799987793)"><text><tspan x="0" y="17.403999329" font-family="Times New Roman" font-weight="bold" font-style="normal" font-size="12" fill="#000000">Bed Bath &amp; Beyond, Inc.</tspan><tspan x="128.022003174" y="17.403999329" font-family="Times New Roman" font-weight="normal" font-style="normal" font-size="12" fill="#000000"> – San Francisco, CA</tspan></text></g><g transform="matrix(1,0,0,1,12.5,363.799987793)"><text><tspan x="-0.5" y="16.653999329" font-family="Symbol" font-weight="normal" font-style="normal" font-size="9" fill="#000000">●</tspan><tspan x="10.5" y="17.403999329" font-family="Times New Roman" font-weight="normal" font-style="normal" font-size="12" fill="#000000">Applied security and loss prevention training toward recognizing risks and reducing store theft</tspan></text></g><g transform="matrix(1,0,0,1,12.5,383.799987793)"><text><tspan x="-0.5" y="16.653999329" font-family="Symbol" font-weight="normal" font-style="normal" font-size="9" fill="#000000">●</tspan><tspan x="10.5" y="17.403999329" font-family="Times New Roman" font-weight="normal" font-style="normal" font-size="12" fill="#000000">Trained and developed sales team associates in products, selling techniques and procedures</tspan></text></g><g transform="matrix(1,0,0,1,12.5,403.799987793)"><text><tspan x="-0.5" y="16.653999329" font-family="Symbol" font-weight="normal" font-style="normal" font-size="9" fill="#000000">●</tspan><tspan x="10.5" y="17.403999329" font-family="Times New Roman" font-weight="normal" font-style="normal" font-size="12" fill="#000000">Maintained organized, presentable merchandise to drive continuous sales</tspan></text></g><g transform="matrix(1,0,0,1,12.5,423.799987793)"><text><tspan x="-0.5" y="16.653999329" font-family="Symbol" font-weight="normal" font-style="normal" font-size="9" fill="#000000">●</tspan><tspan x="10.5" y="17.403999329" font-family="Times New Roman" font-weight="normal" font-style="normal" font-size="12" fill="#000000">Implemented up-selling strategies for recommending accessories and complementary purchases</tspan></text></g><g transform="matrix(1,0,0,1,0,443.799987793)"><text><tspan x="0" y="35.403999329" font-family="Times New Roman" font-weight="bold" font-style="normal" font-size="12" fill="#000000">Sales Associate</tspan><tspan x="76.991996765" y="35.403999329" font-family="Times New Roman" font-weight="normal" font-style="normal" font-size="12" fill="#000000">, 06/2013 to 03/2015 </tspan></text></g><g transform="matrix(1,0,0,1,0,481.799987793)"><text><tspan x="0" y="17.403999329" font-family="Times New Roman" font-weight="bold" font-style="normal" font-size="12" fill="#000000">Target</tspan><tspan x="34.652000427" y="17.403999329" font-family="Times New Roman" font-weight="normal" font-style="normal" font-size="12" fill="#000000"> – San Francisco, CA</tspan></text></g><g transform="matrix(1,0,0,1,12.5,501.799987793)"><text><tspan x="-0.5" y="16.653999329" font-family="Symbol" font-weight="normal" font-style="normal" font-size="9" fill="#000000">●</tspan><tspan x="10.5" y="17.403999329" font-family="Times New Roman" font-weight="normal" font-style="normal" font-size="12" fill="#000000">Maintained organized, presentable merchandise to drive continuous sales</tspan></text></g><g transform="matrix(1,0,0,1,12.5,521.799987793)"><text><tspan x="-0.5" y="16.653999329" font-family="Symbol" font-weight="normal" font-style="normal" font-size="9" fill="#000000">●</tspan><tspan x="10.5" y="17.403999329" font-family="Times New Roman" font-weight="normal" font-style="normal" font-size="12" fill="#000000">Organized racks and shelves to maintain store visual appeal, engage customers and promote merchandise</tspan></text></g><g transform="matrix(1,0,0,1,12.5,541.799987793)"><text><tspan x="-0.5" y="16.653999329" font-family="Symbol" font-weight="normal" font-style="normal" font-size="9" fill="#000000">●</tspan><tspan x="10.5" y="17.403999329" font-family="Times New Roman" font-weight="normal" font-style="normal" font-size="12" fill="#000000">Evaluated inventory and delivery needs, optimizing strategies to meet customer demands</tspan></text></g><g transform="matrix(1,0,0,1,12.5,561.799987793)"><text><tspan x="-0.5" y="16.653999329" font-family="Symbol" font-weight="normal" font-style="normal" font-size="9" fill="#000000">●</tspan><tspan x="10.5" y="17.403999329" font-family="Times New Roman" font-weight="normal" font-style="normal" font-size="12" fill="#000000">Analyzed and processed returns, assisting customers with finding alternative merchandise to meet needs</tspan></text></g><g transform="matrix(1,0,0,1,0,581.799987793)"><text><tspan x="0" y="29.754999161" font-family="Times New Roman" font-weight="normal" font-style="normal" font-size="9.5" fill="#000000"> </tspan><tspan x="226.800003052" y="29.754999161" font-family="Times New Roman" font-weight="normal" font-style="normal" font-size="12" fill="#000000">   </tspan><tspan x="235.800003052" y="29.754999161" font-family="Times New Roman" font-weight="normal" font-style="normal" font-size="15" fill="#000000">E</tspan><tspan x="244.962997437" y="29.754999161" font-family="Times New Roman" font-weight="normal" font-style="normal" font-size="12" fill="#000000">DUCATION   </tspan></text><path d="M2.375,26.304998398 L226.800003052,26.304998398 " stroke-width="0.75" stroke-miterlimit="10" stroke="#000000" fill="none" fill-rule="evenodd"></path><path d="M316.62298584,26.304998398 L538,26.304998398 " stroke-width="0.75" stroke-miterlimit="10" stroke="#000000" fill="none" fill-rule="evenodd"></path></g><g transform="matrix(1,0,0,1,0,614.799987793)"><text><tspan x="0" y="17.403999329" font-family="Times New Roman" font-weight="bold" font-style="normal" font-size="12" fill="#000000">Bachelor of Arts</tspan><tspan x="84.643997192" y="17.403999329" font-family="Times New Roman" font-weight="normal" font-style="normal" font-size="12" fill="#000000">: Business Administration, 2013 </tspan></text></g><g transform="matrix(1,0,0,1,0,634.799987793)"><text><tspan x="0" y="17.403999329" font-family="Times New Roman" font-weight="bold" font-style="normal" font-size="12" fill="#000000">San Francisco State University</tspan><tspan x="157.651992798" y="17.403999329" font-family="Times New Roman" font-weight="normal" font-style="normal" font-size="12" fill="#000000"> - San Francisco, CA</tspan></text></g></g></g></g></svg>