<?xml version="1.0" encoding="utf-8" standalone="yes"?><svg xmlns="http://www.w3.org/2000/svg" xmlns:xlink="http://www.w3.org/1999/xlink" version="1.1" width="816" height="1056"><!--Generated by Aspose.Words for .NET 18.5--><defs><clipPath id="clip1"><path d="M-1,-1 L212.399993896,-1 L212.399993896,52.5 L-1,52.5 Z" clip-rule="evenodd"></path></clipPath><clipPath id="clip2"><path d="M-0.5,-1 L212.399993896,-1 L212.399993896,52.5 L-0.5,52.5 Z" clip-rule="evenodd"></path></clipPath><clipPath id="clip3"><path d="M-1,-1 L106,-1 L106,154 L-1,154 Z" clip-rule="evenodd"></path></clipPath><clipPath id="clip4"><path d="M-1,-1 L424,-1 L424,154 L-1,154 Z" clip-rule="evenodd"></path></clipPath><clipPath id="clip5"><path d="M-1,-1 L106,-1 L106,166 L-1,166 Z" clip-rule="evenodd"></path></clipPath><clipPath id="clip6"><path d="M-1,-1 L424,-1 L424,166 L-1,166 Z" clip-rule="evenodd"></path></clipPath><clipPath id="clip7"><path d="M-1,-1 L106,-1 L106,35 L-1,35 Z" clip-rule="evenodd"></path></clipPath><clipPath id="clip8"><path d="M-1,-1 L424,-1 L424,35 L-1,35 Z" clip-rule="evenodd"></path></clipPath><style type="text/css">svg{background:white}</style></defs><g transform="scale(1.33333)"><g><path d="M0,0 L600,0 L600,450 L0,450 Z" fill="#ffffff" fill-rule="evenodd"></path><g transform="matrix(1,0,0,1,600,0)"><path d="M0,0 L600,0 L600,450 L0,450 Z" fill="#ffffff" fill-rule="evenodd"></path></g><g transform="matrix(1,0,0,1,0,450)"><path d="M0,0 L600,0 L600,450 L0,450 Z" fill="#ffffff" fill-rule="evenodd"></path></g><g transform="matrix(1,0,0,1,600,450)"><path d="M0,0 L600,0 L600,450 L0,450 Z" fill="#ffffff" fill-rule="evenodd"></path></g><g transform="matrix(1,0,0,1,42,12)"><text><tspan x="182.546005249" y="28.809000015" font-family="Times New Roman" font-weight="bold" font-style="normal" font-size="24" fill="#000000">J</tspan><tspan x="194.546005249" y="28.809000015" font-family="Times New Roman" font-weight="bold" font-style="normal" font-size="19" fill="#000000">ESSICA </tspan><tspan x="267.938995361" y="28.809000015" font-family="Times New Roman" font-weight="bold" font-style="normal" font-size="24" fill="#000000">C</tspan><tspan x="285.270996094" y="28.809000015" font-family="Times New Roman" font-weight="bold" font-style="normal" font-size="19" fill="#000000">LAIRE</tspan></text><g transform="matrix(1,0,0,1,0,34)"><text><tspan x="202.339004517" y="21.403999329" font-family="Times New Roman" font-weight="normal" font-style="normal" font-size="12" fill="#000000">San Francisco, CA 94105</tspan><tspan x="149.507995605" y="38.403999329" font-family="Times New Roman" font-weight="normal" font-style="normal" font-size="12" fill="#000000">(555) 432-1000 - resumesample@example.com</tspan></text></g><g transform="matrix(1,0,0,1,0,75)"><text><tspan x="0" y="21.972000122" font-family="Times New Roman" font-weight="bold" font-style="normal" font-size="14" fill="#000000">P</tspan><tspan x="8.552000046" y="21.972000122" font-family="Times New Roman" font-weight="bold" font-style="normal" font-size="11" fill="#000000">ROFESSIONAL </tspan><tspan x="90.154998779" y="21.972000122" font-family="Times New Roman" font-weight="bold" font-style="normal" font-size="14" fill="#000000">S</tspan><tspan x="97.941001892" y="21.972000122" font-family="Times New Roman" font-weight="bold" font-style="normal" font-size="11" fill="#000000">UMMARY   </tspan><tspan x="158.731002808" y="21.972000122" font-family="Times New Roman" font-weight="normal" font-style="normal" font-size="14" fill="#000000"> </tspan></text><path d="M158.731002808,23.896999359 L528,23.896999359 " stroke-width="0.699999988" stroke-miterlimit="10" stroke="#000000" fill="none" fill-rule="evenodd"></path></g><path d="M-1.450000048,101.5 L529.450012207,101.5 " stroke-width="1" stroke-miterlimit="10" stroke="#ffffff" fill="none" fill-rule="evenodd"></path><g transform="matrix(1,0,0,1,105,108)"><text><tspan x="0" y="14.404000282" font-family="Times New Roman" font-weight="normal" font-style="normal" font-size="12" fill="#000000">Highly motivated Sales Associate with extensive customer service and sales </tspan><tspan x="0" y="31.403999329" font-family="Times New Roman" font-weight="normal" font-style="normal" font-size="12" fill="#000000">experience. Outgoing sales professional with track record of driving increased sales, </tspan><tspan x="0" y="48.403999329" font-family="Times New Roman" font-weight="normal" font-style="normal" font-size="12" fill="#000000">improving buying experience and elevating company profile with target market.</tspan></text></g><g transform="matrix(1,0,0,1,0,159)"><text><tspan x="0" y="21.972000122" font-family="Times New Roman" font-weight="bold" font-style="normal" font-size="14" fill="#000000">S</tspan><tspan x="7.785999775" y="21.972000122" font-family="Times New Roman" font-weight="bold" font-style="normal" font-size="11" fill="#000000">KILLS   </tspan><tspan x="49.664001465" y="21.972000122" font-family="Times New Roman" font-weight="normal" font-style="normal" font-size="14" fill="#000000"> </tspan></text><path d="M49.664001465,23.896999359 L528,23.896999359 " stroke-width="0.699999988" stroke-miterlimit="10" stroke="#000000" fill="none" fill-rule="evenodd"></path></g><path d="M-1.450000048,185.5 L529.450012207,185.5 " stroke-width="1" stroke-miterlimit="10" stroke="#ffffff" fill="none" fill-rule="evenodd"></path><g transform="matrix(1,0,0,1,105,192)"><g transform="matrix(1,0,0,1,0,0)" clip-path="url(#clip1)"><g transform="matrix(1,0,0,1,12.75,0.25)"><text><tspan x="-0.5" y="13.654000282" font-family="Symbol" font-weight="normal" font-style="normal" font-size="9" fill="#000000">●</tspan><tspan x="10.5" y="14.404000282" font-family="Times New Roman" font-weight="normal" font-style="normal" font-size="12" fill="#000000">Guest services</tspan></text></g><g transform="matrix(1,0,0,1,12.75,17.25)"><text><tspan x="-0.5" y="13.654000282" font-family="Symbol" font-weight="normal" font-style="normal" font-size="9" fill="#000000">●</tspan><tspan x="10.5" y="14.404000282" font-family="Times New Roman" font-weight="normal" font-style="normal" font-size="12" fill="#000000">Inventory control procedures</tspan></text></g><g transform="matrix(1,0,0,1,12.75,34.25)"><text><tspan x="-0.5" y="13.654000282" font-family="Symbol" font-weight="normal" font-style="normal" font-size="9" fill="#000000">●</tspan><tspan x="10.5" y="14.404000282" font-family="Times New Roman" font-weight="normal" font-style="normal" font-size="12" fill="#000000">Merchandising expertise</tspan></text></g></g><g transform="matrix(1,0,0,1,211.399993896,0)" clip-path="url(#clip2)"><g transform="matrix(1,0,0,1,13,0.25)"><text><tspan x="-0.5" y="13.654000282" font-family="Symbol" font-weight="normal" font-style="normal" font-size="9" fill="#000000">●</tspan><tspan x="10.5" y="14.404000282" font-family="Times New Roman" font-weight="normal" font-style="normal" font-size="12" fill="#000000">Loss prevention</tspan></text></g><g transform="matrix(1,0,0,1,13,17.25)"><text><tspan x="-0.5" y="13.654000282" font-family="Symbol" font-weight="normal" font-style="normal" font-size="9" fill="#000000">●</tspan><tspan x="10.5" y="14.404000282" font-family="Times New Roman" font-weight="normal" font-style="normal" font-size="12" fill="#000000">Cash register operations</tspan></text></g><g transform="matrix(1,0,0,1,13,34.25)"><text><tspan x="-0.5" y="13.654000282" font-family="Symbol" font-weight="normal" font-style="normal" font-size="9" fill="#000000">●</tspan><tspan x="10.5" y="14.404000282" font-family="Times New Roman" font-weight="normal" font-style="normal" font-size="12" fill="#000000">Product promotions</tspan></text></g></g><path d="M211.399993896,0 L211.399993896,51.5 " stroke-width="1" stroke-miterlimit="10" stroke="#fefdfd" fill="none" fill-rule="evenodd"></path></g><g transform="matrix(1,0,0,1,0,243.5)"><text><tspan x="0" y="21.972000122" font-family="Times New Roman" font-weight="bold" font-style="normal" font-size="14" fill="#000000">W</tspan><tspan x="14" y="21.972000122" font-family="Times New Roman" font-weight="bold" font-style="normal" font-size="11" fill="#000000">ORK </tspan><tspan x="41.805999756" y="21.972000122" font-family="Times New Roman" font-weight="bold" font-style="normal" font-size="14" fill="#000000">H</tspan><tspan x="52.695999146" y="21.972000122" font-family="Times New Roman" font-weight="bold" font-style="normal" font-size="11" fill="#000000">ISTORY   </tspan><tspan x="103.125" y="21.972000122" font-family="Times New Roman" font-weight="normal" font-style="normal" font-size="14" fill="#000000"> </tspan></text><path d="M103.125,23.896999359 L528,23.896999359 " stroke-width="0.699999988" stroke-miterlimit="10" stroke="#000000" fill="none" fill-rule="evenodd"></path></g><path d="M-1.450000048,270 L529.450012207,270 " stroke-width="1" stroke-miterlimit="10" stroke="#ffffff" fill="none" fill-rule="evenodd"></path><g transform="matrix(1,0,0,1,0,276.5)"><g transform="matrix(1,0,0,1,0,0)" clip-path="url(#clip3)"><text><tspan x="0" y="14.404000282" font-family="Times New Roman" font-weight="normal" font-style="normal" font-size="12" fill="#000000">03/2015 to Current</tspan></text></g><g transform="matrix(1,0,0,1,105,0)" clip-path="url(#clip4)"><text><tspan x="0" y="14.404000282" font-family="Times New Roman" font-weight="bold" font-style="normal" font-size="12" fill="#222222">Senior Sales Associate</tspan><tspan x="113.325996399" y="14.404000282" font-family="Times New Roman" font-weight="normal" font-style="normal" font-size="12" fill="#222222"> </tspan></text><g transform="matrix(1,0,0,1,0,17)"><text><tspan x="0" y="14.404000282" font-family="Times New Roman" font-weight="bold" font-style="normal" font-size="12" fill="#222222">Bed Bath &amp; Beyond, Inc.</tspan><tspan x="128.022003174" y="14.404000282" font-family="Times New Roman" font-weight="normal" font-style="normal" font-size="12" fill="#222222"> – San Francisco, CA</tspan></text></g><g transform="matrix(1,0,0,1,12.5,34)"><text><tspan x="-0.5" y="13.654000282" font-family="Symbol" font-weight="normal" font-style="normal" font-size="9" fill="#222222">●</tspan><tspan x="10.5" y="14.404000282" font-family="Times New Roman" font-weight="normal" font-style="normal" font-size="12" fill="#222222">Applied security and loss prevention training toward recognizing risks and </tspan><tspan x="10.5" y="31.403999329" font-family="Times New Roman" font-weight="normal" font-style="normal" font-size="12" fill="#222222">reducing store theft</tspan></text></g><g transform="matrix(1,0,0,1,12.5,68)"><text><tspan x="-0.5" y="13.654000282" font-family="Symbol" font-weight="normal" font-style="normal" font-size="9" fill="#222222">●</tspan><tspan x="10.5" y="14.404000282" font-family="Times New Roman" font-weight="normal" font-style="normal" font-size="12" fill="#222222">Trained and developed sales team associates in products, selling techniques and </tspan><tspan x="10.5" y="31.403999329" font-family="Times New Roman" font-weight="normal" font-style="normal" font-size="12" fill="#222222">procedures</tspan></text></g><g transform="matrix(1,0,0,1,12.5,102)"><text><tspan x="-0.5" y="13.654000282" font-family="Symbol" font-weight="normal" font-style="normal" font-size="9" fill="#222222">●</tspan><tspan x="10.5" y="14.404000282" font-family="Times New Roman" font-weight="normal" font-style="normal" font-size="12" fill="#222222">Maintained organized, presentable merchandise to drive continuous sales</tspan></text></g><g transform="matrix(1,0,0,1,12.5,119)"><text><tspan x="-0.5" y="13.654000282" font-family="Symbol" font-weight="normal" font-style="normal" font-size="9" fill="#222222">●</tspan><tspan x="10.5" y="14.404000282" font-family="Times New Roman" font-weight="normal" font-style="normal" font-size="12" fill="#222222">Implemented up-selling strategies for recommending accessories and </tspan><tspan x="10.5" y="31.403999329" font-family="Times New Roman" font-weight="normal" font-style="normal" font-size="12" fill="#222222">complementary purchases</tspan></text></g></g></g><g transform="matrix(1,0,0,1,0,429.5)"><g transform="matrix(1,0,0,1,0,0)" clip-path="url(#clip5)"><g transform="matrix(1,0,0,1,0,12)"><text><tspan x="0" y="14.404000282" font-family="Times New Roman" font-weight="normal" font-style="normal" font-size="12" fill="#000000">06/2013 to 03/2015</tspan></text></g></g><g transform="matrix(1,0,0,1,105,0)" clip-path="url(#clip6)"><g transform="matrix(1,0,0,1,0,12)"><text><tspan x="0" y="14.404000282" font-family="Times New Roman" font-weight="bold" font-style="normal" font-size="12" fill="#222222">Sales Associate</tspan><tspan x="76.991996765" y="14.404000282" font-family="Times New Roman" font-weight="normal" font-style="normal" font-size="12" fill="#222222"> </tspan></text></g><g transform="matrix(1,0,0,1,0,29)"><text><tspan x="0" y="14.404000282" font-family="Times New Roman" font-weight="bold" font-style="normal" font-size="12" fill="#222222">Target</tspan><tspan x="34.652000427" y="14.404000282" font-family="Times New Roman" font-weight="normal" font-style="normal" font-size="12" fill="#222222"> – San Francisco, CA</tspan></text></g><g transform="matrix(1,0,0,1,12.5,46)"><text><tspan x="-0.5" y="13.654000282" font-family="Symbol" font-weight="normal" font-style="normal" font-size="9" fill="#222222">●</tspan><tspan x="10.5" y="14.404000282" font-family="Times New Roman" font-weight="normal" font-style="normal" font-size="12" fill="#222222">Maintained organized, presentable merchandise to drive continuous sales</tspan></text></g><g transform="matrix(1,0,0,1,12.5,63)"><text><tspan x="-0.5" y="13.654000282" font-family="Symbol" font-weight="normal" font-style="normal" font-size="9" fill="#222222">●</tspan><tspan x="10.5" y="14.404000282" font-family="Times New Roman" font-weight="normal" font-style="normal" font-size="12" fill="#222222">Organized racks and shelves to maintain store visual appeal, engage customers and </tspan><tspan x="10.5" y="31.403999329" font-family="Times New Roman" font-weight="normal" font-style="normal" font-size="12" fill="#222222">promote merchandise</tspan></text></g><g transform="matrix(1,0,0,1,12.5,97)"><text><tspan x="-0.5" y="13.654000282" font-family="Symbol" font-weight="normal" font-style="normal" font-size="9" fill="#222222">●</tspan><tspan x="10.5" y="14.404000282" font-family="Times New Roman" font-weight="normal" font-style="normal" font-size="12" fill="#222222">Evaluated inventory and delivery needs, optimizing strategies to meet customer </tspan><tspan x="10.5" y="31.403999329" font-family="Times New Roman" font-weight="normal" font-style="normal" font-size="12" fill="#222222">demands</tspan></text></g><g transform="matrix(1,0,0,1,12.5,131)"><text><tspan x="-0.5" y="13.654000282" font-family="Symbol" font-weight="normal" font-style="normal" font-size="9" fill="#222222">●</tspan><tspan x="10.5" y="14.404000282" font-family="Times New Roman" font-weight="normal" font-style="normal" font-size="12" fill="#222222">Analyzed and processed returns, assisting customers with finding alternative </tspan><tspan x="10.5" y="31.403999329" font-family="Times New Roman" font-weight="normal" font-style="normal" font-size="12" fill="#222222">merchandise to meet needs</tspan></text></g></g></g><g transform="matrix(1,0,0,1,0,594.5)"><text><tspan x="0" y="21.972000122" font-family="Times New Roman" font-weight="bold" font-style="normal" font-size="14" fill="#000000">E</tspan><tspan x="9.338000298" y="21.972000122" font-family="Times New Roman" font-weight="bold" font-style="normal" font-size="11" fill="#000000">DUCATION   </tspan><tspan x="77.481002808" y="21.972000122" font-family="Times New Roman" font-weight="normal" font-style="normal" font-size="14" fill="#000000"> </tspan></text><path d="M77.481002808,23.896999359 L528,23.896999359 " stroke-width="0.699999988" stroke-miterlimit="10" stroke="#000000" fill="none" fill-rule="evenodd"></path></g><path d="M-1.450000048,621 L529.450012207,621 " stroke-width="1" stroke-miterlimit="10" stroke="#ffffff" fill="none" fill-rule="evenodd"></path><g transform="matrix(1,0,0,1,0,627.5)"><g transform="matrix(1,0,0,1,0,0)" clip-path="url(#clip7)"><text><tspan x="0" y="14.404000282" font-family="Times New Roman" font-weight="normal" font-style="normal" font-size="12" fill="#000000">2013</tspan></text></g><g transform="matrix(1,0,0,1,105,0)" clip-path="url(#clip8)"><text><tspan x="0" y="14.404000282" font-family="Times New Roman" font-weight="bold" font-style="normal" font-size="12" fill="#222222">Bachelor of Arts</tspan><tspan x="84.643997192" y="14.404000282" font-family="Times New Roman" font-weight="normal" font-style="normal" font-size="12" fill="#222222">: </tspan><tspan x="90.977996826" y="14.404000282" font-family="Times New Roman" font-weight="bold" font-style="normal" font-size="12" fill="#222222">Business Administration</tspan><tspan x="216.67300415" y="14.404000282" font-family="Times New Roman" font-weight="normal" font-style="normal" font-size="12" fill="#222222"> </tspan></text><g transform="matrix(1,0,0,1,0,17)"><text><tspan x="0" y="14.404000282" font-family="Times New Roman" font-weight="bold" font-style="normal" font-size="12" fill="#222222">San Francisco State University</tspan><tspan x="157.651992798" y="14.404000282" font-family="Times New Roman" font-weight="normal" font-style="normal" font-size="12" fill="#222222"> - San Francisco, CA</tspan></text></g></g></g></g></g></g></svg>