<?xml version="1.0" encoding="utf-8" standalone="yes"?><svg xmlns="http://www.w3.org/2000/svg" xmlns:xlink="http://www.w3.org/1999/xlink" version="1.1" width="816" height="1056"><!--Generated by Aspose.Words for .NET 18.5--><defs><clipPath id="clip1"><path d="M-1,-1 L214.899993896,-1 L214.899993896,58.5 L-1,58.5 Z" clip-rule="evenodd"></path></clipPath><clipPath id="clip2"><path d="M-0.5,-1 L214.899993896,-1 L214.899993896,58.5 L-0.5,58.5 Z" clip-rule="evenodd"></path></clipPath><clipPath id="clip3"><path d="M-1,-1 L101,-1 L101,172 L-1,172 Z" clip-rule="evenodd"></path></clipPath><clipPath id="clip4"><path d="M-1,-1 L429,-1 L429,172 L-1,172 Z" clip-rule="evenodd"></path></clipPath><clipPath id="clip5"><path d="M-1,-1 L101,-1 L101,182 L-1,182 Z" clip-rule="evenodd"></path></clipPath><clipPath id="clip6"><path d="M-1,-1 L429,-1 L429,182 L-1,182 Z" clip-rule="evenodd"></path></clipPath><clipPath id="clip7"><path d="M-1,-1 L101,-1 L101,39 L-1,39 Z" clip-rule="evenodd"></path></clipPath><clipPath id="clip8"><path d="M-1,-1 L429,-1 L429,39 L-1,39 Z" clip-rule="evenodd"></path></clipPath><style type="text/css">svg{background:white}</style></defs><g transform="scale(1.33333)"><g><path d="M0,0 L600,0 L600,450 L0,450 Z" fill="#ffffff" fill-rule="evenodd"></path><g transform="matrix(1,0,0,1,600,0)"><path d="M0,0 L600,0 L600,450 L0,450 Z" fill="#ffffff" fill-rule="evenodd"></path></g><g transform="matrix(1,0,0,1,0,450)"><path d="M0,0 L600,0 L600,450 L0,450 Z" fill="#ffffff" fill-rule="evenodd"></path></g><g transform="matrix(1,0,0,1,600,450)"><path d="M0,0 L600,0 L600,450 L0,450 Z" fill="#ffffff" fill-rule="evenodd"></path></g><g transform="matrix(1,0,0,1,42,24)"><text><tspan x="178.623001099" y="33.958000183" font-family="Georgia" font-weight="bold" font-style="normal" font-size="23" fill="#003300">J</tspan><tspan x="192.31300354" y="33.958000183" font-family="Georgia" font-weight="bold" font-style="normal" font-size="18.5" fill="#003300">ESSICA </tspan><tspan x="269.872009277" y="33.958000183" font-family="Georgia" font-weight="bold" font-style="normal" font-size="23" fill="#003300">C</tspan><tspan x="286.325012207" y="33.958000183" font-family="Georgia" font-weight="bold" font-style="normal" font-size="18.5" fill="#003300">LAIRE</tspan></text><g transform="matrix(1,0,0,1,0,39)"><text><tspan x="203.82800293" y="26.587999344" font-family="Georgia" font-weight="normal" font-style="normal" font-size="11" fill="#000000">San Francisco, CA 94105</tspan><tspan x="148.712997437" y="45.587997437" font-family="Georgia" font-weight="normal" font-style="normal" font-size="11" fill="#000000">(555) 432-1000 - resumesample@example.com</tspan></text></g><g transform="matrix(1,0,0,1,0,87)"><text><tspan x="0" y="26.149999619" font-family="Georgia" font-weight="bold" font-style="normal" font-size="13" fill="#003300">P</tspan><tspan x="9.114999771" y="26.149999619" font-family="Georgia" font-weight="bold" font-style="normal" font-size="10.5" fill="#003300">ROFESSIONAL </tspan><tspan x="94.274002075" y="26.149999619" font-family="Georgia" font-weight="bold" font-style="normal" font-size="13" fill="#003300">S</tspan><tspan x="102.709999084" y="26.149999619" font-family="Georgia" font-weight="bold" font-style="normal" font-size="10.5" fill="#003300">UMMARY</tspan></text></g><path d="M-1.450000048,92.5 L529.450012207,92.5 " stroke-width="1" stroke-miterlimit="10" stroke="#003300" stroke-dashoffset="0" stroke-dasharray="1 1" fill="none" fill-rule="evenodd"></path><g transform="matrix(1,0,0,1,100,121)"><text><tspan x="0" y="16.587999344" font-family="Georgia" font-weight="normal" font-style="normal" font-size="11" fill="#000000">Highly motivated Sales Associate with extensive customer service and sales experience. </tspan><tspan x="0" y="35.587997437" font-family="Georgia" font-weight="normal" font-style="normal" font-size="11" fill="#000000">Outgoing sales professional with track record of driving increased sales, improving </tspan><tspan x="0" y="54.587997437" font-family="Georgia" font-weight="normal" font-style="normal" font-size="11" fill="#000000">buying experience and elevating company profile with target market.</tspan></text></g><g transform="matrix(1,0,0,1,0,178)"><text><tspan x="0" y="26.149999619" font-family="Georgia" font-weight="bold" font-style="normal" font-size="13" fill="#003300">S</tspan><tspan x="8.43599987" y="26.149999619" font-family="Georgia" font-weight="bold" font-style="normal" font-size="10.5" fill="#003300">KILLS</tspan></text></g><path d="M-1.450000048,183.5 L529.450012207,183.5 " stroke-width="1" stroke-miterlimit="10" stroke="#003300" stroke-dashoffset="0" stroke-dasharray="1 1" fill="none" fill-rule="evenodd"></path><g transform="matrix(1,0,0,1,100,212)"><g transform="matrix(1,0,0,1,0,0)" clip-path="url(#clip1)"><g transform="matrix(1,0,0,1,13.199999809,0.25)"><text><tspan x="-0.5" y="15.837999344" font-family="Symbol" font-weight="normal" font-style="normal" font-size="8.25" fill="#000000">●</tspan><tspan x="10.050000191" y="16.587999344" font-family="Georgia" font-weight="normal" font-style="normal" font-size="11" fill="#000000">Guest services</tspan></text></g><g transform="matrix(1,0,0,1,13.199999809,19.25)"><text><tspan x="-0.5" y="15.837999344" font-family="Symbol" font-weight="normal" font-style="normal" font-size="8.25" fill="#000000">●</tspan><tspan x="10.050000191" y="16.587999344" font-family="Georgia" font-weight="normal" font-style="normal" font-size="11" fill="#000000">Inventory control procedures</tspan></text></g><g transform="matrix(1,0,0,1,13.199999809,38.25)"><text><tspan x="-0.5" y="15.837999344" font-family="Symbol" font-weight="normal" font-style="normal" font-size="8.25" fill="#000000">●</tspan><tspan x="10.050000191" y="16.587999344" font-family="Georgia" font-weight="normal" font-style="normal" font-size="11" fill="#000000">Merchandising expertise</tspan></text></g></g><g transform="matrix(1,0,0,1,213.899993896,0)" clip-path="url(#clip2)"><g transform="matrix(1,0,0,1,13.449999809,0.25)"><text><tspan x="-0.5" y="15.837999344" font-family="Symbol" font-weight="normal" font-style="normal" font-size="8.25" fill="#000000">●</tspan><tspan x="10.050000191" y="16.587999344" font-family="Georgia" font-weight="normal" font-style="normal" font-size="11" fill="#000000">Loss prevention</tspan></text></g><g transform="matrix(1,0,0,1,13.449999809,19.25)"><text><tspan x="-0.5" y="15.837999344" font-family="Symbol" font-weight="normal" font-style="normal" font-size="8.25" fill="#000000">●</tspan><tspan x="10.050000191" y="16.587999344" font-family="Georgia" font-weight="normal" font-style="normal" font-size="11" fill="#000000">Cash register operations</tspan></text></g><g transform="matrix(1,0,0,1,13.449999809,38.25)"><text><tspan x="-0.5" y="15.837999344" font-family="Symbol" font-weight="normal" font-style="normal" font-size="8.25" fill="#000000">●</tspan><tspan x="10.050000191" y="16.587999344" font-family="Georgia" font-weight="normal" font-style="normal" font-size="11" fill="#000000">Product promotions</tspan></text></g></g><path d="M213.899993896,0 L213.899993896,57.5 " stroke-width="1" stroke-miterlimit="10" stroke="#fefdfd" fill="none" fill-rule="evenodd"></path></g><g transform="matrix(1,0,0,1,0,269.5)"><text><tspan x="0" y="26.149999619" font-family="Georgia" font-weight="bold" font-style="normal" font-size="13" fill="#003300">W</tspan><tspan x="14.644000053" y="26.149999619" font-family="Georgia" font-weight="bold" font-style="normal" font-size="10.5" fill="#003300">ORK </tspan><tspan x="42.868000031" y="26.149999619" font-family="Georgia" font-weight="bold" font-style="normal" font-size="13" fill="#003300">H</tspan><tspan x="54.737998962" y="26.149999619" font-family="Georgia" font-weight="bold" font-style="normal" font-size="10.5" fill="#003300">ISTORY</tspan></text></g><path d="M-1.450000048,275 L529.450012207,275 " stroke-width="1" stroke-miterlimit="10" stroke="#003300" stroke-dashoffset="0" stroke-dasharray="1 1" fill="none" fill-rule="evenodd"></path><g transform="matrix(1,0,0,1,0,303.5)"><g transform="matrix(1,0,0,1,0,0)" clip-path="url(#clip3)"><text><tspan x="0" y="16.808000565" font-family="Georgia" font-weight="normal" font-style="normal" font-size="10" fill="#999999">03/2015 to Current</tspan></text></g><g transform="matrix(1,0,0,1,100,0)" clip-path="url(#clip4)"><text><tspan x="0" y="16.587999344" font-family="Georgia" font-weight="bold" font-style="normal" font-size="11" fill="#003300">Senior Sales Associate</tspan><tspan x="126.172996521" y="16.587999344" font-family="Georgia" font-weight="normal" font-style="normal" font-size="11" fill="#000000"> </tspan></text><g transform="matrix(1,0,0,1,0,19)"><text><tspan x="0" y="16.587999344" font-family="Georgia" font-weight="bold" font-style="italic" font-size="11" fill="#000000">Bed Bath &amp; Beyond, Inc.</tspan><tspan x="138.73500061" y="16.587999344" font-family="Georgia" font-weight="normal" font-style="normal" font-size="11" fill="#000000"> – </tspan><tspan x="151.115005493" y="16.587999344" font-family="Georgia" font-weight="normal" font-style="italic" font-size="11" fill="#000000">San Francisco</tspan><tspan x="221.083999634" y="16.587999344" font-family="Georgia" font-weight="normal" font-style="normal" font-size="11" fill="#000000">, </tspan><tspan x="226.70199585" y="16.587999344" font-family="Georgia" font-weight="normal" font-style="italic" font-size="11" fill="#000000">CA</tspan></text></g><g transform="matrix(1,0,0,1,12.949999809,38)"><text><tspan x="-0.5" y="15.837999344" font-family="Symbol" font-weight="normal" font-style="normal" font-size="8.25" fill="#000000">●</tspan><tspan x="10.050000191" y="16.587999344" font-family="Georgia" font-weight="normal" font-style="normal" font-size="11" fill="#000000">Applied security and loss prevention training toward recognizing risks and </tspan><tspan x="10.050000191" y="35.587997437" font-family="Georgia" font-weight="normal" font-style="normal" font-size="11" fill="#000000">reducing store theft</tspan></text></g><g transform="matrix(1,0,0,1,12.949999809,76)"><text><tspan x="-0.5" y="15.837999344" font-family="Symbol" font-weight="normal" font-style="normal" font-size="8.25" fill="#000000">●</tspan><tspan x="10.050000191" y="16.587999344" font-family="Georgia" font-weight="normal" font-style="normal" font-size="11" fill="#000000">Trained and developed sales team associates in products, selling techniques and </tspan><tspan x="10.050000191" y="35.587997437" font-family="Georgia" font-weight="normal" font-style="normal" font-size="11" fill="#000000">procedures</tspan></text></g><g transform="matrix(1,0,0,1,12.949999809,114)"><text><tspan x="-0.5" y="15.837999344" font-family="Symbol" font-weight="normal" font-style="normal" font-size="8.25" fill="#000000">●</tspan><tspan x="10.050000191" y="16.587999344" font-family="Georgia" font-weight="normal" font-style="normal" font-size="11" fill="#000000">Maintained organized, presentable merchandise to drive continuous sales</tspan></text></g><g transform="matrix(1,0,0,1,12.949999809,133)"><text><tspan x="-0.5" y="15.837999344" font-family="Symbol" font-weight="normal" font-style="normal" font-size="8.25" fill="#000000">●</tspan><tspan x="10.050000191" y="16.587999344" font-family="Georgia" font-weight="normal" font-style="normal" font-size="11" fill="#000000">Implemented up-selling strategies for recommending accessories and </tspan><tspan x="10.050000191" y="35.587997437" font-family="Georgia" font-weight="normal" font-style="normal" font-size="11" fill="#000000">complementary purchases</tspan></text></g></g></g><g transform="matrix(1,0,0,1,0,474.5)"><g transform="matrix(1,0,0,1,0,0)" clip-path="url(#clip5)"><g transform="matrix(1,0,0,1,0,10)"><text><tspan x="0" y="16.808000565" font-family="Georgia" font-weight="normal" font-style="normal" font-size="10" fill="#999999">06/2013 to 03/2015</tspan></text></g></g><g transform="matrix(1,0,0,1,100,0)" clip-path="url(#clip6)"><g transform="matrix(1,0,0,1,0,10)"><text><tspan x="0" y="16.587999344" font-family="Georgia" font-weight="bold" font-style="normal" font-size="11" fill="#003300">Sales Associate</tspan><tspan x="85.761001587" y="16.587999344" font-family="Georgia" font-weight="normal" font-style="normal" font-size="11" fill="#000000"> </tspan></text></g><g transform="matrix(1,0,0,1,0,29)"><text><tspan x="0" y="16.587999344" font-family="Georgia" font-weight="bold" font-style="italic" font-size="11" fill="#000000">Target</tspan><tspan x="38.51599884" y="16.587999344" font-family="Georgia" font-weight="normal" font-style="normal" font-size="11" fill="#000000"> – </tspan><tspan x="50.895999908" y="16.587999344" font-family="Georgia" font-weight="normal" font-style="italic" font-size="11" fill="#000000">San Francisco</tspan><tspan x="120.864997864" y="16.587999344" font-family="Georgia" font-weight="normal" font-style="normal" font-size="11" fill="#000000">, </tspan><tspan x="126.483001709" y="16.587999344" font-family="Georgia" font-weight="normal" font-style="italic" font-size="11" fill="#000000">CA</tspan></text></g><g transform="matrix(1,0,0,1,12.949999809,48)"><text><tspan x="-0.5" y="15.837999344" font-family="Symbol" font-weight="normal" font-style="normal" font-size="8.25" fill="#000000">●</tspan><tspan x="10.050000191" y="16.587999344" font-family="Georgia" font-weight="normal" font-style="normal" font-size="11" fill="#000000">Maintained organized, presentable merchandise to drive continuous sales</tspan></text></g><g transform="matrix(1,0,0,1,12.949999809,67)"><text><tspan x="-0.5" y="15.837999344" font-family="Symbol" font-weight="normal" font-style="normal" font-size="8.25" fill="#000000">●</tspan><tspan x="10.050000191" y="16.587999344" font-family="Georgia" font-weight="normal" font-style="normal" font-size="11" fill="#000000">Organized racks and shelves to maintain store visual appeal, engage customers and </tspan><tspan x="10.050000191" y="35.587997437" font-family="Georgia" font-weight="normal" font-style="normal" font-size="11" fill="#000000">promote merchandise</tspan></text></g><g transform="matrix(1,0,0,1,12.949999809,105)"><text><tspan x="-0.5" y="15.837999344" font-family="Symbol" font-weight="normal" font-style="normal" font-size="8.25" fill="#000000">●</tspan><tspan x="10.050000191" y="16.587999344" font-family="Georgia" font-weight="normal" font-style="normal" font-size="11" fill="#000000">Evaluated inventory and delivery needs, optimizing strategies to meet customer </tspan><tspan x="10.050000191" y="35.587997437" font-family="Georgia" font-weight="normal" font-style="normal" font-size="11" fill="#000000">demands</tspan></text></g><g transform="matrix(1,0,0,1,12.949999809,143)"><text><tspan x="-0.5" y="15.837999344" font-family="Symbol" font-weight="normal" font-style="normal" font-size="8.25" fill="#000000">●</tspan><tspan x="10.050000191" y="16.587999344" font-family="Georgia" font-weight="normal" font-style="normal" font-size="11" fill="#000000">Analyzed and processed returns, assisting customers with finding alternative </tspan><tspan x="10.050000191" y="35.587997437" font-family="Georgia" font-weight="normal" font-style="normal" font-size="11" fill="#000000">merchandise to meet needs</tspan></text></g></g></g><g transform="matrix(1,0,0,1,0,655.5)"><text><tspan x="0" y="26.149999619" font-family="Georgia" font-weight="bold" font-style="normal" font-size="13" fill="#003300">E</tspan><tspan x="9.375" y="26.149999619" font-family="Georgia" font-weight="bold" font-style="normal" font-size="10.5" fill="#003300">DUCATION</tspan></text></g><path d="M-1.450000048,661 L529.450012207,661 " stroke-width="1" stroke-miterlimit="10" stroke="#003300" stroke-dashoffset="0" stroke-dasharray="1 1" fill="none" fill-rule="evenodd"></path><g transform="matrix(1,0,0,1,0,689.5)"><g transform="matrix(1,0,0,1,0,0)" clip-path="url(#clip7)"><text><tspan x="0" y="16.808000565" font-family="Georgia" font-weight="normal" font-style="normal" font-size="10" fill="#999999">2013</tspan></text></g><g transform="matrix(1,0,0,1,100,0)" clip-path="url(#clip8)"><text><tspan x="0" y="16.587999344" font-family="Georgia" font-weight="bold" font-style="normal" font-size="11" fill="#003300">Bachelor of Arts</tspan><tspan x="91.96900177" y="16.587999344" font-family="Georgia" font-weight="normal" font-style="normal" font-size="11" fill="#000000">: </tspan><tspan x="98.059997559" y="16.587999344" font-family="Georgia" font-weight="bold" font-style="normal" font-size="11" fill="#003300">Business Administration</tspan><tspan x="238.615997314" y="16.587999344" font-family="Georgia" font-weight="normal" font-style="normal" font-size="11" fill="#000000"> </tspan></text><g transform="matrix(1,0,0,1,0,19)"><text><tspan x="0" y="16.587999344" font-family="Georgia" font-weight="bold" font-style="italic" font-size="11" fill="#000000">San Francisco State University</tspan><tspan x="177.927993774" y="16.587999344" font-family="Georgia" font-weight="normal" font-style="normal" font-size="11" fill="#000000"> - </tspan><tspan x="187.348007202" y="16.587999344" font-family="Georgia" font-weight="normal" font-style="italic" font-size="11" fill="#000000">San Francisco</tspan><tspan x="257.316986084" y="16.587999344" font-family="Georgia" font-weight="normal" font-style="normal" font-size="11" fill="#000000">, </tspan><tspan x="262.934997559" y="16.587999344" font-family="Georgia" font-weight="normal" font-style="italic" font-size="11" fill="#000000">CA</tspan></text></g></g></g></g></g></g></svg>