<?xml version="1.0" encoding="utf-8" standalone="yes"?><svg xmlns="http://www.w3.org/2000/svg" xmlns:xlink="http://www.w3.org/1999/xlink" version="1.1" width="816" height="1056"><!--Generated by Aspose.Words for .NET 18.5--><defs><clipPath id="clip1"><path d="M-1,-1 L151,-1 L151,64.5 L-1,64.5 Z" clip-rule="evenodd"></path></clipPath><clipPath id="clip2"><path d="M-1,-1 L195,-1 L195,49.5 L-1,49.5 Z" clip-rule="evenodd"></path></clipPath><clipPath id="clip3"><path d="M-0.5,-1 L195,-1 L195,49.5 L-0.5,49.5 Z" clip-rule="evenodd"></path></clipPath><clipPath id="clip4"><path d="M-1,-1 L151,-1 L151,145 L-1,145 Z" clip-rule="evenodd"></path></clipPath><clipPath id="clip5"><path d="M-1,-1 L389,-1 L389,145 L-1,145 Z" clip-rule="evenodd"></path></clipPath><clipPath id="clip6"><path d="M-1,-1 L151,-1 L151,155 L-1,155 Z" clip-rule="evenodd"></path></clipPath><clipPath id="clip7"><path d="M-1,-1 L389,-1 L389,155 L-1,155 Z" clip-rule="evenodd"></path></clipPath><clipPath id="clip8"><path d="M-1,-1 L151,-1 L151,33 L-1,33 Z" clip-rule="evenodd"></path></clipPath><clipPath id="clip9"><path d="M-1,-1 L389,-1 L389,33 L-1,33 Z" clip-rule="evenodd"></path></clipPath><style type="text/css">svg{background:white}@font-face{font-family:'Century Gothic';font-weight:normal;font-style:normal;src:local('Century Gothic'),url('https://content.livecareer.com/zty/fonts/CenturyGothic.ttf') format('truetype')}@font-face{font-family:'Century Gothic';font-weight:bold;font-style:normal;src:local('Century Gothic Bold'),url('https://content.livecareer.com/zty/fonts/CenturyGothicBold.ttf') format('truetype')}@font-face{font-family:'Century Gothic';font-weight:bold;font-style:italic;src:local('Century Gothic Bold Italic'),url('https://content.livecareer.com/zty/fonts/CenturyGothicBoldItalic.ttf') format('truetype')}@font-face{font-family:'Century Gothic';font-weight:normal;font-style:italic;src:local('Century Gothic Italic'),url('https://content.livecareer.com/zty/fonts/CenturyGothicItalic.ttf') format('truetype')}</style></defs><g transform="scale(1.33333)"><g><path d="M0,0 L600,0 L600,450 L0,450 Z" fill="#ffffff" fill-rule="evenodd"></path><g transform="matrix(1,0,0,1,600,0)"><path d="M0,0 L600,0 L600,450 L0,450 Z" fill="#ffffff" fill-rule="evenodd"></path></g><g transform="matrix(1,0,0,1,0,450)"><path d="M0,0 L600,0 L600,450 L0,450 Z" fill="#ffffff" fill-rule="evenodd"></path></g><g transform="matrix(1,0,0,1,600,450)"><path d="M0,0 L600,0 L600,450 L0,450 Z" fill="#ffffff" fill-rule="evenodd"></path></g><g transform="matrix(1,0,0,1,37,37)"><text><tspan x="160.852005005" y="42.613998413" font-family="Century Gothic" font-weight="bold" font-style="normal" font-size="29" fill="#616261">JESSICA CLAIRE</tspan></text><g transform="matrix(1,0,0,1,0,49)"><text><tspan x="68.430000305" y="21.075000763" font-family="Century Gothic" font-weight="normal" font-style="normal" font-size="11" fill="#616261">(555) 432-1000 </tspan><tspan x="147.255996704" y="21.075000763" font-family="Times New Roman" font-weight="normal" font-style="normal" font-size="14" fill="#44b3e6"> </tspan><tspan x="150.255996704" y="20.325000763" font-family="Symbol" font-weight="normal" font-style="normal" font-size="10.5" fill="#44b3e6">●</tspan><tspan x="157.195007324" y="21.075000763" font-family="Times New Roman" font-weight="normal" font-style="normal" font-size="14" fill="#44b3e6"> </tspan><tspan x="160.695007324" y="21.075000763" font-family="Century Gothic" font-weight="normal" font-style="normal" font-size="11" fill="#616261">resumesample@example.com </tspan><tspan x="325.915008545" y="21.075000763" font-family="Times New Roman" font-weight="normal" font-style="normal" font-size="14" fill="#44b3e6"> </tspan><tspan x="328.915008545" y="20.325000763" font-family="Symbol" font-weight="normal" font-style="normal" font-size="10.5" fill="#44b3e6">●</tspan><tspan x="335.854003906" y="21.075000763" font-family="Times New Roman" font-weight="normal" font-style="normal" font-size="14" fill="#44b3e6"> </tspan><tspan x="339.354003906" y="21.075000763" font-family="Century Gothic" font-weight="normal" font-style="normal" font-size="11" fill="#616261">San Francisco, CA 94105 </tspan></text></g><g transform="matrix(1,0,0,1,0,73.151000977)"><text><tspan x="0" y="29.357000351" font-family="Century Gothic" font-weight="bold" font-style="normal" font-size="12" fill="#616261">PROFESSIONAL SUMMARY</tspan></text></g><g transform="matrix(1,0,0,1,0,110.151000977)"><text><tspan x="0" y="13.578000069" font-family="Century Gothic" font-weight="normal" font-style="normal" font-size="11" fill="#616261">Highly motivated Sales Associate with extensive customer service and sales experience. Outgoing </tspan><tspan x="0" y="29.577999115" font-family="Century Gothic" font-weight="normal" font-style="normal" font-size="11" fill="#616261">sales professional with track record of driving increased sales, improving buying experience and </tspan><tspan x="0" y="45.577999115" font-family="Century Gothic" font-weight="normal" font-style="normal" font-size="11" fill="#616261">elevating company profile with target market.</tspan></text></g><g transform="matrix(1,0,0,1,0,158.151000977)"><g transform="matrix(1,0,0,1,0,0)" clip-path="url(#clip1)"><g transform="matrix(1,0,0,1,0,15)"><text><tspan x="0" y="14.357000351" font-family="Century Gothic" font-weight="bold" font-style="normal" font-size="12" fill="#616261">SKILLS</tspan></text></g></g></g><g transform="matrix(1,0,0,1,150,173.151000977)"><g transform="matrix(1,0,0,1,0,0)" clip-path="url(#clip2)"><g transform="matrix(1,0,0,1,13.199999809,0.25)"><text><tspan x="-0.5" y="12.828000069" font-family="Symbol" font-weight="normal" font-style="normal" font-size="8.25" fill="#616261">●</tspan><tspan x="10.050000191" y="13.578000069" font-family="Century Gothic" font-weight="normal" font-style="normal" font-size="11" fill="#616261">Guest services</tspan></text></g><g transform="matrix(1,0,0,1,13.199999809,16.25)"><text><tspan x="-0.5" y="12.828000069" font-family="Symbol" font-weight="normal" font-style="normal" font-size="8.25" fill="#616261">●</tspan><tspan x="10.050000191" y="13.578000069" font-family="Century Gothic" font-weight="normal" font-style="normal" font-size="11" fill="#616261">Inventory control procedures</tspan></text></g><g transform="matrix(1,0,0,1,13.199999809,32.25)"><text><tspan x="-0.5" y="12.828000069" font-family="Symbol" font-weight="normal" font-style="normal" font-size="8.25" fill="#616261">●</tspan><tspan x="10.050000191" y="13.578000069" font-family="Century Gothic" font-weight="normal" font-style="normal" font-size="11" fill="#616261">Merchandising expertise</tspan></text></g></g><g transform="matrix(1,0,0,1,194,0)" clip-path="url(#clip3)"><g transform="matrix(1,0,0,1,13.449999809,0.25)"><text><tspan x="-0.5" y="12.828000069" font-family="Symbol" font-weight="normal" font-style="normal" font-size="8.25" fill="#616261">●</tspan><tspan x="10.050000191" y="13.578000069" font-family="Century Gothic" font-weight="normal" font-style="normal" font-size="11" fill="#616261">Loss prevention</tspan></text></g><g transform="matrix(1,0,0,1,13.449999809,16.25)"><text><tspan x="-0.5" y="12.828000069" font-family="Symbol" font-weight="normal" font-style="normal" font-size="8.25" fill="#616261">●</tspan><tspan x="10.050000191" y="13.578000069" font-family="Century Gothic" font-weight="normal" font-style="normal" font-size="11" fill="#616261">Cash register operations</tspan></text></g><g transform="matrix(1,0,0,1,13.449999809,32.25)"><text><tspan x="-0.5" y="12.828000069" font-family="Symbol" font-weight="normal" font-style="normal" font-size="8.25" fill="#616261">●</tspan><tspan x="10.050000191" y="13.578000069" font-family="Century Gothic" font-weight="normal" font-style="normal" font-size="11" fill="#616261">Product promotions</tspan></text></g></g><path d="M194,0 L194,48.5 " stroke-width="1" stroke-miterlimit="10" stroke="#fefdfd" fill="none" fill-rule="evenodd"></path></g><g transform="matrix(1,0,0,1,0,221.651000977)"><text><tspan x="0" y="29.357000351" font-family="Century Gothic" font-weight="bold" font-style="normal" font-size="12" fill="#616261">WORK HISTORY</tspan></text></g><g transform="matrix(1,0,0,1,0,258.651000977)"><g transform="matrix(1,0,0,1,0,0)" clip-path="url(#clip4)"><text><tspan x="0" y="13.578000069" font-family="Century Gothic" font-weight="normal" font-style="normal" font-size="11" fill="#999999">Mar 2015 - Current</tspan></text><g transform="matrix(1,0,0,1,0,16)"><text><tspan x="0" y="13.578000069" font-family="Century Gothic" font-weight="normal" font-style="normal" font-size="11" fill="#999999">San Francisco, CA</tspan></text></g></g><g transform="matrix(1,0,0,1,150,0)" clip-path="url(#clip5)"><text><tspan x="0" y="13.578000069" font-family="Century Gothic" font-weight="bold" font-style="normal" font-size="11" fill="#616261">Senior Sales Associate</tspan><tspan x="118.352996826" y="13.578000069" font-family="Century Gothic" font-weight="normal" font-style="normal" font-size="11" fill="#616261"> / Bed Bath &amp; Beyond, Inc. </tspan></text><g transform="matrix(1,0,0,1,12.949999809,16)"><text><tspan x="-0.5" y="12.828000069" font-family="Symbol" font-weight="normal" font-style="normal" font-size="8.25" fill="#616261">●</tspan><tspan x="10.050000191" y="13.578000069" font-family="Century Gothic" font-weight="normal" font-style="normal" font-size="11" fill="#616261">Applied security and loss prevention training toward recognizing risks </tspan><tspan x="10.050000191" y="29.577999115" font-family="Century Gothic" font-weight="normal" font-style="normal" font-size="11" fill="#616261">and reducing store theft</tspan></text></g><g transform="matrix(1,0,0,1,12.949999809,48)"><text><tspan x="-0.5" y="12.828000069" font-family="Symbol" font-weight="normal" font-style="normal" font-size="8.25" fill="#616261">●</tspan><tspan x="10.050000191" y="13.578000069" font-family="Century Gothic" font-weight="normal" font-style="normal" font-size="11" fill="#616261">Trained and developed sales team associates in products, selling </tspan><tspan x="10.050000191" y="29.577999115" font-family="Century Gothic" font-weight="normal" font-style="normal" font-size="11" fill="#616261">techniques and procedures</tspan></text></g><g transform="matrix(1,0,0,1,12.949999809,80)"><text><tspan x="-0.5" y="12.828000069" font-family="Symbol" font-weight="normal" font-style="normal" font-size="8.25" fill="#616261">●</tspan><tspan x="10.050000191" y="13.578000069" font-family="Century Gothic" font-weight="normal" font-style="normal" font-size="11" fill="#616261">Maintained organized, presentable merchandise to drive </tspan><tspan x="10.050000191" y="29.577999115" font-family="Century Gothic" font-weight="normal" font-style="normal" font-size="11" fill="#616261">continuous sales</tspan></text></g><g transform="matrix(1,0,0,1,12.949999809,112)"><text><tspan x="-0.5" y="12.828000069" font-family="Symbol" font-weight="normal" font-style="normal" font-size="8.25" fill="#616261">●</tspan><tspan x="10.050000191" y="13.578000069" font-family="Century Gothic" font-weight="normal" font-style="normal" font-size="11" fill="#616261">Implemented up-selling strategies for recommending accessories </tspan><tspan x="10.050000191" y="29.577999115" font-family="Century Gothic" font-weight="normal" font-style="normal" font-size="11" fill="#616261">and complementary purchases</tspan></text></g></g></g><g transform="matrix(1,0,0,1,0,402.651000977)"><g transform="matrix(1,0,0,1,0,0)" clip-path="url(#clip6)"><g transform="matrix(1,0,0,1,0,10)"><text><tspan x="0" y="13.578000069" font-family="Century Gothic" font-weight="normal" font-style="normal" font-size="11" fill="#999999">Jun 2013 - Mar 2015</tspan></text></g><g transform="matrix(1,0,0,1,0,26)"><text><tspan x="0" y="13.578000069" font-family="Century Gothic" font-weight="normal" font-style="normal" font-size="11" fill="#999999">San Francisco, CA</tspan></text></g></g><g transform="matrix(1,0,0,1,150,0)" clip-path="url(#clip7)"><g transform="matrix(1,0,0,1,0,10)"><text><tspan x="0" y="13.578000069" font-family="Century Gothic" font-weight="bold" font-style="normal" font-size="11" fill="#616261">Sales Associate</tspan><tspan x="82.714996338" y="13.578000069" font-family="Century Gothic" font-weight="normal" font-style="normal" font-size="11" fill="#616261"> / Target </tspan></text></g><g transform="matrix(1,0,0,1,12.949999809,26)"><text><tspan x="-0.5" y="12.828000069" font-family="Symbol" font-weight="normal" font-style="normal" font-size="8.25" fill="#616261">●</tspan><tspan x="10.050000191" y="13.578000069" font-family="Century Gothic" font-weight="normal" font-style="normal" font-size="11" fill="#616261">Maintained organized, presentable merchandise to drive </tspan><tspan x="10.050000191" y="29.577999115" font-family="Century Gothic" font-weight="normal" font-style="normal" font-size="11" fill="#616261">continuous sales</tspan></text></g><g transform="matrix(1,0,0,1,12.949999809,58)"><text><tspan x="-0.5" y="12.828000069" font-family="Symbol" font-weight="normal" font-style="normal" font-size="8.25" fill="#616261">●</tspan><tspan x="10.050000191" y="13.578000069" font-family="Century Gothic" font-weight="normal" font-style="normal" font-size="11" fill="#616261">Organized racks and shelves to maintain store visual appeal, </tspan><tspan x="10.050000191" y="29.577999115" font-family="Century Gothic" font-weight="normal" font-style="normal" font-size="11" fill="#616261">engage customers and promote merchandise</tspan></text></g><g transform="matrix(1,0,0,1,12.949999809,90)"><text><tspan x="-0.5" y="12.828000069" font-family="Symbol" font-weight="normal" font-style="normal" font-size="8.25" fill="#616261">●</tspan><tspan x="10.050000191" y="13.578000069" font-family="Century Gothic" font-weight="normal" font-style="normal" font-size="11" fill="#616261">Evaluated inventory and delivery needs, optimizing strategies to </tspan><tspan x="10.050000191" y="29.577999115" font-family="Century Gothic" font-weight="normal" font-style="normal" font-size="11" fill="#616261">meet customer demands</tspan></text></g><g transform="matrix(1,0,0,1,12.949999809,122)"><text><tspan x="-0.5" y="12.828000069" font-family="Symbol" font-weight="normal" font-style="normal" font-size="8.25" fill="#616261">●</tspan><tspan x="10.050000191" y="13.578000069" font-family="Century Gothic" font-weight="normal" font-style="normal" font-size="11" fill="#616261">Analyzed and processed returns, assisting customers with finding </tspan><tspan x="10.050000191" y="29.577999115" font-family="Century Gothic" font-weight="normal" font-style="normal" font-size="11" fill="#616261">alternative merchandise to meet needs</tspan></text></g></g></g><g transform="matrix(1,0,0,1,0,556.651000977)"><text><tspan x="0" y="29.357000351" font-family="Century Gothic" font-weight="bold" font-style="normal" font-size="12" fill="#616261">EDUCATION</tspan></text></g><g transform="matrix(1,0,0,1,0,593.651000977)"><g transform="matrix(1,0,0,1,0,0)" clip-path="url(#clip8)"><text><tspan x="0" y="13.578000069" font-family="Century Gothic" font-weight="normal" font-style="normal" font-size="11" fill="#999999">2013</tspan></text><g transform="matrix(1,0,0,1,0,16)"><text><tspan x="0" y="13.578000069" font-family="Century Gothic" font-weight="normal" font-style="normal" font-size="11" fill="#999999">San Francisco, CA</tspan></text></g></g><g transform="matrix(1,0,0,1,150,0)" clip-path="url(#clip9)"><text><tspan x="0" y="13.578000069" font-family="Century Gothic" font-weight="bold" font-style="normal" font-size="11" fill="#616261">Bachelor of Arts in Business Administration </tspan></text><g transform="matrix(1,0,0,1,0,16)"><text><tspan x="0" y="13.578000069" font-family="Century Gothic" font-weight="normal" font-style="normal" font-size="11" fill="#616261">San Francisco State University</tspan></text></g></g></g></g></g></g></svg>