<?xml version="1.0" encoding="utf-8" standalone="yes"?><svg xmlns="http://www.w3.org/2000/svg" xmlns:xlink="http://www.w3.org/1999/xlink" version="1.1" width="816" height="1056"><!--Generated by Aspose.Words for .NET 18.5--><defs><clipPath id="clip1"><path d="M-1,-1 L214,-1 L214,217.550003052 L-1,217.550003052 Z" clip-rule="evenodd"></path></clipPath><clipPath id="clip10"><path d="M0,0 L1000,0 L1000,1000 L0,1000 Z" clip-rule="evenodd"></path></clipPath><clipPath id="clip11"><path d="M-1,-1 L171,-1 L171,24.190999985 L-1,24.190999985 Z" clip-rule="evenodd"></path></clipPath><clipPath id="clip12"><path d="M-1,-1 L24,-1 L24,24.190999985 L-1,24.190999985 Z" clip-rule="evenodd"></path></clipPath><clipPath id="clip13"><path d="M0,0 L17.216043472,0 L17.216043472,17.190532684 L0,17.190532684 Z" clip-rule="evenodd"></path></clipPath><clipPath id="clip14"><path d="M0,0 L1000,0 L1000,1000 L0,1000 Z" clip-rule="evenodd"></path></clipPath><clipPath id="clip15"><path d="M-1,-1 L171,-1 L171,24.190999985 L-1,24.190999985 Z" clip-rule="evenodd"></path></clipPath><clipPath id="clip16"><path d="M-1,-1 L214,-1 L214,241 L-1,241 Z" clip-rule="evenodd"></path></clipPath><clipPath id="clip17"><path d="M-1,-1 L400,-1 L400,217.550003052 L-1,217.550003052 Z" clip-rule="evenodd"></path></clipPath><clipPath id="clip18"><path d="M-1,-1 L400,-1 L400,338 L-1,338 Z" clip-rule="evenodd"></path></clipPath><clipPath id="clip2"><path d="M0,0 L35.180610657,0 L35.180610657,0.747401178 L0,0.747401178 Z" clip-rule="evenodd"></path></clipPath><clipPath id="clip3"><path d="M0,0 L1000,0 L1000,1000 L0,1000 Z" clip-rule="evenodd"></path></clipPath><clipPath id="clip4"><path d="M-1,-1 L24,-1 L24,24.190999985 L-1,24.190999985 Z" clip-rule="evenodd"></path></clipPath><clipPath id="clip5"><path d="M0,0 L17.216043472,0 L17.216043472,17.190532684 L0,17.190532684 Z" clip-rule="evenodd"></path></clipPath><clipPath id="clip6"><path d="M0,0 L1000,0 L1000,1000 L0,1000 Z" clip-rule="evenodd"></path></clipPath><clipPath id="clip7"><path d="M-1,-1 L171,-1 L171,24.190999985 L-1,24.190999985 Z" clip-rule="evenodd"></path></clipPath><clipPath id="clip8"><path d="M-1,-1 L24,-1 L24,24.190999985 L-1,24.190999985 Z" clip-rule="evenodd"></path></clipPath><clipPath id="clip9"><path d="M0,0 L17.216043472,0 L17.216043472,17.190532684 L0,17.190532684 Z" clip-rule="evenodd"></path></clipPath><style type="text/css">svg{background:white}</style></defs><g transform="scale(1.33333)"><g><path d="M0,0 L213,0 L213,790 L0,790 Z" fill="#faefef" fill-rule="evenodd"></path><path d="M0,0 L213,0 L213,216.550003052 L0,216.550003052 Z" fill="#f2d8d6" fill-rule="evenodd"></path><g transform="matrix(1,0,0,1,0,0)" clip-path="url(#clip1)"><g transform="matrix(1,0,0,1,30,30)"><text><tspan x="0" y="21.600000381" font-family="Trebuchet MS" font-weight="bold" font-style="normal" font-size="28" fill="#343b30">JESSICA</tspan></text></g><g transform="matrix(1,0,0,1,30,57)"><text><tspan x="0" y="21.600000381" font-family="Trebuchet MS" font-weight="bold" font-style="normal" font-size="28" fill="#343b30">CLAIRE</tspan></text></g><g transform="matrix(1,0,0,1,30,84)"><g transform="matrix(1,0,0,1,0,12.253000259)"><g clip-path="url(#clip2)"><g transform="matrix(0.03518061,0,0,0.000747401,0,0)" clip-path="url(#clip3)"><g><path d="M0,0 L1000,0 L1000,1000 L0,1000 Z" transform="matrix(1,0,0,1,0,0)" fill="#ffffff" fill-rule="evenodd"></path><path d="M0,0 L992.907836914,0 " transform="matrix(1,0,0,47,0,0)" stroke-width="21.276596069" stroke-miterlimit="10" stroke="#595959" fill="none" fill-rule="evenodd"></path></g></g></g></g></g></g><g transform="matrix(1,0,0,1,30,107)"><g transform="matrix(1,0,0,1,0,0)" clip-path="url(#clip4)"><g transform="matrix(1,0,0,1,0,6)"><g clip-path="url(#clip5)"><g transform="matrix(0.017216044,0,0,0.017190533,0,0)" clip-path="url(#clip6)"><g><path d="M0,0 L1000,0 L1000,1000 L0,1000 Z" transform="matrix(1,0,0,1,0,0)" fill="#ffffff" fill-rule="evenodd"></path><path d="M-57.97101593,-57.97101593 L1043.478271484,-57.97101593 L1043.478271484,-57.97101593 L1043.478271484,1043.478271484 L1043.478271484,1043.478271484 L-57.97101593,1043.478271484 Z" transform="matrix(1,0,0,1,0,0)" fill="#e5b0ad" fill-opacity="0.498039216" fill-rule="evenodd"></path><path d="M869.565246582,463.768127441 C869.565246582,686.381835938 686.381835938,869.565246582 463.768127441,869.565246582 L463.768127441,869.565246582 L463.768127441,869.565246582 L463.768127441,869.565246582 C241.154418945,869.565246582 57.97101593,686.381835938 57.97101593,463.768127441 L57.97101593,463.768127441 L57.97101593,463.768127441 L57.97101593,463.768127441 C57.97101593,241.154418945 241.154418945,57.97101593 463.768127441,57.97101593 L463.768127441,57.97101593 L463.768127441,57.97101593 L463.768127441,57.97101593 C686.381835938,57.97101593 869.565246582,241.154418945 869.565246582,463.768127441 " transform="matrix(1,0,0,1,0,0)" fill="#ffffff" fill-rule="evenodd"></path><path d="M869.565246582,463.768127441 C869.565246582,686.381835938 686.381835938,869.565246582 463.768127441,869.565246582 L463.768127441,869.565246582 L463.768127441,869.565246582 L463.768127441,869.565246582 C241.154418945,869.565246582 57.97101593,686.381835938 57.97101593,463.768127441 L57.97101593,463.768127441 L57.97101593,463.768127441 L57.97101593,463.768127441 C57.97101593,241.154418945 241.154418945,57.97101593 463.768127441,57.97101593 L463.768127441,57.97101593 L463.768127441,57.97101593 L463.768127441,57.97101593 C686.381835938,57.97101593 869.565246582,241.154418945 869.565246582,463.768127441 " transform="matrix(1,0,0,1,0,0)" stroke-width="43.478263855" stroke-miterlimit="10" stroke="#ffffff" fill="none" fill-rule="evenodd"></path><text transform="matrix(1,0,0,1,0,0)"><tspan x="320.737121582" y="637.681091309" font-family="Trebuchet MS" font-weight="bold" font-style="normal" font-size="521.739135742" fill="#e5b0ad">@</tspan></text></g></g></g></g></g><g transform="matrix(1,0,0,1,23,0)" clip-path="url(#clip7)"><g transform="matrix(1,0,0,1,0,6)"><text><tspan x="0" y="12.178999901" font-family="Trebuchet MS" font-weight="normal" font-style="normal" font-size="10" fill="#343b30">resumesample@example.com</tspan></text></g></g><g transform="matrix(1,0,0,1,0,23.190999985)"><g transform="matrix(1,0,0,1,0,0)" clip-path="url(#clip8)"><g transform="matrix(1,0,0,1,0,6)"><g clip-path="url(#clip9)"><g transform="matrix(0.017216044,0,0,0.017190533,0,0)" clip-path="url(#clip10)"><g><path d="M0,0 L1000,0 L1000,1000 L0,1000 Z" transform="matrix(1,0,0,1,0,0)" fill="#ffffff" fill-rule="evenodd"></path><path d="M-57.97101593,-57.97101593 L1043.478271484,-57.97101593 L1043.478271484,-57.97101593 L1043.478271484,1043.478271484 L1043.478271484,1043.478271484 L-57.97101593,1043.478271484 Z" transform="matrix(1,0,0,1,0,0)" fill="#e5b0ad" fill-opacity="0.498039216" fill-rule="evenodd"></path><path d="M869.565246582,463.768127441 C869.565246582,686.381835938 686.381835938,869.565246582 463.768127441,869.565246582 L463.768127441,869.565246582 L463.768127441,869.565246582 L463.768127441,869.565246582 C241.154418945,869.565246582 57.97101593,686.381835938 57.97101593,463.768127441 L57.97101593,463.768127441 L57.97101593,463.768127441 L57.97101593,463.768127441 C57.97101593,241.154418945 241.154418945,57.97101593 463.768127441,57.97101593 L463.768127441,57.97101593 L463.768127441,57.97101593 L463.768127441,57.97101593 C686.381835938,57.97101593 869.565246582,241.154418945 869.565246582,463.768127441 " transform="matrix(1,0,0,1,0,0)" fill="#ffffff" fill-rule="evenodd"></path><path d="M869.565246582,463.768127441 C869.565246582,686.381835938 686.381835938,869.565246582 463.768127441,869.565246582 L463.768127441,869.565246582 L463.768127441,869.565246582 L463.768127441,869.565246582 C241.154418945,869.565246582 57.97101593,686.381835938 57.97101593,463.768127441 L57.97101593,463.768127441 L57.97101593,463.768127441 L57.97101593,463.768127441 C57.97101593,241.154418945 241.154418945,57.97101593 463.768127441,57.97101593 L463.768127441,57.97101593 L463.768127441,57.97101593 L463.768127441,57.97101593 C686.381835938,57.97101593 869.565246582,241.154418945 869.565246582,463.768127441 " transform="matrix(1,0,0,1,0,0)" stroke-width="43.478263855" stroke-miterlimit="10" stroke="#ffffff" fill="none" fill-rule="evenodd"></path><text transform="matrix(1,0,0,1,0,0)"><tspan x="367.102600098" y="637.681091309" font-family="Trebuchet MS" font-weight="bold" font-style="normal" font-size="521.739135742" fill="#e5b0ad">h</tspan></text></g></g></g></g></g><g transform="matrix(1,0,0,1,23,0)" clip-path="url(#clip11)"><g transform="matrix(1,0,0,1,0,6)"><text><tspan x="0" y="12.178999901" font-family="Trebuchet MS" font-weight="normal" font-style="normal" font-size="10" fill="#343b30">(555) 432-1000</tspan></text></g></g></g><g transform="matrix(1,0,0,1,0,46.381999969)"><g transform="matrix(1,0,0,1,0,0)" clip-path="url(#clip12)"><g transform="matrix(1,0,0,1,0,6)"><g clip-path="url(#clip13)"><g transform="matrix(0.017216044,0,0,0.017190533,0,0)" clip-path="url(#clip14)"><g><path d="M0,0 L1000,0 L1000,1000 L0,1000 Z" transform="matrix(1,0,0,1,0,0)" fill="#ffffff" fill-rule="evenodd"></path><path d="M-57.97101593,-57.97101593 L1043.478271484,-57.97101593 L1043.478271484,-57.97101593 L1043.478271484,1043.478271484 L1043.478271484,1043.478271484 L-57.97101593,1043.478271484 Z" transform="matrix(1,0,0,1,0,0)" fill="#e5b0ad" fill-opacity="0.498039216" fill-rule="evenodd"></path><path d="M869.565246582,463.768127441 C869.565246582,686.381835938 686.381835938,869.565246582 463.768127441,869.565246582 L463.768127441,869.565246582 L463.768127441,869.565246582 L463.768127441,869.565246582 C241.154418945,869.565246582 57.97101593,686.381835938 57.97101593,463.768127441 L57.97101593,463.768127441 L57.97101593,463.768127441 L57.97101593,463.768127441 C57.97101593,241.154418945 241.154418945,57.97101593 463.768127441,57.97101593 L463.768127441,57.97101593 L463.768127441,57.97101593 L463.768127441,57.97101593 C686.381835938,57.97101593 869.565246582,241.154418945 869.565246582,463.768127441 " transform="matrix(1,0,0,1,0,0)" fill="#ffffff" fill-rule="evenodd"></path><path d="M869.565246582,463.768127441 C869.565246582,686.381835938 686.381835938,869.565246582 463.768127441,869.565246582 L463.768127441,869.565246582 L463.768127441,869.565246582 L463.768127441,869.565246582 C241.154418945,869.565246582 57.97101593,686.381835938 57.97101593,463.768127441 L57.97101593,463.768127441 L57.97101593,463.768127441 L57.97101593,463.768127441 C57.97101593,241.154418945 241.154418945,57.97101593 463.768127441,57.97101593 L463.768127441,57.97101593 L463.768127441,57.97101593 L463.768127441,57.97101593 C686.381835938,57.97101593 869.565246582,241.154418945 869.565246582,463.768127441 " transform="matrix(1,0,0,1,0,0)" stroke-width="43.478263855" stroke-miterlimit="10" stroke="#ffffff" fill="none" fill-rule="evenodd"></path><text transform="matrix(1,0,0,1,0,0)"><tspan x="382.770050049" y="637.681091309" font-family="Trebuchet MS" font-weight="bold" font-style="normal" font-size="521.739135742" fill="#e5b0ad">a</tspan></text></g></g></g></g></g><g transform="matrix(1,0,0,1,23,0)" clip-path="url(#clip15)"><g transform="matrix(1,0,0,1,0,6)"><text><tspan x="0" y="12.178999901" font-family="Trebuchet MS" font-weight="normal" font-style="normal" font-size="10" fill="#343b30">San Francisco, CA 94105</tspan></text></g></g></g></g><g transform="matrix(1,0,0,1,0,216.550003052)"><path d="M0,0 L213,0 L213,240 L0,240 Z" fill="#faefef" fill-rule="evenodd"></path><g transform="matrix(1,0,0,1,0,0)" clip-path="url(#clip16)"><g transform="matrix(1,0,0,1,30,30)"><text><tspan x="0" y="12.333999634" font-family="Trebuchet MS" font-weight="bold" font-style="normal" font-size="12" fill="#343b30">SKILLS</tspan></text></g><g transform="matrix(1,0,0,1,30.399999619,55)"><text><tspan x="-0.5" y="10.027999878" font-family="Symbol" font-weight="normal" font-style="normal" font-size="7.5" fill="#343b30">●</tspan><tspan x="11.600000381" y="10.777999878" font-family="Trebuchet MS" font-weight="normal" font-style="normal" font-size="10" fill="#343b30">Guest services</tspan></text></g><g transform="matrix(1,0,0,1,30.399999619,68)"><text><tspan x="-0.5" y="10.027999878" font-family="Symbol" font-weight="normal" font-style="normal" font-size="7.5" fill="#343b30">●</tspan><tspan x="11.600000381" y="10.777999878" font-family="Trebuchet MS" font-weight="normal" font-style="normal" font-size="10" fill="#343b30">Inventory control procedures</tspan></text></g><g transform="matrix(1,0,0,1,30.399999619,81)"><text><tspan x="-0.5" y="10.027999878" font-family="Symbol" font-weight="normal" font-style="normal" font-size="7.5" fill="#343b30">●</tspan><tspan x="11.600000381" y="10.777999878" font-family="Trebuchet MS" font-weight="normal" font-style="normal" font-size="10" fill="#343b30">Merchandising expertise</tspan></text></g><g transform="matrix(1,0,0,1,30.399999619,94)"><text><tspan x="-0.5" y="10.027999878" font-family="Symbol" font-weight="normal" font-style="normal" font-size="7.5" fill="#343b30">●</tspan><tspan x="11.600000381" y="10.777999878" font-family="Trebuchet MS" font-weight="normal" font-style="normal" font-size="10" fill="#343b30">Loss prevention</tspan></text></g><g transform="matrix(1,0,0,1,30.399999619,107)"><text><tspan x="-0.5" y="10.027999878" font-family="Symbol" font-weight="normal" font-style="normal" font-size="7.5" fill="#343b30">●</tspan><tspan x="11.600000381" y="10.777999878" font-family="Trebuchet MS" font-weight="normal" font-style="normal" font-size="10" fill="#343b30">Cash register operations</tspan></text></g><g transform="matrix(1,0,0,1,30.399999619,120)"><text><tspan x="-0.5" y="10.027999878" font-family="Symbol" font-weight="normal" font-style="normal" font-size="7.5" fill="#343b30">●</tspan><tspan x="11.600000381" y="10.777999878" font-family="Trebuchet MS" font-weight="normal" font-style="normal" font-size="10" fill="#343b30">Product promotions</tspan></text></g><g transform="matrix(1,0,0,1,30,133)"><text><tspan x="0" y="37.333999634" font-family="Trebuchet MS" font-weight="bold" font-style="normal" font-size="12" fill="#343b30">EDUCATION</tspan></text></g><g transform="matrix(1,0,0,1,30,183)"><text><tspan x="0" y="10.777999878" font-family="Trebuchet MS" font-weight="bold" font-style="normal" font-size="10" fill="#343b30">San Francisco State University</tspan><tspan x="141.567993164" y="10.777999878" font-family="Trebuchet MS" font-weight="normal" font-style="normal" font-size="10" fill="#343b30"> </tspan></text></g><g transform="matrix(1,0,0,1,30,196)"><text><tspan x="0" y="10.777999878" font-family="Trebuchet MS" font-weight="normal" font-style="normal" font-size="10" fill="#343b30">San Francisco, CA </tspan><tspan x="82.138999939" y="10.777999878" font-family="Trebuchet MS" font-weight="normal" font-style="normal" font-size="9" fill="#343b30"> • </tspan><tspan x="92.28099823" y="10.777999878" font-family="Trebuchet MS" font-weight="normal" font-style="normal" font-size="10" fill="#343b30"> 2013</tspan></text></g><g transform="matrix(1,0,0,1,30,209)"><text><tspan x="0" y="15.777999878" font-family="Trebuchet MS" font-weight="bold" font-style="italic" font-size="10" fill="#343b30">Bachelor of Arts</tspan><tspan x="76.65599823" y="15.777999878" font-family="Trebuchet MS" font-weight="normal" font-style="normal" font-size="10" fill="#343b30">: Business </tspan><tspan x="0" y="28.777999878" font-family="Trebuchet MS" font-weight="normal" font-style="normal" font-size="10" fill="#343b30">Administration </tspan></text></g></g></g><path d="M213,0 L612,0 L612,790 L213,790 Z" fill="#ffffff" fill-rule="evenodd"></path><g transform="matrix(1,0,0,1,213,0)"><path d="M0,0 L399,0 L399,216.550003052 L0,216.550003052 Z" fill="#fcf7f7" fill-rule="evenodd"></path><g transform="matrix(1,0,0,1,0,0)" clip-path="url(#clip17)"><g transform="matrix(1,0,0,1,36,30)"><text><tspan x="0" y="57.10900116" font-family="Trebuchet MS" font-weight="bold" font-style="normal" font-size="12" fill="#343b30">PROFESSIONAL SUMMARY</tspan></text></g><g transform="matrix(1,0,0,1,36,55)"><text><tspan x="0" y="55.553001404" font-family="Trebuchet MS" font-weight="normal" font-style="normal" font-size="10" fill="#343b30">Highly motivated Sales Associate with extensive customer service and </tspan><tspan x="0" y="68.553001404" font-family="Trebuchet MS" font-weight="normal" font-style="normal" font-size="10" fill="#343b30">sales experience. Outgoing sales professional with track record of </tspan><tspan x="0" y="81.553001404" font-family="Trebuchet MS" font-weight="normal" font-style="normal" font-size="10" fill="#343b30">driving increased sales, improving buying experience and elevating </tspan><tspan x="0" y="94.553001404" font-family="Trebuchet MS" font-weight="normal" font-style="normal" font-size="10" fill="#343b30">company profile with target market.</tspan></text></g></g><g transform="matrix(1,0,0,1,0,216.550003052)"><path d="M0,0 L399,0 L399,337 L0,337 Z" fill="#ffffff" fill-rule="evenodd"></path><g transform="matrix(1,0,0,1,0,0)" clip-path="url(#clip18)"><g transform="matrix(1,0,0,1,36,30)"><text><tspan x="0" y="12.333999634" font-family="Trebuchet MS" font-weight="bold" font-style="normal" font-size="12" fill="#343b30">WORK HISTORY</tspan></text></g><g transform="matrix(1,0,0,1,36,55)"><text><tspan x="0" y="10.777999878" font-family="Trebuchet MS" font-weight="bold" font-style="normal" font-size="10" fill="#343b30">Bed Bath &amp; Beyond, Inc.</tspan><tspan x="113.342002869" y="10.777999878" font-family="Trebuchet MS" font-weight="normal" font-style="normal" font-size="10" fill="#343b30"> - </tspan><tspan x="123.040000916" y="10.777999878" font-family="Trebuchet MS" font-weight="bold" font-style="normal" font-size="10" fill="#343b30">Senior Sales Associate</tspan><tspan x="225.930999756" y="10.777999878" font-family="Trebuchet MS" font-weight="normal" font-style="normal" font-size="10" fill="#343b30"> </tspan><tspan x="0" y="23.777999878" font-family="Trebuchet MS" font-weight="normal" font-style="italic" font-size="10" fill="#343b30">San Francisco</tspan><tspan x="60.35200119" y="23.777999878" font-family="Trebuchet MS" font-weight="normal" font-style="normal" font-size="10" fill="#343b30">, </tspan><tspan x="67.037002563" y="23.777999878" font-family="Trebuchet MS" font-weight="normal" font-style="italic" font-size="10" fill="#343b30">CA</tspan><tspan x="79.126998901" y="23.777999878" font-family="Trebuchet MS" font-weight="normal" font-style="normal" font-size="10" fill="#343b30"> </tspan><tspan x="82.13999939" y="23.777999878" font-family="Trebuchet MS" font-weight="normal" font-style="normal" font-size="9" fill="#343b30"> • </tspan><tspan x="92.281997681" y="23.777999878" font-family="Trebuchet MS" font-weight="normal" font-style="normal" font-size="10" fill="#343b30"> </tspan><tspan x="95.294998169" y="23.777999878" font-family="Trebuchet MS" font-weight="normal" font-style="italic" font-size="10" fill="#343b30">03/2015</tspan><tspan x="132.003997803" y="23.777999878" font-family="Trebuchet MS" font-weight="normal" font-style="normal" font-size="10" fill="#343b30"> - </tspan><tspan x="141.70199585" y="23.777999878" font-family="Trebuchet MS" font-weight="normal" font-style="italic" font-size="10" fill="#343b30">Current</tspan><tspan x="176.613998413" y="23.777999878" font-family="Trebuchet MS" font-weight="normal" font-style="normal" font-size="10" fill="#343b30"> </tspan></text></g><g transform="matrix(1,0,0,1,36.400001526,81)"><text><tspan x="-0.5" y="16.027999878" font-family="Symbol" font-weight="normal" font-style="normal" font-size="7.5" fill="#343b30">●</tspan><tspan x="11.600000381" y="16.777999878" font-family="Trebuchet MS" font-weight="normal" font-style="normal" font-size="10" fill="#343b30">Applied security and loss prevention training toward recognizing risks </tspan><tspan x="11.600000381" y="29.777999878" font-family="Trebuchet MS" font-weight="normal" font-style="normal" font-size="10" fill="#343b30">and reducing store theft</tspan></text></g><g transform="matrix(1,0,0,1,36.400001526,113)"><text><tspan x="-0.5" y="10.027999878" font-family="Symbol" font-weight="normal" font-style="normal" font-size="7.5" fill="#343b30">●</tspan><tspan x="11.600000381" y="10.777999878" font-family="Trebuchet MS" font-weight="normal" font-style="normal" font-size="10" fill="#343b30">Trained and developed sales team associates in products, selling </tspan><tspan x="11.600000381" y="23.777999878" font-family="Trebuchet MS" font-weight="normal" font-style="normal" font-size="10" fill="#343b30">techniques and procedures</tspan></text></g><g transform="matrix(1,0,0,1,36.400001526,139)"><text><tspan x="-0.5" y="10.027999878" font-family="Symbol" font-weight="normal" font-style="normal" font-size="7.5" fill="#343b30">●</tspan><tspan x="11.600000381" y="10.777999878" font-family="Trebuchet MS" font-weight="normal" font-style="normal" font-size="10" fill="#343b30">Maintained organized, presentable merchandise to drive continuous </tspan><tspan x="11.600000381" y="23.777999878" font-family="Trebuchet MS" font-weight="normal" font-style="normal" font-size="10" fill="#343b30">sales</tspan></text></g><g transform="matrix(1,0,0,1,36.400001526,165)"><text><tspan x="-0.5" y="10.027999878" font-family="Symbol" font-weight="normal" font-style="normal" font-size="7.5" fill="#343b30">●</tspan><tspan x="11.600000381" y="10.777999878" font-family="Trebuchet MS" font-weight="normal" font-style="normal" font-size="10" fill="#343b30">Implemented up-selling strategies for recommending accessories and </tspan><tspan x="11.600000381" y="23.777999878" font-family="Trebuchet MS" font-weight="normal" font-style="normal" font-size="10" fill="#343b30">complementary purchases</tspan></text></g><g transform="matrix(1,0,0,1,36,191)"><text><tspan x="0" y="20.777999878" font-family="Trebuchet MS" font-weight="bold" font-style="normal" font-size="10" fill="#343b30">Target</tspan><tspan x="30.448999405" y="20.777999878" font-family="Trebuchet MS" font-weight="normal" font-style="normal" font-size="10" fill="#343b30"> - </tspan><tspan x="40.146999359" y="20.777999878" font-family="Trebuchet MS" font-weight="bold" font-style="normal" font-size="10" fill="#343b30">Sales Associate</tspan><tspan x="110.347000122" y="20.777999878" font-family="Trebuchet MS" font-weight="normal" font-style="normal" font-size="10" fill="#343b30"> </tspan><tspan x="0" y="33.777999878" font-family="Trebuchet MS" font-weight="normal" font-style="italic" font-size="10" fill="#343b30">San Francisco</tspan><tspan x="60.35200119" y="33.777999878" font-family="Trebuchet MS" font-weight="normal" font-style="normal" font-size="10" fill="#343b30">, </tspan><tspan x="67.037002563" y="33.777999878" font-family="Trebuchet MS" font-weight="normal" font-style="italic" font-size="10" fill="#343b30">CA</tspan><tspan x="79.126998901" y="33.777999878" font-family="Trebuchet MS" font-weight="normal" font-style="normal" font-size="10" fill="#343b30"> </tspan><tspan x="82.13999939" y="33.777999878" font-family="Trebuchet MS" font-weight="normal" font-style="normal" font-size="9" fill="#343b30"> • </tspan><tspan x="92.281997681" y="33.777999878" font-family="Trebuchet MS" font-weight="normal" font-style="normal" font-size="10" fill="#343b30"> </tspan><tspan x="95.294998169" y="33.777999878" font-family="Trebuchet MS" font-weight="normal" font-style="italic" font-size="10" fill="#343b30">06/2013</tspan><tspan x="132.003997803" y="33.777999878" font-family="Trebuchet MS" font-weight="normal" font-style="normal" font-size="10" fill="#343b30"> - </tspan><tspan x="141.70199585" y="33.777999878" font-family="Trebuchet MS" font-weight="normal" font-style="italic" font-size="10" fill="#343b30">03/2015</tspan><tspan x="178.410995483" y="33.777999878" font-family="Trebuchet MS" font-weight="normal" font-style="normal" font-size="10" fill="#343b30"> </tspan></text></g><g transform="matrix(1,0,0,1,36.400001526,227)"><text><tspan x="-0.5" y="16.027999878" font-family="Symbol" font-weight="normal" font-style="normal" font-size="7.5" fill="#343b30">●</tspan><tspan x="11.600000381" y="16.777999878" font-family="Trebuchet MS" font-weight="normal" font-style="normal" font-size="10" fill="#343b30">Maintained organized, presentable merchandise to drive continuous </tspan><tspan x="11.600000381" y="29.777999878" font-family="Trebuchet MS" font-weight="normal" font-style="normal" font-size="10" fill="#343b30">sales</tspan></text></g><g transform="matrix(1,0,0,1,36.400001526,259)"><text><tspan x="-0.5" y="10.027999878" font-family="Symbol" font-weight="normal" font-style="normal" font-size="7.5" fill="#343b30">●</tspan><tspan x="11.600000381" y="10.777999878" font-family="Trebuchet MS" font-weight="normal" font-style="normal" font-size="10" fill="#343b30">Organized racks and shelves to maintain store visual appeal, engage </tspan><tspan x="11.600000381" y="23.777999878" font-family="Trebuchet MS" font-weight="normal" font-style="normal" font-size="10" fill="#343b30">customers and promote merchandise</tspan></text></g><g transform="matrix(1,0,0,1,36.400001526,285)"><text><tspan x="-0.5" y="10.027999878" font-family="Symbol" font-weight="normal" font-style="normal" font-size="7.5" fill="#343b30">●</tspan><tspan x="11.600000381" y="10.777999878" font-family="Trebuchet MS" font-weight="normal" font-style="normal" font-size="10" fill="#343b30">Evaluated inventory and delivery needs, optimizing strategies to </tspan><tspan x="11.600000381" y="23.777999878" font-family="Trebuchet MS" font-weight="normal" font-style="normal" font-size="10" fill="#343b30">meet customer demands</tspan></text></g><g transform="matrix(1,0,0,1,36.400001526,311)"><text><tspan x="-0.5" y="10.027999878" font-family="Symbol" font-weight="normal" font-style="normal" font-size="7.5" fill="#343b30">●</tspan><tspan x="11.600000381" y="10.777999878" font-family="Trebuchet MS" font-weight="normal" font-style="normal" font-size="10" fill="#343b30">Analyzed and processed returns, assisting customers with finding </tspan><tspan x="11.600000381" y="23.777999878" font-family="Trebuchet MS" font-weight="normal" font-style="normal" font-size="10" fill="#343b30">alternative merchandise to meet needs</tspan></text></g></g></g></g><g transform="matrix(1,0,0,1,0,790)"><text><tspan x="0" y="0.077" font-family="Times New Roman" font-weight="normal" font-style="normal" font-size="1" fill="#ffffff">.</tspan></text></g></g></g></svg>