<?xml version="1.0" encoding="utf-8" standalone="yes"?><svg xmlns="http://www.w3.org/2000/svg" xmlns:xlink="http://www.w3.org/1999/xlink" version="1.1" width="816" height="1056"><!--Generated by Aspose.Words for .NET 18.5--><defs><clipPath id="clip1"><path d="M-1,-1 L613,-1 L613,70.5 L-1,70.5 Z" clip-rule="evenodd"></path></clipPath><clipPath id="clip2"><path d="M-1,-1 L337,-1 L337,450.25 L-1,450.25 Z" clip-rule="evenodd"></path></clipPath><clipPath id="clip3"><path d="M-1,-1 L187,-1 L187,450.25 L-1,450.25 Z" clip-rule="evenodd"></path></clipPath><clipPath id="clip4"><path d="M-31.125,-0.375 L306.338531494,-0.375 L306.338531494,49.375 L-31.125,49.375 Z" clip-rule="evenodd"></path></clipPath><style type="text/css">svg{background:white}</style></defs><g transform="scale(1.33333)"><g><path d="M0,0 L612,0 L612,69.5 L0,69.5 Z" fill="#c1f6f3" fill-rule="evenodd"></path><g transform="matrix(1,0,0,1,0,0)" clip-path="url(#clip1)"><text><tspan x="0" y="67.277999878" font-family="Trebuchet MS" font-weight="normal" font-style="normal" font-size="10" fill="#4a4a4a"> </tspan></text></g><g transform="matrix(1,0,0,1,0,69.5)"><path d="M0,0 L612,0 L612,24.5 L0,24.5 Z" fill="#ffffff" fill-rule="evenodd"></path></g><g transform="matrix(1,0,0,1,0,94)"><text><tspan x="0" y="11" font-family="Trebuchet MS" font-weight="normal" font-style="normal" font-size="9" fill="#4a4a4a"> </tspan></text></g><g transform="matrix(1,0,0,1,45,107)"><text><tspan x="92.92199707" y="11" font-family="Trebuchet MS" font-weight="normal" font-style="normal" font-size="9" fill="#4a4a4a">resumesample@example.com  |   H: (555) 432-1000  |   C: San Francisco, CA 94105 </tspan></text><g transform="matrix(1,0,0,1,0,13)"><g transform="matrix(1,0,0,1,0,0)" clip-path="url(#clip2)"><g transform="matrix(1,0,0,1,0.25,20)"><text><tspan x="0" y="32.777999878" font-family="Trebuchet MS" font-weight="bold" font-style="italic" font-size="10" fill="#3ee2db">PROFESSIONAL SUMMARY</tspan></text></g><g transform="matrix(1,0,0,1,0.25,65)"><text><tspan x="0" y="10.777999878" font-family="Trebuchet MS" font-weight="normal" font-style="normal" font-size="10" fill="#4a4a4a">Highly motivated Sales Associate with extensive customer service and </tspan><tspan x="0" y="23.777999878" font-family="Trebuchet MS" font-weight="normal" font-style="normal" font-size="10" fill="#4a4a4a">sales experience. Outgoing sales professional with track record of </tspan><tspan x="0" y="36.777999878" font-family="Trebuchet MS" font-weight="normal" font-style="normal" font-size="10" fill="#4a4a4a">driving increased sales, improving buying experience and elevating </tspan><tspan x="0" y="49.777999878" font-family="Trebuchet MS" font-weight="normal" font-style="normal" font-size="10" fill="#4a4a4a">company profile with target market.</tspan></text></g><g transform="matrix(1,0,0,1,0.25,117)"><text><tspan x="0" y="32.777999878" font-family="Trebuchet MS" font-weight="bold" font-style="italic" font-size="10" fill="#3ee2db">WORK HISTORY</tspan></text></g><g transform="matrix(1,0,0,1,0.25,162)"><text><tspan x="0" y="10.777999878" font-family="Trebuchet MS" font-weight="bold" font-style="normal" font-size="10" fill="#4a4a4a">Bed Bath &amp; Beyond, Inc.</tspan><tspan x="113.342002869" y="10.777999878" font-family="Trebuchet MS" font-weight="normal" font-style="normal" font-size="10" fill="#4a4a4a">. San Francisco, CA </tspan></text></g><g transform="matrix(1,0,0,1,0.25,175)"><text><tspan x="0" y="10.777999878" font-family="Trebuchet MS" font-weight="normal" font-style="italic" font-size="10" fill="#4a4a4a">Senior Sales Associate  |   03/2015 - Current</tspan></text></g><g transform="matrix(1,0,0,1,0.649999976,188)"><text><tspan x="-0.5" y="16.027999878" font-family="Symbol" font-weight="normal" font-style="normal" font-size="7.5" fill="#4a4a4a">●</tspan><tspan x="11.600000381" y="16.777999878" font-family="Trebuchet MS" font-weight="normal" font-style="normal" font-size="10" fill="#4a4a4a">Applied security and loss prevention training toward recognizing </tspan><tspan x="11.600000381" y="29.777999878" font-family="Trebuchet MS" font-weight="normal" font-style="normal" font-size="10" fill="#4a4a4a">risks and reducing store theft</tspan></text></g><g transform="matrix(1,0,0,1,0.649999976,220)"><text><tspan x="-0.5" y="10.027999878" font-family="Symbol" font-weight="normal" font-style="normal" font-size="7.5" fill="#4a4a4a">●</tspan><tspan x="11.600000381" y="10.777999878" font-family="Trebuchet MS" font-weight="normal" font-style="normal" font-size="10" fill="#4a4a4a">Trained and developed sales team associates in products, selling </tspan><tspan x="11.600000381" y="23.777999878" font-family="Trebuchet MS" font-weight="normal" font-style="normal" font-size="10" fill="#4a4a4a">techniques and procedures</tspan></text></g><g transform="matrix(1,0,0,1,0.649999976,246)"><text><tspan x="-0.5" y="10.027999878" font-family="Symbol" font-weight="normal" font-style="normal" font-size="7.5" fill="#4a4a4a">●</tspan><tspan x="11.600000381" y="10.777999878" font-family="Trebuchet MS" font-weight="normal" font-style="normal" font-size="10" fill="#4a4a4a">Maintained organized, presentable merchandise to drive </tspan><tspan x="11.600000381" y="23.777999878" font-family="Trebuchet MS" font-weight="normal" font-style="normal" font-size="10" fill="#4a4a4a">continuous sales</tspan></text></g><g transform="matrix(1,0,0,1,0.649999976,272)"><text><tspan x="-0.5" y="10.027999878" font-family="Symbol" font-weight="normal" font-style="normal" font-size="7.5" fill="#4a4a4a">●</tspan><tspan x="11.600000381" y="10.777999878" font-family="Trebuchet MS" font-weight="normal" font-style="normal" font-size="10" fill="#4a4a4a">Implemented up-selling strategies for recommending accessories </tspan><tspan x="11.600000381" y="23.777999878" font-family="Trebuchet MS" font-weight="normal" font-style="normal" font-size="10" fill="#4a4a4a">and complementary purchases</tspan></text></g><g transform="matrix(1,0,0,1,0.25,298)"><text><tspan x="0" y="25.777999878" font-family="Trebuchet MS" font-weight="bold" font-style="normal" font-size="10" fill="#4a4a4a">Target</tspan><tspan x="30.448999405" y="25.777999878" font-family="Trebuchet MS" font-weight="normal" font-style="normal" font-size="10" fill="#4a4a4a">. San Francisco, CA </tspan></text></g><g transform="matrix(1,0,0,1,0.25,326)"><text><tspan x="0" y="10.777999878" font-family="Trebuchet MS" font-weight="normal" font-style="italic" font-size="10" fill="#4a4a4a">Sales Associate  |   06/2013 - 03/2015</tspan></text></g><g transform="matrix(1,0,0,1,0.649999976,339)"><text><tspan x="-0.5" y="16.027999878" font-family="Symbol" font-weight="normal" font-style="normal" font-size="7.5" fill="#4a4a4a">●</tspan><tspan x="11.600000381" y="16.777999878" font-family="Trebuchet MS" font-weight="normal" font-style="normal" font-size="10" fill="#4a4a4a">Maintained organized, presentable merchandise to drive </tspan><tspan x="11.600000381" y="29.777999878" font-family="Trebuchet MS" font-weight="normal" font-style="normal" font-size="10" fill="#4a4a4a">continuous sales</tspan></text></g><g transform="matrix(1,0,0,1,0.649999976,371)"><text><tspan x="-0.5" y="10.027999878" font-family="Symbol" font-weight="normal" font-style="normal" font-size="7.5" fill="#4a4a4a">●</tspan><tspan x="11.600000381" y="10.777999878" font-family="Trebuchet MS" font-weight="normal" font-style="normal" font-size="10" fill="#4a4a4a">Organized racks and shelves to maintain store visual appeal, </tspan><tspan x="11.600000381" y="23.777999878" font-family="Trebuchet MS" font-weight="normal" font-style="normal" font-size="10" fill="#4a4a4a">engage customers and promote merchandise</tspan></text></g><g transform="matrix(1,0,0,1,0.649999976,397)"><text><tspan x="-0.5" y="10.027999878" font-family="Symbol" font-weight="normal" font-style="normal" font-size="7.5" fill="#4a4a4a">●</tspan><tspan x="11.600000381" y="10.777999878" font-family="Trebuchet MS" font-weight="normal" font-style="normal" font-size="10" fill="#4a4a4a">Evaluated inventory and delivery needs, optimizing strategies to </tspan><tspan x="11.600000381" y="23.777999878" font-family="Trebuchet MS" font-weight="normal" font-style="normal" font-size="10" fill="#4a4a4a">meet customer demands</tspan></text></g><g transform="matrix(1,0,0,1,0.649999976,423)"><text><tspan x="-0.5" y="10.027999878" font-family="Symbol" font-weight="normal" font-style="normal" font-size="7.5" fill="#4a4a4a">●</tspan><tspan x="11.600000381" y="10.777999878" font-family="Trebuchet MS" font-weight="normal" font-style="normal" font-size="10" fill="#4a4a4a">Analyzed and processed returns, assisting customers with finding </tspan><tspan x="11.600000381" y="23.777999878" font-family="Trebuchet MS" font-weight="normal" font-style="normal" font-size="10" fill="#4a4a4a">alternative merchandise to meet needs</tspan></text></g></g><g transform="matrix(1,0,0,1,336,0)" clip-path="url(#clip3)"><g transform="matrix(1,0,0,1,10.25,20)"><text><tspan x="0" y="32.777999878" font-family="Trebuchet MS" font-weight="bold" font-style="italic" font-size="10" fill="#3ee2db">SKILLS</tspan></text></g><g transform="matrix(1,0,0,1,10.649999619,65)"><text><tspan x="-0.5" y="10.027999878" font-family="Symbol" font-weight="normal" font-style="normal" font-size="7.5" fill="#4a4a4a">●</tspan><tspan x="11.600000381" y="10.777999878" font-family="Trebuchet MS" font-weight="normal" font-style="normal" font-size="10" fill="#4a4a4a">Guest services</tspan></text></g><g transform="matrix(1,0,0,1,10.649999619,78)"><text><tspan x="-0.5" y="10.027999878" font-family="Symbol" font-weight="normal" font-style="normal" font-size="7.5" fill="#4a4a4a">●</tspan><tspan x="11.600000381" y="10.777999878" font-family="Trebuchet MS" font-weight="normal" font-style="normal" font-size="10" fill="#4a4a4a">Inventory control procedures</tspan></text></g><g transform="matrix(1,0,0,1,10.649999619,91)"><text><tspan x="-0.5" y="10.027999878" font-family="Symbol" font-weight="normal" font-style="normal" font-size="7.5" fill="#4a4a4a">●</tspan><tspan x="11.600000381" y="10.777999878" font-family="Trebuchet MS" font-weight="normal" font-style="normal" font-size="10" fill="#4a4a4a">Merchandising expertise</tspan></text></g><g transform="matrix(1,0,0,1,10.649999619,104)"><text><tspan x="-0.5" y="10.027999878" font-family="Symbol" font-weight="normal" font-style="normal" font-size="7.5" fill="#4a4a4a">●</tspan><tspan x="11.600000381" y="10.777999878" font-family="Trebuchet MS" font-weight="normal" font-style="normal" font-size="10" fill="#4a4a4a">Loss prevention</tspan></text></g><g transform="matrix(1,0,0,1,10.649999619,117)"><text><tspan x="-0.5" y="10.027999878" font-family="Symbol" font-weight="normal" font-style="normal" font-size="7.5" fill="#4a4a4a">●</tspan><tspan x="11.600000381" y="10.777999878" font-family="Trebuchet MS" font-weight="normal" font-style="normal" font-size="10" fill="#4a4a4a">Cash register operations</tspan></text></g><g transform="matrix(1,0,0,1,10.649999619,130)"><text><tspan x="-0.5" y="10.027999878" font-family="Symbol" font-weight="normal" font-style="normal" font-size="7.5" fill="#4a4a4a">●</tspan><tspan x="11.600000381" y="10.777999878" font-family="Trebuchet MS" font-weight="normal" font-style="normal" font-size="10" fill="#4a4a4a">Product promotions</tspan></text></g><g transform="matrix(1,0,0,1,10.25,143)"><text><tspan x="0" y="32.777999878" font-family="Trebuchet MS" font-weight="bold" font-style="italic" font-size="10" fill="#3ee2db">EDUCATION</tspan></text></g><g transform="matrix(1,0,0,1,10.25,188)"><text><tspan x="0" y="10.777999878" font-family="Trebuchet MS" font-weight="bold" font-style="normal" font-size="10" fill="#4a4a4a">San Francisco State University</tspan><tspan x="141.567993164" y="10.777999878" font-family="Trebuchet MS" font-weight="normal" font-style="normal" font-size="10" fill="#4a4a4a"> </tspan></text></g><g transform="matrix(1,0,0,1,10.25,201)"><text><tspan x="0" y="10.777999878" font-family="Trebuchet MS" font-weight="normal" font-style="normal" font-size="10" fill="#4a4a4a">San Francisco, CA</tspan></text></g><g transform="matrix(1,0,0,1,10.25,214)"><text><tspan x="0" y="10.777999878" font-family="Trebuchet MS" font-weight="normal" font-style="normal" font-size="10" fill="#4a4a4a">2013</tspan></text></g><g transform="matrix(1,0,0,1,10.25,227)"><text><tspan x="0" y="15.777999878" font-family="Trebuchet MS" font-weight="bold" font-style="normal" font-size="10" fill="#4a4a4a">Bachelor of Arts</tspan><tspan x="75.209999084" y="15.777999878" font-family="Trebuchet MS" font-weight="normal" font-style="normal" font-size="10" fill="#4a4a4a">: Business </tspan><tspan x="0" y="28.777999878" font-family="Trebuchet MS" font-weight="normal" font-style="normal" font-size="10" fill="#4a4a4a">Administration </tspan></text></g></g></g></g><g transform="matrix(1,0,0,1,168.018005371,45)"><path d="M0,0 L275.963531494,0 L275.963531494,49 L0,49 Z" stroke-width="0.75" stroke-miterlimit="10" stroke="#505050" fill="none" fill-rule="evenodd"></path><g transform="matrix(1,0,0,1,0.375,3.974999666)" clip-path="url(#clip4)"><text><tspan x="33.090999603" y="32.89099884" font-family="Trebuchet MS" font-weight="bold" font-style="italic" font-size="32" fill="#4a4a4a">Jessica Claire</tspan></text></g></g></g></g></svg>