<?xml version="1.0" encoding="utf-8" standalone="yes"?><svg xmlns="http://www.w3.org/2000/svg" xmlns:xlink="http://www.w3.org/1999/xlink" version="1.1" width="816" height="1056"><!--Generated by Aspose.Words for .NET 18.5--><defs><clipPath id="clip1"><path d="M-1,-1 L563,-1 L563,87.268997192 L-1,87.268997192 Z" clip-rule="evenodd"></path></clipPath><clipPath id="clip2"><path d="M-1,-1 L301,-1 L301,457.5 L-1,457.5 Z" clip-rule="evenodd"></path></clipPath><clipPath id="clip3"><path d="M-1,-1 L183,-1 L183,457.5 L-1,457.5 Z" clip-rule="evenodd"></path></clipPath><style type="text/css">svg{background:white}@font-face{font-family:'Century Gothic';font-weight:normal;font-style:normal;src:local('Century Gothic'),url('https://content.livecareer.com/zty/fonts/CenturyGothic.ttf') format('truetype')}@font-face{font-family:'Century Gothic';font-weight:bold;font-style:normal;src:local('Century Gothic Bold'),url('https://content.livecareer.com/zty/fonts/CenturyGothicBold.ttf') format('truetype')}@font-face{font-family:'Century Gothic';font-weight:bold;font-style:italic;src:local('Century Gothic Bold Italic'),url('https://content.livecareer.com/zty/fonts/CenturyGothicBoldItalic.ttf') format('truetype')}@font-face{font-family:'Century Gothic';font-weight:normal;font-style:italic;src:local('Century Gothic Italic'),url('https://content.livecareer.com/zty/fonts/CenturyGothicItalic.ttf') format('truetype')}</style></defs><g transform="scale(1.33333)"><g><g transform="matrix(1,0,0,1,25,0)"><path d="M0,0 L562,0 L562,86.268997192 L0,86.268997192 Z" fill="#edf2f6" fill-rule="evenodd"></path><g transform="matrix(1,0,0,1,0,0)" clip-path="url(#clip1)"><g transform="matrix(1,0,0,1,15,0)"><text><tspan x="0" y="37.216999054" font-family="Century Gothic" font-weight="bold" font-style="normal" font-size="37" fill="#5f717d"> </tspan></text></g><g transform="matrix(1,0,0,1,15,45.365001678)"><text><tspan x="0" y="29.833999634" font-family="Century Gothic" font-weight="normal" font-style="normal" font-size="28" fill="#5f717d">JC </tspan><tspan x="44.009998322" y="29.833999634" font-family="Century Gothic" font-weight="bold" font-style="normal" font-size="28" fill="#5f717d"> </tspan><tspan x="51.84400177" y="29.833999634" font-family="Century Gothic" font-weight="normal" font-style="normal" font-size="28" fill="#5f717d">/</tspan><tspan x="64.080001831" y="29.833999634" font-family="Century Gothic" font-weight="bold" font-style="normal" font-size="28" fill="#5f717d"> JESSICA CLAIRE </tspan></text></g><g transform="matrix(1,0,0,1,15,81.364997864)"><text><tspan x="0" y="4.022999763" font-family="Century Gothic" font-weight="bold" font-style="normal" font-size="4" fill="#5f717d"> </tspan></text></g></g><g transform="matrix(1,0,0,1,15,86.268997192)"><text><tspan x="0" y="13.017999649" font-family="Century Gothic" font-weight="bold" font-style="normal" font-size="9" fill="#4a4a4a">E: </tspan><tspan x="9.715999603" y="13.017999649" font-family="Century Gothic" font-weight="normal" font-style="normal" font-size="9" fill="#4a4a4a">resumesample@example.com | (555) 432-1000 | </tspan><tspan x="226.468994141" y="13.017999649" font-family="Century Gothic" font-weight="bold" font-style="normal" font-size="9" fill="#4a4a4a">A: </tspan><tspan x="238.162994385" y="13.017999649" font-family="Century Gothic" font-weight="normal" font-style="normal" font-size="9" fill="#4a4a4a">San Francisco, CA 94105</tspan></text></g></g><g transform="matrix(1,0,0,1,25,136.268997192)"><g transform="matrix(1,0,0,1,15,0)" clip-path="url(#clip2)"><g transform="matrix(1,0,0,1,0.25,0.25)"><text><tspan x="0" y="26.017999649" font-family="Century Gothic" font-weight="bold" font-style="normal" font-size="9" fill="#4a4a4a">PROFESSIONAL SUMMARY</tspan></text></g><path d="M-1.200000048,0.75 L301.199981689,0.75 " stroke-width="1" stroke-miterlimit="10" stroke="#d9dde0" fill="none" fill-rule="evenodd"></path><g transform="matrix(1,0,0,1,0.25,38.25)"><text><tspan x="0" y="11.017999649" font-family="Century Gothic" font-weight="normal" font-style="normal" font-size="9" fill="#4a4a4a">Highly motivated Sales Associate with extensive customer service </tspan><tspan x="0" y="24.017999649" font-family="Century Gothic" font-weight="normal" font-style="normal" font-size="9" fill="#4a4a4a">and sales experience. Outgoing sales professional with track record </tspan><tspan x="0" y="37.017997742" font-family="Century Gothic" font-weight="normal" font-style="normal" font-size="9" fill="#4a4a4a">of driving increased sales, improving buying experience and </tspan><tspan x="0" y="50.017997742" font-family="Century Gothic" font-weight="normal" font-style="normal" font-size="9" fill="#4a4a4a">elevating company profile with target market.</tspan></text></g><g transform="matrix(1,0,0,1,0.25,90.25)"><text><tspan x="0" y="46.018001556" font-family="Century Gothic" font-weight="bold" font-style="normal" font-size="9" fill="#4a4a4a">WORK HISTORY</tspan></text></g><path d="M-1.200000048,110.75 L301.199981689,110.75 " stroke-width="1" stroke-miterlimit="10" stroke="#d9dde0" fill="none" fill-rule="evenodd"></path><g transform="matrix(1,0,0,1,0.25,148.25)"><text><tspan x="0" y="11.017999649" font-family="Century Gothic" font-weight="bold" font-style="normal" font-size="9" fill="#4a4a4a">Bed Bath &amp; Beyond, Inc.</tspan><tspan x="104.400001526" y="11.017999649" font-family="Century Gothic" font-weight="normal" font-style="normal" font-size="9" fill="#4a4a4a"> - </tspan><tspan x="112.372001648" y="11.017999649" font-family="Century Gothic" font-weight="bold" font-style="italic" font-size="9" fill="#4a4a4a">Senior Sales Associate</tspan><tspan x="209.205993652" y="11.017999649" font-family="Century Gothic" font-weight="normal" font-style="normal" font-size="9" fill="#4a4a4a"> </tspan><tspan x="0" y="24.017999649" font-family="Century Gothic" font-weight="normal" font-style="normal" font-size="9" fill="#4a4a4a">San Francisco, CA </tspan></text></g><g transform="matrix(1,0,0,1,0.25,174.25)"><text><tspan x="0" y="11.017999649" font-family="Century Gothic" font-weight="normal" font-style="italic" font-size="9" fill="#4a4a4a">03/2015 - Current</tspan></text></g><g transform="matrix(1,0,0,1,1.100000024,187.25)"><text><tspan x="-0.5" y="16.267999649" font-family="Symbol" font-weight="normal" font-style="normal" font-size="6.75" fill="#4a4a4a">●</tspan><tspan x="11.149999619" y="17.017999649" font-family="Century Gothic" font-weight="normal" font-style="normal" font-size="9" fill="#4a4a4a">Applied security and loss prevention training toward recognizing </tspan><tspan x="11.149999619" y="30.017999649" font-family="Century Gothic" font-weight="normal" font-style="normal" font-size="9" fill="#4a4a4a">risks and reducing store theft</tspan></text></g><g transform="matrix(1,0,0,1,1.100000024,219.25)"><text><tspan x="-0.5" y="10.267999649" font-family="Symbol" font-weight="normal" font-style="normal" font-size="6.75" fill="#4a4a4a">●</tspan><tspan x="11.149999619" y="11.017999649" font-family="Century Gothic" font-weight="normal" font-style="normal" font-size="9" fill="#4a4a4a">Trained and developed sales team associates in products, selling </tspan><tspan x="11.149999619" y="24.017999649" font-family="Century Gothic" font-weight="normal" font-style="normal" font-size="9" fill="#4a4a4a">techniques and procedures</tspan></text></g><g transform="matrix(1,0,0,1,1.100000024,245.25)"><text><tspan x="-0.5" y="10.267999649" font-family="Symbol" font-weight="normal" font-style="normal" font-size="6.75" fill="#4a4a4a">●</tspan><tspan x="11.149999619" y="11.017999649" font-family="Century Gothic" font-weight="normal" font-style="normal" font-size="9" fill="#4a4a4a">Maintained organized, presentable merchandise to drive </tspan><tspan x="11.149999619" y="24.017999649" font-family="Century Gothic" font-weight="normal" font-style="normal" font-size="9" fill="#4a4a4a">continuous sales</tspan></text></g><g transform="matrix(1,0,0,1,1.100000024,271.25)"><text><tspan x="-0.5" y="10.267999649" font-family="Symbol" font-weight="normal" font-style="normal" font-size="6.75" fill="#4a4a4a">●</tspan><tspan x="11.149999619" y="11.017999649" font-family="Century Gothic" font-weight="normal" font-style="normal" font-size="9" fill="#4a4a4a">Implemented up-selling strategies for recommending accessories </tspan><tspan x="11.149999619" y="24.017999649" font-family="Century Gothic" font-weight="normal" font-style="normal" font-size="9" fill="#4a4a4a">and complementary purchases</tspan></text></g><g transform="matrix(1,0,0,1,0.25,297.25)"><text><tspan x="0" y="21.017999649" font-family="Century Gothic" font-weight="bold" font-style="normal" font-size="9" fill="#4a4a4a">Target</tspan><tspan x="27" y="21.017999649" font-family="Century Gothic" font-weight="normal" font-style="normal" font-size="9" fill="#4a4a4a"> - </tspan><tspan x="34.972000122" y="21.017999649" font-family="Century Gothic" font-weight="bold" font-style="italic" font-size="9" fill="#4a4a4a">Sales Associate</tspan><tspan x="102.648002625" y="21.017999649" font-family="Century Gothic" font-weight="normal" font-style="normal" font-size="9" fill="#4a4a4a"> </tspan><tspan x="0" y="34.017997742" font-family="Century Gothic" font-weight="normal" font-style="normal" font-size="9" fill="#4a4a4a">San Francisco, CA </tspan></text></g><g transform="matrix(1,0,0,1,0.25,333.25)"><text><tspan x="0" y="11.017999649" font-family="Century Gothic" font-weight="normal" font-style="italic" font-size="9" fill="#4a4a4a">06/2013 - 03/2015</tspan></text></g><g transform="matrix(1,0,0,1,1.100000024,346.25)"><text><tspan x="-0.5" y="16.267999649" font-family="Symbol" font-weight="normal" font-style="normal" font-size="6.75" fill="#4a4a4a">●</tspan><tspan x="11.149999619" y="17.017999649" font-family="Century Gothic" font-weight="normal" font-style="normal" font-size="9" fill="#4a4a4a">Maintained organized, presentable merchandise to drive </tspan><tspan x="11.149999619" y="30.017999649" font-family="Century Gothic" font-weight="normal" font-style="normal" font-size="9" fill="#4a4a4a">continuous sales</tspan></text></g><g transform="matrix(1,0,0,1,1.100000024,378.25)"><text><tspan x="-0.5" y="10.267999649" font-family="Symbol" font-weight="normal" font-style="normal" font-size="6.75" fill="#4a4a4a">●</tspan><tspan x="11.149999619" y="11.017999649" font-family="Century Gothic" font-weight="normal" font-style="normal" font-size="9" fill="#4a4a4a">Organized racks and shelves to maintain store visual appeal, </tspan><tspan x="11.149999619" y="24.017999649" font-family="Century Gothic" font-weight="normal" font-style="normal" font-size="9" fill="#4a4a4a">engage customers and promote merchandise</tspan></text></g><g transform="matrix(1,0,0,1,1.100000024,404.25)"><text><tspan x="-0.5" y="10.267999649" font-family="Symbol" font-weight="normal" font-style="normal" font-size="6.75" fill="#4a4a4a">●</tspan><tspan x="11.149999619" y="11.017999649" font-family="Century Gothic" font-weight="normal" font-style="normal" font-size="9" fill="#4a4a4a">Evaluated inventory and delivery needs, optimizing strategies to </tspan><tspan x="11.149999619" y="24.017999649" font-family="Century Gothic" font-weight="normal" font-style="normal" font-size="9" fill="#4a4a4a">meet customer demands</tspan></text></g><g transform="matrix(1,0,0,1,1.100000024,430.25)"><text><tspan x="-0.5" y="10.267999649" font-family="Symbol" font-weight="normal" font-style="normal" font-size="6.75" fill="#4a4a4a">●</tspan><tspan x="11.149999619" y="11.017999649" font-family="Century Gothic" font-weight="normal" font-style="normal" font-size="9" fill="#4a4a4a">Analyzed and processed returns, assisting customers with finding </tspan><tspan x="11.149999619" y="24.017999649" font-family="Century Gothic" font-weight="normal" font-style="normal" font-size="9" fill="#4a4a4a">alternative merchandise to meet needs</tspan></text></g></g><g transform="matrix(1,0,0,1,365,0)" clip-path="url(#clip3)"><g transform="matrix(1,0,0,1,0.25,0.25)"><text><tspan x="0" y="26.017999649" font-family="Century Gothic" font-weight="bold" font-style="normal" font-size="9" fill="#4a4a4a">SKILLS</tspan></text></g><path d="M-1.200000048,0.75 L183.199996948,0.75 " stroke-width="1" stroke-miterlimit="10" stroke="#d9dde0" fill="none" fill-rule="evenodd"></path><g transform="matrix(1,0,0,1,1.100000024,38.25)"><text><tspan x="-0.5" y="10.267999649" font-family="Symbol" font-weight="normal" font-style="normal" font-size="6.75" fill="#4a4a4a">●</tspan><tspan x="11.149999619" y="11.017999649" font-family="Century Gothic" font-weight="normal" font-style="normal" font-size="9" fill="#4a4a4a">Guest services</tspan></text></g><g transform="matrix(1,0,0,1,1.100000024,51.25)"><text><tspan x="-0.5" y="10.267999649" font-family="Symbol" font-weight="normal" font-style="normal" font-size="6.75" fill="#4a4a4a">●</tspan><tspan x="11.149999619" y="11.017999649" font-family="Century Gothic" font-weight="normal" font-style="normal" font-size="9" fill="#4a4a4a">Inventory control procedures</tspan></text></g><g transform="matrix(1,0,0,1,1.100000024,64.25)"><text><tspan x="-0.5" y="10.267999649" font-family="Symbol" font-weight="normal" font-style="normal" font-size="6.75" fill="#4a4a4a">●</tspan><tspan x="11.149999619" y="11.017999649" font-family="Century Gothic" font-weight="normal" font-style="normal" font-size="9" fill="#4a4a4a">Merchandising expertise</tspan></text></g><g transform="matrix(1,0,0,1,1.100000024,77.25)"><text><tspan x="-0.5" y="10.267999649" font-family="Symbol" font-weight="normal" font-style="normal" font-size="6.75" fill="#4a4a4a">●</tspan><tspan x="11.149999619" y="11.017999649" font-family="Century Gothic" font-weight="normal" font-style="normal" font-size="9" fill="#4a4a4a">Loss prevention</tspan></text></g><g transform="matrix(1,0,0,1,1.100000024,90.25)"><text><tspan x="-0.5" y="10.267999649" font-family="Symbol" font-weight="normal" font-style="normal" font-size="6.75" fill="#4a4a4a">●</tspan><tspan x="11.149999619" y="11.017999649" font-family="Century Gothic" font-weight="normal" font-style="normal" font-size="9" fill="#4a4a4a">Cash register operations</tspan></text></g><g transform="matrix(1,0,0,1,1.100000024,103.25)"><text><tspan x="-0.5" y="10.267999649" font-family="Symbol" font-weight="normal" font-style="normal" font-size="6.75" fill="#4a4a4a">●</tspan><tspan x="11.149999619" y="11.017999649" font-family="Century Gothic" font-weight="normal" font-style="normal" font-size="9" fill="#4a4a4a">Product promotions</tspan></text></g><g transform="matrix(1,0,0,1,0.25,116.25)"><text><tspan x="0" y="46.018001556" font-family="Century Gothic" font-weight="bold" font-style="normal" font-size="9" fill="#4a4a4a">EDUCATION</tspan></text></g><path d="M-1.200000048,136.75 L183.199996948,136.75 " stroke-width="1" stroke-miterlimit="10" stroke="#d9dde0" fill="none" fill-rule="evenodd"></path><g transform="matrix(1,0,0,1,0.25,174.25)"><text><tspan x="0" y="11.017999649" font-family="Century Gothic" font-weight="bold" font-style="normal" font-size="9" fill="#4a4a4a">San Francisco State University</tspan><tspan x="128.332000732" y="11.017999649" font-family="Century Gothic" font-weight="normal" font-style="normal" font-size="9" fill="#4a4a4a"> </tspan></text></g><g transform="matrix(1,0,0,1,0.25,187.25)"><text><tspan x="0" y="11.017999649" font-family="Century Gothic" font-weight="normal" font-style="normal" font-size="9" fill="#4a4a4a">San Francisco, CA</tspan></text></g><g transform="matrix(1,0,0,1,0.25,200.25)"><text><tspan x="0" y="11.017999649" font-family="Century Gothic" font-weight="normal" font-style="normal" font-size="9" fill="#4a4a4a">2013</tspan></text></g><g transform="matrix(1,0,0,1,0.25,213.25)"><text><tspan x="0" y="16.017999649" font-family="Century Gothic" font-weight="bold" font-style="italic" font-size="9" fill="#4a4a4a">Bachelor of Arts</tspan><tspan x="68.391998291" y="16.017999649" font-family="Century Gothic" font-weight="normal" font-style="normal" font-size="9" fill="#4a4a4a"> : </tspan><tspan x="0" y="29.017999649" font-family="Century Gothic" font-weight="normal" font-style="normal" font-size="9" fill="#4a4a4a">Business Administration </tspan></text></g></g></g></g></g></svg>