<?xml version="1.0" encoding="utf-8" standalone="yes"?><svg xmlns="http://www.w3.org/2000/svg" xmlns:xlink="http://www.w3.org/1999/xlink" version="1.1" width="816" height="1056"><!--Generated by Aspose.Words for .NET 18.5--><defs><clipPath id="clip1"><path d="M-1,-1 L301,-1 L301,115 L-1,115 Z" clip-rule="evenodd"></path></clipPath><clipPath id="clip10"><path d="M-1,-1 L185,-1 L185,56.791000366 L-1,56.791000366 Z" clip-rule="evenodd"></path></clipPath><clipPath id="clip11"><path d="M-1,-1 L198,-1 L198,449.082000732 L-1,449.082000732 Z" clip-rule="evenodd"></path></clipPath><clipPath id="clip12"><path d="M-1,-1 L14,-1 L14,58.791000366 L-1,58.791000366 Z" clip-rule="evenodd"></path></clipPath><clipPath id="clip13"><path d="M-1,-1 L185,-1 L185,58.791000366 L-1,58.791000366 Z" clip-rule="evenodd"></path></clipPath><clipPath id="clip14"><path d="M-1,-1 L198,-1 L198,449.082000732 L-1,449.082000732 Z" clip-rule="evenodd"></path></clipPath><clipPath id="clip2"><path d="M-1,-1 L198,-1 L198,115 L-1,115 Z" clip-rule="evenodd"></path></clipPath><clipPath id="clip3"><path d="M-1,-1 L14,-1 L14,56.791000366 L-1,56.791000366 Z" clip-rule="evenodd"></path></clipPath><clipPath id="clip4"><path d="M-1,-1 L288,-1 L288,56.791000366 L-1,56.791000366 Z" clip-rule="evenodd"></path></clipPath><clipPath id="clip5"><path d="M-1,-1 L301,-1 L301,449.082000732 L-1,449.082000732 Z" clip-rule="evenodd"></path></clipPath><clipPath id="clip6"><path d="M-1,-1 L14,-1 L14,58.791000366 L-1,58.791000366 Z" clip-rule="evenodd"></path></clipPath><clipPath id="clip7"><path d="M-1,-1 L288,-1 L288,58.791000366 L-1,58.791000366 Z" clip-rule="evenodd"></path></clipPath><clipPath id="clip8"><path d="M-1,-1 L301,-1 L301,449.082000732 L-1,449.082000732 Z" clip-rule="evenodd"></path></clipPath><clipPath id="clip9"><path d="M-1,-1 L14,-1 L14,56.791000366 L-1,56.791000366 Z" clip-rule="evenodd"></path></clipPath><style type="text/css">svg{background:white}@font-face{font-family:'Century Gothic';font-weight:normal;font-style:normal;src:local('Century Gothic'),url('https://content.livecareer.com/zty/fonts/CenturyGothic.ttf') format('truetype')}@font-face{font-family:'Century Gothic';font-weight:bold;font-style:normal;src:local('Century Gothic Bold'),url('https://content.livecareer.com/zty/fonts/CenturyGothicBold.ttf') format('truetype')}@font-face{font-family:'Century Gothic';font-weight:bold;font-style:italic;src:local('Century Gothic Bold Italic'),url('https://content.livecareer.com/zty/fonts/CenturyGothicBoldItalic.ttf') format('truetype')}@font-face{font-family:'Century Gothic';font-weight:normal;font-style:italic;src:local('Century Gothic Italic'),url('https://content.livecareer.com/zty/fonts/CenturyGothicItalic.ttf') format('truetype')}</style></defs><g transform="scale(1.33333)"><g><path d="M0,0 L40,0 L40,114 L0,114 Z" fill="#edf2f6" fill-rule="evenodd"></path><path d="M40,0 L340,0 L340,114 L40,114 Z" fill="#edf2f6" fill-rule="evenodd"></path><g transform="matrix(1,0,0,1,40,0)" clip-path="url(#clip1)"><g transform="matrix(1,0,0,1,0,40)"><text><tspan x="0" y="16.476999283" font-family="Century Gothic" font-weight="bold" font-style="normal" font-size="16" fill="#4a4a4a">JESSICA CLAIRE</tspan></text></g><g transform="matrix(1,0,0,1,0,60)"><text><tspan x="0" y="33.018001556" font-family="Century Gothic" font-weight="normal" font-style="normal" font-size="9" fill="#4a4a4a"> </tspan></text></g></g><path d="M340,0 L375,0 L375,114 L340,114 Z" fill="#edf2f6" fill-rule="evenodd"></path><path d="M375,0 L572,0 L572,114 L375,114 Z" fill="#edf2f6" fill-rule="evenodd"></path><g transform="matrix(1,0,0,1,375,0)" clip-path="url(#clip2)"><g transform="matrix(1,0,0,1,0,40)"><text><tspan x="0" y="11.017999649" font-family="Century Gothic" font-weight="bold" font-style="normal" font-size="9" fill="#4a4a4a">E:  </tspan><tspan x="12.234000206" y="11.017999649" font-family="Century Gothic" font-weight="normal" font-style="normal" font-size="9" fill="#4a4a4a">resumesample@example.com</tspan><tspan x="0" y="24.017999649" font-family="Century Gothic" font-weight="bold" font-style="normal" font-size="9" fill="#4a4a4a">P:  </tspan><tspan x="12.595000267" y="24.017999649" font-family="Century Gothic" font-weight="normal" font-style="normal" font-size="9" fill="#4a4a4a">(555) 432-1000</tspan><tspan x="0" y="37.017997742" font-family="Century Gothic" font-weight="bold" font-style="normal" font-size="9" fill="#4a4a4a">A:  </tspan><tspan x="14.211999893" y="37.017997742" font-family="Century Gothic" font-weight="normal" font-style="normal" font-size="9" fill="#4a4a4a"> San Francisco, CA 94105</tspan></text></g><g transform="matrix(1,0,0,1,0,79)"><text><tspan x="0" y="33.018001556" font-family="Century Gothic" font-weight="normal" font-style="normal" font-size="9" fill="#4a4a4a"> </tspan></text></g></g><path d="M572,0 L612,0 L612,114 L572,114 Z" fill="#edf2f6" fill-rule="evenodd"></path><g transform="matrix(1,0,0,1,40,114)"><g transform="matrix(1,0,0,1,0.25,0.25)"><g transform="matrix(1,0,0,1,0,0)" clip-path="url(#clip3)"><g transform="matrix(1,0,0,1,0.25,28.25)"><text><tspan x="-0.5" y="13.277999878" font-family="Segoe UI Symbol" font-weight="bold" font-style="normal" font-size="9.75" fill="#b8b8b8">❘</tspan></text></g></g><g transform="matrix(1,0,0,1,13,0)" clip-path="url(#clip4)"><g transform="matrix(1,0,0,1,0.25,28.25)"><text><tspan x="0" y="12.574000359" font-family="Century Gothic" font-weight="bold" font-style="normal" font-size="10" fill="#4a4a4a">PROFESSIONAL SUMMARY</tspan></text></g></g></g><g transform="matrix(1,0,0,1,0,0)" clip-path="url(#clip5)"><g transform="matrix(1,0,0,1,0.25,56.041000366)"><text><tspan x="0" y="11.017999649" font-family="Century Gothic" font-weight="normal" font-style="normal" font-size="9" fill="#4a4a4a">Highly motivated Sales Associate with extensive customer service </tspan><tspan x="0" y="24.017999649" font-family="Century Gothic" font-weight="normal" font-style="normal" font-size="9" fill="#4a4a4a">and sales experience. Outgoing sales professional with track record </tspan><tspan x="0" y="37.017997742" font-family="Century Gothic" font-weight="normal" font-style="normal" font-size="9" fill="#4a4a4a">of driving increased sales, improving buying experience and </tspan><tspan x="0" y="50.017997742" font-family="Century Gothic" font-weight="normal" font-style="normal" font-size="9" fill="#4a4a4a">elevating company profile with target market.</tspan></text></g></g><g transform="matrix(1,0,0,1,0.25,108.041000366)"><g transform="matrix(1,0,0,1,0,0)" clip-path="url(#clip6)"><g transform="matrix(1,0,0,1,0.25,30.25)"><text><tspan x="-0.5" y="13.277999878" font-family="Segoe UI Symbol" font-weight="bold" font-style="normal" font-size="9.75" fill="#b8b8b8">❘</tspan></text></g></g><g transform="matrix(1,0,0,1,13,0)" clip-path="url(#clip7)"><g transform="matrix(1,0,0,1,0.25,30.25)"><text><tspan x="0" y="12.574000359" font-family="Century Gothic" font-weight="bold" font-style="normal" font-size="10" fill="#4a4a4a">WORK HISTORY</tspan></text></g></g></g><g transform="matrix(1,0,0,1,0,0)" clip-path="url(#clip8)"><g transform="matrix(1,0,0,1,0.25,165.832000732)"><text><tspan x="0" y="11.017999649" font-family="Century Gothic" font-weight="bold" font-style="normal" font-size="9" fill="#4a4a4a">Bed Bath &amp; Beyond, Inc.</tspan><tspan x="104.400001526" y="11.017999649" font-family="Century Gothic" font-weight="normal" font-style="normal" font-size="9" fill="#4a4a4a"> - </tspan><tspan x="112.372001648" y="11.017999649" font-family="Century Gothic" font-weight="bold" font-style="italic" font-size="9" fill="#4a4a4a">Senior Sales Associate</tspan><tspan x="209.205993652" y="11.017999649" font-family="Century Gothic" font-weight="normal" font-style="normal" font-size="9" fill="#4a4a4a"> </tspan><tspan x="0" y="24.017999649" font-family="Century Gothic" font-weight="normal" font-style="normal" font-size="9" fill="#4a4a4a">San Francisco, CA • 03/2015 - Current </tspan></text></g><g transform="matrix(1,0,0,1,4.099999905,191.832000732)"><text><tspan x="-0.5" y="16.267999649" font-family="Symbol" font-weight="normal" font-style="normal" font-size="6.75" fill="#4a4a4a">●</tspan><tspan x="9.149999619" y="17.017999649" font-family="Century Gothic" font-weight="normal" font-style="normal" font-size="9" fill="#4a4a4a">Applied security and loss prevention training toward recognizing </tspan><tspan x="9.149999619" y="30.017999649" font-family="Century Gothic" font-weight="normal" font-style="normal" font-size="9" fill="#4a4a4a">risks and reducing store theft</tspan></text></g><g transform="matrix(1,0,0,1,4.099999905,223.832000732)"><text><tspan x="-0.5" y="10.267999649" font-family="Symbol" font-weight="normal" font-style="normal" font-size="6.75" fill="#4a4a4a">●</tspan><tspan x="9.149999619" y="11.017999649" font-family="Century Gothic" font-weight="normal" font-style="normal" font-size="9" fill="#4a4a4a">Trained and developed sales team associates in products, selling </tspan><tspan x="9.149999619" y="24.017999649" font-family="Century Gothic" font-weight="normal" font-style="normal" font-size="9" fill="#4a4a4a">techniques and procedures</tspan></text></g><g transform="matrix(1,0,0,1,4.099999905,249.832000732)"><text><tspan x="-0.5" y="10.267999649" font-family="Symbol" font-weight="normal" font-style="normal" font-size="6.75" fill="#4a4a4a">●</tspan><tspan x="9.149999619" y="11.017999649" font-family="Century Gothic" font-weight="normal" font-style="normal" font-size="9" fill="#4a4a4a">Maintained organized, presentable merchandise to drive </tspan><tspan x="9.149999619" y="24.017999649" font-family="Century Gothic" font-weight="normal" font-style="normal" font-size="9" fill="#4a4a4a">continuous sales</tspan></text></g><g transform="matrix(1,0,0,1,4.099999905,275.832000732)"><text><tspan x="-0.5" y="10.267999649" font-family="Symbol" font-weight="normal" font-style="normal" font-size="6.75" fill="#4a4a4a">●</tspan><tspan x="9.149999619" y="11.017999649" font-family="Century Gothic" font-weight="normal" font-style="normal" font-size="9" fill="#4a4a4a">Implemented up-selling strategies for recommending accessories </tspan><tspan x="9.149999619" y="24.017999649" font-family="Century Gothic" font-weight="normal" font-style="normal" font-size="9" fill="#4a4a4a">and complementary purchases</tspan></text></g><g transform="matrix(1,0,0,1,0.25,301.832000732)"><text><tspan x="0" y="21.017999649" font-family="Century Gothic" font-weight="bold" font-style="normal" font-size="9" fill="#4a4a4a">Target</tspan><tspan x="27" y="21.017999649" font-family="Century Gothic" font-weight="normal" font-style="normal" font-size="9" fill="#4a4a4a"> - </tspan><tspan x="34.972000122" y="21.017999649" font-family="Century Gothic" font-weight="bold" font-style="italic" font-size="9" fill="#4a4a4a">Sales Associate</tspan><tspan x="102.648002625" y="21.017999649" font-family="Century Gothic" font-weight="normal" font-style="normal" font-size="9" fill="#4a4a4a"> </tspan><tspan x="0" y="34.017997742" font-family="Century Gothic" font-weight="normal" font-style="normal" font-size="9" fill="#4a4a4a">San Francisco, CA • 06/2013 - 03/2015 </tspan></text></g><g transform="matrix(1,0,0,1,4.099999905,337.832000732)"><text><tspan x="-0.5" y="16.267999649" font-family="Symbol" font-weight="normal" font-style="normal" font-size="6.75" fill="#4a4a4a">●</tspan><tspan x="9.149999619" y="17.017999649" font-family="Century Gothic" font-weight="normal" font-style="normal" font-size="9" fill="#4a4a4a">Maintained organized, presentable merchandise to drive </tspan><tspan x="9.149999619" y="30.017999649" font-family="Century Gothic" font-weight="normal" font-style="normal" font-size="9" fill="#4a4a4a">continuous sales</tspan></text></g><g transform="matrix(1,0,0,1,4.099999905,369.832000732)"><text><tspan x="-0.5" y="10.267999649" font-family="Symbol" font-weight="normal" font-style="normal" font-size="6.75" fill="#4a4a4a">●</tspan><tspan x="9.149999619" y="11.017999649" font-family="Century Gothic" font-weight="normal" font-style="normal" font-size="9" fill="#4a4a4a">Organized racks and shelves to maintain store visual appeal, </tspan><tspan x="9.149999619" y="24.017999649" font-family="Century Gothic" font-weight="normal" font-style="normal" font-size="9" fill="#4a4a4a">engage customers and promote merchandise</tspan></text></g><g transform="matrix(1,0,0,1,4.099999905,395.832000732)"><text><tspan x="-0.5" y="10.267999649" font-family="Symbol" font-weight="normal" font-style="normal" font-size="6.75" fill="#4a4a4a">●</tspan><tspan x="9.149999619" y="11.017999649" font-family="Century Gothic" font-weight="normal" font-style="normal" font-size="9" fill="#4a4a4a">Evaluated inventory and delivery needs, optimizing strategies to </tspan><tspan x="9.149999619" y="24.017999649" font-family="Century Gothic" font-weight="normal" font-style="normal" font-size="9" fill="#4a4a4a">meet customer demands</tspan></text></g><g transform="matrix(1,0,0,1,4.099999905,421.832000732)"><text><tspan x="-0.5" y="10.267999649" font-family="Symbol" font-weight="normal" font-style="normal" font-size="6.75" fill="#4a4a4a">●</tspan><tspan x="9.149999619" y="11.017999649" font-family="Century Gothic" font-weight="normal" font-style="normal" font-size="9" fill="#4a4a4a">Analyzed and processed returns, assisting customers with finding </tspan><tspan x="9.149999619" y="24.017999649" font-family="Century Gothic" font-weight="normal" font-style="normal" font-size="9" fill="#4a4a4a">alternative merchandise to meet needs</tspan></text></g></g><g transform="matrix(1,0,0,1,335.25,0.25)"><g transform="matrix(1,0,0,1,0,0)" clip-path="url(#clip9)"><g transform="matrix(1,0,0,1,0.25,28.25)"><text><tspan x="-0.5" y="13.277999878" font-family="Segoe UI Symbol" font-weight="bold" font-style="normal" font-size="9.75" fill="#b8b8b8">❘</tspan></text></g></g><g transform="matrix(1,0,0,1,13,0)" clip-path="url(#clip10)"><g transform="matrix(1,0,0,1,0.25,28.25)"><text><tspan x="0" y="12.574000359" font-family="Century Gothic" font-weight="bold" font-style="normal" font-size="10" fill="#4a4a4a">SKILLS</tspan></text></g></g></g><g transform="matrix(1,0,0,1,335,0)" clip-path="url(#clip11)"><g transform="matrix(1,0,0,1,4.099999905,56.041000366)"><text><tspan x="-0.5" y="10.267999649" font-family="Symbol" font-weight="normal" font-style="normal" font-size="6.75" fill="#4a4a4a">●</tspan><tspan x="9.149999619" y="11.017999649" font-family="Century Gothic" font-weight="normal" font-style="normal" font-size="9" fill="#4a4a4a">Guest services</tspan></text></g><g transform="matrix(1,0,0,1,4.099999905,69.041000366)"><text><tspan x="-0.5" y="10.267999649" font-family="Symbol" font-weight="normal" font-style="normal" font-size="6.75" fill="#4a4a4a">●</tspan><tspan x="9.149999619" y="11.017999649" font-family="Century Gothic" font-weight="normal" font-style="normal" font-size="9" fill="#4a4a4a">Inventory control procedures</tspan></text></g><g transform="matrix(1,0,0,1,4.099999905,82.041000366)"><text><tspan x="-0.5" y="10.267999649" font-family="Symbol" font-weight="normal" font-style="normal" font-size="6.75" fill="#4a4a4a">●</tspan><tspan x="9.149999619" y="11.017999649" font-family="Century Gothic" font-weight="normal" font-style="normal" font-size="9" fill="#4a4a4a">Merchandising expertise</tspan></text></g><g transform="matrix(1,0,0,1,4.099999905,95.041000366)"><text><tspan x="-0.5" y="10.267999649" font-family="Symbol" font-weight="normal" font-style="normal" font-size="6.75" fill="#4a4a4a">●</tspan><tspan x="9.149999619" y="11.017999649" font-family="Century Gothic" font-weight="normal" font-style="normal" font-size="9" fill="#4a4a4a">Loss prevention</tspan></text></g><g transform="matrix(1,0,0,1,4.099999905,108.041000366)"><text><tspan x="-0.5" y="10.267999649" font-family="Symbol" font-weight="normal" font-style="normal" font-size="6.75" fill="#4a4a4a">●</tspan><tspan x="9.149999619" y="11.017999649" font-family="Century Gothic" font-weight="normal" font-style="normal" font-size="9" fill="#4a4a4a">Cash register operations</tspan></text></g><g transform="matrix(1,0,0,1,4.099999905,121.041000366)"><text><tspan x="-0.5" y="10.267999649" font-family="Symbol" font-weight="normal" font-style="normal" font-size="6.75" fill="#4a4a4a">●</tspan><tspan x="9.149999619" y="11.017999649" font-family="Century Gothic" font-weight="normal" font-style="normal" font-size="9" fill="#4a4a4a">Product promotions</tspan></text></g></g><g transform="matrix(1,0,0,1,335.25,134.041000366)"><g transform="matrix(1,0,0,1,0,0)" clip-path="url(#clip12)"><g transform="matrix(1,0,0,1,0.25,30.25)"><text><tspan x="-0.5" y="13.277999878" font-family="Segoe UI Symbol" font-weight="bold" font-style="normal" font-size="9.75" fill="#b8b8b8">❘</tspan></text></g></g><g transform="matrix(1,0,0,1,13,0)" clip-path="url(#clip13)"><g transform="matrix(1,0,0,1,0.25,30.25)"><text><tspan x="0" y="12.574000359" font-family="Century Gothic" font-weight="bold" font-style="normal" font-size="10" fill="#4a4a4a">EDUCATION</tspan></text></g></g></g><g transform="matrix(1,0,0,1,335,0)" clip-path="url(#clip14)"><g transform="matrix(1,0,0,1,0.25,191.832000732)"><text><tspan x="0" y="11.017999649" font-family="Century Gothic" font-weight="bold" font-style="normal" font-size="9" fill="#4a4a4a">San Francisco State University</tspan><tspan x="128.332000732" y="11.017999649" font-family="Century Gothic" font-weight="normal" font-style="normal" font-size="9" fill="#4a4a4a"> </tspan></text></g><g transform="matrix(1,0,0,1,0.25,204.832000732)"><text><tspan x="0" y="11.017999649" font-family="Century Gothic" font-weight="normal" font-style="normal" font-size="9" fill="#4a4a4a">San Francisco, CA • 2013</tspan></text></g><g transform="matrix(1,0,0,1,0.25,217.832000732)"><text><tspan x="0" y="16.017999649" font-family="Century Gothic" font-weight="bold" font-style="italic" font-size="9" fill="#4a4a4a">Bachelor of Arts</tspan><tspan x="68.391998291" y="16.017999649" font-family="Century Gothic" font-weight="normal" font-style="normal" font-size="9" fill="#4a4a4a">: Business Administration </tspan></text></g></g></g></g></g></svg>