<?xml version="1.0" encoding="utf-8" standalone="yes"?><svg xmlns="http://www.w3.org/2000/svg" xmlns:xlink="http://www.w3.org/1999/xlink" version="1.1" width="816" height="1056"><!--Generated by Aspose.Words for .NET 18.5--><defs><clipPath id="clip1"><path d="M-1,-1 L245,-1 L245,53 L-1,53 Z" clip-rule="evenodd"></path></clipPath><clipPath id="clip10"><path d="M-1,-1 L121,-1 L121,39 L-1,39 Z" clip-rule="evenodd"></path></clipPath><clipPath id="clip11"><path d="M-1,-1 L369,-1 L369,39 L-1,39 Z" clip-rule="evenodd"></path></clipPath><clipPath id="clip2"><path d="M-1,-1 L245,-1 L245,53 L-1,53 Z" clip-rule="evenodd"></path></clipPath><clipPath id="clip3"><path d="M-1,-1 L121,-1 L121,53 L-1,53 Z" clip-rule="evenodd"></path></clipPath><clipPath id="clip4"><path d="M-1,-1 L369,-1 L369,53 L-1,53 Z" clip-rule="evenodd"></path></clipPath><clipPath id="clip5"><path d="M-1,-1 L121,-1 L121,53.5 L-1,53.5 Z" clip-rule="evenodd"></path></clipPath><clipPath id="clip6"><path d="M-1,-1 L185,-1 L185,43.5 L-1,43.5 Z" clip-rule="evenodd"></path></clipPath><clipPath id="clip7"><path d="M-1,-1 L185,-1 L185,43.5 L-1,43.5 Z" clip-rule="evenodd"></path></clipPath><clipPath id="clip8"><path d="M-1,-1 L121,-1 L121,269 L-1,269 Z" clip-rule="evenodd"></path></clipPath><clipPath id="clip9"><path d="M-1,-1 L369,-1 L369,269 L-1,269 Z" clip-rule="evenodd"></path></clipPath><style type="text/css">svg{background:white}</style></defs><g transform="scale(1.33333)"><g><path d="M0,0 L600,0 L600,450 L0,450 Z" fill="#ffffff" fill-rule="evenodd"></path><g transform="matrix(1,0,0,1,600,0)"><path d="M0,0 L600,0 L600,450 L0,450 Z" fill="#ffffff" fill-rule="evenodd"></path></g><g transform="matrix(1,0,0,1,0,450)"><path d="M0,0 L600,0 L600,450 L0,450 Z" fill="#ffffff" fill-rule="evenodd"></path></g><g transform="matrix(1,0,0,1,600,450)"><path d="M0,0 L600,0 L600,450 L0,450 Z" fill="#ffffff" fill-rule="evenodd"></path></g><g transform="matrix(1,0,0,1,62,37)"><g transform="matrix(1,0,0,1,0,0)" clip-path="url(#clip1)"><text><tspan x="0" y="23.754999161" font-family="Roboto" font-weight="normal" font-style="normal" font-size="25" fill="#009999">JESSICA</tspan><tspan x="97.04599762" y="23.754999161" font-family="Roboto" font-weight="normal" font-style="normal" font-size="25" fill="#000000"> CLAIRE</tspan></text></g><g transform="matrix(1,0,0,1,244,0)" clip-path="url(#clip2)"><text><tspan x="183.541000366" y="11.5" font-family="Roboto Condensed" font-weight="normal" font-style="normal" font-size="10" fill="#7f8183">(555) 432-1000</tspan></text><g transform="matrix(1,0,0,1,0,14)"><text><tspan x="145.664001465" y="11.5" font-family="Roboto Condensed" font-weight="normal" font-style="normal" font-size="10" fill="#7f8183">San Francisco, CA 94105</tspan></text></g><g transform="matrix(1,0,0,1,0,28)"><text><tspan x="125.127998352" y="11.5" font-family="Roboto Condensed" font-weight="normal" font-style="normal" font-size="10" fill="#00acec">resumesample@example.com</tspan></text></g></g><path d="M0,52.5 L488,52.5 " stroke-width="1" stroke-miterlimit="10" stroke="#000000" fill="none" fill-rule="evenodd"></path><g transform="matrix(1,0,0,1,0,53)"><g transform="matrix(1,0,0,1,0,0)" clip-path="url(#clip3)"><g transform="matrix(1,0,0,1,0,10)"><text><tspan x="0" y="13" font-family="Roboto Condensed" font-weight="bold" font-style="normal" font-size="12" fill="#c0c0c0">PROFESSIONAL </tspan><tspan x="0" y="29" font-family="Roboto Condensed" font-weight="bold" font-style="normal" font-size="12" fill="#c0c0c0">SUMMARY</tspan></text></g></g><g transform="matrix(1,0,0,1,120,0)" clip-path="url(#clip4)"><g transform="matrix(1,0,0,1,0,10)"><text><tspan x="0" y="11.5" font-family="Roboto Condensed" font-weight="normal" font-style="normal" font-size="10" fill="#000000">Highly motivated Sales Associate with extensive customer service and sales experience. </tspan><tspan x="0" y="25.5" font-family="Roboto Condensed" font-weight="normal" font-style="normal" font-size="10" fill="#000000">Outgoing sales professional with track record of driving increased sales, improving buying </tspan><tspan x="0" y="39.5" font-family="Roboto Condensed" font-weight="normal" font-style="normal" font-size="10" fill="#000000">experience and elevating company profile with target market.</tspan></text></g></g></g><g transform="matrix(1,0,0,1,0,105)"><g transform="matrix(1,0,0,1,0,0)" clip-path="url(#clip5)"><g transform="matrix(1,0,0,1,0,10)"><text><tspan x="0" y="13" font-family="Roboto Condensed" font-weight="bold" font-style="normal" font-size="12" fill="#c0c0c0">SKILLS</tspan></text></g></g></g><g transform="matrix(1,0,0,1,120,115)"><g transform="matrix(1,0,0,1,0,0)" clip-path="url(#clip6)"><g transform="matrix(1,0,0,1,0.25,0.25)"><text><tspan x="0" y="11.5" font-family="Roboto Condensed" font-weight="normal" font-style="normal" font-size="10" fill="#000000">Guest services</tspan></text></g><g transform="matrix(1,0,0,1,0.25,14.25)"><text><tspan x="0" y="11.5" font-family="Roboto Condensed" font-weight="normal" font-style="normal" font-size="10" fill="#000000">Inventory control procedures</tspan></text></g><g transform="matrix(1,0,0,1,0.25,28.25)"><text><tspan x="0" y="11.5" font-family="Roboto Condensed" font-weight="normal" font-style="normal" font-size="10" fill="#000000">Merchandising expertise</tspan></text></g></g><g transform="matrix(1,0,0,1,184,0)" clip-path="url(#clip7)"><g transform="matrix(1,0,0,1,7.25,0.25)"><text><tspan x="0" y="11.5" font-family="Roboto Condensed" font-weight="normal" font-style="normal" font-size="10" fill="#000000">Loss prevention</tspan></text></g><g transform="matrix(1,0,0,1,7.25,14.25)"><text><tspan x="0" y="11.5" font-family="Roboto Condensed" font-weight="normal" font-style="normal" font-size="10" fill="#000000">Cash register operations</tspan></text></g><g transform="matrix(1,0,0,1,7.25,28.25)"><text><tspan x="0" y="11.5" font-family="Roboto Condensed" font-weight="normal" font-style="normal" font-size="10" fill="#000000">Product promotions</tspan></text></g></g></g><g transform="matrix(1,0,0,1,0,157.5)"><g transform="matrix(1,0,0,1,0,0)" clip-path="url(#clip8)"><g transform="matrix(1,0,0,1,0,10)"><text><tspan x="0" y="13" font-family="Roboto Condensed" font-weight="bold" font-style="normal" font-size="12" fill="#c0c0c0">WORK HISTORY</tspan></text></g></g><g transform="matrix(1,0,0,1,120,0)" clip-path="url(#clip9)"><g transform="matrix(1,0,0,1,0,10)"><text><tspan x="0" y="11.5" font-family="Roboto Condensed" font-weight="bold" font-style="normal" font-size="10" fill="#000000">Senior Sales Associate</tspan><tspan x="92.193000793" y="11.5" font-family="Roboto Condensed" font-weight="normal" font-style="normal" font-size="10" fill="#000000">   •   </tspan><tspan x="109.302001953" y="11.5" font-family="Roboto Condensed" font-weight="normal" font-style="italic" font-size="10" fill="#000000">Bed Bath &amp; Beyond, Inc.</tspan><tspan x="202.695999146" y="11.5" font-family="Roboto Condensed" font-weight="normal" font-style="normal" font-size="10" fill="#000000"> </tspan></text></g><g transform="matrix(1,0,0,1,0,24)"><text><tspan x="0" y="11.5" font-family="Roboto Condensed" font-weight="normal" font-style="normal" font-size="10" fill="#000000">San Francisco, CA   •   March 2015 to Current </tspan></text></g><g transform="matrix(1,0,0,1,13.399999619,38)"><text><tspan x="-0.5" y="10.75" font-family="Symbol" font-weight="normal" font-style="normal" font-size="7.5" fill="#000000">●</tspan><tspan x="9.600000381" y="11.5" font-family="Roboto Condensed" font-weight="normal" font-style="normal" font-size="10" fill="#000000">Applied security and loss prevention training toward recognizing risks and reducing </tspan><tspan x="9.600000381" y="25.5" font-family="Roboto Condensed" font-weight="normal" font-style="normal" font-size="10" fill="#000000">store theft</tspan></text></g><g transform="matrix(1,0,0,1,13.399999619,66)"><text><tspan x="-0.5" y="10.75" font-family="Symbol" font-weight="normal" font-style="normal" font-size="7.5" fill="#000000">●</tspan><tspan x="9.600000381" y="11.5" font-family="Roboto Condensed" font-weight="normal" font-style="normal" font-size="10" fill="#000000">Trained and developed sales team associates in products, selling techniques and </tspan><tspan x="9.600000381" y="25.5" font-family="Roboto Condensed" font-weight="normal" font-style="normal" font-size="10" fill="#000000">procedures</tspan></text></g><g transform="matrix(1,0,0,1,13.399999619,94)"><text><tspan x="-0.5" y="10.75" font-family="Symbol" font-weight="normal" font-style="normal" font-size="7.5" fill="#000000">●</tspan><tspan x="9.600000381" y="11.5" font-family="Roboto Condensed" font-weight="normal" font-style="normal" font-size="10" fill="#000000">Maintained organized, presentable merchandise to drive continuous sales</tspan></text></g><g transform="matrix(1,0,0,1,13.399999619,108)"><text><tspan x="-0.5" y="10.75" font-family="Symbol" font-weight="normal" font-style="normal" font-size="7.5" fill="#000000">●</tspan><tspan x="9.600000381" y="11.5" font-family="Roboto Condensed" font-weight="normal" font-style="normal" font-size="10" fill="#000000">Implemented up-selling strategies for recommending accessories and complementary </tspan><tspan x="9.600000381" y="25.5" font-family="Roboto Condensed" font-weight="normal" font-style="normal" font-size="10" fill="#000000">purchases</tspan></text></g><g transform="matrix(1,0,0,1,0,136)"><text><tspan x="0" y="17.5" font-family="Roboto Condensed" font-weight="bold" font-style="normal" font-size="10" fill="#000000">Sales Associate</tspan><tspan x="63.970001221" y="17.5" font-family="Roboto Condensed" font-weight="normal" font-style="normal" font-size="10" fill="#000000">   •   </tspan><tspan x="81.07900238" y="17.5" font-family="Roboto Condensed" font-weight="normal" font-style="italic" font-size="10" fill="#000000">Target</tspan><tspan x="106.680000305" y="17.5" font-family="Roboto Condensed" font-weight="normal" font-style="normal" font-size="10" fill="#000000"> </tspan></text></g><g transform="matrix(1,0,0,1,0,156)"><text><tspan x="0" y="11.5" font-family="Roboto Condensed" font-weight="normal" font-style="normal" font-size="10" fill="#000000">San Francisco, CA   •   June 2013 to March 2015 </tspan></text></g><g transform="matrix(1,0,0,1,13.399999619,170)"><text><tspan x="-0.5" y="10.75" font-family="Symbol" font-weight="normal" font-style="normal" font-size="7.5" fill="#000000">●</tspan><tspan x="9.600000381" y="11.5" font-family="Roboto Condensed" font-weight="normal" font-style="normal" font-size="10" fill="#000000">Maintained organized, presentable merchandise to drive continuous sales</tspan></text></g><g transform="matrix(1,0,0,1,13.399999619,184)"><text><tspan x="-0.5" y="10.75" font-family="Symbol" font-weight="normal" font-style="normal" font-size="7.5" fill="#000000">●</tspan><tspan x="9.600000381" y="11.5" font-family="Roboto Condensed" font-weight="normal" font-style="normal" font-size="10" fill="#000000">Organized racks and shelves to maintain store visual appeal, engage customers and </tspan><tspan x="9.600000381" y="25.5" font-family="Roboto Condensed" font-weight="normal" font-style="normal" font-size="10" fill="#000000">promote merchandise</tspan></text></g><g transform="matrix(1,0,0,1,13.399999619,212)"><text><tspan x="-0.5" y="10.75" font-family="Symbol" font-weight="normal" font-style="normal" font-size="7.5" fill="#000000">●</tspan><tspan x="9.600000381" y="11.5" font-family="Roboto Condensed" font-weight="normal" font-style="normal" font-size="10" fill="#000000">Evaluated inventory and delivery needs, optimizing strategies to meet customer </tspan><tspan x="9.600000381" y="25.5" font-family="Roboto Condensed" font-weight="normal" font-style="normal" font-size="10" fill="#000000">demands</tspan></text></g><g transform="matrix(1,0,0,1,13.399999619,240)"><text><tspan x="-0.5" y="10.75" font-family="Symbol" font-weight="normal" font-style="normal" font-size="7.5" fill="#000000">●</tspan><tspan x="9.600000381" y="11.5" font-family="Roboto Condensed" font-weight="normal" font-style="normal" font-size="10" fill="#000000">Analyzed and processed returns, assisting customers with finding alternative </tspan><tspan x="9.600000381" y="25.5" font-family="Roboto Condensed" font-weight="normal" font-style="normal" font-size="10" fill="#000000">merchandise to meet needs</tspan></text></g></g></g><g transform="matrix(1,0,0,1,0,425.5)"><g transform="matrix(1,0,0,1,0,0)" clip-path="url(#clip10)"><g transform="matrix(1,0,0,1,0,10)"><text><tspan x="0" y="13" font-family="Roboto Condensed" font-weight="bold" font-style="normal" font-size="12" fill="#c0c0c0">EDUCATION</tspan></text></g></g><g transform="matrix(1,0,0,1,120,0)" clip-path="url(#clip11)"><g transform="matrix(1,0,0,1,0,10)"><text><tspan x="0" y="11.5" font-family="Roboto Condensed" font-weight="bold" font-style="normal" font-size="10" fill="#000000">Bachelor of Arts</tspan><tspan x="65.195999146" y="11.5" font-family="Roboto Condensed" font-weight="normal" font-style="normal" font-size="10" fill="#000000"> - Business Administration   •   </tspan><tspan x="185.531997681" y="11.5" font-family="Roboto Condensed" font-weight="normal" font-style="italic" font-size="10" fill="#000000">San Francisco State University</tspan><tspan x="305.063995361" y="11.5" font-family="Roboto Condensed" font-weight="normal" font-style="normal" font-size="10" fill="#000000"> </tspan></text></g><g transform="matrix(1,0,0,1,0,24)"><text><tspan x="0" y="11.5" font-family="Roboto Condensed" font-weight="normal" font-style="normal" font-size="10" fill="#000000">San Francisco, CA   •   2013 </tspan></text></g></g></g></g></g></g></svg>