<?xml version="1.0" encoding="utf-8" standalone="yes"?><svg xmlns="http://www.w3.org/2000/svg" xmlns:xlink="http://www.w3.org/1999/xlink" version="1.1" width="816" height="1056"><!--Generated by Aspose.Words for .NET 18.5--><defs><clipPath id="clip1"><path d="M-1,-1 L264.899993896,-1 L264.899993896,55.5 L-1,55.5 Z" clip-rule="evenodd"></path></clipPath><clipPath id="clip2"><path d="M-0.5,-1 L264.899993896,-1 L264.899993896,55.5 L-0.5,55.5 Z" clip-rule="evenodd"></path></clipPath><style type="text/css">svg{background:white}</style></defs><g transform="scale(1.33333)"><g><path d="M0,0 L600,0 L600,450 L0,450 Z" fill="#ffffff" fill-rule="evenodd"></path><g transform="matrix(1,0,0,1,600,0)"><path d="M0,0 L600,0 L600,450 L0,450 Z" fill="#ffffff" fill-rule="evenodd"></path></g><g transform="matrix(1,0,0,1,0,450)"><path d="M0,0 L600,0 L600,450 L0,450 Z" fill="#ffffff" fill-rule="evenodd"></path></g><g transform="matrix(1,0,0,1,600,450)"><path d="M0,0 L600,0 L600,450 L0,450 Z" fill="#ffffff" fill-rule="evenodd"></path></g><g transform="matrix(1,0,0,1,42,25)"><text><tspan x="271.946990967" y="52.597000122" font-family="Tahoma" font-weight="bold" font-style="normal" font-size="31" fill="#336699">JESSICA CLAIRE</tspan></text><g transform="matrix(1,0,0,1,0,59)"><text><tspan x="198.449996948" y="23.934999466" font-family="Tahoma" font-weight="normal" font-style="normal" font-size="10" fill="#336699">San Francisco, CA 94105 | (555) 432-1000 | resumesample@example.com</tspan></text></g><g transform="matrix(1,0,0,1,0,100)"><text><tspan x="0" y="18.107999802" font-family="Tahoma" font-weight="bold" font-style="normal" font-size="14" fill="#336699">Professional Summary</tspan></text></g><g transform="matrix(1,0,0,1,0,126)"><text><tspan x="0" y="15.727999687" font-family="Tahoma" font-weight="normal" font-style="normal" font-size="11" fill="#666666">Highly motivated Sales Associate with extensive customer service and sales experience. Outgoing sales </tspan><tspan x="0" y="33.728000641" font-family="Tahoma" font-weight="normal" font-style="normal" font-size="11" fill="#666666">professional with track record of driving increased sales, improving buying experience and elevating </tspan><tspan x="0" y="51.728000641" font-family="Tahoma" font-weight="normal" font-style="normal" font-size="11" fill="#666666">company profile with target market.</tspan></text></g><g transform="matrix(1,0,0,1,0,180)"><text><tspan x="0" y="27.107999802" font-family="Tahoma" font-weight="bold" font-style="normal" font-size="14" fill="#336699">Skills</tspan></text></g><g transform="matrix(1,0,0,1,0,215)"><g transform="matrix(1,0,0,1,0,0)" clip-path="url(#clip1)"><g transform="matrix(1,0,0,1,13.199999809,0.25)"><text><tspan x="-0.5" y="14.977999687" font-family="Symbol" font-weight="normal" font-style="normal" font-size="8.25" fill="#666666">●</tspan><tspan x="10.050000191" y="15.727999687" font-family="Tahoma" font-weight="normal" font-style="normal" font-size="11" fill="#666666">Guest services</tspan></text></g><g transform="matrix(1,0,0,1,13.199999809,18.25)"><text><tspan x="-0.5" y="14.977999687" font-family="Symbol" font-weight="normal" font-style="normal" font-size="8.25" fill="#666666">●</tspan><tspan x="10.050000191" y="15.727999687" font-family="Tahoma" font-weight="normal" font-style="normal" font-size="11" fill="#666666">Inventory control procedures</tspan></text></g><g transform="matrix(1,0,0,1,13.199999809,36.25)"><text><tspan x="-0.5" y="14.977999687" font-family="Symbol" font-weight="normal" font-style="normal" font-size="8.25" fill="#666666">●</tspan><tspan x="10.050000191" y="15.727999687" font-family="Tahoma" font-weight="normal" font-style="normal" font-size="11" fill="#666666">Merchandising expertise</tspan></text></g></g><g transform="matrix(1,0,0,1,263.899993896,0)" clip-path="url(#clip2)"><g transform="matrix(1,0,0,1,13.449999809,0.25)"><text><tspan x="-0.5" y="14.977999687" font-family="Symbol" font-weight="normal" font-style="normal" font-size="8.25" fill="#666666">●</tspan><tspan x="10.050000191" y="15.727999687" font-family="Tahoma" font-weight="normal" font-style="normal" font-size="11" fill="#666666">Loss prevention</tspan></text></g><g transform="matrix(1,0,0,1,13.449999809,18.25)"><text><tspan x="-0.5" y="14.977999687" font-family="Symbol" font-weight="normal" font-style="normal" font-size="8.25" fill="#666666">●</tspan><tspan x="10.050000191" y="15.727999687" font-family="Tahoma" font-weight="normal" font-style="normal" font-size="11" fill="#666666">Cash register operations</tspan></text></g><g transform="matrix(1,0,0,1,13.449999809,36.25)"><text><tspan x="-0.5" y="14.977999687" font-family="Symbol" font-weight="normal" font-style="normal" font-size="8.25" fill="#666666">●</tspan><tspan x="10.050000191" y="15.727999687" font-family="Tahoma" font-weight="normal" font-style="normal" font-size="11" fill="#666666">Product promotions</tspan></text></g></g><path d="M263.899993896,0 L263.899993896,54.5 " stroke-width="1" stroke-miterlimit="10" stroke="#fefdfd" fill="none" fill-rule="evenodd"></path></g><g transform="matrix(1,0,0,1,0,269.5)"><text><tspan x="0" y="27.107999802" font-family="Tahoma" font-weight="bold" font-style="normal" font-size="14" fill="#336699">Work History</tspan></text></g><g transform="matrix(1,0,0,1,0,304.5)"><text><tspan x="0" y="15.727999687" font-family="Tahoma" font-weight="bold" font-style="normal" font-size="11" fill="#336699">Senior Sales Associate</tspan><tspan x="123.375" y="15.727999687" font-family="Tahoma" font-weight="normal" font-style="normal" font-size="11" fill="#666666"> </tspan><tspan x="430.74798584" y="15.727999687" font-family="Tahoma" font-weight="normal" font-style="normal" font-size="11" fill="#666666"> </tspan><tspan x="434.186004639" y="15.727999687" font-family="Tahoma" font-weight="normal" font-style="normal" font-size="11" fill="#336699">Mar 2015</tspan><tspan x="479.856994629" y="15.727999687" font-family="Tahoma" font-weight="normal" font-style="normal" font-size="11" fill="#666666"> - </tspan><tspan x="490.729003906" y="15.727999687" font-family="Tahoma" font-weight="normal" font-style="normal" font-size="11" fill="#336699">Current</tspan><tspan x="527" y="15.727999687" font-family="Tahoma" font-weight="normal" font-style="normal" font-size="11" fill="#666666"> </tspan></text></g><g transform="matrix(1,0,0,1,0,322.5)"><text><tspan x="0" y="15.727999687" font-family="Tahoma" font-weight="normal" font-style="normal" font-size="11" fill="#666666">Bed Bath &amp; Beyond, Inc. </tspan><tspan x="436.963012695" y="15.727999687" font-family="Tahoma" font-weight="normal" font-style="normal" font-size="11" fill="#666666"> San Francisco, CA </tspan></text></g><g transform="matrix(1,0,0,1,12.949999809,340.5)"><text><tspan x="-0.5" y="14.977999687" font-family="Symbol" font-weight="normal" font-style="normal" font-size="8.25" fill="#666666">●</tspan><tspan x="10.050000191" y="15.727999687" font-family="Tahoma" font-weight="normal" font-style="normal" font-size="11" fill="#666666">Applied security and loss prevention training toward recognizing risks and reducing store theft</tspan></text></g><g transform="matrix(1,0,0,1,12.949999809,358.5)"><text><tspan x="-0.5" y="14.977999687" font-family="Symbol" font-weight="normal" font-style="normal" font-size="8.25" fill="#666666">●</tspan><tspan x="10.050000191" y="15.727999687" font-family="Tahoma" font-weight="normal" font-style="normal" font-size="11" fill="#666666">Trained and developed sales team associates in products, selling techniques and procedures</tspan></text></g><g transform="matrix(1,0,0,1,12.949999809,376.5)"><text><tspan x="-0.5" y="14.977999687" font-family="Symbol" font-weight="normal" font-style="normal" font-size="8.25" fill="#666666">●</tspan><tspan x="10.050000191" y="15.727999687" font-family="Tahoma" font-weight="normal" font-style="normal" font-size="11" fill="#666666">Maintained organized, presentable merchandise to drive continuous sales</tspan></text></g><g transform="matrix(1,0,0,1,12.949999809,394.5)"><text><tspan x="-0.5" y="14.977999687" font-family="Symbol" font-weight="normal" font-style="normal" font-size="8.25" fill="#666666">●</tspan><tspan x="10.050000191" y="15.727999687" font-family="Tahoma" font-weight="normal" font-style="normal" font-size="11" fill="#666666">Implemented up-selling strategies for recommending accessories and complementary purchases</tspan></text></g><g transform="matrix(1,0,0,1,0,412.5)"><text><tspan x="0" y="26.728000641" font-family="Tahoma" font-weight="bold" font-style="normal" font-size="11" fill="#336699">Sales Associate</tspan><tspan x="84.73500061" y="26.728000641" font-family="Tahoma" font-weight="normal" font-style="normal" font-size="11" fill="#666666"> </tspan><tspan x="422.712005615" y="26.728000641" font-family="Tahoma" font-weight="normal" font-style="normal" font-size="11" fill="#666666"> </tspan><tspan x="426.149993896" y="26.728000641" font-family="Tahoma" font-weight="normal" font-style="normal" font-size="11" fill="#336699">Jun 2013</tspan><tspan x="470.457000732" y="26.728000641" font-family="Tahoma" font-weight="normal" font-style="normal" font-size="11" fill="#666666"> - </tspan><tspan x="481.32901001" y="26.728000641" font-family="Tahoma" font-weight="normal" font-style="normal" font-size="11" fill="#336699">Mar 2015</tspan><tspan x="527" y="26.728000641" font-family="Tahoma" font-weight="normal" font-style="normal" font-size="11" fill="#666666"> </tspan></text></g><g transform="matrix(1,0,0,1,0,441.5)"><text><tspan x="0" y="15.727999687" font-family="Tahoma" font-weight="normal" font-style="normal" font-size="11" fill="#666666">Target </tspan><tspan x="436.963012695" y="15.727999687" font-family="Tahoma" font-weight="normal" font-style="normal" font-size="11" fill="#666666"> San Francisco, CA </tspan></text></g><g transform="matrix(1,0,0,1,12.949999809,459.5)"><text><tspan x="-0.5" y="14.977999687" font-family="Symbol" font-weight="normal" font-style="normal" font-size="8.25" fill="#666666">●</tspan><tspan x="10.050000191" y="15.727999687" font-family="Tahoma" font-weight="normal" font-style="normal" font-size="11" fill="#666666">Maintained organized, presentable merchandise to drive continuous sales</tspan></text></g><g transform="matrix(1,0,0,1,12.949999809,477.5)"><text><tspan x="-0.5" y="14.977999687" font-family="Symbol" font-weight="normal" font-style="normal" font-size="8.25" fill="#666666">●</tspan><tspan x="10.050000191" y="15.727999687" font-family="Tahoma" font-weight="normal" font-style="normal" font-size="11" fill="#666666">Organized racks and shelves to maintain store visual appeal, engage customers and promote </tspan><tspan x="10.050000191" y="33.728000641" font-family="Tahoma" font-weight="normal" font-style="normal" font-size="11" fill="#666666">merchandise</tspan></text></g><g transform="matrix(1,0,0,1,12.949999809,513.5)"><text><tspan x="-0.5" y="14.977999687" font-family="Symbol" font-weight="normal" font-style="normal" font-size="8.25" fill="#666666">●</tspan><tspan x="10.050000191" y="15.727999687" font-family="Tahoma" font-weight="normal" font-style="normal" font-size="11" fill="#666666">Evaluated inventory and delivery needs, optimizing strategies to meet customer demands</tspan></text></g><g transform="matrix(1,0,0,1,12.949999809,531.5)"><text><tspan x="-0.5" y="14.977999687" font-family="Symbol" font-weight="normal" font-style="normal" font-size="8.25" fill="#666666">●</tspan><tspan x="10.050000191" y="15.727999687" font-family="Tahoma" font-weight="normal" font-style="normal" font-size="11" fill="#666666">Analyzed and processed returns, assisting customers with finding alternative merchandise to meet </tspan><tspan x="10.050000191" y="33.728000641" font-family="Tahoma" font-weight="normal" font-style="normal" font-size="11" fill="#666666">needs</tspan></text></g><g transform="matrix(1,0,0,1,0,567.5)"><text><tspan x="0" y="27.107999802" font-family="Tahoma" font-weight="bold" font-style="normal" font-size="14" fill="#336699">Education</tspan></text></g><g transform="matrix(1,0,0,1,0,602.5)"><text><tspan x="0" y="15.727999687" font-family="Tahoma" font-weight="bold" font-style="normal" font-size="11" fill="#003363">Bachelor of Arts</tspan><tspan x="88.356002808" y="15.727999687" font-family="Tahoma" font-weight="normal" font-style="normal" font-size="11" fill="#666666">: </tspan><tspan x="95.682998657" y="15.727999687" font-family="Tahoma" font-weight="bold" font-style="normal" font-size="11" fill="#003363">Business Administration</tspan><tspan x="229.300003052" y="15.727999687" font-family="Tahoma" font-weight="normal" font-style="normal" font-size="11" fill="#666666"> </tspan><tspan x="499.541992188" y="15.727999687" font-family="Tahoma" font-weight="normal" font-style="normal" font-size="11" fill="#336699"> 2013 </tspan></text></g><g transform="matrix(1,0,0,1,0,620.5)"><text><tspan x="0" y="15.727999687" font-family="Tahoma" font-weight="normal" font-style="normal" font-size="11" fill="#666666">San Francisco State University </tspan><tspan x="436.963012695" y="15.727999687" font-family="Tahoma" font-weight="normal" font-style="normal" font-size="11" fill="#666666"> San Francisco, CA </tspan></text></g></g></g></g></svg>