<?xml version="1.0" encoding="utf-8" standalone="yes"?><svg xmlns="http://www.w3.org/2000/svg" xmlns:xlink="http://www.w3.org/1999/xlink" version="1.1" width="816" height="1056"><!--Generated by Aspose.Words for .NET 18.5--><defs><clipPath id="clip1"><path d="M-1,-1 L269.899993896,-1 L269.899993896,55.5 L-1,55.5 Z" clip-rule="evenodd"></path></clipPath><clipPath id="clip2"><path d="M-1,-1 L269.899993896,-1 L269.899993896,55.5 L-1,55.5 Z" clip-rule="evenodd"></path></clipPath><style type="text/css">svg{background:white}</style></defs><g transform="scale(1.33333)"><g><path d="M0,0 L600,0 L600,450 L0,450 Z" fill="#ffffff" fill-rule="evenodd"></path><g transform="matrix(1,0,0,1,600,0)"><path d="M0,0 L600,0 L600,450 L0,450 Z" fill="#ffffff" fill-rule="evenodd"></path></g><g transform="matrix(1,0,0,1,0,450)"><path d="M0,0 L600,0 L600,450 L0,450 Z" fill="#ffffff" fill-rule="evenodd"></path></g><g transform="matrix(1,0,0,1,600,450)"><path d="M0,0 L600,0 L600,450 L0,450 Z" fill="#ffffff" fill-rule="evenodd"></path></g><g transform="matrix(1,0,0,1,37,25)"><path d="M-1.450000048,0 L539.450012207,0 L539.450012207,60 L-1.450000048,60 Z" fill="#1d4871" fill-rule="evenodd"></path><text><tspan x="177.927001953" y="41.338001251" font-family="Arial" font-weight="bold" font-style="normal" font-size="22" fill="#ffffff">JESSICA CLAIRE</tspan></text><path d="M-1.450000048,60.5 L539.450012207,60.5 " stroke-width="1" stroke-miterlimit="10" stroke="#1d4871" fill="none" fill-rule="evenodd"></path><g transform="matrix(1,0,0,1,0,61)"><text><tspan x="0" y="0.938000023" font-family="Arial" font-weight="normal" font-style="normal" font-size="1" fill="#000000"> </tspan></text></g><path d="M-1.450000048,62.150001526 L539.450012207,62.150001526 L539.450012207,92.150001526 L-1.450000048,92.150001526 Z" fill="#d2dae3" fill-rule="evenodd"></path><g transform="matrix(1,0,0,1,0,62.150001526)"><text><tspan x="84.393997192" y="22.669000626" font-family="Arial" font-weight="normal" font-style="normal" font-size="11" fill="#333366">San Francisco, CA 94105 • (555) 432-1000 • resumesample@example.com</tspan></text></g><path d="M-1.450000048,92.650001526 L539.450012207,92.650001526 " stroke-width="1" stroke-miterlimit="10" stroke="#333366" fill="none" fill-rule="evenodd"></path><g transform="matrix(1,0,0,1,0,93.150001526)"><text><tspan x="0" y="5.938000202" font-family="Arial" font-weight="normal" font-style="normal" font-size="1" fill="#000000"> </tspan></text></g><path d="M-1.450000048,96.650001526 L539.450012207,96.650001526 " stroke-width="3" stroke-miterlimit="10" stroke="#000000" fill="none" fill-rule="evenodd"></path><g transform="matrix(1,0,0,1,0,99.300003052)"><text><tspan x="0" y="31.457000732" font-family="Arial" font-weight="bold" font-style="normal" font-size="12" fill="#000000">PROFESSIONAL SUMMARY</tspan></text></g><g transform="matrix(1,0,0,1,0,136.300003052)"><text><tspan x="0" y="15.668999672" font-family="Arial" font-weight="normal" font-style="normal" font-size="11" fill="#000000">Highly motivated Sales Associate with extensive customer service and sales experience. Outgoing sales </tspan><tspan x="0" y="33.668998718" font-family="Arial" font-weight="normal" font-style="normal" font-size="11" fill="#000000">professional with track record of driving increased sales, improving buying experience and elevating company </tspan><tspan x="0" y="51.668998718" font-family="Arial" font-weight="normal" font-style="normal" font-size="11" fill="#000000">profile with target market.</tspan></text></g><g transform="matrix(1,0,0,1,0,190.300003052)"><text><tspan x="0" y="31.457000732" font-family="Arial" font-weight="bold" font-style="normal" font-size="12" fill="#000000">SKILLS</tspan></text></g><g transform="matrix(1,0,0,1,0,227.300003052)"><g transform="matrix(1,0,0,1,0,0)" clip-path="url(#clip1)"><g transform="matrix(1,0,0,1,13.199999809,0.25)"><text><tspan x="-0.5" y="14.918999672" font-family="Symbol" font-weight="normal" font-style="normal" font-size="8.25" fill="#000000">●</tspan><tspan x="10.050000191" y="15.668999672" font-family="Arial" font-weight="normal" font-style="normal" font-size="11" fill="#000000">Guest services</tspan></text></g><g transform="matrix(1,0,0,1,13.199999809,18.25)"><text><tspan x="-0.5" y="14.918999672" font-family="Symbol" font-weight="normal" font-style="normal" font-size="8.25" fill="#000000">●</tspan><tspan x="10.050000191" y="15.668999672" font-family="Arial" font-weight="normal" font-style="normal" font-size="11" fill="#000000">Inventory control procedures</tspan></text></g><g transform="matrix(1,0,0,1,13.199999809,36.25)"><text><tspan x="-0.5" y="14.918999672" font-family="Symbol" font-weight="normal" font-style="normal" font-size="8.25" fill="#000000">●</tspan><tspan x="10.050000191" y="15.668999672" font-family="Arial" font-weight="normal" font-style="normal" font-size="11" fill="#000000">Merchandising expertise</tspan></text></g></g><g transform="matrix(1,0,0,1,268.899993896,0)" clip-path="url(#clip2)"><g transform="matrix(1,0,0,1,13.199999809,0.25)"><text><tspan x="-0.5" y="14.918999672" font-family="Symbol" font-weight="normal" font-style="normal" font-size="8.25" fill="#000000">●</tspan><tspan x="10.050000191" y="15.668999672" font-family="Arial" font-weight="normal" font-style="normal" font-size="11" fill="#000000">Loss prevention</tspan></text></g><g transform="matrix(1,0,0,1,13.199999809,18.25)"><text><tspan x="-0.5" y="14.918999672" font-family="Symbol" font-weight="normal" font-style="normal" font-size="8.25" fill="#000000">●</tspan><tspan x="10.050000191" y="15.668999672" font-family="Arial" font-weight="normal" font-style="normal" font-size="11" fill="#000000">Cash register operations</tspan></text></g><g transform="matrix(1,0,0,1,13.199999809,36.25)"><text><tspan x="-0.5" y="14.918999672" font-family="Symbol" font-weight="normal" font-style="normal" font-size="8.25" fill="#000000">●</tspan><tspan x="10.050000191" y="15.668999672" font-family="Arial" font-weight="normal" font-style="normal" font-size="11" fill="#000000">Product promotions</tspan></text></g></g></g><g transform="matrix(1,0,0,1,0,281.799987793)"><text><tspan x="0" y="31.457000732" font-family="Arial" font-weight="bold" font-style="normal" font-size="12" fill="#000000">WORK HISTORY</tspan></text></g><g transform="matrix(1,0,0,1,0,318.799987793)"><text><tspan x="0" y="15.668999672" font-family="Arial" font-weight="bold" font-style="normal" font-size="11" fill="#000000">Senior Sales Associate</tspan><tspan x="121.058998108" y="15.668999672" font-family="Arial" font-weight="normal" font-style="normal" font-size="11" fill="#000000"> </tspan></text></g><g transform="matrix(1,0,0,1,0,336.799987793)"><text><tspan x="0" y="15.668999672" font-family="Arial" font-weight="bold" font-style="normal" font-size="11" fill="#000000">Bed Bath &amp; Beyond, Inc.</tspan><tspan x="127.73500061" y="15.668999672" font-family="Arial" font-weight="normal" font-style="normal" font-size="11" fill="#000000"> - San Francisco, CA </tspan><tspan x="447.727996826" y="15.668999672" font-family="Arial" font-weight="normal" font-style="normal" font-size="11" fill="#000000"> 03/2015 - Current </tspan></text></g><g transform="matrix(1,0,0,1,12.949999809,354.799987793)"><text><tspan x="-0.5" y="14.918999672" font-family="Symbol" font-weight="normal" font-style="normal" font-size="8.25" fill="#000000">●</tspan><tspan x="10.050000191" y="15.668999672" font-family="Arial" font-weight="normal" font-style="normal" font-size="11" fill="#000000">Applied security and loss prevention training toward recognizing risks and reducing store theft</tspan></text></g><g transform="matrix(1,0,0,1,12.949999809,372.799987793)"><text><tspan x="-0.5" y="14.918999672" font-family="Symbol" font-weight="normal" font-style="normal" font-size="8.25" fill="#000000">●</tspan><tspan x="10.050000191" y="15.668999672" font-family="Arial" font-weight="normal" font-style="normal" font-size="11" fill="#000000">Trained and developed sales team associates in products, selling techniques and procedures</tspan></text></g><g transform="matrix(1,0,0,1,12.949999809,390.799987793)"><text><tspan x="-0.5" y="14.918999672" font-family="Symbol" font-weight="normal" font-style="normal" font-size="8.25" fill="#000000">●</tspan><tspan x="10.050000191" y="15.668999672" font-family="Arial" font-weight="normal" font-style="normal" font-size="11" fill="#000000">Maintained organized, presentable merchandise to drive continuous sales</tspan></text></g><g transform="matrix(1,0,0,1,12.949999809,408.799987793)"><text><tspan x="-0.5" y="14.918999672" font-family="Symbol" font-weight="normal" font-style="normal" font-size="8.25" fill="#000000">●</tspan><tspan x="10.050000191" y="15.668999672" font-family="Arial" font-weight="normal" font-style="normal" font-size="11" fill="#000000">Implemented up-selling strategies for recommending accessories and complementary purchases</tspan></text></g><g transform="matrix(1,0,0,1,0,426.799987793)"><text><tspan x="0" y="22.669000626" font-family="Arial" font-weight="bold" font-style="normal" font-size="11" fill="#000000">Sales Associate</tspan><tspan x="83.773002625" y="22.669000626" font-family="Arial" font-weight="normal" font-style="normal" font-size="11" fill="#000000"> </tspan></text></g><g transform="matrix(1,0,0,1,0,451.799987793)"><text><tspan x="0" y="15.668999672" font-family="Arial" font-weight="bold" font-style="normal" font-size="11" fill="#000000">Target</tspan><tspan x="33.618000031" y="15.668999672" font-family="Arial" font-weight="normal" font-style="normal" font-size="11" fill="#000000"> - San Francisco, CA </tspan><tspan x="444.644989014" y="15.668999672" font-family="Arial" font-weight="normal" font-style="normal" font-size="11" fill="#000000"> 06/2013 - 03/2015 </tspan></text></g><g transform="matrix(1,0,0,1,12.949999809,469.799987793)"><text><tspan x="-0.5" y="14.918999672" font-family="Symbol" font-weight="normal" font-style="normal" font-size="8.25" fill="#000000">●</tspan><tspan x="10.050000191" y="15.668999672" font-family="Arial" font-weight="normal" font-style="normal" font-size="11" fill="#000000">Maintained organized, presentable merchandise to drive continuous sales</tspan></text></g><g transform="matrix(1,0,0,1,12.949999809,487.799987793)"><text><tspan x="-0.5" y="14.918999672" font-family="Symbol" font-weight="normal" font-style="normal" font-size="8.25" fill="#000000">●</tspan><tspan x="10.050000191" y="15.668999672" font-family="Arial" font-weight="normal" font-style="normal" font-size="11" fill="#000000">Organized racks and shelves to maintain store visual appeal, engage customers and promote </tspan><tspan x="10.050000191" y="33.668998718" font-family="Arial" font-weight="normal" font-style="normal" font-size="11" fill="#000000">merchandise</tspan></text></g><g transform="matrix(1,0,0,1,12.949999809,523.799987793)"><text><tspan x="-0.5" y="14.918999672" font-family="Symbol" font-weight="normal" font-style="normal" font-size="8.25" fill="#000000">●</tspan><tspan x="10.050000191" y="15.668999672" font-family="Arial" font-weight="normal" font-style="normal" font-size="11" fill="#000000">Evaluated inventory and delivery needs, optimizing strategies to meet customer demands</tspan></text></g><g transform="matrix(1,0,0,1,12.949999809,541.799987793)"><text><tspan x="-0.5" y="14.918999672" font-family="Symbol" font-weight="normal" font-style="normal" font-size="8.25" fill="#000000">●</tspan><tspan x="10.050000191" y="15.668999672" font-family="Arial" font-weight="normal" font-style="normal" font-size="11" fill="#000000">Analyzed and processed returns, assisting customers with finding alternative merchandise to meet needs</tspan></text></g><g transform="matrix(1,0,0,1,0,559.799987793)"><text><tspan x="0" y="31.457000732" font-family="Arial" font-weight="bold" font-style="normal" font-size="12" fill="#000000">EDUCATION</tspan></text></g><g transform="matrix(1,0,0,1,0,596.799987793)"><text><tspan x="0" y="15.668999672" font-family="Arial" font-weight="bold" font-style="normal" font-size="11" fill="#000000">Bachelor of Arts</tspan><tspan x="85.570999146" y="15.668999672" font-family="Arial" font-weight="normal" font-style="normal" font-size="11" fill="#000000">: Business Administration </tspan></text></g><g transform="matrix(1,0,0,1,0,614.799987793)"><text><tspan x="0" y="15.668999672" font-family="Arial" font-weight="bold" font-style="normal" font-size="11" fill="#000000">San Francisco State University</tspan><tspan x="161.395004272" y="15.668999672" font-family="Arial" font-weight="normal" font-style="normal" font-size="11" fill="#000000"> - San Francisco, CA </tspan><tspan x="509.472991943" y="15.668999672" font-family="Arial" font-weight="normal" font-style="normal" font-size="11" fill="#000000"> 2013 </tspan></text></g></g></g></g></svg>