<?xml version="1.0" encoding="utf-8" standalone="yes"?><svg xmlns="http://www.w3.org/2000/svg" xmlns:xlink="http://www.w3.org/1999/xlink" version="1.1" width="816" height="1056"><!--Generated by Aspose.Words for .NET 18.5--><defs><clipPath id="clip1"><path d="M-1,-1 L529,-1 L529,26.5 L-1,26.5 Z" clip-rule="evenodd"></path></clipPath><clipPath id="clip2"><path d="M-1,-1 L264.899993896,-1 L264.899993896,43.5 L-1,43.5 Z" clip-rule="evenodd"></path></clipPath><clipPath id="clip3"><path d="M-0.5,-1 L264.899993896,-1 L264.899993896,43.5 L-0.5,43.5 Z" clip-rule="evenodd"></path></clipPath><style type="text/css">svg{background:white}</style></defs><g transform="scale(1.33333)"><g><path d="M0,0 L600,0 L600,450 L0,450 Z" fill="#ffffff" fill-rule="evenodd"></path><g transform="matrix(1,0,0,1,600,0)"><path d="M0,0 L600,0 L600,450 L0,450 Z" fill="#ffffff" fill-rule="evenodd"></path></g><g transform="matrix(1,0,0,1,0,450)"><path d="M0,0 L600,0 L600,450 L0,450 Z" fill="#ffffff" fill-rule="evenodd"></path></g><g transform="matrix(1,0,0,1,600,450)"><path d="M0,0 L600,0 L600,450 L0,450 Z" fill="#ffffff" fill-rule="evenodd"></path></g><g transform="matrix(1,0,0,1,42,25)"><text><tspan x="288.678985596" y="28.726999283" font-family="Times New Roman" font-weight="bold" font-style="normal" font-size="29" fill="#000000">JESSICA </tspan><tspan x="415.200012207" y="28.726999283" font-family="Times New Roman" font-weight="bold" font-style="normal" font-size="29" fill="#c00000">CLAIRE</tspan></text><g transform="matrix(1,0,0,1,0,38)"><path d="M0,0 L528,0 L528,25.5 L0,25.5 Z" fill="#000000" fill-rule="evenodd"></path><g transform="matrix(1,0,0,1,0,0)" clip-path="url(#clip1)"><g transform="matrix(1,0,0,1,5.25,0.25)"><text><tspan x="207.169006348" y="15.800000191" font-family="Times New Roman" font-weight="bold" font-style="normal" font-size="10" fill="#ffffff">San Francisco, CA 94105 | (555) 432-1000 | resumesample@example.com</tspan></text></g></g></g><g transform="matrix(1,0,0,1,0,63.5)"><text><tspan x="0" y="28.00399971" font-family="Times New Roman" font-weight="bold" font-style="normal" font-size="15" fill="#000000">Professional Summary</tspan></text></g><path d="M-1.450000048,96.249000549 L529.450012207,96.249000549 " stroke-width="1" stroke-miterlimit="10" stroke="#c00000" fill="none" fill-rule="evenodd"></path><g transform="matrix(1,0,0,1,0,105.749000549)"><text><tspan x="0" y="11.62100029" font-family="Times New Roman" font-weight="normal" font-style="normal" font-size="11" fill="#000000">Highly motivated Sales Associate with extensive customer service and sales experience. Outgoing sales professional </tspan><tspan x="0" y="25.62100029" font-family="Times New Roman" font-weight="normal" font-style="normal" font-size="11" fill="#000000">with track record of driving increased sales, improving buying experience and elevating company profile with target </tspan><tspan x="0" y="39.621002197" font-family="Times New Roman" font-weight="normal" font-style="normal" font-size="11" fill="#000000">market.</tspan></text></g><g transform="matrix(1,0,0,1,0,147.74899292)"><text><tspan x="0" y="28.00399971" font-family="Times New Roman" font-weight="bold" font-style="normal" font-size="15" fill="#000000">Skills</tspan></text></g><path d="M-1.450000048,180.49798584 L529.450012207,180.49798584 " stroke-width="1" stroke-miterlimit="10" stroke="#c00000" fill="none" fill-rule="evenodd"></path><g transform="matrix(1,0,0,1,0,189.998001099)"><g transform="matrix(1,0,0,1,0,0)" clip-path="url(#clip2)"><g transform="matrix(1,0,0,1,13.199999809,0.25)"><text><tspan x="-0.5" y="10.87100029" font-family="Symbol" font-weight="normal" font-style="normal" font-size="8.25" fill="#000000">●</tspan><tspan x="10.050000191" y="11.62100029" font-family="Times New Roman" font-weight="normal" font-style="normal" font-size="11" fill="#000000">Guest services</tspan></text></g><g transform="matrix(1,0,0,1,13.199999809,14.25)"><text><tspan x="-0.5" y="10.87100029" font-family="Symbol" font-weight="normal" font-style="normal" font-size="8.25" fill="#000000">●</tspan><tspan x="10.050000191" y="11.62100029" font-family="Times New Roman" font-weight="normal" font-style="normal" font-size="11" fill="#000000">Inventory control procedures</tspan></text></g><g transform="matrix(1,0,0,1,13.199999809,28.25)"><text><tspan x="-0.5" y="10.87100029" font-family="Symbol" font-weight="normal" font-style="normal" font-size="8.25" fill="#000000">●</tspan><tspan x="10.050000191" y="11.62100029" font-family="Times New Roman" font-weight="normal" font-style="normal" font-size="11" fill="#000000">Merchandising expertise</tspan></text></g></g><g transform="matrix(1,0,0,1,263.899993896,0)" clip-path="url(#clip3)"><g transform="matrix(1,0,0,1,13.449999809,0.25)"><text><tspan x="-0.5" y="10.87100029" font-family="Symbol" font-weight="normal" font-style="normal" font-size="8.25" fill="#000000">●</tspan><tspan x="10.050000191" y="11.62100029" font-family="Times New Roman" font-weight="normal" font-style="normal" font-size="11" fill="#000000">Loss prevention</tspan></text></g><g transform="matrix(1,0,0,1,13.449999809,14.25)"><text><tspan x="-0.5" y="10.87100029" font-family="Symbol" font-weight="normal" font-style="normal" font-size="8.25" fill="#000000">●</tspan><tspan x="10.050000191" y="11.62100029" font-family="Times New Roman" font-weight="normal" font-style="normal" font-size="11" fill="#000000">Cash register operations</tspan></text></g><g transform="matrix(1,0,0,1,13.449999809,28.25)"><text><tspan x="-0.5" y="10.87100029" font-family="Symbol" font-weight="normal" font-style="normal" font-size="8.25" fill="#000000">●</tspan><tspan x="10.050000191" y="11.62100029" font-family="Times New Roman" font-weight="normal" font-style="normal" font-size="11" fill="#000000">Product promotions</tspan></text></g></g><path d="M263.899993896,0 L263.899993896,42.5 " stroke-width="1" stroke-miterlimit="10" stroke="#fefdfd" fill="none" fill-rule="evenodd"></path></g><g transform="matrix(1,0,0,1,0,232.498001099)"><text><tspan x="0" y="28.00399971" font-family="Times New Roman" font-weight="bold" font-style="normal" font-size="15" fill="#000000">Work History</tspan></text></g><path d="M-1.450000048,265.247009277 L529.450012207,265.247009277 " stroke-width="1" stroke-miterlimit="10" stroke="#c00000" fill="none" fill-rule="evenodd"></path><g transform="matrix(1,0,0,1,0,274.747009277)"><text><tspan x="0" y="11.62100029" font-family="Times New Roman" font-weight="bold" font-style="normal" font-size="11" fill="#000000">Senior Sales Associate</tspan><tspan x="103.882003784" y="11.62100029" font-family="Times New Roman" font-weight="normal" font-style="normal" font-size="11" fill="#000000"> </tspan><tspan x="440.536010742" y="11.62100029" font-family="Times New Roman" font-weight="normal" font-style="normal" font-size="11" fill="#000000"> 03/2015 to Current </tspan></text></g><g transform="matrix(1,0,0,1,0,288.747009277)"><text><tspan x="0" y="11.62100029" font-family="Times New Roman" font-weight="bold" font-style="normal" font-size="11" fill="#000000">Bed Bath &amp; Beyond, Inc.</tspan><tspan x="117.353996277" y="11.62100029" font-family="Times New Roman" font-weight="normal" font-style="normal" font-size="11" fill="#000000"> – San Francisco, CA</tspan></text></g><g transform="matrix(1,0,0,1,12.949999809,302.747009277)"><text><tspan x="-0.5" y="10.87100029" font-family="Symbol" font-weight="normal" font-style="normal" font-size="8.25" fill="#000000">●</tspan><tspan x="10.050000191" y="11.62100029" font-family="Times New Roman" font-weight="normal" font-style="normal" font-size="11" fill="#000000">Applied security and loss prevention training toward recognizing risks and reducing store theft</tspan></text></g><g transform="matrix(1,0,0,1,12.949999809,316.747009277)"><text><tspan x="-0.5" y="10.87100029" font-family="Symbol" font-weight="normal" font-style="normal" font-size="8.25" fill="#000000">●</tspan><tspan x="10.050000191" y="11.62100029" font-family="Times New Roman" font-weight="normal" font-style="normal" font-size="11" fill="#000000">Trained and developed sales team associates in products, selling techniques and procedures</tspan></text></g><g transform="matrix(1,0,0,1,12.949999809,330.747009277)"><text><tspan x="-0.5" y="10.87100029" font-family="Symbol" font-weight="normal" font-style="normal" font-size="8.25" fill="#000000">●</tspan><tspan x="10.050000191" y="11.62100029" font-family="Times New Roman" font-weight="normal" font-style="normal" font-size="11" fill="#000000">Maintained organized, presentable merchandise to drive continuous sales</tspan></text></g><g transform="matrix(1,0,0,1,12.949999809,344.747009277)"><text><tspan x="-0.5" y="10.87100029" font-family="Symbol" font-weight="normal" font-style="normal" font-size="8.25" fill="#000000">●</tspan><tspan x="10.050000191" y="11.62100029" font-family="Times New Roman" font-weight="normal" font-style="normal" font-size="11" fill="#000000">Implemented up-selling strategies for recommending accessories and complementary purchases</tspan></text></g><g transform="matrix(1,0,0,1,0,358.747009277)"><text><tspan x="0" y="29.62100029" font-family="Times New Roman" font-weight="bold" font-style="normal" font-size="11" fill="#000000">Sales Associate</tspan><tspan x="70.575996399" y="29.62100029" font-family="Times New Roman" font-weight="normal" font-style="normal" font-size="11" fill="#000000"> </tspan><tspan x="438.082000732" y="29.62100029" font-family="Times New Roman" font-weight="normal" font-style="normal" font-size="11" fill="#000000"> 06/2013 to 03/2015 </tspan></text></g><g transform="matrix(1,0,0,1,0,390.747009277)"><text><tspan x="0" y="11.62100029" font-family="Times New Roman" font-weight="bold" font-style="normal" font-size="11" fill="#000000">Target</tspan><tspan x="31.76499939" y="11.62100029" font-family="Times New Roman" font-weight="normal" font-style="normal" font-size="11" fill="#000000"> – San Francisco, CA</tspan></text></g><g transform="matrix(1,0,0,1,12.949999809,404.747009277)"><text><tspan x="-0.5" y="10.87100029" font-family="Symbol" font-weight="normal" font-style="normal" font-size="8.25" fill="#000000">●</tspan><tspan x="10.050000191" y="11.62100029" font-family="Times New Roman" font-weight="normal" font-style="normal" font-size="11" fill="#000000">Maintained organized, presentable merchandise to drive continuous sales</tspan></text></g><g transform="matrix(1,0,0,1,12.949999809,418.747009277)"><text><tspan x="-0.5" y="10.87100029" font-family="Symbol" font-weight="normal" font-style="normal" font-size="8.25" fill="#000000">●</tspan><tspan x="10.050000191" y="11.62100029" font-family="Times New Roman" font-weight="normal" font-style="normal" font-size="11" fill="#000000">Organized racks and shelves to maintain store visual appeal, engage customers and promote merchandise</tspan></text></g><g transform="matrix(1,0,0,1,12.949999809,432.747009277)"><text><tspan x="-0.5" y="10.87100029" font-family="Symbol" font-weight="normal" font-style="normal" font-size="8.25" fill="#000000">●</tspan><tspan x="10.050000191" y="11.62100029" font-family="Times New Roman" font-weight="normal" font-style="normal" font-size="11" fill="#000000">Evaluated inventory and delivery needs, optimizing strategies to meet customer demands</tspan></text></g><g transform="matrix(1,0,0,1,12.949999809,446.747009277)"><text><tspan x="-0.5" y="10.87100029" font-family="Symbol" font-weight="normal" font-style="normal" font-size="8.25" fill="#000000">●</tspan><tspan x="10.050000191" y="11.62100029" font-family="Times New Roman" font-weight="normal" font-style="normal" font-size="11" fill="#000000">Analyzed and processed returns, assisting customers with finding alternative merchandise to meet needs</tspan></text></g><g transform="matrix(1,0,0,1,0,460.747009277)"><text><tspan x="0" y="28.00399971" font-family="Times New Roman" font-weight="bold" font-style="normal" font-size="15" fill="#000000">Education</tspan></text></g><path d="M-1.450000048,493.496002197 L529.450012207,493.496002197 " stroke-width="1" stroke-miterlimit="10" stroke="#c00000" fill="none" fill-rule="evenodd"></path><g transform="matrix(1,0,0,1,0,502.996002197)"><text><tspan x="0" y="11.62100029" font-family="Times New Roman" font-weight="bold" font-style="normal" font-size="11" fill="#000000">Bachelor of Arts</tspan><tspan x="77.591003418" y="11.62100029" font-family="Times New Roman" font-weight="normal" font-style="normal" font-size="11" fill="#000000">: Business Administration </tspan><tspan x="505" y="11.62100029" font-family="Times New Roman" font-weight="normal" font-style="normal" font-size="11" fill="#000000">2013 </tspan></text></g><g transform="matrix(1,0,0,1,0,516.99597168)"><text><tspan x="0" y="11.62100029" font-family="Times New Roman" font-weight="bold" font-style="normal" font-size="11" fill="#000000">San Francisco State University</tspan><tspan x="144.514007568" y="11.62100029" font-family="Times New Roman" font-weight="normal" font-style="normal" font-size="11" fill="#000000"> - San Francisco, CA</tspan></text></g></g></g></g></svg>