<?xml version="1.0" encoding="utf-8" standalone="yes"?><svg xmlns="http://www.w3.org/2000/svg" xmlns:xlink="http://www.w3.org/1999/xlink" version="1.1" width="816" height="1056"><!--Generated by Aspose.Words for .NET 18.5--><defs><clipPath id="clip1"><path d="M-1,-1 L539,-1 L539,34.5 L-1,34.5 Z" clip-rule="evenodd"></path></clipPath><clipPath id="clip2"><path d="M-1,-1 L269.899993896,-1 L269.899993896,58.5 L-1,58.5 Z" clip-rule="evenodd"></path></clipPath><clipPath id="clip3"><path d="M-0.5,-1 L269.899993896,-1 L269.899993896,58.5 L-0.5,58.5 Z" clip-rule="evenodd"></path></clipPath><style type="text/css">svg{background:white}@font-face{font-family:'Century Gothic';font-weight:normal;font-style:normal;src:local('Century Gothic'),url('https://content.livecareer.com/zty/fonts/CenturyGothic.ttf') format('truetype')}@font-face{font-family:'Century Gothic';font-weight:bold;font-style:normal;src:local('Century Gothic Bold'),url('https://content.livecareer.com/zty/fonts/CenturyGothicBold.ttf') format('truetype')}@font-face{font-family:'Century Gothic';font-weight:bold;font-style:italic;src:local('Century Gothic Bold Italic'),url('https://content.livecareer.com/zty/fonts/CenturyGothicBoldItalic.ttf') format('truetype')}@font-face{font-family:'Century Gothic';font-weight:normal;font-style:italic;src:local('Century Gothic Italic'),url('https://content.livecareer.com/zty/fonts/CenturyGothicItalic.ttf') format('truetype')}</style></defs><g transform="scale(1.33333)"><g><path d="M0,0 L600,0 L600,450 L0,450 Z" fill="#ffffff" fill-rule="evenodd"></path><g transform="matrix(1,0,0,1,600,0)"><path d="M0,0 L600,0 L600,450 L0,450 Z" fill="#ffffff" fill-rule="evenodd"></path></g><g transform="matrix(1,0,0,1,0,450)"><path d="M0,0 L600,0 L600,450 L0,450 Z" fill="#ffffff" fill-rule="evenodd"></path></g><g transform="matrix(1,0,0,1,600,450)"><path d="M0,0 L600,0 L600,450 L0,450 Z" fill="#ffffff" fill-rule="evenodd"></path></g><g transform="matrix(1,0,0,1,37,25)"><text><tspan x="0" y="38.613998413" font-family="Century Gothic" font-weight="bold" font-style="normal" font-size="29" fill="#000000">JESSICA </tspan><tspan x="119.455001831" y="38.613998413" font-family="Century Gothic" font-weight="bold" font-style="normal" font-size="29" fill="#c00000">CLAIRE</tspan></text><g transform="matrix(1,0,0,1,0,53)"><path d="M0,0 L538,0 L538,33.5 L0,33.5 Z" fill="#000000" fill-rule="evenodd"></path><g transform="matrix(1,0,0,1,0,0)" clip-path="url(#clip1)"><g transform="matrix(1,0,0,1,5.25,0.25)"><text><tspan x="0" y="20.299999237" font-family="Century Gothic" font-weight="bold" font-style="normal" font-size="10" fill="#ffffff">San Francisco, CA 94105 | (555) 432-1000 | resumesample@example.com</tspan></text></g></g></g><g transform="matrix(1,0,0,1,0,86.5)"><text><tspan x="0" y="24.916999817" font-family="Century Gothic" font-weight="normal" font-style="normal" font-size="14" fill="#000000">Professional Summary</tspan></text></g><path d="M-1.450000048,119 L539.450012207,119 " stroke-width="1" stroke-miterlimit="10" stroke="#c00000" fill="none" fill-rule="evenodd"></path><g transform="matrix(1,0,0,1,0,125.5)"><text><tspan x="0" y="16.577999115" font-family="Century Gothic" font-weight="normal" font-style="normal" font-size="11" fill="#000000">Highly motivated Sales Associate with extensive customer service and sales experience. Outgoing </tspan><tspan x="0" y="35.577999115" font-family="Century Gothic" font-weight="normal" font-style="normal" font-size="11" fill="#000000">sales professional with track record of driving increased sales, improving buying experience and </tspan><tspan x="0" y="54.577999115" font-family="Century Gothic" font-weight="normal" font-style="normal" font-size="11" fill="#000000">elevating company profile with target market.</tspan></text></g><g transform="matrix(1,0,0,1,0,182.5)"><text><tspan x="0" y="24.916999817" font-family="Century Gothic" font-weight="normal" font-style="normal" font-size="14" fill="#000000">Skills</tspan></text></g><path d="M-1.450000048,215 L539.450012207,215 " stroke-width="1" stroke-miterlimit="10" stroke="#c00000" fill="none" fill-rule="evenodd"></path><g transform="matrix(1,0,0,1,0,221.5)"><g transform="matrix(1,0,0,1,0,0)" clip-path="url(#clip2)"><g transform="matrix(1,0,0,1,13.199999809,0.25)"><text><tspan x="-0.5" y="15.827999115" font-family="Symbol" font-weight="normal" font-style="normal" font-size="8.25" fill="#000000">●</tspan><tspan x="10.050000191" y="16.577999115" font-family="Century Gothic" font-weight="normal" font-style="normal" font-size="11" fill="#000000">Guest services</tspan></text></g><g transform="matrix(1,0,0,1,13.199999809,19.25)"><text><tspan x="-0.5" y="15.827999115" font-family="Symbol" font-weight="normal" font-style="normal" font-size="8.25" fill="#000000">●</tspan><tspan x="10.050000191" y="16.577999115" font-family="Century Gothic" font-weight="normal" font-style="normal" font-size="11" fill="#000000">Inventory control procedures</tspan></text></g><g transform="matrix(1,0,0,1,13.199999809,38.25)"><text><tspan x="-0.5" y="15.827999115" font-family="Symbol" font-weight="normal" font-style="normal" font-size="8.25" fill="#000000">●</tspan><tspan x="10.050000191" y="16.577999115" font-family="Century Gothic" font-weight="normal" font-style="normal" font-size="11" fill="#000000">Merchandising expertise</tspan></text></g></g><g transform="matrix(1,0,0,1,268.899993896,0)" clip-path="url(#clip3)"><g transform="matrix(1,0,0,1,13.449999809,0.25)"><text><tspan x="-0.5" y="15.827999115" font-family="Symbol" font-weight="normal" font-style="normal" font-size="8.25" fill="#000000">●</tspan><tspan x="10.050000191" y="16.577999115" font-family="Century Gothic" font-weight="normal" font-style="normal" font-size="11" fill="#000000">Loss prevention</tspan></text></g><g transform="matrix(1,0,0,1,13.449999809,19.25)"><text><tspan x="-0.5" y="15.827999115" font-family="Symbol" font-weight="normal" font-style="normal" font-size="8.25" fill="#000000">●</tspan><tspan x="10.050000191" y="16.577999115" font-family="Century Gothic" font-weight="normal" font-style="normal" font-size="11" fill="#000000">Cash register operations</tspan></text></g><g transform="matrix(1,0,0,1,13.449999809,38.25)"><text><tspan x="-0.5" y="15.827999115" font-family="Symbol" font-weight="normal" font-style="normal" font-size="8.25" fill="#000000">●</tspan><tspan x="10.050000191" y="16.577999115" font-family="Century Gothic" font-weight="normal" font-style="normal" font-size="11" fill="#000000">Product promotions</tspan></text></g></g><path d="M268.899993896,0 L268.899993896,57.5 " stroke-width="1" stroke-miterlimit="10" stroke="#fefdfd" fill="none" fill-rule="evenodd"></path></g><g transform="matrix(1,0,0,1,0,279)"><text><tspan x="0" y="24.916999817" font-family="Century Gothic" font-weight="normal" font-style="normal" font-size="14" fill="#000000">Work History</tspan></text></g><path d="M-1.450000048,311.5 L539.450012207,311.5 " stroke-width="1" stroke-miterlimit="10" stroke="#c00000" fill="none" fill-rule="evenodd"></path><g transform="matrix(1,0,0,1,0,318)"><text><tspan x="0" y="16.577999115" font-family="Century Gothic" font-weight="bold" font-style="normal" font-size="11" fill="#000000">Senior Sales Associate</tspan><tspan x="118.352996826" y="16.577999115" font-family="Century Gothic" font-weight="normal" font-style="normal" font-size="11" fill="#000000"> </tspan><tspan x="435.718994141" y="16.577999115" font-family="Century Gothic" font-weight="normal" font-style="normal" font-size="11" fill="#000000"> 03/2015 to Current </tspan></text></g><g transform="matrix(1,0,0,1,0,337)"><text><tspan x="0" y="16.577999115" font-family="Century Gothic" font-weight="bold" font-style="normal" font-size="11" fill="#000000">Bed Bath &amp; Beyond, Inc.</tspan><tspan x="127.602996826" y="16.577999115" font-family="Century Gothic" font-weight="normal" font-style="normal" font-size="11" fill="#000000"> – San Francisco, CA</tspan></text></g><g transform="matrix(1,0,0,1,12.949999809,356)"><text><tspan x="-0.5" y="15.827999115" font-family="Symbol" font-weight="normal" font-style="normal" font-size="8.25" fill="#000000">●</tspan><tspan x="10.050000191" y="16.577999115" font-family="Century Gothic" font-weight="normal" font-style="normal" font-size="11" fill="#000000">Applied security and loss prevention training toward recognizing risks and reducing store theft</tspan></text></g><g transform="matrix(1,0,0,1,12.949999809,375)"><text><tspan x="-0.5" y="15.827999115" font-family="Symbol" font-weight="normal" font-style="normal" font-size="8.25" fill="#000000">●</tspan><tspan x="10.050000191" y="16.577999115" font-family="Century Gothic" font-weight="normal" font-style="normal" font-size="11" fill="#000000">Trained and developed sales team associates in products, selling techniques and procedures</tspan></text></g><g transform="matrix(1,0,0,1,12.949999809,394)"><text><tspan x="-0.5" y="15.827999115" font-family="Symbol" font-weight="normal" font-style="normal" font-size="8.25" fill="#000000">●</tspan><tspan x="10.050000191" y="16.577999115" font-family="Century Gothic" font-weight="normal" font-style="normal" font-size="11" fill="#000000">Maintained organized, presentable merchandise to drive continuous sales</tspan></text></g><g transform="matrix(1,0,0,1,12.949999809,413)"><text><tspan x="-0.5" y="15.827999115" font-family="Symbol" font-weight="normal" font-style="normal" font-size="8.25" fill="#000000">●</tspan><tspan x="10.050000191" y="16.577999115" font-family="Century Gothic" font-weight="normal" font-style="normal" font-size="11" fill="#000000">Implemented up-selling strategies for recommending accessories and complementary </tspan><tspan x="10.050000191" y="35.577999115" font-family="Century Gothic" font-weight="normal" font-style="normal" font-size="11" fill="#000000">purchases</tspan></text></g><g transform="matrix(1,0,0,1,0,451)"><text><tspan x="0" y="29.577999115" font-family="Century Gothic" font-weight="bold" font-style="normal" font-size="11" fill="#000000">Sales Associate</tspan><tspan x="82.714996338" y="29.577999115" font-family="Century Gothic" font-weight="normal" font-style="normal" font-size="11" fill="#000000"> </tspan><tspan x="434.166992188" y="29.577999115" font-family="Century Gothic" font-weight="normal" font-style="normal" font-size="11" fill="#000000"> 06/2013 to 03/2015 </tspan></text></g><g transform="matrix(1,0,0,1,0,483)"><text><tspan x="0" y="16.577999115" font-family="Century Gothic" font-weight="bold" font-style="normal" font-size="11" fill="#000000">Target</tspan><tspan x="33" y="16.577999115" font-family="Century Gothic" font-weight="normal" font-style="normal" font-size="11" fill="#000000"> – San Francisco, CA</tspan></text></g><g transform="matrix(1,0,0,1,12.949999809,502)"><text><tspan x="-0.5" y="15.827999115" font-family="Symbol" font-weight="normal" font-style="normal" font-size="8.25" fill="#000000">●</tspan><tspan x="10.050000191" y="16.577999115" font-family="Century Gothic" font-weight="normal" font-style="normal" font-size="11" fill="#000000">Maintained organized, presentable merchandise to drive continuous sales</tspan></text></g><g transform="matrix(1,0,0,1,12.949999809,521)"><text><tspan x="-0.5" y="15.827999115" font-family="Symbol" font-weight="normal" font-style="normal" font-size="8.25" fill="#000000">●</tspan><tspan x="10.050000191" y="16.577999115" font-family="Century Gothic" font-weight="normal" font-style="normal" font-size="11" fill="#000000">Organized racks and shelves to maintain store visual appeal, engage customers and promote </tspan><tspan x="10.050000191" y="35.577999115" font-family="Century Gothic" font-weight="normal" font-style="normal" font-size="11" fill="#000000">merchandise</tspan></text></g><g transform="matrix(1,0,0,1,12.949999809,559)"><text><tspan x="-0.5" y="15.827999115" font-family="Symbol" font-weight="normal" font-style="normal" font-size="8.25" fill="#000000">●</tspan><tspan x="10.050000191" y="16.577999115" font-family="Century Gothic" font-weight="normal" font-style="normal" font-size="11" fill="#000000">Evaluated inventory and delivery needs, optimizing strategies to meet customer demands</tspan></text></g><g transform="matrix(1,0,0,1,12.949999809,578)"><text><tspan x="-0.5" y="15.827999115" font-family="Symbol" font-weight="normal" font-style="normal" font-size="8.25" fill="#000000">●</tspan><tspan x="10.050000191" y="16.577999115" font-family="Century Gothic" font-weight="normal" font-style="normal" font-size="11" fill="#000000">Analyzed and processed returns, assisting customers with finding alternative merchandise to </tspan><tspan x="10.050000191" y="35.577999115" font-family="Century Gothic" font-weight="normal" font-style="normal" font-size="11" fill="#000000">meet needs</tspan></text></g><g transform="matrix(1,0,0,1,0,616)"><text><tspan x="0" y="24.916999817" font-family="Century Gothic" font-weight="normal" font-style="normal" font-size="14" fill="#000000">Education</tspan></text></g><path d="M-1.450000048,648.5 L539.450012207,648.5 " stroke-width="1" stroke-miterlimit="10" stroke="#c00000" fill="none" fill-rule="evenodd"></path><g transform="matrix(1,0,0,1,0,655)"><text><tspan x="0" y="16.577999115" font-family="Century Gothic" font-weight="bold" font-style="normal" font-size="11" fill="#000000">Bachelor of Arts</tspan><tspan x="83.589996338" y="16.577999115" font-family="Century Gothic" font-weight="normal" font-style="normal" font-size="11" fill="#000000">: Business Administration </tspan><tspan x="512.614990234" y="16.577999115" font-family="Century Gothic" font-weight="normal" font-style="normal" font-size="11" fill="#000000">2013 </tspan></text></g><g transform="matrix(1,0,0,1,0,674)"><text><tspan x="0" y="16.577999115" font-family="Century Gothic" font-weight="bold" font-style="normal" font-size="11" fill="#000000">San Francisco State University</tspan><tspan x="156.852996826" y="16.577999115" font-family="Century Gothic" font-weight="normal" font-style="normal" font-size="11" fill="#000000"> - San Francisco, CA</tspan></text></g></g></g></g></svg>