<?xml version="1.0" encoding="utf-8" standalone="yes"?><svg xmlns="http://www.w3.org/2000/svg" xmlns:xlink="http://www.w3.org/1999/xlink" version="1.1" width="816" height="1056"><!--Generated by Aspose.Words for .NET 18.5--><defs><clipPath id="clip1"><path d="M-1,-1 L264.899993896,-1 L264.899993896,61.5 L-1,61.5 Z" clip-rule="evenodd"></path></clipPath><clipPath id="clip2"><path d="M-1,-1 L264.899993896,-1 L264.899993896,61.5 L-1,61.5 Z" clip-rule="evenodd"></path></clipPath><style type="text/css">svg{background:white}</style></defs><g transform="scale(1.33333)"><g><path d="M0,0 L600,0 L600,450 L0,450 Z" fill="#ffffff" fill-rule="evenodd"></path><g transform="matrix(1,0,0,1,600,0)"><path d="M0,0 L600,0 L600,450 L0,450 Z" fill="#ffffff" fill-rule="evenodd"></path></g><g transform="matrix(1,0,0,1,0,450)"><path d="M0,0 L600,0 L600,450 L0,450 Z" fill="#ffffff" fill-rule="evenodd"></path></g><g transform="matrix(1,0,0,1,600,450)"><path d="M0,0 L600,0 L600,450 L0,450 Z" fill="#ffffff" fill-rule="evenodd"></path></g><g transform="matrix(1,0,0,1,42,25)"><text><tspan x="182.546005249" y="35.808998108" font-family="Times New Roman" font-weight="bold" font-style="normal" font-size="24" fill="#3399cc">J</tspan><tspan x="194.546005249" y="35.808998108" font-family="Times New Roman" font-weight="bold" font-style="normal" font-size="19" fill="#3399cc">ESSICA </tspan><tspan x="267.938995361" y="35.808998108" font-family="Times New Roman" font-weight="bold" font-style="normal" font-size="24" fill="#3399cc">C</tspan><tspan x="285.270996094" y="35.808998108" font-family="Times New Roman" font-weight="bold" font-style="normal" font-size="19" fill="#3399cc">LAIRE</tspan></text><path d="M-1.450000048,0.5 L529.450012207,0.5 " stroke-width="1" stroke-miterlimit="10" stroke="#3399cc" fill="none" fill-rule="evenodd"></path><path d="M-1.450000048,57.5 L529.450012207,57.5 " stroke-width="1" stroke-miterlimit="10" stroke="#3399cc" fill="none" fill-rule="evenodd"></path><g transform="matrix(1,0,0,1,0,58)"><text><tspan x="0" y="5.934000015" font-family="Times New Roman" font-weight="normal" font-style="normal" font-size="1" fill="#3399cc"> </tspan></text></g><path d="M-1.450000048,61.5 L529.450012207,61.5 " stroke-width="3" stroke-miterlimit="10" stroke="#3399cc" fill="none" fill-rule="evenodd"></path><g transform="matrix(1,0,0,1,0,64.150001526)"><text><tspan x="0" y="0.934000015" font-family="Times New Roman" font-weight="normal" font-style="normal" font-size="1" fill="#000000"> </tspan></text></g><g transform="matrix(1,0,0,1,0,65.300003052)"><text><tspan x="100.176002502" y="26.62100029" font-family="Times New Roman" font-weight="normal" font-style="normal" font-size="11" fill="#000000">San Francisco, CA 94105 (555) 432-1000 ♦ resumesample@example.com </tspan></text></g><g transform="matrix(1,0,0,1,0,104.300003052)"><text><tspan x="0" y="21.972000122" font-family="Times New Roman" font-weight="bold" font-style="normal" font-size="9.5" fill="#3399cc"> </tspan><tspan x="186.350006104" y="21.972000122" font-family="Times New Roman" font-weight="bold" font-style="normal" font-size="11" fill="#3399cc">   </tspan><tspan x="194.600006104" y="21.972000122" font-family="Times New Roman" font-weight="bold" font-style="normal" font-size="14" fill="#3399cc">P</tspan><tspan x="203.151992798" y="21.972000122" font-family="Times New Roman" font-weight="bold" font-style="normal" font-size="11" fill="#3399cc">ROFESSIONAL </tspan><tspan x="284.755004883" y="21.972000122" font-family="Times New Roman" font-weight="bold" font-style="normal" font-size="14" fill="#3399cc">S</tspan><tspan x="292.540985107" y="21.972000122" font-family="Times New Roman" font-weight="bold" font-style="normal" font-size="11" fill="#3399cc">UMMARY   </tspan></text><path d="M2.375,18.752000809 L186.350006104,18.752000809 " stroke-width="0.699999988" stroke-miterlimit="10" stroke="#3399cc" fill="none" fill-rule="evenodd"></path><path d="M353.330993652,18.752000809 L528,18.752000809 " stroke-width="0.699999988" stroke-miterlimit="10" stroke="#3399cc" fill="none" fill-rule="evenodd"></path></g><g transform="matrix(1,0,0,1,0,129.300003052)"><text><tspan x="0" y="17.403999329" font-family="Times New Roman" font-weight="normal" font-style="normal" font-size="12" fill="#000000">Highly motivated Sales Associate with extensive customer service and sales experience. Outgoing sales </tspan><tspan x="0" y="37.403999329" font-family="Times New Roman" font-weight="normal" font-style="normal" font-size="12" fill="#000000">professional with track record of driving increased sales, improving buying experience and elevating </tspan><tspan x="0" y="57.403999329" font-family="Times New Roman" font-weight="normal" font-style="normal" font-size="12" fill="#000000">company profile with target market.</tspan></text></g><g transform="matrix(1,0,0,1,0,189.300003052)"><text><tspan x="0" y="21.972000122" font-family="Times New Roman" font-weight="bold" font-style="normal" font-size="9.5" fill="#3399cc"> </tspan><tspan x="239.449996948" y="21.972000122" font-family="Times New Roman" font-weight="bold" font-style="normal" font-size="11" fill="#3399cc">   </tspan><tspan x="247.699996948" y="21.972000122" font-family="Times New Roman" font-weight="bold" font-style="normal" font-size="14" fill="#3399cc">S</tspan><tspan x="255.485992432" y="21.972000122" font-family="Times New Roman" font-weight="bold" font-style="normal" font-size="11" fill="#3399cc">KILLS   </tspan></text><path d="M2.375,18.752000809 L239.449996948,18.752000809 " stroke-width="0.699999988" stroke-miterlimit="10" stroke="#3399cc" fill="none" fill-rule="evenodd"></path><path d="M297.364013672,18.752000809 L528,18.752000809 " stroke-width="0.699999988" stroke-miterlimit="10" stroke="#3399cc" fill="none" fill-rule="evenodd"></path></g><g transform="matrix(1,0,0,1,0,214.300003052)"><g transform="matrix(1,0,0,1,0,0)" clip-path="url(#clip1)"><g transform="matrix(1,0,0,1,12.75,0.25)"><text><tspan x="-0.5" y="16.653999329" font-family="Symbol" font-weight="normal" font-style="normal" font-size="9" fill="#000000">●</tspan><tspan x="10.5" y="17.403999329" font-family="Times New Roman" font-weight="normal" font-style="normal" font-size="12" fill="#000000">Guest services</tspan></text></g><g transform="matrix(1,0,0,1,12.75,20.25)"><text><tspan x="-0.5" y="16.653999329" font-family="Symbol" font-weight="normal" font-style="normal" font-size="9" fill="#000000">●</tspan><tspan x="10.5" y="17.403999329" font-family="Times New Roman" font-weight="normal" font-style="normal" font-size="12" fill="#000000">Inventory control procedures</tspan></text></g><g transform="matrix(1,0,0,1,12.75,40.25)"><text><tspan x="-0.5" y="16.653999329" font-family="Symbol" font-weight="normal" font-style="normal" font-size="9" fill="#000000">●</tspan><tspan x="10.5" y="17.403999329" font-family="Times New Roman" font-weight="normal" font-style="normal" font-size="12" fill="#000000">Merchandising expertise</tspan></text></g></g><g transform="matrix(1,0,0,1,263.899993896,0)" clip-path="url(#clip2)"><g transform="matrix(1,0,0,1,12.75,0.25)"><text><tspan x="-0.5" y="16.653999329" font-family="Symbol" font-weight="normal" font-style="normal" font-size="9" fill="#000000">●</tspan><tspan x="10.5" y="17.403999329" font-family="Times New Roman" font-weight="normal" font-style="normal" font-size="12" fill="#000000">Loss prevention</tspan></text></g><g transform="matrix(1,0,0,1,12.75,20.25)"><text><tspan x="-0.5" y="16.653999329" font-family="Symbol" font-weight="normal" font-style="normal" font-size="9" fill="#000000">●</tspan><tspan x="10.5" y="17.403999329" font-family="Times New Roman" font-weight="normal" font-style="normal" font-size="12" fill="#000000">Cash register operations</tspan></text></g><g transform="matrix(1,0,0,1,12.75,40.25)"><text><tspan x="-0.5" y="16.653999329" font-family="Symbol" font-weight="normal" font-style="normal" font-size="9" fill="#000000">●</tspan><tspan x="10.5" y="17.403999329" font-family="Times New Roman" font-weight="normal" font-style="normal" font-size="12" fill="#000000">Product promotions</tspan></text></g></g></g><g transform="matrix(1,0,0,1,0,274.799987793)"><text><tspan x="0" y="21.972000122" font-family="Times New Roman" font-weight="bold" font-style="normal" font-size="9.5" fill="#3399cc"> </tspan><tspan x="213.199996948" y="21.972000122" font-family="Times New Roman" font-weight="bold" font-style="normal" font-size="11" fill="#3399cc">   </tspan><tspan x="221.449996948" y="21.972000122" font-family="Times New Roman" font-weight="bold" font-style="normal" font-size="14" fill="#3399cc">W</tspan><tspan x="235.449996948" y="21.972000122" font-family="Times New Roman" font-weight="bold" font-style="normal" font-size="11" fill="#3399cc">ORK </tspan><tspan x="263.256011963" y="21.972000122" font-family="Times New Roman" font-weight="bold" font-style="normal" font-size="14" fill="#3399cc">H</tspan><tspan x="274.145996094" y="21.972000122" font-family="Times New Roman" font-weight="bold" font-style="normal" font-size="11" fill="#3399cc">ISTORY   </tspan></text><path d="M2.375,18.752000809 L213.199996948,18.752000809 " stroke-width="0.699999988" stroke-miterlimit="10" stroke="#3399cc" fill="none" fill-rule="evenodd"></path><path d="M324.575012207,18.752000809 L528,18.752000809 " stroke-width="0.699999988" stroke-miterlimit="10" stroke="#3399cc" fill="none" fill-rule="evenodd"></path></g><g transform="matrix(1,0,0,1,0,299.799987793)"><text><tspan x="0" y="17.403999329" font-family="Times New Roman" font-weight="bold" font-style="normal" font-size="12" fill="#000000">Senior Sales Associate</tspan><tspan x="113.325996399" y="17.403999329" font-family="Times New Roman" font-weight="normal" font-style="normal" font-size="12" fill="#000000">, 03/2015 to Current </tspan></text></g><g transform="matrix(1,0,0,1,0,319.799987793)"><text><tspan x="0" y="17.403999329" font-family="Times New Roman" font-weight="bold" font-style="normal" font-size="12" fill="#000000">Bed Bath &amp; Beyond, Inc.</tspan><tspan x="128.022003174" y="17.403999329" font-family="Times New Roman" font-weight="normal" font-style="normal" font-size="12" fill="#000000"> – San Francisco, CA</tspan></text></g><g transform="matrix(1,0,0,1,12.5,339.799987793)"><text><tspan x="-0.5" y="16.653999329" font-family="Symbol" font-weight="normal" font-style="normal" font-size="9" fill="#000000">●</tspan><tspan x="10.5" y="17.403999329" font-family="Times New Roman" font-weight="normal" font-style="normal" font-size="12" fill="#000000">Applied security and loss prevention training toward recognizing risks and reducing store theft</tspan></text></g><g transform="matrix(1,0,0,1,12.5,359.799987793)"><text><tspan x="-0.5" y="16.653999329" font-family="Symbol" font-weight="normal" font-style="normal" font-size="9" fill="#000000">●</tspan><tspan x="10.5" y="17.403999329" font-family="Times New Roman" font-weight="normal" font-style="normal" font-size="12" fill="#000000">Trained and developed sales team associates in products, selling techniques and procedures</tspan></text></g><g transform="matrix(1,0,0,1,12.5,379.799987793)"><text><tspan x="-0.5" y="16.653999329" font-family="Symbol" font-weight="normal" font-style="normal" font-size="9" fill="#000000">●</tspan><tspan x="10.5" y="17.403999329" font-family="Times New Roman" font-weight="normal" font-style="normal" font-size="12" fill="#000000">Maintained organized, presentable merchandise to drive continuous sales</tspan></text></g><g transform="matrix(1,0,0,1,12.5,399.799987793)"><text><tspan x="-0.5" y="16.653999329" font-family="Symbol" font-weight="normal" font-style="normal" font-size="9" fill="#000000">●</tspan><tspan x="10.5" y="17.403999329" font-family="Times New Roman" font-weight="normal" font-style="normal" font-size="12" fill="#000000">Implemented up-selling strategies for recommending accessories and complementary purchases</tspan></text></g><g transform="matrix(1,0,0,1,0,419.799987793)"><text><tspan x="0" y="31.403999329" font-family="Times New Roman" font-weight="bold" font-style="normal" font-size="12" fill="#000000">Sales Associate</tspan><tspan x="76.991996765" y="31.403999329" font-family="Times New Roman" font-weight="normal" font-style="normal" font-size="12" fill="#000000">, 06/2013 to 03/2015 </tspan></text></g><g transform="matrix(1,0,0,1,0,453.799987793)"><text><tspan x="0" y="17.403999329" font-family="Times New Roman" font-weight="bold" font-style="normal" font-size="12" fill="#000000">Target</tspan><tspan x="34.652000427" y="17.403999329" font-family="Times New Roman" font-weight="normal" font-style="normal" font-size="12" fill="#000000"> – San Francisco, CA</tspan></text></g><g transform="matrix(1,0,0,1,12.5,473.799987793)"><text><tspan x="-0.5" y="16.653999329" font-family="Symbol" font-weight="normal" font-style="normal" font-size="9" fill="#000000">●</tspan><tspan x="10.5" y="17.403999329" font-family="Times New Roman" font-weight="normal" font-style="normal" font-size="12" fill="#000000">Maintained organized, presentable merchandise to drive continuous sales</tspan></text></g><g transform="matrix(1,0,0,1,12.5,493.799987793)"><text><tspan x="-0.5" y="16.653999329" font-family="Symbol" font-weight="normal" font-style="normal" font-size="9" fill="#000000">●</tspan><tspan x="10.5" y="17.403999329" font-family="Times New Roman" font-weight="normal" font-style="normal" font-size="12" fill="#000000">Organized racks and shelves to maintain store visual appeal, engage customers and promote </tspan><tspan x="10.5" y="37.403999329" font-family="Times New Roman" font-weight="normal" font-style="normal" font-size="12" fill="#000000">merchandise</tspan></text></g><g transform="matrix(1,0,0,1,12.5,533.799987793)"><text><tspan x="-0.5" y="16.653999329" font-family="Symbol" font-weight="normal" font-style="normal" font-size="9" fill="#000000">●</tspan><tspan x="10.5" y="17.403999329" font-family="Times New Roman" font-weight="normal" font-style="normal" font-size="12" fill="#000000">Evaluated inventory and delivery needs, optimizing strategies to meet customer demands</tspan></text></g><g transform="matrix(1,0,0,1,12.5,553.799987793)"><text><tspan x="-0.5" y="16.653999329" font-family="Symbol" font-weight="normal" font-style="normal" font-size="9" fill="#000000">●</tspan><tspan x="10.5" y="17.403999329" font-family="Times New Roman" font-weight="normal" font-style="normal" font-size="12" fill="#000000">Analyzed and processed returns, assisting customers with finding alternative merchandise to meet needs</tspan></text></g><g transform="matrix(1,0,0,1,0,573.799987793)"><text><tspan x="0" y="21.972000122" font-family="Times New Roman" font-weight="bold" font-style="normal" font-size="9.5" fill="#3399cc"> </tspan><tspan x="224.600006104" y="21.972000122" font-family="Times New Roman" font-weight="bold" font-style="normal" font-size="11" fill="#3399cc">   </tspan><tspan x="232.850006104" y="21.972000122" font-family="Times New Roman" font-weight="bold" font-style="normal" font-size="14" fill="#3399cc">E</tspan><tspan x="242.18800354" y="21.972000122" font-family="Times New Roman" font-weight="bold" font-style="normal" font-size="11" fill="#3399cc">DUCATION   </tspan></text><path d="M2.375,18.752000809 L224.600006104,18.752000809 " stroke-width="0.699999988" stroke-miterlimit="10" stroke="#3399cc" fill="none" fill-rule="evenodd"></path><path d="M310.330993652,18.752000809 L528,18.752000809 " stroke-width="0.699999988" stroke-miterlimit="10" stroke="#3399cc" fill="none" fill-rule="evenodd"></path></g><g transform="matrix(1,0,0,1,0,598.799987793)"><text><tspan x="0" y="17.403999329" font-family="Times New Roman" font-weight="bold" font-style="normal" font-size="12" fill="#000000">Bachelor of Arts</tspan><tspan x="84.643997192" y="17.403999329" font-family="Times New Roman" font-weight="normal" font-style="normal" font-size="12" fill="#000000">: Business Administration, 2013 </tspan></text></g><g transform="matrix(1,0,0,1,0,618.799987793)"><text><tspan x="0" y="17.403999329" font-family="Times New Roman" font-weight="bold" font-style="normal" font-size="12" fill="#000000">San Francisco State University</tspan><tspan x="157.651992798" y="17.403999329" font-family="Times New Roman" font-weight="normal" font-style="normal" font-size="12" fill="#000000"> - San Francisco, CA</tspan></text></g></g></g></g></svg>