<?xml version="1.0" encoding="utf-8" standalone="yes"?><svg xmlns="http://www.w3.org/2000/svg" xmlns:xlink="http://www.w3.org/1999/xlink" version="1.1" width="816" height="1056"><!--Generated by Aspose.Words for .NET 18.5--><defs><clipPath id="clip1"><path d="M-1,-1 L264.899993896,-1 L264.899993896,52.5 L-1,52.5 Z" clip-rule="evenodd"></path></clipPath><clipPath id="clip2"><path d="M-0.5,-1 L264.899993896,-1 L264.899993896,52.5 L-0.5,52.5 Z" clip-rule="evenodd"></path></clipPath><style type="text/css">svg{background:white}</style></defs><g transform="scale(1.33333)"><g><path d="M0,0 L600,0 L600,450 L0,450 Z" fill="#ffffff" fill-rule="evenodd"></path><g transform="matrix(1,0,0,1,600,0)"><path d="M0,0 L600,0 L600,450 L0,450 Z" fill="#ffffff" fill-rule="evenodd"></path></g><g transform="matrix(1,0,0,1,0,450)"><path d="M0,0 L600,0 L600,450 L0,450 Z" fill="#ffffff" fill-rule="evenodd"></path></g><g transform="matrix(1,0,0,1,600,450)"><path d="M0,0 L600,0 L600,450 L0,450 Z" fill="#ffffff" fill-rule="evenodd"></path></g><g transform="matrix(1,0,0,1,42,47)"><path d="M-1.450000048,0 L529.450012207,0 L529.450012207,8.095000267 L-1.450000048,8.095000267 Z" fill="#404041" fill-rule="evenodd"></path><g transform="matrix(1,0,0,1,0,26.094999313)"><text><tspan x="0" y="23.096000671" font-family="Palatino Linotype" font-weight="bold" font-style="normal" font-size="22" fill="#404041">JESSICA CLAIRE</tspan></text></g><g transform="matrix(1,0,0,1,0,55.776000977)"><text><tspan x="0" y="1.049999952" font-family="Palatino Linotype" font-weight="normal" font-style="normal" font-size="1" fill="#404041"> </tspan></text></g><g transform="matrix(1,0,0,1,0,57.125)"><text><tspan x="0" y="14.006999969" font-family="Palatino Linotype" font-weight="normal" font-style="normal" font-size="10" fill="#808284">SAN FRANCISCO, CA 94105</tspan></text></g><g transform="matrix(1,0,0,1,0,80.125)"><text><tspan x="0" y="14.006999969" font-family="Palatino Linotype" font-weight="normal" font-style="normal" font-size="10" fill="#808284">(555) 432-1000 | </tspan><tspan x="72.489997864" y="14.006999969" font-family="Palatino Linotype" font-weight="normal" font-style="normal" font-size="10" fill="#00adef">resumesample@example.com</tspan></text></g><g transform="matrix(1,0,0,1,0,97.125)"><text><tspan x="0" y="28.108999252" font-family="Palatino Linotype" font-weight="bold" font-style="italic" font-size="13" fill="#404041">PROFESSIONAL SUMMARY</tspan></text></g><path d="M-1.450000048,103.625 L529.450012207,103.625 " stroke-width="1" stroke-miterlimit="10" stroke="#b2b0bf" fill="none" fill-rule="evenodd"></path><g transform="matrix(1,0,0,1,0,134.125)"><text><tspan x="0" y="13.407999992" font-family="Palatino Linotype" font-weight="bold" font-style="normal" font-size="12" fill="#404041">Highly motivated Sales Associate with extensive customer service and sales experience. </tspan><tspan x="0" y="30.408000946" font-family="Palatino Linotype" font-weight="bold" font-style="normal" font-size="12" fill="#404041">Outgoing sales professional with track record of driving increased sales, improving buying </tspan><tspan x="0" y="47.408000946" font-family="Palatino Linotype" font-weight="bold" font-style="normal" font-size="12" fill="#404041">experience and elevating company profile with target market.</tspan></text></g><g transform="matrix(1,0,0,1,0,185.125)"><text><tspan x="0" y="28.108999252" font-family="Palatino Linotype" font-weight="bold" font-style="italic" font-size="13" fill="#404041">SKILLS</tspan></text></g><path d="M-1.450000048,191.625 L529.450012207,191.625 " stroke-width="1" stroke-miterlimit="10" stroke="#b2b0bf" fill="none" fill-rule="evenodd"></path><g transform="matrix(1,0,0,1,0,222.125)"><g transform="matrix(1,0,0,1,0,0)" clip-path="url(#clip1)"><g transform="matrix(1,0,0,1,13.199999809,0.25)"><text><tspan x="-0.5" y="12.958000183" font-family="Symbol" font-weight="normal" font-style="normal" font-size="8.25" fill="#404041">●</tspan><tspan x="10.050000191" y="13.708000183" font-family="Palatino Linotype" font-weight="normal" font-style="normal" font-size="11" fill="#404041">Guest services</tspan></text></g><g transform="matrix(1,0,0,1,13.199999809,17.25)"><text><tspan x="-0.5" y="12.958000183" font-family="Symbol" font-weight="normal" font-style="normal" font-size="8.25" fill="#404041">●</tspan><tspan x="10.050000191" y="13.708000183" font-family="Palatino Linotype" font-weight="normal" font-style="normal" font-size="11" fill="#404041">Inventory control procedures</tspan></text></g><g transform="matrix(1,0,0,1,13.199999809,34.25)"><text><tspan x="-0.5" y="12.958000183" font-family="Symbol" font-weight="normal" font-style="normal" font-size="8.25" fill="#404041">●</tspan><tspan x="10.050000191" y="13.708000183" font-family="Palatino Linotype" font-weight="normal" font-style="normal" font-size="11" fill="#404041">Merchandising expertise</tspan></text></g></g><g transform="matrix(1,0,0,1,263.899993896,0)" clip-path="url(#clip2)"><g transform="matrix(1,0,0,1,13.449999809,0.25)"><text><tspan x="-0.5" y="12.958000183" font-family="Symbol" font-weight="normal" font-style="normal" font-size="8.25" fill="#404041">●</tspan><tspan x="10.050000191" y="13.708000183" font-family="Palatino Linotype" font-weight="normal" font-style="normal" font-size="11" fill="#404041">Loss prevention</tspan></text></g><g transform="matrix(1,0,0,1,13.449999809,17.25)"><text><tspan x="-0.5" y="12.958000183" font-family="Symbol" font-weight="normal" font-style="normal" font-size="8.25" fill="#404041">●</tspan><tspan x="10.050000191" y="13.708000183" font-family="Palatino Linotype" font-weight="normal" font-style="normal" font-size="11" fill="#404041">Cash register operations</tspan></text></g><g transform="matrix(1,0,0,1,13.449999809,34.25)"><text><tspan x="-0.5" y="12.958000183" font-family="Symbol" font-weight="normal" font-style="normal" font-size="8.25" fill="#404041">●</tspan><tspan x="10.050000191" y="13.708000183" font-family="Palatino Linotype" font-weight="normal" font-style="normal" font-size="11" fill="#404041">Product promotions</tspan></text></g></g><path d="M263.899993896,0 L263.899993896,51.5 " stroke-width="1" stroke-miterlimit="10" stroke="#ffffff" fill="none" fill-rule="evenodd"></path></g><g transform="matrix(1,0,0,1,0,273.625)"><text><tspan x="0" y="28.108999252" font-family="Palatino Linotype" font-weight="bold" font-style="italic" font-size="13" fill="#404041">WORK HISTORY</tspan></text></g><path d="M-1.450000048,280.125 L529.450012207,280.125 " stroke-width="1" stroke-miterlimit="10" stroke="#b2b0bf" fill="none" fill-rule="evenodd"></path><g transform="matrix(1,0,0,1,0,310.625)"><text><tspan x="0" y="13.708000183" font-family="Palatino Linotype" font-weight="bold" font-style="normal" font-size="11" fill="#404041">BED BATH &amp; BEYOND, INC.</tspan><tspan x="151.184997559" y="13.708000183" font-family="Palatino Linotype" font-weight="normal" font-style="normal" font-size="11" fill="#404041"> </tspan></text></g><g transform="matrix(1,0,0,1,0,327.625)"><text><tspan x="0" y="13.708000183" font-family="Palatino Linotype" font-weight="normal" font-style="italic" font-size="11" fill="#c3c3c3">Senior Sales Associate | San Francisco, CA | March 2015 - Current</tspan></text></g><g transform="matrix(1,0,0,1,12.949999809,344.625)"><text><tspan x="-0.5" y="12.958000183" font-family="Symbol" font-weight="normal" font-style="normal" font-size="8.25" fill="#404041">●</tspan><tspan x="10.050000191" y="13.708000183" font-family="Palatino Linotype" font-weight="normal" font-style="normal" font-size="11" fill="#404041">Applied security and loss prevention training toward recognizing risks and reducing store theft</tspan></text></g><g transform="matrix(1,0,0,1,12.949999809,361.625)"><text><tspan x="-0.5" y="12.958000183" font-family="Symbol" font-weight="normal" font-style="normal" font-size="8.25" fill="#404041">●</tspan><tspan x="10.050000191" y="13.708000183" font-family="Palatino Linotype" font-weight="normal" font-style="normal" font-size="11" fill="#404041">Trained and developed sales team associates in products, selling techniques and procedures</tspan></text></g><g transform="matrix(1,0,0,1,12.949999809,378.625)"><text><tspan x="-0.5" y="12.958000183" font-family="Symbol" font-weight="normal" font-style="normal" font-size="8.25" fill="#404041">●</tspan><tspan x="10.050000191" y="13.708000183" font-family="Palatino Linotype" font-weight="normal" font-style="normal" font-size="11" fill="#404041">Maintained organized, presentable merchandise to drive continuous sales</tspan></text></g><g transform="matrix(1,0,0,1,12.949999809,395.625)"><text><tspan x="-0.5" y="12.958000183" font-family="Symbol" font-weight="normal" font-style="normal" font-size="8.25" fill="#404041">●</tspan><tspan x="10.050000191" y="13.708000183" font-family="Palatino Linotype" font-weight="normal" font-style="normal" font-size="11" fill="#404041">Implemented up-selling strategies for recommending accessories and complementary purchases</tspan></text></g><g transform="matrix(1,0,0,1,0,412.625)"><text><tspan x="0" y="24.708000183" font-family="Palatino Linotype" font-weight="bold" font-style="normal" font-size="11" fill="#404041">TARGET</tspan><tspan x="46.910999298" y="24.708000183" font-family="Palatino Linotype" font-weight="normal" font-style="normal" font-size="11" fill="#404041"> </tspan></text></g><g transform="matrix(1,0,0,1,0,440.625)"><text><tspan x="0" y="13.708000183" font-family="Palatino Linotype" font-weight="normal" font-style="italic" font-size="11" fill="#c3c3c3">Sales Associate | San Francisco, CA | June 2013 - March 2015</tspan></text></g><g transform="matrix(1,0,0,1,12.949999809,457.625)"><text><tspan x="-0.5" y="12.958000183" font-family="Symbol" font-weight="normal" font-style="normal" font-size="8.25" fill="#404041">●</tspan><tspan x="10.050000191" y="13.708000183" font-family="Palatino Linotype" font-weight="normal" font-style="normal" font-size="11" fill="#404041">Maintained organized, presentable merchandise to drive continuous sales</tspan></text></g><g transform="matrix(1,0,0,1,12.949999809,474.625)"><text><tspan x="-0.5" y="12.958000183" font-family="Symbol" font-weight="normal" font-style="normal" font-size="8.25" fill="#404041">●</tspan><tspan x="10.050000191" y="13.708000183" font-family="Palatino Linotype" font-weight="normal" font-style="normal" font-size="11" fill="#404041">Organized racks and shelves to maintain store visual appeal, engage customers and promote </tspan><tspan x="10.050000191" y="30.708000183" font-family="Palatino Linotype" font-weight="normal" font-style="normal" font-size="11" fill="#404041">merchandise</tspan></text></g><g transform="matrix(1,0,0,1,12.949999809,508.625)"><text><tspan x="-0.5" y="12.958000183" font-family="Symbol" font-weight="normal" font-style="normal" font-size="8.25" fill="#404041">●</tspan><tspan x="10.050000191" y="13.708000183" font-family="Palatino Linotype" font-weight="normal" font-style="normal" font-size="11" fill="#404041">Evaluated inventory and delivery needs, optimizing strategies to meet customer demands</tspan></text></g><g transform="matrix(1,0,0,1,12.949999809,525.625)"><text><tspan x="-0.5" y="12.958000183" font-family="Symbol" font-weight="normal" font-style="normal" font-size="8.25" fill="#404041">●</tspan><tspan x="10.050000191" y="13.708000183" font-family="Palatino Linotype" font-weight="normal" font-style="normal" font-size="11" fill="#404041">Analyzed and processed returns, assisting customers with finding alternative merchandise to meet </tspan><tspan x="10.050000191" y="30.708000183" font-family="Palatino Linotype" font-weight="normal" font-style="normal" font-size="11" fill="#404041">needs</tspan></text></g><g transform="matrix(1,0,0,1,0,559.625)"><text><tspan x="0" y="28.108999252" font-family="Palatino Linotype" font-weight="bold" font-style="italic" font-size="13" fill="#404041">EDUCATION</tspan></text></g><path d="M-1.450000048,566.125 L529.450012207,566.125 " stroke-width="1" stroke-miterlimit="10" stroke="#b2b0bf" fill="none" fill-rule="evenodd"></path><g transform="matrix(1,0,0,1,0,596.625)"><text><tspan x="0" y="13.708000183" font-family="Palatino Linotype" font-weight="bold" font-style="normal" font-size="11" fill="#404041">BACHELOR OF ARTS</tspan><tspan x="114.539001465" y="13.708000183" font-family="Palatino Linotype" font-weight="normal" font-style="normal" font-size="11" fill="#404041"> Business Administration </tspan></text></g><g transform="matrix(1,0,0,1,0,613.625)"><text><tspan x="0" y="13.708000183" font-family="Palatino Linotype" font-weight="normal" font-style="normal" font-size="11" fill="#404041">San Francisco State University</tspan></text></g><g transform="matrix(1,0,0,1,0,630.625)"><text><tspan x="0" y="13.708000183" font-family="Palatino Linotype" font-weight="normal" font-style="italic" font-size="11" fill="#c3c3c3">San Francisco, CA | 2013</tspan></text></g></g></g></g></svg>