<?xml version="1.0" encoding="utf-8" standalone="yes"?><svg xmlns="http://www.w3.org/2000/svg" xmlns:xlink="http://www.w3.org/1999/xlink" version="1.1" width="816" height="1056"><!--Generated by Aspose.Words for .NET 18.5--><defs><clipPath id="clip1"><path d="M-1,-1 L254.899993896,-1 L254.899993896,55.5 L-1,55.5 Z" clip-rule="evenodd"></path></clipPath><clipPath id="clip2"><path d="M-0.5,-1 L254.899993896,-1 L254.899993896,55.5 L-0.5,55.5 Z" clip-rule="evenodd"></path></clipPath><style type="text/css">svg{background:white}</style></defs><g transform="scale(1.33333)"><g><path d="M0,0 L600,0 L600,450 L0,450 Z" fill="#ffffff" fill-rule="evenodd"></path><g transform="matrix(1,0,0,1,600,0)"><path d="M0,0 L600,0 L600,450 L0,450 Z" fill="#ffffff" fill-rule="evenodd"></path></g><g transform="matrix(1,0,0,1,0,450)"><path d="M0,0 L600,0 L600,450 L0,450 Z" fill="#ffffff" fill-rule="evenodd"></path></g><g transform="matrix(1,0,0,1,600,450)"><path d="M0,0 L600,0 L600,450 L0,450 Z" fill="#ffffff" fill-rule="evenodd"></path></g><g transform="matrix(1,0,0,1,52,42)"><text><tspan x="0" y="37.701000214" font-family="Verdana" font-weight="normal" font-style="normal" font-size="30" fill="#2c96dd">JESSICA</tspan></text><g transform="matrix(1,0,0,1,0,44)"><text><tspan x="0" y="37.701000214" font-family="Verdana" font-weight="normal" font-style="normal" font-size="30" fill="#2c96dd">CLAIRE</tspan></text></g><path d="M-1.450000048,99.5 L221.449996948,99.5 " stroke-width="1" stroke-miterlimit="10" stroke="#2c96dd" stroke-dashoffset="0" stroke-dasharray="1 1" fill="none" fill-rule="evenodd"></path><g transform="matrix(1,0,0,1,0,100)"><text><tspan x="0" y="1.004999995" font-family="Verdana" font-weight="normal" font-style="normal" font-size="1" fill="#333333"> </tspan></text></g><g transform="matrix(1,0,0,1,0,101.214996338)"><text><tspan x="0" y="14.109999657" font-family="Verdana" font-weight="normal" font-style="normal" font-size="9" fill="#333333">San Francisco, CA 94105 | (555) 432-1000 | resumesample@example.com</tspan></text></g><g transform="matrix(1,0,0,1,0,124.214996338)"><text><tspan x="0" y="39.270999908" font-family="Verdana" font-weight="normal" font-style="normal" font-size="13" fill="#2c96dd">PROFESSIONAL SUMMARY</tspan></text></g><path d="M-1.450000048,177.714996338 L221.449996948,177.714996338 " stroke-width="1" stroke-miterlimit="10" stroke="#2c96dd" stroke-dashoffset="0" stroke-dasharray="1 1" fill="none" fill-rule="evenodd"></path><g transform="matrix(1,0,0,1,0,180.214996338)"><text><tspan x="0" y="15.68999958" font-family="Verdana" font-weight="normal" font-style="normal" font-size="11" fill="#333333">Highly motivated Sales Associate with extensive customer service and sales experience. </tspan><tspan x="0" y="33.689998627" font-family="Verdana" font-weight="normal" font-style="normal" font-size="11" fill="#333333">Outgoing sales professional with track record of driving increased sales, improving buying </tspan><tspan x="0" y="51.689998627" font-family="Verdana" font-weight="normal" font-style="normal" font-size="11" fill="#333333">experience and elevating company profile with target market.</tspan></text></g><g transform="matrix(1,0,0,1,0,234.214996338)"><text><tspan x="0" y="39.270999908" font-family="Verdana" font-weight="normal" font-style="normal" font-size="13" fill="#2c96dd">SKILLS</tspan></text></g><path d="M-1.450000048,287.714996338 L221.449996948,287.714996338 " stroke-width="1" stroke-miterlimit="10" stroke="#2c96dd" stroke-dashoffset="0" stroke-dasharray="1 1" fill="none" fill-rule="evenodd"></path><g transform="matrix(1,0,0,1,0,290.214996338)"><g transform="matrix(1,0,0,1,0,0)" clip-path="url(#clip1)"><g transform="matrix(1,0,0,1,13.199999809,0.25)"><text><tspan x="-0.5" y="14.93999958" font-family="Symbol" font-weight="normal" font-style="normal" font-size="8.25" fill="#333333">●</tspan><tspan x="10.050000191" y="15.68999958" font-family="Verdana" font-weight="normal" font-style="normal" font-size="11" fill="#333333">Guest services</tspan></text></g><g transform="matrix(1,0,0,1,13.199999809,18.25)"><text><tspan x="-0.5" y="14.93999958" font-family="Symbol" font-weight="normal" font-style="normal" font-size="8.25" fill="#333333">●</tspan><tspan x="10.050000191" y="15.68999958" font-family="Verdana" font-weight="normal" font-style="normal" font-size="11" fill="#333333">Inventory control procedures</tspan></text></g><g transform="matrix(1,0,0,1,13.199999809,36.25)"><text><tspan x="-0.5" y="14.93999958" font-family="Symbol" font-weight="normal" font-style="normal" font-size="8.25" fill="#333333">●</tspan><tspan x="10.050000191" y="15.68999958" font-family="Verdana" font-weight="normal" font-style="normal" font-size="11" fill="#333333">Merchandising expertise</tspan></text></g></g><g transform="matrix(1,0,0,1,253.899993896,0)" clip-path="url(#clip2)"><g transform="matrix(1,0,0,1,13.449999809,0.25)"><text><tspan x="-0.5" y="14.93999958" font-family="Symbol" font-weight="normal" font-style="normal" font-size="8.25" fill="#333333">●</tspan><tspan x="10.050000191" y="15.68999958" font-family="Verdana" font-weight="normal" font-style="normal" font-size="11" fill="#333333">Loss prevention</tspan></text></g><g transform="matrix(1,0,0,1,13.449999809,18.25)"><text><tspan x="-0.5" y="14.93999958" font-family="Symbol" font-weight="normal" font-style="normal" font-size="8.25" fill="#333333">●</tspan><tspan x="10.050000191" y="15.68999958" font-family="Verdana" font-weight="normal" font-style="normal" font-size="11" fill="#333333">Cash register operations</tspan></text></g><g transform="matrix(1,0,0,1,13.449999809,36.25)"><text><tspan x="-0.5" y="14.93999958" font-family="Symbol" font-weight="normal" font-style="normal" font-size="8.25" fill="#333333">●</tspan><tspan x="10.050000191" y="15.68999958" font-family="Verdana" font-weight="normal" font-style="normal" font-size="11" fill="#333333">Product promotions</tspan></text></g></g><path d="M253.899993896,0 L253.899993896,54.5 " stroke-width="1" stroke-miterlimit="10" stroke="#ffffff" fill="none" fill-rule="evenodd"></path></g><g transform="matrix(1,0,0,1,0,344.714996338)"><text><tspan x="0" y="39.270999908" font-family="Verdana" font-weight="normal" font-style="normal" font-size="13" fill="#2c96dd">WORK HISTORY</tspan></text></g><path d="M-1.450000048,398.214996338 L221.449996948,398.214996338 " stroke-width="1" stroke-miterlimit="10" stroke="#2c96dd" stroke-dashoffset="0" stroke-dasharray="1 1" fill="none" fill-rule="evenodd"></path><g transform="matrix(1,0,0,1,0,400.714996338)"><text><tspan x="0" y="15.68999958" font-family="Verdana" font-weight="normal" font-style="normal" font-size="11" fill="#c3c3c3">MARCH 2015-CURRENT </tspan></text></g><g transform="matrix(1,0,0,1,0,418.714996338)"><text><tspan x="0" y="15.68999958" font-family="Verdana" font-weight="normal" font-style="italic" font-size="11" fill="#333333">Senior Sales Associate</tspan><tspan x="124.473999023" y="15.68999958" font-family="Verdana" font-weight="normal" font-style="normal" font-size="11" fill="#333333"> | </tspan><tspan x="137.20300293" y="15.68999958" font-family="Verdana" font-weight="normal" font-style="italic" font-size="11" fill="#333333">Bed Bath &amp; Beyond, Inc.</tspan><tspan x="273.460998535" y="15.68999958" font-family="Verdana" font-weight="normal" font-style="normal" font-size="11" fill="#333333"> | </tspan><tspan x="286.190002441" y="15.68999958" font-family="Verdana" font-weight="normal" font-style="italic" font-size="11" fill="#333333">San Francisco</tspan><tspan x="362.614990234" y="15.68999958" font-family="Verdana" font-weight="normal" font-style="normal" font-size="11" fill="#333333">, </tspan><tspan x="370.483001709" y="15.68999958" font-family="Verdana" font-weight="normal" font-style="italic" font-size="11" fill="#333333">CA</tspan></text></g><g transform="matrix(1,0,0,1,12.949999809,436.714996338)"><text><tspan x="-0.5" y="14.93999958" font-family="Symbol" font-weight="normal" font-style="normal" font-size="8.25" fill="#333333">●</tspan><tspan x="10.050000191" y="15.68999958" font-family="Verdana" font-weight="normal" font-style="normal" font-size="11" fill="#333333">Applied security and loss prevention training toward recognizing risks and reducing </tspan><tspan x="10.050000191" y="33.689998627" font-family="Verdana" font-weight="normal" font-style="normal" font-size="11" fill="#333333">store theft</tspan></text></g><g transform="matrix(1,0,0,1,12.949999809,472.714996338)"><text><tspan x="-0.5" y="14.93999958" font-family="Symbol" font-weight="normal" font-style="normal" font-size="8.25" fill="#333333">●</tspan><tspan x="10.050000191" y="15.68999958" font-family="Verdana" font-weight="normal" font-style="normal" font-size="11" fill="#333333">Trained and developed sales team associates in products, selling techniques and </tspan><tspan x="10.050000191" y="33.689998627" font-family="Verdana" font-weight="normal" font-style="normal" font-size="11" fill="#333333">procedures</tspan></text></g><g transform="matrix(1,0,0,1,12.949999809,508.714996338)"><text><tspan x="-0.5" y="14.93999958" font-family="Symbol" font-weight="normal" font-style="normal" font-size="8.25" fill="#333333">●</tspan><tspan x="10.050000191" y="15.68999958" font-family="Verdana" font-weight="normal" font-style="normal" font-size="11" fill="#333333">Maintained organized, presentable merchandise to drive continuous sales</tspan></text></g><g transform="matrix(1,0,0,1,12.949999809,526.715026855)"><text><tspan x="-0.5" y="14.93999958" font-family="Symbol" font-weight="normal" font-style="normal" font-size="8.25" fill="#333333">●</tspan><tspan x="10.050000191" y="15.68999958" font-family="Verdana" font-weight="normal" font-style="normal" font-size="11" fill="#333333">Implemented up-selling strategies for recommending accessories and complementary </tspan><tspan x="10.050000191" y="33.689998627" font-family="Verdana" font-weight="normal" font-style="normal" font-size="11" fill="#333333">purchases</tspan></text></g><g transform="matrix(1,0,0,1,0,562.715026855)"><text><tspan x="0" y="15.68999958" font-family="Verdana" font-weight="normal" font-style="normal" font-size="11" fill="#c3c3c3">JUNE 2013-MARCH 2015 </tspan></text></g><g transform="matrix(1,0,0,1,0,580.715026855)"><text><tspan x="0" y="15.68999958" font-family="Verdana" font-weight="normal" font-style="italic" font-size="11" fill="#333333">Sales Associate</tspan><tspan x="85.184997559" y="15.68999958" font-family="Verdana" font-weight="normal" font-style="normal" font-size="11" fill="#333333"> | </tspan><tspan x="97.914001465" y="15.68999958" font-family="Verdana" font-weight="normal" font-style="italic" font-size="11" fill="#333333">Target</tspan><tspan x="133.718002319" y="15.68999958" font-family="Verdana" font-weight="normal" font-style="normal" font-size="11" fill="#333333"> | </tspan><tspan x="146.447006226" y="15.68999958" font-family="Verdana" font-weight="normal" font-style="italic" font-size="11" fill="#333333">San Francisco</tspan><tspan x="222.871994019" y="15.68999958" font-family="Verdana" font-weight="normal" font-style="normal" font-size="11" fill="#333333">, </tspan><tspan x="230.740005493" y="15.68999958" font-family="Verdana" font-weight="normal" font-style="italic" font-size="11" fill="#333333">CA</tspan></text></g><g transform="matrix(1,0,0,1,12.949999809,598.715026855)"><text><tspan x="-0.5" y="14.93999958" font-family="Symbol" font-weight="normal" font-style="normal" font-size="8.25" fill="#333333">●</tspan><tspan x="10.050000191" y="15.68999958" font-family="Verdana" font-weight="normal" font-style="normal" font-size="11" fill="#333333">Maintained organized, presentable merchandise to drive continuous sales</tspan></text></g><g transform="matrix(1,0,0,1,12.949999809,616.715026855)"><text><tspan x="-0.5" y="14.93999958" font-family="Symbol" font-weight="normal" font-style="normal" font-size="8.25" fill="#333333">●</tspan><tspan x="10.050000191" y="15.68999958" font-family="Verdana" font-weight="normal" font-style="normal" font-size="11" fill="#333333">Organized racks and shelves to maintain store visual appeal, engage customers and </tspan><tspan x="10.050000191" y="33.689998627" font-family="Verdana" font-weight="normal" font-style="normal" font-size="11" fill="#333333">promote merchandise</tspan></text></g><g transform="matrix(1,0,0,1,12.949999809,652.715026855)"><text><tspan x="-0.5" y="14.93999958" font-family="Symbol" font-weight="normal" font-style="normal" font-size="8.25" fill="#333333">●</tspan><tspan x="10.050000191" y="15.68999958" font-family="Verdana" font-weight="normal" font-style="normal" font-size="11" fill="#333333">Evaluated inventory and delivery needs, optimizing strategies to meet customer </tspan><tspan x="10.050000191" y="33.689998627" font-family="Verdana" font-weight="normal" font-style="normal" font-size="11" fill="#333333">demands</tspan></text></g></g></g></g></svg>