<?xml version="1.0" encoding="utf-8" standalone="yes"?><svg xmlns="http://www.w3.org/2000/svg" xmlns:xlink="http://www.w3.org/1999/xlink" version="1.1" width="816" height="1056"><!--Generated by Aspose.Words for .NET 18.5--><defs><clipPath id="clip1"><path d="M0,0 L612,0 L612,0.096000001 L0,0.096000001 Z" clip-rule="evenodd"></path></clipPath><clipPath id="clip10"><path d="M-1,-1 L171,-1 L171,324 L-1,324 Z" clip-rule="evenodd"></path></clipPath><clipPath id="clip11"><path d="M-1,-1 L371,-1 L371,324 L-1,324 Z" clip-rule="evenodd"></path></clipPath><clipPath id="clip12"><path d="M-1,-1 L171,-1 L171,61.986999512 L-1,61.986999512 Z" clip-rule="evenodd"></path></clipPath><clipPath id="clip13"><path d="M-1,-1 L371,-1 L371,61.986999512 L-1,61.986999512 Z" clip-rule="evenodd"></path></clipPath><clipPath id="clip2"><path d="M0,0 L612,0 L612,0.096000001 L0,0.096000001 Z" clip-rule="evenodd"></path></clipPath><clipPath id="clip3"><path d="M-1,-1 L612.799987793,-1 L612.799987793,105.913002014 L-1,105.913002014 Z" clip-rule="evenodd"></path></clipPath><clipPath id="clip4"><path d="M-1,-1 L171,-1 L171,83 L-1,83 Z" clip-rule="evenodd"></path></clipPath><clipPath id="clip5"><path d="M-1,-1 L371,-1 L371,83 L-1,83 Z" clip-rule="evenodd"></path></clipPath><clipPath id="clip6"><path d="M-1,-1 L171,-1 L171,79.5 L-1,79.5 Z" clip-rule="evenodd"></path></clipPath><clipPath id="clip7"><path d="M-1,-1 L371,-1 L371,79.5 L-1,79.5 Z" clip-rule="evenodd"></path></clipPath><clipPath id="clip8"><path d="M-1,-1 L185,-1 L185,49.5 L-1,49.5 Z" clip-rule="evenodd"></path></clipPath><clipPath id="clip9"><path d="M-1,-1 L185,-1 L185,49.5 L-1,49.5 Z" clip-rule="evenodd"></path></clipPath><style type="text/css">svg{background:white}@font-face{font-family:'Century Gothic';font-weight:normal;font-style:normal;src:local('Century Gothic'),url('https://content.livecareer.com/zty/fonts/CenturyGothic.ttf') format('truetype')}@font-face{font-family:'Century Gothic';font-weight:bold;font-style:normal;src:local('Century Gothic Bold'),url('https://content.livecareer.com/zty/fonts/CenturyGothicBold.ttf') format('truetype')}@font-face{font-family:'Century Gothic';font-weight:bold;font-style:italic;src:local('Century Gothic Bold Italic'),url('https://content.livecareer.com/zty/fonts/CenturyGothicBoldItalic.ttf') format('truetype')}@font-face{font-family:'Century Gothic';font-weight:normal;font-style:italic;src:local('Century Gothic Italic'),url('https://content.livecareer.com/zty/fonts/CenturyGothicItalic.ttf') format('truetype')}</style></defs><g transform="scale(1.33333)"><g><path d="M0,0 L600,0 L600,450 L0,450 Z" fill="#ffffff" fill-rule="evenodd"></path><g transform="matrix(1,0,0,1,600,0)"><path d="M0,0 L600,0 L600,450 L0,450 Z" fill="#ffffff" fill-rule="evenodd"></path></g><g transform="matrix(1,0,0,1,0,450)"><path d="M0,0 L600,0 L600,450 L0,450 Z" fill="#ffffff" fill-rule="evenodd"></path></g><g transform="matrix(1,0,0,1,600,450)"><path d="M0,0 L600,0 L600,450 L0,450 Z" fill="#ffffff" fill-rule="evenodd"></path></g><g transform="matrix(1,0,0,1,0,0)" clip-path="url(#clip1)"><text><tspan x="0" y="0.077" font-family="Times New Roman" font-weight="normal" font-style="normal" font-size="1" fill="#ffffff">.</tspan></text></g><g transform="matrix(1,0,0,1,0,791.903991699)" clip-path="url(#clip2)"><text><tspan x="0" y="0.077" font-family="Times New Roman" font-weight="normal" font-style="normal" font-size="1" fill="#ffffff">.</tspan></text></g><g transform="matrix(1,0,0,1,0,0.096000001)"><path d="M0,0 L1,0 L1,104.913002014 L0,104.913002014 Z" fill="#434d54" fill-rule="evenodd"></path><path d="M1,0 L612.799987793,0 L612.799987793,104.913002014 L1,104.913002014 Z" fill="#434d54" fill-rule="evenodd"></path><g transform="matrix(1,0,0,1,1,0)" clip-path="url(#clip3)"><g transform="matrix(1,0,0,1,36,25)"><text><tspan x="139.376998901" y="35.205001831" font-family="Century Gothic" font-weight="bold" font-style="normal" font-size="35" fill="#ffffff">JESSICA CLAIRE</tspan></text></g><g transform="matrix(1,0,0,1,36,67.913002014)"><text><tspan x="80.598999023" y="16.798000336" font-family="Century Gothic" font-weight="normal" font-style="normal" font-size="10" fill="#ffffff">resumesample@example.com   |   (555) 432-1000  |   San Francisco, CA 94105</tspan></text></g></g></g><g transform="matrix(1,0,0,1,36,105.009002686)"><g transform="matrix(1,0,0,1,2,0)"><g transform="matrix(1,0,0,1,0,0)" clip-path="url(#clip4)"><g transform="matrix(1,0,0,1,2,0)"><text><tspan x="82.614997864" y="27.798000336" font-family="Century Gothic" font-weight="normal" font-style="normal" font-size="10" fill="#434d54"> </tspan></text></g><g transform="matrix(1,0,0,1,7.75,30)"><text><tspan x="26.924999237" y="19.815000534" font-family="Century Gothic" font-weight="bold" font-style="normal" font-size="11" fill="#434d54">PROFESSIONAL </tspan><tspan x="38.799999237" y="33.301998138" font-family="Century Gothic" font-weight="bold" font-style="normal" font-size="11" fill="#434d54">SUMMARY</tspan></text></g><path d="M0.925000012,30.75 L0.925000012,73.723999023 " stroke-width="0.75" stroke-miterlimit="10" stroke="#434d54" fill="none" fill-rule="evenodd"></path><path d="M146.074996948,30.75 L146.074996948,73.723999023 " stroke-width="0.75" stroke-miterlimit="10" stroke="#434d54" fill="none" fill-rule="evenodd"></path><path d="M0.550000012,30.375 L146.449996948,30.375 " stroke-width="0.75" stroke-miterlimit="10" stroke="#434d54" fill="none" fill-rule="evenodd"></path><path d="M0.550000012,74.098999023 L146.449996948,74.098999023 " stroke-width="0.75" stroke-miterlimit="10" stroke="#434d54" fill="none" fill-rule="evenodd"></path></g><g transform="matrix(1,0,0,1,170,0)" clip-path="url(#clip5)"><g transform="matrix(1,0,0,1,2,0)"><text><tspan x="0" y="27.798000336" font-family="Century Gothic" font-weight="normal" font-style="normal" font-size="10" fill="#434d54"> </tspan></text></g><g transform="matrix(1,0,0,1,2,30)"><text><tspan x="0" y="10.798000336" font-family="Century Gothic" font-weight="normal" font-style="normal" font-size="10" fill="#434d54">Highly motivated Sales Associate with extensive customer service and sales </tspan><tspan x="0" y="23.798000336" font-family="Century Gothic" font-weight="normal" font-style="normal" font-size="10" fill="#434d54">experience. Outgoing sales professional with track record of driving </tspan><tspan x="0" y="36.798000336" font-family="Century Gothic" font-weight="normal" font-style="normal" font-size="10" fill="#434d54">increased sales, improving buying experience and elevating company </tspan><tspan x="0" y="49.798000336" font-family="Century Gothic" font-weight="normal" font-style="normal" font-size="10" fill="#434d54">profile with target market.</tspan></text></g></g></g><g transform="matrix(1,0,0,1,2,82)"><g transform="matrix(1,0,0,1,0,0)" clip-path="url(#clip6)"><g transform="matrix(1,0,0,1,2,0)"><text><tspan x="82.614997864" y="27.798000336" font-family="Century Gothic" font-weight="normal" font-style="normal" font-size="10" fill="#434d54"> </tspan></text></g><g transform="matrix(1,0,0,1,7.75,30)"><text><tspan x="50.241001129" y="19.815000534" font-family="Century Gothic" font-weight="bold" font-style="normal" font-size="11" fill="#434d54">SKILLS</tspan></text></g><path d="M0.925000012,30.75 L0.925000012,60.236999512 " stroke-width="0.75" stroke-miterlimit="10" stroke="#434d54" fill="none" fill-rule="evenodd"></path><path d="M146.074996948,30.75 L146.074996948,60.236999512 " stroke-width="0.75" stroke-miterlimit="10" stroke="#434d54" fill="none" fill-rule="evenodd"></path><path d="M0.550000012,30.375 L146.449996948,30.375 " stroke-width="0.75" stroke-miterlimit="10" stroke="#434d54" fill="none" fill-rule="evenodd"></path><path d="M0.550000012,60.611999512 L146.449996948,60.611999512 " stroke-width="0.75" stroke-miterlimit="10" stroke="#434d54" fill="none" fill-rule="evenodd"></path></g><g transform="matrix(1,0,0,1,170,0)" clip-path="url(#clip7)"><g transform="matrix(1,0,0,1,2,0)"><text><tspan x="0" y="27.798000336" font-family="Century Gothic" font-weight="normal" font-style="normal" font-size="10" fill="#434d54"> </tspan></text></g></g></g><g transform="matrix(1,0,0,1,174,112)"><g transform="matrix(1,0,0,1,0,0)" clip-path="url(#clip8)"><g transform="matrix(1,0,0,1,5.650000095,0.25)"><text><tspan x="-0.5" y="10.048000336" font-family="Symbol" font-weight="normal" font-style="normal" font-size="7.5" fill="#434d54">●</tspan><tspan x="9.600000381" y="10.798000336" font-family="Century Gothic" font-weight="normal" font-style="normal" font-size="10" fill="#434d54">Guest services</tspan></text></g><g transform="matrix(1,0,0,1,5.650000095,16.25)"><text><tspan x="-0.5" y="10.048000336" font-family="Symbol" font-weight="normal" font-style="normal" font-size="7.5" fill="#434d54">●</tspan><tspan x="9.600000381" y="10.798000336" font-family="Century Gothic" font-weight="normal" font-style="normal" font-size="10" fill="#434d54">Inventory control procedures</tspan></text></g><g transform="matrix(1,0,0,1,5.650000095,32.25)"><text><tspan x="-0.5" y="10.048000336" font-family="Symbol" font-weight="normal" font-style="normal" font-size="7.5" fill="#434d54">●</tspan><tspan x="9.600000381" y="10.798000336" font-family="Century Gothic" font-weight="normal" font-style="normal" font-size="10" fill="#434d54">Merchandising expertise</tspan></text></g></g><g transform="matrix(1,0,0,1,184,0)" clip-path="url(#clip9)"><g transform="matrix(1,0,0,1,5.650000095,0.25)"><text><tspan x="-0.5" y="10.048000336" font-family="Symbol" font-weight="normal" font-style="normal" font-size="7.5" fill="#434d54">●</tspan><tspan x="9.600000381" y="10.798000336" font-family="Century Gothic" font-weight="normal" font-style="normal" font-size="10" fill="#434d54">Loss prevention</tspan></text></g><g transform="matrix(1,0,0,1,5.650000095,16.25)"><text><tspan x="-0.5" y="10.048000336" font-family="Symbol" font-weight="normal" font-style="normal" font-size="7.5" fill="#434d54">●</tspan><tspan x="9.600000381" y="10.798000336" font-family="Century Gothic" font-weight="normal" font-style="normal" font-size="10" fill="#434d54">Cash register operations</tspan></text></g><g transform="matrix(1,0,0,1,5.650000095,32.25)"><text><tspan x="-0.5" y="10.048000336" font-family="Symbol" font-weight="normal" font-style="normal" font-size="7.5" fill="#434d54">●</tspan><tspan x="9.600000381" y="10.798000336" font-family="Century Gothic" font-weight="normal" font-style="normal" font-size="10" fill="#434d54">Product promotions</tspan></text></g></g></g><g transform="matrix(1,0,0,1,2,160.5)"><g transform="matrix(1,0,0,1,0,0)" clip-path="url(#clip10)"><g transform="matrix(1,0,0,1,2,0)"><text><tspan x="82.614997864" y="27.798000336" font-family="Century Gothic" font-weight="normal" font-style="normal" font-size="10" fill="#434d54"> </tspan></text></g><g transform="matrix(1,0,0,1,7.75,30)"><text><tspan x="26.371999741" y="19.815000534" font-family="Century Gothic" font-weight="bold" font-style="normal" font-size="11" fill="#434d54">WORK HISTORY</tspan></text></g><path d="M0.925000012,30.75 L0.925000012,60.236999512 " stroke-width="0.75" stroke-miterlimit="10" stroke="#434d54" fill="none" fill-rule="evenodd"></path><path d="M146.074996948,30.75 L146.074996948,60.236999512 " stroke-width="0.75" stroke-miterlimit="10" stroke="#434d54" fill="none" fill-rule="evenodd"></path><path d="M0.550000012,30.375 L146.449996948,30.375 " stroke-width="0.75" stroke-miterlimit="10" stroke="#434d54" fill="none" fill-rule="evenodd"></path><path d="M0.550000012,60.611999512 L146.449996948,60.611999512 " stroke-width="0.75" stroke-miterlimit="10" stroke="#434d54" fill="none" fill-rule="evenodd"></path></g><g transform="matrix(1,0,0,1,170,0)" clip-path="url(#clip11)"><g transform="matrix(1,0,0,1,2,0)"><text><tspan x="0" y="27.798000336" font-family="Century Gothic" font-weight="normal" font-style="normal" font-size="10" fill="#434d54"> </tspan></text></g><g transform="matrix(1,0,0,1,2,30)"><text><tspan x="0" y="10.798000336" font-family="Century Gothic" font-weight="bold" font-style="normal" font-size="10" fill="#434d54">Senior Sales Associate</tspan><tspan x="107.593002319" y="10.798000336" font-family="Century Gothic" font-weight="normal" font-style="normal" font-size="10" fill="#434d54">  /   Bed Bath &amp; Beyond, Inc. - San Francisco, CA   /   </tspan><tspan x="0" y="23.798000336" font-family="Century Gothic" font-weight="normal" font-style="normal" font-size="10" fill="#434d54">03.2015 - Current </tspan></text></g><g transform="matrix(1,0,0,1,7.400000095,56)"><text><tspan x="-0.5" y="15.048000336" font-family="Symbol" font-weight="normal" font-style="normal" font-size="7.5" fill="#434d54">●</tspan><tspan x="9.600000381" y="15.798000336" font-family="Century Gothic" font-weight="normal" font-style="normal" font-size="10" fill="#434d54">Applied security and loss prevention training toward recognizing risks </tspan><tspan x="9.600000381" y="28.798000336" font-family="Century Gothic" font-weight="normal" font-style="normal" font-size="10" fill="#434d54">and reducing store theft</tspan></text></g><g transform="matrix(1,0,0,1,7.400000095,90)"><text><tspan x="-0.5" y="10.048000336" font-family="Symbol" font-weight="normal" font-style="normal" font-size="7.5" fill="#434d54">●</tspan><tspan x="9.600000381" y="10.798000336" font-family="Century Gothic" font-weight="normal" font-style="normal" font-size="10" fill="#434d54">Trained and developed sales team associates in products, selling </tspan><tspan x="9.600000381" y="23.798000336" font-family="Century Gothic" font-weight="normal" font-style="normal" font-size="10" fill="#434d54">techniques and procedures</tspan></text></g><g transform="matrix(1,0,0,1,7.400000095,119)"><text><tspan x="-0.5" y="10.048000336" font-family="Symbol" font-weight="normal" font-style="normal" font-size="7.5" fill="#434d54">●</tspan><tspan x="9.600000381" y="10.798000336" font-family="Century Gothic" font-weight="normal" font-style="normal" font-size="10" fill="#434d54">Maintained organized, presentable merchandise to drive continuous </tspan><tspan x="9.600000381" y="23.798000336" font-family="Century Gothic" font-weight="normal" font-style="normal" font-size="10" fill="#434d54">sales</tspan></text></g><g transform="matrix(1,0,0,1,7.400000095,148)"><text><tspan x="-0.5" y="10.048000336" font-family="Symbol" font-weight="normal" font-style="normal" font-size="7.5" fill="#434d54">●</tspan><tspan x="9.600000381" y="10.798000336" font-family="Century Gothic" font-weight="normal" font-style="normal" font-size="10" fill="#434d54">Implemented up-selling strategies for recommending accessories and </tspan><tspan x="9.600000381" y="23.798000336" font-family="Century Gothic" font-weight="normal" font-style="normal" font-size="10" fill="#434d54">complementary purchases</tspan></text></g><g transform="matrix(1,0,0,1,2,177)"><text><tspan x="0" y="22.798000336" font-family="Century Gothic" font-weight="bold" font-style="normal" font-size="10" fill="#434d54">Sales Associate</tspan><tspan x="75.194999695" y="22.798000336" font-family="Century Gothic" font-weight="normal" font-style="normal" font-size="10" fill="#434d54">  /   Target - San Francisco, CA   /   06.2013 - 03.2015 </tspan></text></g><g transform="matrix(1,0,0,1,7.400000095,202)"><text><tspan x="-0.5" y="15.048000336" font-family="Symbol" font-weight="normal" font-style="normal" font-size="7.5" fill="#434d54">●</tspan><tspan x="9.600000381" y="15.798000336" font-family="Century Gothic" font-weight="normal" font-style="normal" font-size="10" fill="#434d54">Maintained organized, presentable merchandise to drive continuous </tspan><tspan x="9.600000381" y="28.798000336" font-family="Century Gothic" font-weight="normal" font-style="normal" font-size="10" fill="#434d54">sales</tspan></text></g><g transform="matrix(1,0,0,1,7.400000095,236)"><text><tspan x="-0.5" y="10.048000336" font-family="Symbol" font-weight="normal" font-style="normal" font-size="7.5" fill="#434d54">●</tspan><tspan x="9.600000381" y="10.798000336" font-family="Century Gothic" font-weight="normal" font-style="normal" font-size="10" fill="#434d54">Organized racks and shelves to maintain store visual appeal, engage </tspan><tspan x="9.600000381" y="23.798000336" font-family="Century Gothic" font-weight="normal" font-style="normal" font-size="10" fill="#434d54">customers and promote merchandise</tspan></text></g><g transform="matrix(1,0,0,1,7.400000095,265)"><text><tspan x="-0.5" y="10.048000336" font-family="Symbol" font-weight="normal" font-style="normal" font-size="7.5" fill="#434d54">●</tspan><tspan x="9.600000381" y="10.798000336" font-family="Century Gothic" font-weight="normal" font-style="normal" font-size="10" fill="#434d54">Evaluated inventory and delivery needs, optimizing strategies to meet </tspan><tspan x="9.600000381" y="23.798000336" font-family="Century Gothic" font-weight="normal" font-style="normal" font-size="10" fill="#434d54">customer demands</tspan></text></g><g transform="matrix(1,0,0,1,7.400000095,294)"><text><tspan x="-0.5" y="10.048000336" font-family="Symbol" font-weight="normal" font-style="normal" font-size="7.5" fill="#434d54">●</tspan><tspan x="9.600000381" y="10.798000336" font-family="Century Gothic" font-weight="normal" font-style="normal" font-size="10" fill="#434d54">Analyzed and processed returns, assisting customers with finding </tspan><tspan x="9.600000381" y="23.798000336" font-family="Century Gothic" font-weight="normal" font-style="normal" font-size="10" fill="#434d54">alternative merchandise to meet needs</tspan></text></g></g></g><g transform="matrix(1,0,0,1,2,483.5)"><g transform="matrix(1,0,0,1,0,0)" clip-path="url(#clip12)"><g transform="matrix(1,0,0,1,2,0)"><text><tspan x="82.614997864" y="27.798000336" font-family="Century Gothic" font-weight="normal" font-style="normal" font-size="10" fill="#434d54"> </tspan></text></g><g transform="matrix(1,0,0,1,7.75,30)"><text><tspan x="34.624000549" y="19.815000534" font-family="Century Gothic" font-weight="bold" font-style="normal" font-size="11" fill="#434d54">EDUCATION</tspan></text></g><path d="M0.925000012,30.75 L0.925000012,60.236999512 " stroke-width="0.75" stroke-miterlimit="10" stroke="#434d54" fill="none" fill-rule="evenodd"></path><path d="M146.074996948,30.75 L146.074996948,60.236999512 " stroke-width="0.75" stroke-miterlimit="10" stroke="#434d54" fill="none" fill-rule="evenodd"></path><path d="M0.550000012,30.375 L146.449996948,30.375 " stroke-width="0.75" stroke-miterlimit="10" stroke="#434d54" fill="none" fill-rule="evenodd"></path><path d="M0.550000012,60.611999512 L146.449996948,60.611999512 " stroke-width="0.75" stroke-miterlimit="10" stroke="#434d54" fill="none" fill-rule="evenodd"></path></g><g transform="matrix(1,0,0,1,170,0)" clip-path="url(#clip13)"><g transform="matrix(1,0,0,1,2,0)"><text><tspan x="0" y="27.798000336" font-family="Century Gothic" font-weight="normal" font-style="normal" font-size="10" fill="#434d54"> </tspan></text></g><g transform="matrix(1,0,0,1,2,30)"><text><tspan x="0" y="10.798000336" font-family="Century Gothic" font-weight="normal" font-style="normal" font-size="10" fill="#434d54">San Francisco State University - San Francisco, CA   /   2013 </tspan></text></g><g transform="matrix(1,0,0,1,2,43)"><text><tspan x="0" y="10.798000336" font-family="Century Gothic" font-weight="bold" font-style="normal" font-size="10" fill="#434d54">Bachelor of Arts</tspan><tspan x="75.990997314" y="10.798000336" font-family="Century Gothic" font-weight="normal" font-style="normal" font-size="10" fill="#434d54">: Business Administration</tspan></text></g></g></g></g></g></g></svg>