<?xml version="1.0" encoding="utf-8" standalone="yes"?><svg xmlns="http://www.w3.org/2000/svg" xmlns:xlink="http://www.w3.org/1999/xlink" version="1.1" width="816" height="1056"><!--Generated by Aspose.Words for .NET 18.5--><defs><clipPath id="clip1"><path d="M-1,-1 L141,-1 L141,84 L-1,84 Z" clip-rule="evenodd"></path></clipPath><clipPath id="clip2"><path d="M-1,-1 L399,-1 L399,84 L-1,84 Z" clip-rule="evenodd"></path></clipPath><clipPath id="clip3"><path d="M-1,-1 L141,-1 L141,67.5 L-1,67.5 Z" clip-rule="evenodd"></path></clipPath><clipPath id="clip4"><path d="M-1,-1 L200,-1 L200,52.5 L-1,52.5 Z" clip-rule="evenodd"></path></clipPath><clipPath id="clip5"><path d="M-1,-1 L200,-1 L200,52.5 L-1,52.5 Z" clip-rule="evenodd"></path></clipPath><clipPath id="clip6"><path d="M-1,-1 L141,-1 L141,383 L-1,383 Z" clip-rule="evenodd"></path></clipPath><clipPath id="clip7"><path d="M-1,-1 L399,-1 L399,383 L-1,383 Z" clip-rule="evenodd"></path></clipPath><clipPath id="clip8"><path d="M-1,-1 L141,-1 L141,67 L-1,67 Z" clip-rule="evenodd"></path></clipPath><clipPath id="clip9"><path d="M-1,-1 L399,-1 L399,67 L-1,67 Z" clip-rule="evenodd"></path></clipPath><style type="text/css">svg{background:white}@font-face{font-family:'Century Gothic';font-weight:normal;font-style:normal;src:local('Century Gothic'),url('https://content.livecareer.com/zty/fonts/CenturyGothic.ttf') format('truetype')}@font-face{font-family:'Century Gothic';font-weight:bold;font-style:normal;src:local('Century Gothic Bold'),url('https://content.livecareer.com/zty/fonts/CenturyGothicBold.ttf') format('truetype')}@font-face{font-family:'Century Gothic';font-weight:bold;font-style:italic;src:local('Century Gothic Bold Italic'),url('https://content.livecareer.com/zty/fonts/CenturyGothicBoldItalic.ttf') format('truetype')}@font-face{font-family:'Century Gothic';font-weight:normal;font-style:italic;src:local('Century Gothic Italic'),url('https://content.livecareer.com/zty/fonts/CenturyGothicItalic.ttf') format('truetype')}</style></defs><g transform="scale(1.33333)"><g><path d="M0,0 L600,0 L600,450 L0,450 Z" fill="#ffffff" fill-rule="evenodd"></path><g transform="matrix(1,0,0,1,600,0)"><path d="M0,0 L600,0 L600,450 L0,450 Z" fill="#ffffff" fill-rule="evenodd"></path></g><g transform="matrix(1,0,0,1,0,450)"><path d="M0,0 L600,0 L600,450 L0,450 Z" fill="#ffffff" fill-rule="evenodd"></path></g><g transform="matrix(1,0,0,1,600,450)"><path d="M0,0 L600,0 L600,450 L0,450 Z" fill="#ffffff" fill-rule="evenodd"></path></g><g transform="matrix(1,0,0,1,37,37)"><text><tspan x="0" y="38.85200119" font-family="Century Gothic" font-weight="bold" font-style="normal" font-size="37" fill="#000000">JESSICA CLAIRE</tspan></text><g transform="matrix(1,0,0,1,0,47)"><text><tspan x="0" y="19.357000351" font-family="Century Gothic" font-weight="normal" font-style="normal" font-size="12" fill="#787c85">SAN FRANCISCO , CA 94105 (555) 432-1000 RESUMESAMPLE@EXAMPLE.COM</tspan></text></g><path d="M-1.450000048,86.5 L539.450012207,86.5 " stroke-width="5" stroke-miterlimit="10" stroke="#fcc74a" fill="none" fill-rule="evenodd"></path><g transform="matrix(1,0,0,1,0,89)"><g transform="matrix(1,0,0,1,0,0)" clip-path="url(#clip1)"><g transform="matrix(1,0,0,1,0,15)"><text><tspan x="0" y="12.069999695" font-family="Century Gothic" font-weight="bold" font-style="normal" font-size="12" fill="#000000">PROFESSIONAL </tspan><tspan x="0" y="26.783000946" font-family="Century Gothic" font-weight="bold" font-style="normal" font-size="12" fill="#000000">SUMMARY</tspan></text></g></g><g transform="matrix(1,0,0,1,140,0)" clip-path="url(#clip2)"><g transform="matrix(1,0,0,1,0,15)"><text><tspan x="0" y="14.357000351" font-family="Century Gothic" font-weight="normal" font-style="normal" font-size="12" fill="#000000">Highly motivated Sales Associate with extensive customer service </tspan><tspan x="0" y="31.357000351" font-family="Century Gothic" font-weight="normal" font-style="normal" font-size="12" fill="#000000">and sales experience. Outgoing sales professional with track record </tspan><tspan x="0" y="48.357002258" font-family="Century Gothic" font-weight="normal" font-style="normal" font-size="12" fill="#000000">of driving increased sales, improving buying experience and </tspan><tspan x="0" y="65.357002258" font-family="Century Gothic" font-weight="normal" font-style="normal" font-size="12" fill="#000000">elevating company profile with target market.</tspan></text></g></g></g><g transform="matrix(1,0,0,1,0,172)"><g transform="matrix(1,0,0,1,0,0)" clip-path="url(#clip3)"><g transform="matrix(1,0,0,1,0,15)"><text><tspan x="0" y="12.069999695" font-family="Century Gothic" font-weight="bold" font-style="normal" font-size="12" fill="#000000">SKILLS</tspan></text></g></g></g><g transform="matrix(1,0,0,1,140,187)"><g transform="matrix(1,0,0,1,0,0)" clip-path="url(#clip4)"><g transform="matrix(1,0,0,1,12.75,0.25)"><text><tspan x="-0.5" y="13.607000351" font-family="Symbol" font-weight="normal" font-style="normal" font-size="9" fill="#000000">●</tspan><tspan x="10.5" y="14.357000351" font-family="Century Gothic" font-weight="normal" font-style="normal" font-size="12" fill="#000000">Guest services</tspan></text></g><g transform="matrix(1,0,0,1,12.75,17.25)"><text><tspan x="-0.5" y="13.607000351" font-family="Symbol" font-weight="normal" font-style="normal" font-size="9" fill="#000000">●</tspan><tspan x="10.5" y="14.357000351" font-family="Century Gothic" font-weight="normal" font-style="normal" font-size="12" fill="#000000">Inventory control procedures</tspan></text></g><g transform="matrix(1,0,0,1,12.75,34.25)"><text><tspan x="-0.5" y="13.607000351" font-family="Symbol" font-weight="normal" font-style="normal" font-size="9" fill="#000000">●</tspan><tspan x="10.5" y="14.357000351" font-family="Century Gothic" font-weight="normal" font-style="normal" font-size="12" fill="#000000">Merchandising expertise</tspan></text></g></g><g transform="matrix(1,0,0,1,199,0)" clip-path="url(#clip5)"><g transform="matrix(1,0,0,1,19.75,0.25)"><text><tspan x="-0.5" y="13.607000351" font-family="Symbol" font-weight="normal" font-style="normal" font-size="9" fill="#000000">●</tspan><tspan x="10.5" y="14.357000351" font-family="Century Gothic" font-weight="normal" font-style="normal" font-size="12" fill="#000000">Loss prevention</tspan></text></g><g transform="matrix(1,0,0,1,19.75,17.25)"><text><tspan x="-0.5" y="13.607000351" font-family="Symbol" font-weight="normal" font-style="normal" font-size="9" fill="#000000">●</tspan><tspan x="10.5" y="14.357000351" font-family="Century Gothic" font-weight="normal" font-style="normal" font-size="12" fill="#000000">Cash register operations</tspan></text></g><g transform="matrix(1,0,0,1,19.75,34.25)"><text><tspan x="-0.5" y="13.607000351" font-family="Symbol" font-weight="normal" font-style="normal" font-size="9" fill="#000000">●</tspan><tspan x="10.5" y="14.357000351" font-family="Century Gothic" font-weight="normal" font-style="normal" font-size="12" fill="#000000">Product promotions</tspan></text></g></g></g><g transform="matrix(1,0,0,1,0,238.5)"><g transform="matrix(1,0,0,1,0,0)" clip-path="url(#clip6)"><g transform="matrix(1,0,0,1,0,15)"><text><tspan x="0" y="12.069999695" font-family="Century Gothic" font-weight="bold" font-style="normal" font-size="12" fill="#000000">WORK HISTORY</tspan></text></g></g><g transform="matrix(1,0,0,1,140,0)" clip-path="url(#clip7)"><g transform="matrix(1,0,0,1,0,15)"><text><tspan x="0" y="14.357000351" font-family="Century Gothic" font-weight="normal" font-style="normal" font-size="12" fill="#787c85">MARCH 2015</tspan><tspan x="75.065002441" y="14.357000351" font-family="Century Gothic" font-weight="normal" font-style="normal" font-size="12" fill="#787c85">-</tspan><tspan x="79.049003601" y="14.357000351" font-family="Century Gothic" font-weight="normal" font-style="normal" font-size="12" fill="#787c85">CURRENT</tspan><tspan x="131.649002075" y="14.357000351" font-family="Century Gothic" font-weight="normal" font-style="normal" font-size="12" fill="#787c85"> </tspan></text></g><g transform="matrix(1,0,0,1,0,32)"><text><tspan x="0" y="14.357000351" font-family="Century Gothic" font-weight="bold" font-style="normal" font-size="12" fill="#000000">Senior Sales Associate</tspan><tspan x="129.110992432" y="14.357000351" font-family="Century Gothic" font-weight="normal" font-style="normal" font-size="12" fill="#000000"> | Bed Bath &amp; Beyond, Inc. | San Francisco, </tspan><tspan x="0" y="31.357000351" font-family="Century Gothic" font-weight="normal" font-style="normal" font-size="12" fill="#000000">CA</tspan></text></g><g transform="matrix(1,0,0,1,12.5,66)"><text><tspan x="-0.5" y="13.607000351" font-family="Symbol" font-weight="normal" font-style="normal" font-size="9" fill="#000000">●</tspan><tspan x="10.5" y="14.357000351" font-family="Century Gothic" font-weight="normal" font-style="normal" font-size="12" fill="#000000">Applied security and loss prevention training toward recognizing </tspan><tspan x="10.5" y="31.357000351" font-family="Century Gothic" font-weight="normal" font-style="normal" font-size="12" fill="#000000">risks and reducing store theft</tspan></text></g><g transform="matrix(1,0,0,1,12.5,100)"><text><tspan x="-0.5" y="13.607000351" font-family="Symbol" font-weight="normal" font-style="normal" font-size="9" fill="#000000">●</tspan><tspan x="10.5" y="14.357000351" font-family="Century Gothic" font-weight="normal" font-style="normal" font-size="12" fill="#000000">Trained and developed sales team associates in products, </tspan><tspan x="10.5" y="31.357000351" font-family="Century Gothic" font-weight="normal" font-style="normal" font-size="12" fill="#000000">selling techniques and procedures</tspan></text></g><g transform="matrix(1,0,0,1,12.5,134)"><text><tspan x="-0.5" y="13.607000351" font-family="Symbol" font-weight="normal" font-style="normal" font-size="9" fill="#000000">●</tspan><tspan x="10.5" y="14.357000351" font-family="Century Gothic" font-weight="normal" font-style="normal" font-size="12" fill="#000000">Maintained organized, presentable merchandise to drive </tspan><tspan x="10.5" y="31.357000351" font-family="Century Gothic" font-weight="normal" font-style="normal" font-size="12" fill="#000000">continuous sales</tspan></text></g><g transform="matrix(1,0,0,1,12.5,168)"><text><tspan x="-0.5" y="13.607000351" font-family="Symbol" font-weight="normal" font-style="normal" font-size="9" fill="#000000">●</tspan><tspan x="10.5" y="14.357000351" font-family="Century Gothic" font-weight="normal" font-style="normal" font-size="12" fill="#000000">Implemented up-selling strategies for recommending </tspan><tspan x="10.5" y="31.357000351" font-family="Century Gothic" font-weight="normal" font-style="normal" font-size="12" fill="#000000">accessories and complementary purchases</tspan></text></g><g transform="matrix(1,0,0,1,0,202)"><text><tspan x="0" y="24.357000351" font-family="Century Gothic" font-weight="normal" font-style="normal" font-size="12" fill="#787c85">JUNE 2013</tspan><tspan x="58.875" y="24.357000351" font-family="Century Gothic" font-weight="normal" font-style="normal" font-size="12" fill="#787c85">-</tspan><tspan x="62.85900116" y="24.357000351" font-family="Century Gothic" font-weight="normal" font-style="normal" font-size="12" fill="#787c85">MARCH 2015</tspan><tspan x="137.923995972" y="24.357000351" font-family="Century Gothic" font-weight="normal" font-style="normal" font-size="12" fill="#787c85"> </tspan></text></g><g transform="matrix(1,0,0,1,0,229)"><text><tspan x="0" y="14.357000351" font-family="Century Gothic" font-weight="bold" font-style="normal" font-size="12" fill="#000000">Sales Associate</tspan><tspan x="90.23400116" y="14.357000351" font-family="Century Gothic" font-weight="normal" font-style="normal" font-size="12" fill="#000000"> | Target | San Francisco, CA</tspan></text></g><g transform="matrix(1,0,0,1,12.5,246)"><text><tspan x="-0.5" y="13.607000351" font-family="Symbol" font-weight="normal" font-style="normal" font-size="9" fill="#000000">●</tspan><tspan x="10.5" y="14.357000351" font-family="Century Gothic" font-weight="normal" font-style="normal" font-size="12" fill="#000000">Maintained organized, presentable merchandise to drive </tspan><tspan x="10.5" y="31.357000351" font-family="Century Gothic" font-weight="normal" font-style="normal" font-size="12" fill="#000000">continuous sales</tspan></text></g><g transform="matrix(1,0,0,1,12.5,280)"><text><tspan x="-0.5" y="13.607000351" font-family="Symbol" font-weight="normal" font-style="normal" font-size="9" fill="#000000">●</tspan><tspan x="10.5" y="14.357000351" font-family="Century Gothic" font-weight="normal" font-style="normal" font-size="12" fill="#000000">Organized racks and shelves to maintain store visual appeal, </tspan><tspan x="10.5" y="31.357000351" font-family="Century Gothic" font-weight="normal" font-style="normal" font-size="12" fill="#000000">engage customers and promote merchandise</tspan></text></g><g transform="matrix(1,0,0,1,12.5,314)"><text><tspan x="-0.5" y="13.607000351" font-family="Symbol" font-weight="normal" font-style="normal" font-size="9" fill="#000000">●</tspan><tspan x="10.5" y="14.357000351" font-family="Century Gothic" font-weight="normal" font-style="normal" font-size="12" fill="#000000">Evaluated inventory and delivery needs, optimizing strategies to </tspan><tspan x="10.5" y="31.357000351" font-family="Century Gothic" font-weight="normal" font-style="normal" font-size="12" fill="#000000">meet customer demands</tspan></text></g><g transform="matrix(1,0,0,1,12.5,348)"><text><tspan x="-0.5" y="13.607000351" font-family="Symbol" font-weight="normal" font-style="normal" font-size="9" fill="#000000">●</tspan><tspan x="10.5" y="14.357000351" font-family="Century Gothic" font-weight="normal" font-style="normal" font-size="12" fill="#000000">Analyzed and processed returns, assisting customers with finding </tspan><tspan x="10.5" y="31.357000351" font-family="Century Gothic" font-weight="normal" font-style="normal" font-size="12" fill="#000000">alternative merchandise to meet needs</tspan></text></g></g></g><g transform="matrix(1,0,0,1,0,620.5)"><g transform="matrix(1,0,0,1,0,0)" clip-path="url(#clip8)"><g transform="matrix(1,0,0,1,0,15)"><text><tspan x="0" y="12.069999695" font-family="Century Gothic" font-weight="bold" font-style="normal" font-size="12" fill="#000000">EDUCATION</tspan></text></g></g><g transform="matrix(1,0,0,1,140,0)" clip-path="url(#clip9)"><g transform="matrix(1,0,0,1,0,15)"><text><tspan x="0" y="14.357000351" font-family="Century Gothic" font-weight="normal" font-style="normal" font-size="12" fill="#787c85">2013 </tspan></text></g><g transform="matrix(1,0,0,1,0,32)"><text><tspan x="0" y="14.357000351" font-family="Century Gothic" font-weight="bold" font-style="normal" font-size="12" fill="#000000">Bachelor of Arts</tspan><tspan x="91.189002991" y="14.357000351" font-family="Century Gothic" font-weight="normal" font-style="normal" font-size="12" fill="#000000">: Business Administration</tspan></text></g><g transform="matrix(1,0,0,1,0,49)"><text><tspan x="0" y="14.357000351" font-family="Century Gothic" font-weight="normal" font-style="normal" font-size="12" fill="#000000">San Francisco State University, San Francisco, CA</tspan></text></g></g></g></g></g></g></svg>