<?xml version="1.0" encoding="utf-8" standalone="yes"?><svg xmlns="http://www.w3.org/2000/svg" xmlns:xlink="http://www.w3.org/1999/xlink" version="1.1" width="816" height="1056"><!--Generated by Aspose.Words for .NET 18.5--><defs><clipPath id="clip1"><path d="M-1,-1 L577,-1 L577,112.36000061 L-1,112.36000061 Z" clip-rule="evenodd"></path></clipPath><clipPath id="clip2"><path d="M0,0 L40.420276642,0 L40.420276642,40.360435486 L0,40.360435486 Z" clip-rule="evenodd"></path></clipPath><clipPath id="clip3"><path d="M0,0 L1000,0 L1000,1000 L0,1000 Z" clip-rule="evenodd"></path></clipPath><clipPath id="clip4"><path d="M-1,-1 L332,-1 L332,542.5 L-1,542.5 Z" clip-rule="evenodd"></path></clipPath><clipPath id="clip5"><path d="M-1,-1 L191,-1 L191,542.5 L-1,542.5 Z" clip-rule="evenodd"></path></clipPath><style type="text/css">svg{background:white}</style></defs><g transform="scale(1.33333)"><g><g transform="matrix(1,0,0,1,18,18)"><path d="M0,0 L576,0 L576,111.36000061 L0,111.36000061 Z" fill="#3c5769" fill-rule="evenodd"></path><g transform="matrix(1,0,0,1,0,0)" clip-path="url(#clip1)"><g transform="matrix(1,0,0,1,267.790008545,20)"><g clip-path="url(#clip2)"><g transform="matrix(0.040420275,0,0,0.040360436,0,0)" clip-path="url(#clip3)"><g><path d="M0,0 L1000,0 L1000,1000 L0,1000 Z" transform="matrix(1,0,0,1,0,0)" fill="#ffffff" fill-rule="evenodd"></path><path d="M0,0 L987.65435791,0 L987.65435791,0 L987.65435791,987.65435791 L987.65435791,987.65435791 L0,987.65435791 Z" transform="matrix(1,0,0,1,0,0)" fill="#3c5769" fill-rule="evenodd"></path><path d="M0,0 L987.65435791,0 L987.65435791,0 L987.65435791,987.65435791 L987.65435791,987.65435791 L0,987.65435791 Z" transform="matrix(1,0,0,1,0,0)" stroke-width="24.691358566" stroke-miterlimit="10" stroke="#ffffff" fill="none" fill-rule="evenodd"></path><text transform="matrix(1,0,0,1,0,0)"><tspan x="249.409225464" y="641.975341797" font-family="Palatino Linotype" font-weight="normal" font-style="normal" font-size="469.135803223" fill="#ffffff">JC</tspan></text></g></g></g></g><g transform="matrix(1,0,0,1,0,60.36000061)"><text><tspan x="213.255996704" y="30.375999451" font-family="Times New Roman" font-weight="bold" font-style="italic" font-size="26" fill="#ffffff">Jessica Claire</tspan></text></g></g><g transform="matrix(1,0,0,1,0,111.36000061)"><g transform="matrix(1,0,0,1,11.800000191,0)" clip-path="url(#clip4)"><g transform="matrix(1,0,0,1,0.25,0.25)"><text><tspan x="0" y="29.403999329" font-family="Times New Roman" font-weight="bold" font-style="italic" font-size="12" fill="#4a4a4a">Professional Summary</tspan></text></g><g transform="matrix(1,0,0,1,0.25,42.25)"><text><tspan x="0" y="12.006999969" font-family="Palatino Linotype" font-weight="normal" font-style="normal" font-size="10" fill="#4a4a4a">Highly motivated Sales Associate with extensive customer service and </tspan><tspan x="0" y="27.006999969" font-family="Palatino Linotype" font-weight="normal" font-style="normal" font-size="10" fill="#4a4a4a">sales experience. Outgoing sales professional with track record of driving </tspan><tspan x="0" y="42.006999969" font-family="Palatino Linotype" font-weight="normal" font-style="normal" font-size="10" fill="#4a4a4a">increased sales, improving buying experience and elevating company </tspan><tspan x="0" y="57.006999969" font-family="Palatino Linotype" font-weight="normal" font-style="normal" font-size="10" fill="#4a4a4a">profile with target market.</tspan></text></g><g transform="matrix(1,0,0,1,0.25,122.25)"><text><tspan x="0" y="30.403999329" font-family="Times New Roman" font-weight="bold" font-style="italic" font-size="12" fill="#4a4a4a">Work History</tspan></text></g><path d="M-1.200000048,122.75 L332.199981689,122.75 " stroke-width="1" stroke-miterlimit="10" stroke="#c4c4c4" fill="none" fill-rule="evenodd"></path><g transform="matrix(1,0,0,1,0.25,165.25)"><text><tspan x="0" y="12.006999969" font-family="Palatino Linotype" font-weight="bold" font-style="normal" font-size="10" fill="#4a4a4a">Bed Bath &amp; Beyond, Inc.</tspan><tspan x="111.473999023" y="12.006999969" font-family="Palatino Linotype" font-weight="normal" font-style="normal" font-size="10" fill="#4a4a4a"> - </tspan><tspan x="119.804000854" y="12.006999969" font-family="Palatino Linotype" font-weight="bold" font-style="normal" font-size="10" fill="#4a4a4a">Senior Sales Associate</tspan><tspan x="221.996002197" y="12.006999969" font-family="Palatino Linotype" font-weight="normal" font-style="normal" font-size="10" fill="#4a4a4a"> </tspan></text></g><g transform="matrix(1,0,0,1,0.25,180.25)"><text><tspan x="0" y="12.006999969" font-family="Palatino Linotype" font-weight="normal" font-style="normal" font-size="10" fill="#4a4a4a">San Francisco, CA</tspan></text></g><g transform="matrix(1,0,0,1,0.25,195.25)"><text><tspan x="0" y="12.006999969" font-family="Palatino Linotype" font-weight="normal" font-style="italic" font-size="10" fill="#4a4a4a">03/2015 - Current</tspan></text></g><g transform="matrix(1,0,0,1,0.649999976,210.25)"><text><tspan x="-0.5" y="14.256999969" font-family="Symbol" font-weight="normal" font-style="normal" font-size="7.5" fill="#4a4a4a">●</tspan><tspan x="11.600000381" y="15.006999969" font-family="Palatino Linotype" font-weight="normal" font-style="normal" font-size="10" fill="#4a4a4a">Applied security and loss prevention training toward recognizing risks </tspan><tspan x="11.600000381" y="30.006999969" font-family="Palatino Linotype" font-weight="normal" font-style="normal" font-size="10" fill="#4a4a4a">and reducing store theft</tspan></text></g><g transform="matrix(1,0,0,1,0.649999976,243.25)"><text><tspan x="-0.5" y="11.256999969" font-family="Symbol" font-weight="normal" font-style="normal" font-size="7.5" fill="#4a4a4a">●</tspan><tspan x="11.600000381" y="12.006999969" font-family="Palatino Linotype" font-weight="normal" font-style="normal" font-size="10" fill="#4a4a4a">Trained and developed sales team associates in products, selling </tspan><tspan x="11.600000381" y="27.006999969" font-family="Palatino Linotype" font-weight="normal" font-style="normal" font-size="10" fill="#4a4a4a">techniques and procedures</tspan></text></g><g transform="matrix(1,0,0,1,0.649999976,273.25)"><text><tspan x="-0.5" y="11.256999969" font-family="Symbol" font-weight="normal" font-style="normal" font-size="7.5" fill="#4a4a4a">●</tspan><tspan x="11.600000381" y="12.006999969" font-family="Palatino Linotype" font-weight="normal" font-style="normal" font-size="10" fill="#4a4a4a">Maintained organized, presentable merchandise to drive continuous </tspan><tspan x="11.600000381" y="27.006999969" font-family="Palatino Linotype" font-weight="normal" font-style="normal" font-size="10" fill="#4a4a4a">sales</tspan></text></g><g transform="matrix(1,0,0,1,0.649999976,303.25)"><text><tspan x="-0.5" y="11.256999969" font-family="Symbol" font-weight="normal" font-style="normal" font-size="7.5" fill="#4a4a4a">●</tspan><tspan x="11.600000381" y="12.006999969" font-family="Palatino Linotype" font-weight="normal" font-style="normal" font-size="10" fill="#4a4a4a">Implemented up-selling strategies for recommending accessories and </tspan><tspan x="11.600000381" y="27.006999969" font-family="Palatino Linotype" font-weight="normal" font-style="normal" font-size="10" fill="#4a4a4a">complementary purchases</tspan></text></g><g transform="matrix(1,0,0,1,0.25,333.25)"><text><tspan x="0" y="32.006999969" font-family="Palatino Linotype" font-weight="bold" font-style="normal" font-size="10" fill="#4a4a4a">Target</tspan><tspan x="29.447999954" y="32.006999969" font-family="Palatino Linotype" font-weight="normal" font-style="normal" font-size="10" fill="#4a4a4a"> - </tspan><tspan x="37.777999878" y="32.006999969" font-family="Palatino Linotype" font-weight="bold" font-style="normal" font-size="10" fill="#4a4a4a">Sales Associate</tspan><tspan x="107.470001221" y="32.006999969" font-family="Palatino Linotype" font-weight="normal" font-style="normal" font-size="10" fill="#4a4a4a"> </tspan></text></g><g transform="matrix(1,0,0,1,0.25,368.25)"><text><tspan x="0" y="12.006999969" font-family="Palatino Linotype" font-weight="normal" font-style="normal" font-size="10" fill="#4a4a4a">San Francisco, CA</tspan></text></g><g transform="matrix(1,0,0,1,0.25,383.25)"><text><tspan x="0" y="12.006999969" font-family="Palatino Linotype" font-weight="normal" font-style="italic" font-size="10" fill="#4a4a4a">06/2013 - 03/2015</tspan></text></g><g transform="matrix(1,0,0,1,0.649999976,398.25)"><text><tspan x="-0.5" y="14.256999969" font-family="Symbol" font-weight="normal" font-style="normal" font-size="7.5" fill="#4a4a4a">●</tspan><tspan x="11.600000381" y="15.006999969" font-family="Palatino Linotype" font-weight="normal" font-style="normal" font-size="10" fill="#4a4a4a">Maintained organized, presentable merchandise to drive continuous </tspan><tspan x="11.600000381" y="30.006999969" font-family="Palatino Linotype" font-weight="normal" font-style="normal" font-size="10" fill="#4a4a4a">sales</tspan></text></g><g transform="matrix(1,0,0,1,0.649999976,431.25)"><text><tspan x="-0.5" y="11.256999969" font-family="Symbol" font-weight="normal" font-style="normal" font-size="7.5" fill="#4a4a4a">●</tspan><tspan x="11.600000381" y="12.006999969" font-family="Palatino Linotype" font-weight="normal" font-style="normal" font-size="10" fill="#4a4a4a">Organized racks and shelves to maintain store visual appeal, engage </tspan><tspan x="11.600000381" y="27.006999969" font-family="Palatino Linotype" font-weight="normal" font-style="normal" font-size="10" fill="#4a4a4a">customers and promote merchandise</tspan></text></g><g transform="matrix(1,0,0,1,0.649999976,461.25)"><text><tspan x="-0.5" y="11.256999969" font-family="Symbol" font-weight="normal" font-style="normal" font-size="7.5" fill="#4a4a4a">●</tspan><tspan x="11.600000381" y="12.006999969" font-family="Palatino Linotype" font-weight="normal" font-style="normal" font-size="10" fill="#4a4a4a">Evaluated inventory and delivery needs, optimizing strategies to meet </tspan><tspan x="11.600000381" y="27.006999969" font-family="Palatino Linotype" font-weight="normal" font-style="normal" font-size="10" fill="#4a4a4a">customer demands</tspan></text></g><g transform="matrix(1,0,0,1,0.649999976,491.25)"><text><tspan x="-0.5" y="11.256999969" font-family="Symbol" font-weight="normal" font-style="normal" font-size="7.5" fill="#4a4a4a">●</tspan><tspan x="11.600000381" y="12.006999969" font-family="Palatino Linotype" font-weight="normal" font-style="normal" font-size="10" fill="#4a4a4a">Analyzed and processed returns, assisting customers with finding </tspan><tspan x="11.600000381" y="27.006999969" font-family="Palatino Linotype" font-weight="normal" font-style="normal" font-size="10" fill="#4a4a4a">alternative merchandise to meet needs</tspan></text></g></g><path d="M357.799987793,0 L372.799987793,0 L372.799987793,541.5 L357.799987793,541.5 Z" fill="#f5f5f5" fill-rule="evenodd"></path><path d="M372.799987793,0 L562.799987793,0 L562.799987793,541.5 L372.799987793,541.5 Z" fill="#f5f5f5" fill-rule="evenodd"></path><g transform="matrix(1,0,0,1,372.799987793,0)" clip-path="url(#clip5)"><g transform="matrix(1,0,0,1,0.25,0.25)"><text><tspan x="0" y="32.006999969" font-family="Palatino Linotype" font-weight="normal" font-style="normal" font-size="10" fill="#4a4a4a">resumesample@example.com</tspan><tspan x="0" y="47.006999969" font-family="Palatino Linotype" font-weight="normal" font-style="normal" font-size="10" fill="#4a4a4a">(555) 432-1000</tspan><tspan x="0" y="62.006999969" font-family="Palatino Linotype" font-weight="normal" font-style="normal" font-size="10" fill="#4a4a4a">San Francisco, CA 94105 </tspan></text></g><g transform="matrix(1,0,0,1,0.25,85.25)"><text><tspan x="0" y="30.403999329" font-family="Times New Roman" font-weight="bold" font-style="italic" font-size="12" fill="#4a4a4a">Skills</tspan></text></g><path d="M-1.200000048,85.75 L191.199996948,85.75 " stroke-width="1" stroke-miterlimit="10" stroke="#c4c4c4" fill="none" fill-rule="evenodd"></path><g transform="matrix(1,0,0,1,0.649999976,128.25)"><text><tspan x="-0.5" y="11.256999969" font-family="Symbol" font-weight="normal" font-style="normal" font-size="7.5" fill="#4a4a4a">●</tspan><tspan x="11.600000381" y="12.006999969" font-family="Palatino Linotype" font-weight="normal" font-style="normal" font-size="10" fill="#4a4a4a">Guest services</tspan></text></g><g transform="matrix(1,0,0,1,0.649999976,143.25)"><text><tspan x="-0.5" y="11.256999969" font-family="Symbol" font-weight="normal" font-style="normal" font-size="7.5" fill="#4a4a4a">●</tspan><tspan x="11.600000381" y="12.006999969" font-family="Palatino Linotype" font-weight="normal" font-style="normal" font-size="10" fill="#4a4a4a">Inventory control procedures</tspan></text></g><g transform="matrix(1,0,0,1,0.649999976,158.25)"><text><tspan x="-0.5" y="11.256999969" font-family="Symbol" font-weight="normal" font-style="normal" font-size="7.5" fill="#4a4a4a">●</tspan><tspan x="11.600000381" y="12.006999969" font-family="Palatino Linotype" font-weight="normal" font-style="normal" font-size="10" fill="#4a4a4a">Merchandising expertise</tspan></text></g><g transform="matrix(1,0,0,1,0.649999976,173.25)"><text><tspan x="-0.5" y="11.256999969" font-family="Symbol" font-weight="normal" font-style="normal" font-size="7.5" fill="#4a4a4a">●</tspan><tspan x="11.600000381" y="12.006999969" font-family="Palatino Linotype" font-weight="normal" font-style="normal" font-size="10" fill="#4a4a4a">Loss prevention</tspan></text></g><g transform="matrix(1,0,0,1,0.649999976,188.25)"><text><tspan x="-0.5" y="11.256999969" font-family="Symbol" font-weight="normal" font-style="normal" font-size="7.5" fill="#4a4a4a">●</tspan><tspan x="11.600000381" y="12.006999969" font-family="Palatino Linotype" font-weight="normal" font-style="normal" font-size="10" fill="#4a4a4a">Cash register operations</tspan></text></g><g transform="matrix(1,0,0,1,0.649999976,203.25)"><text><tspan x="-0.5" y="11.256999969" font-family="Symbol" font-weight="normal" font-style="normal" font-size="7.5" fill="#4a4a4a">●</tspan><tspan x="11.600000381" y="12.006999969" font-family="Palatino Linotype" font-weight="normal" font-style="normal" font-size="10" fill="#4a4a4a">Product promotions</tspan></text></g><g transform="matrix(1,0,0,1,0.25,238.25)"><text><tspan x="0" y="30.403999329" font-family="Times New Roman" font-weight="bold" font-style="italic" font-size="12" fill="#4a4a4a">Education</tspan></text></g><path d="M-1.200000048,238.75 L191.199996948,238.75 " stroke-width="1" stroke-miterlimit="10" stroke="#c4c4c4" fill="none" fill-rule="evenodd"></path><g transform="matrix(1,0,0,1,0.25,281.25)"><text><tspan x="0" y="12.006999969" font-family="Palatino Linotype" font-weight="normal" font-style="normal" font-size="10" fill="#4a4a4a">2013</tspan></text></g><g transform="matrix(1,0,0,1,0.25,296.25)"><text><tspan x="0" y="12.006999969" font-family="Palatino Linotype" font-weight="bold" font-style="normal" font-size="10" fill="#4a4a4a">San Francisco State University</tspan></text></g><g transform="matrix(1,0,0,1,0.25,311.25)"><text><tspan x="0" y="12.006999969" font-family="Palatino Linotype" font-weight="normal" font-style="normal" font-size="10" fill="#4a4a4a">San Francisco, CA</tspan></text></g><g transform="matrix(1,0,0,1,0.25,326.25)"><text><tspan x="0" y="12.006999969" font-family="Palatino Linotype" font-weight="bold" font-style="normal" font-size="10" fill="#4a4a4a">Bachelor of Arts</tspan><tspan x="73.82800293" y="12.006999969" font-family="Palatino Linotype" font-weight="normal" font-style="normal" font-size="10" fill="#4a4a4a">: Business Administration </tspan></text></g></g><path d="M562.799987793,0 L577.799987793,0 L577.799987793,541.5 L562.799987793,541.5 Z" fill="#f5f5f5" fill-rule="evenodd"></path><g transform="matrix(1,0,0,1,0,541.5)"><path d="M357.799987793,0 L372.799987793,0 L372.799987793,101.150001526 L357.799987793,101.150001526 Z" fill="#f5f5f5" fill-rule="evenodd"></path><path d="M372.799987793,0 L562.799987793,0 L562.799987793,101.150001526 L372.799987793,101.150001526 Z" fill="#f5f5f5" fill-rule="evenodd"></path><path d="M562.799987793,0 L577.799987793,0 L577.799987793,101.150001526 L562.799987793,101.150001526 Z" fill="#f5f5f5" fill-rule="evenodd"></path></g></g><g transform="matrix(1,0,0,1,0,754.010009766)"><text><tspan x="0" y="0.934000015" font-family="Times New Roman" font-weight="normal" font-style="normal" font-size="1" fill="#ffffff">.</tspan></text></g></g></g></g></svg>