<?xml version="1.0" encoding="utf-8" standalone="yes"?><svg xmlns="http://www.w3.org/2000/svg" xmlns:xlink="http://www.w3.org/1999/xlink" version="1.1" width="816" height="1056"><!--Generated by Aspose.Words for .NET 18.5--><defs><clipPath id="clip1"><path d="M-1,-1 L136,-1 L136,85 L-1,85 Z" clip-rule="evenodd"></path></clipPath><clipPath id="clip10"><path d="M-1,-1 L141,-1 L141,317 L-1,317 Z" clip-rule="evenodd"></path></clipPath><clipPath id="clip11"><path d="M-1,-1 L403,-1 L403,317 L-1,317 Z" clip-rule="evenodd"></path></clipPath><clipPath id="clip12"><path d="M-1,-1 L141,-1 L141,59 L-1,59 Z" clip-rule="evenodd"></path></clipPath><clipPath id="clip13"><path d="M-1,-1 L403,-1 L403,59 L-1,59 Z" clip-rule="evenodd"></path></clipPath><clipPath id="clip2"><path d="M0,0 L133.985733032,0 L133.985733032,79.226135254 L0,79.226135254 Z" clip-rule="evenodd"></path></clipPath><clipPath id="clip3"><path d="M0,0 L1000,0 L1000,1000 L0,1000 Z" clip-rule="evenodd"></path></clipPath><clipPath id="clip4"><path d="M-1,-1 L408,-1 L408,85 L-1,85 Z" clip-rule="evenodd"></path></clipPath><clipPath id="clip5"><path d="M-1,-1 L141,-1 L141,82 L-1,82 Z" clip-rule="evenodd"></path></clipPath><clipPath id="clip6"><path d="M-1,-1 L403,-1 L403,82 L-1,82 Z" clip-rule="evenodd"></path></clipPath><clipPath id="clip7"><path d="M-1,-1 L141,-1 L141,68.5 L-1,68.5 Z" clip-rule="evenodd"></path></clipPath><clipPath id="clip8"><path d="M-1,-1 L202,-1 L202,43.5 L-1,43.5 Z" clip-rule="evenodd"></path></clipPath><clipPath id="clip9"><path d="M-1,-1 L202,-1 L202,43.5 L-1,43.5 Z" clip-rule="evenodd"></path></clipPath><style type="text/css">svg{background:white}@font-face{font-family:'Century Gothic';font-weight:normal;font-style:normal;src:local('Century Gothic'),url('https://content.livecareer.com/zty/fonts/CenturyGothic.ttf') format('truetype')}@font-face{font-family:'Century Gothic';font-weight:bold;font-style:normal;src:local('Century Gothic Bold'),url('https://content.livecareer.com/zty/fonts/CenturyGothicBold.ttf') format('truetype')}@font-face{font-family:'Century Gothic';font-weight:bold;font-style:italic;src:local('Century Gothic Bold Italic'),url('https://content.livecareer.com/zty/fonts/CenturyGothicBoldItalic.ttf') format('truetype')}@font-face{font-family:'Century Gothic';font-weight:normal;font-style:italic;src:local('Century Gothic Italic'),url('https://content.livecareer.com/zty/fonts/CenturyGothicItalic.ttf') format('truetype')}</style></defs><g transform="scale(1.33333)"><g><path d="M0,0 L600,0 L600,450 L0,450 Z" fill="#ffffff" fill-rule="evenodd"></path><g transform="matrix(1,0,0,1,600,0)"><path d="M0,0 L600,0 L600,450 L0,450 Z" fill="#ffffff" fill-rule="evenodd"></path></g><g transform="matrix(1,0,0,1,0,450)"><path d="M0,0 L600,0 L600,450 L0,450 Z" fill="#ffffff" fill-rule="evenodd"></path></g><g transform="matrix(1,0,0,1,600,450)"><path d="M0,0 L600,0 L600,450 L0,450 Z" fill="#ffffff" fill-rule="evenodd"></path></g><g transform="matrix(1,0,0,1,35,25)"><g transform="matrix(1,0,0,1,0,0)" clip-path="url(#clip1)"><g clip-path="url(#clip2)"><g transform="matrix(0.133985728,0,0,0.079226136,0,0)" clip-path="url(#clip3)"><g><path d="M0,0.000030518 L1000,0.000030518 L1000,1000 L0,1000 Z" transform="matrix(1,0,0,1,0,0)" fill="#ffffff" fill-rule="evenodd"></path><path d="M262.569824219,0.000030518 L843.575439453,0.000030518 L843.575439453,0.000030518 L843.575439453,981.132080078 L843.575439453,981.132080078 L262.569824219,981.132080078 Z" transform="matrix(1,0,0,1,0,0)" fill="#ffffff" fill-rule="evenodd"></path><path d="M262.569824219,0.000018072 L843.575439453,0.000018072 L843.575439453,0.000018072 L843.575439453,581.005615234 L843.575439453,581.005615234 L262.569824219,581.005615234 Z" transform="matrix(1,0,0,1.688679218,0,0)" stroke-width="5.586592197" stroke-miterlimit="10" stroke="#4a4a4a" fill="none" fill-rule="evenodd"></path><text transform="matrix(1,0,0,1.688679218,0,0)"><tspan x="404.329681396" y="372.439453125" font-family="Century Gothic" font-weight="normal" font-style="normal" font-size="238.36126709" fill="#4a4a4a">JC</tspan></text></g></g></g></g><g transform="matrix(1,0,0,1,135,0)" clip-path="url(#clip4)"><text><tspan x="0" y="39.599998474" font-family="Century Gothic" font-weight="bold" font-style="normal" font-size="42" fill="#4a4a4a">JESSICA CLAIRE</tspan></text><g transform="matrix(1,0,0,1,0,48)"><text><tspan x="0" y="16.577999115" font-family="Century Gothic" font-weight="normal" font-style="normal" font-size="11" fill="#4a4a4a">resumesample@example.com   |   (555) 432-1000 </tspan></text></g><g transform="matrix(1,0,0,1,0,67)"><text><tspan x="0" y="14.578000069" font-family="Century Gothic" font-weight="normal" font-style="normal" font-size="11" fill="#4a4a4a">San Francisco, CA 94105</tspan></text></g></g><g transform="matrix(1,0,0,1,0,84)"><g transform="matrix(1,0,0,1,0,0)" clip-path="url(#clip5)"><g transform="matrix(1,0,0,1,0,25)"><text><tspan x="37.349998474" y="11.578000069" font-family="Century Gothic" font-weight="bold" font-style="normal" font-size="11" fill="#4a4a4a">PROFESSIONAL </tspan><tspan x="61.10100174" y="25.577999115" font-family="Century Gothic" font-weight="bold" font-style="normal" font-size="11" fill="#4a4a4a">SUMMARY</tspan></text></g></g><g transform="matrix(1,0,0,1,140,0)" clip-path="url(#clip6)"><g transform="matrix(1,0,0,1,0,25)"><text><tspan x="0" y="11.578000069" font-family="Century Gothic" font-weight="normal" font-style="normal" font-size="11" fill="#494c4e">Highly motivated Sales Associate with extensive customer service and sales </tspan><tspan x="0" y="25.577999115" font-family="Century Gothic" font-weight="normal" font-style="normal" font-size="11" fill="#494c4e">experience. Outgoing sales professional with track record of driving </tspan><tspan x="0" y="39.577999115" font-family="Century Gothic" font-weight="normal" font-style="normal" font-size="11" fill="#494c4e">increased sales, improving buying experience and elevating company </tspan><tspan x="0" y="53.577999115" font-family="Century Gothic" font-weight="normal" font-style="normal" font-size="11" fill="#494c4e">profile with target market.</tspan></text></g></g></g><g transform="matrix(1,0,0,1,0,165)"><g transform="matrix(1,0,0,1,0,0)" clip-path="url(#clip7)"><g transform="matrix(1,0,0,1,0,25)"><text><tspan x="83.982002258" y="11.578000069" font-family="Century Gothic" font-weight="bold" font-style="normal" font-size="11" fill="#4a4a4a">SKILLS</tspan></text></g></g></g><g transform="matrix(1,0,0,1,140,190)"><g transform="matrix(1,0,0,1,0,0)" clip-path="url(#clip8)"><g transform="matrix(1,0,0,1,15.199999809,0.25)"><text><tspan x="-0.5" y="10.828000069" font-family="Symbol" font-weight="normal" font-style="normal" font-size="8.25" fill="#494c4e">●</tspan><tspan x="18.049999237" y="11.578000069" font-family="Century Gothic" font-weight="normal" font-style="normal" font-size="11" fill="#494c4e">Guest services</tspan></text></g><g transform="matrix(1,0,0,1,15.199999809,14.25)"><text><tspan x="-0.5" y="10.828000069" font-family="Symbol" font-weight="normal" font-style="normal" font-size="8.25" fill="#494c4e">●</tspan><tspan x="18.049999237" y="11.578000069" font-family="Century Gothic" font-weight="normal" font-style="normal" font-size="11" fill="#494c4e">Inventory control procedures</tspan></text></g><g transform="matrix(1,0,0,1,15.199999809,28.25)"><text><tspan x="-0.5" y="10.828000069" font-family="Symbol" font-weight="normal" font-style="normal" font-size="8.25" fill="#494c4e">●</tspan><tspan x="18.049999237" y="11.578000069" font-family="Century Gothic" font-weight="normal" font-style="normal" font-size="11" fill="#494c4e">Merchandising expertise</tspan></text></g></g><g transform="matrix(1,0,0,1,201,0)" clip-path="url(#clip9)"><g transform="matrix(1,0,0,1,15.199999809,0.25)"><text><tspan x="-0.5" y="10.828000069" font-family="Symbol" font-weight="normal" font-style="normal" font-size="8.25" fill="#494c4e">●</tspan><tspan x="18.049999237" y="11.578000069" font-family="Century Gothic" font-weight="normal" font-style="normal" font-size="11" fill="#494c4e">Loss prevention</tspan></text></g><g transform="matrix(1,0,0,1,15.199999809,14.25)"><text><tspan x="-0.5" y="10.828000069" font-family="Symbol" font-weight="normal" font-style="normal" font-size="8.25" fill="#494c4e">●</tspan><tspan x="18.049999237" y="11.578000069" font-family="Century Gothic" font-weight="normal" font-style="normal" font-size="11" fill="#494c4e">Cash register operations</tspan></text></g><g transform="matrix(1,0,0,1,15.199999809,28.25)"><text><tspan x="-0.5" y="10.828000069" font-family="Symbol" font-weight="normal" font-style="normal" font-size="8.25" fill="#494c4e">●</tspan><tspan x="18.049999237" y="11.578000069" font-family="Century Gothic" font-weight="normal" font-style="normal" font-size="11" fill="#494c4e">Product promotions</tspan></text></g></g></g><g transform="matrix(1,0,0,1,0,232.5)"><g transform="matrix(1,0,0,1,0,0)" clip-path="url(#clip10)"><g transform="matrix(1,0,0,1,0,25)"><text><tspan x="36.243999481" y="11.578000069" font-family="Century Gothic" font-weight="bold" font-style="normal" font-size="11" fill="#4a4a4a">WORK HISTORY</tspan></text></g></g><g transform="matrix(1,0,0,1,140,0)" clip-path="url(#clip11)"><g transform="matrix(1,0,0,1,0,25)"><text><tspan x="0" y="11.578000069" font-family="Century Gothic" font-weight="bold" font-style="normal" font-size="11" fill="#494c4e">Senior Sales Associate</tspan><tspan x="118.352996826" y="11.578000069" font-family="Century Gothic" font-weight="normal" font-style="normal" font-size="11" fill="#494c4e">  |   Bed Bath &amp; Beyond, Inc. - San Francisco, CA </tspan><tspan x="298.613006592" y="25.577999115" font-family="Century Gothic" font-weight="normal" font-style="normal" font-size="11" fill="#494c4e"> </tspan><tspan x="301.657989502" y="25.577999115" font-family="Century Gothic" font-weight="normal" font-style="normal" font-size="11" fill="#494c4e">03/2015</tspan><tspan x="343.041992188" y="25.577999115" font-family="Century Gothic" font-weight="normal" font-style="normal" font-size="11" fill="#494c4e"> - </tspan><tspan x="352.783996582" y="25.577999115" font-family="Century Gothic" font-weight="normal" font-style="normal" font-size="11" fill="#494c4e">CURRENT</tspan><tspan x="401" y="25.577999115" font-family="Century Gothic" font-weight="normal" font-style="normal" font-size="11" fill="#494c4e"> </tspan></text></g><path d="M-1.450000048,55.5 L403.449981689,55.5 " stroke-width="5" stroke-miterlimit="10" stroke="#ffffff" fill="none" fill-rule="evenodd"></path><g transform="matrix(1,0,0,1,14.949999809,58)"><text><tspan x="-0.5" y="10.828000069" font-family="Symbol" font-weight="normal" font-style="normal" font-size="8.25" fill="#494c4e">●</tspan><tspan x="18.049999237" y="11.578000069" font-family="Century Gothic" font-weight="normal" font-style="normal" font-size="11" fill="#494c4e">Applied security and loss prevention training toward recognizing risks </tspan><tspan x="18.049999237" y="25.577999115" font-family="Century Gothic" font-weight="normal" font-style="normal" font-size="11" fill="#494c4e">and reducing store theft</tspan></text></g><g transform="matrix(1,0,0,1,14.949999809,86)"><text><tspan x="-0.5" y="10.828000069" font-family="Symbol" font-weight="normal" font-style="normal" font-size="8.25" fill="#494c4e">●</tspan><tspan x="18.049999237" y="11.578000069" font-family="Century Gothic" font-weight="normal" font-style="normal" font-size="11" fill="#494c4e">Trained and developed sales team associates in products, selling </tspan><tspan x="18.049999237" y="25.577999115" font-family="Century Gothic" font-weight="normal" font-style="normal" font-size="11" fill="#494c4e">techniques and procedures</tspan></text></g><g transform="matrix(1,0,0,1,14.949999809,114)"><text><tspan x="-0.5" y="10.828000069" font-family="Symbol" font-weight="normal" font-style="normal" font-size="8.25" fill="#494c4e">●</tspan><tspan x="18.049999237" y="11.578000069" font-family="Century Gothic" font-weight="normal" font-style="normal" font-size="11" fill="#494c4e">Maintained organized, presentable merchandise to drive continuous </tspan><tspan x="18.049999237" y="25.577999115" font-family="Century Gothic" font-weight="normal" font-style="normal" font-size="11" fill="#494c4e">sales</tspan></text></g><g transform="matrix(1,0,0,1,14.949999809,142)"><text><tspan x="-0.5" y="10.828000069" font-family="Symbol" font-weight="normal" font-style="normal" font-size="8.25" fill="#494c4e">●</tspan><tspan x="18.049999237" y="11.578000069" font-family="Century Gothic" font-weight="normal" font-style="normal" font-size="11" fill="#494c4e">Implemented up-selling strategies for recommending accessories </tspan><tspan x="18.049999237" y="25.577999115" font-family="Century Gothic" font-weight="normal" font-style="normal" font-size="11" fill="#494c4e">and complementary purchases</tspan></text></g><g transform="matrix(1,0,0,1,0,170)"><text><tspan x="0" y="26.577999115" font-family="Century Gothic" font-weight="bold" font-style="normal" font-size="11" fill="#494c4e">Sales Associate</tspan><tspan x="82.714996338" y="26.577999115" font-family="Century Gothic" font-weight="normal" font-style="normal" font-size="11" fill="#494c4e">  |   Target - San Francisco, CA </tspan><tspan x="305.445007324" y="26.577999115" font-family="Century Gothic" font-weight="normal" font-style="normal" font-size="11" fill="#494c4e"> </tspan><tspan x="308.489990234" y="26.577999115" font-family="Century Gothic" font-weight="normal" font-style="normal" font-size="11" fill="#494c4e">06/2013</tspan><tspan x="349.87399292" y="26.577999115" font-family="Century Gothic" font-weight="normal" font-style="normal" font-size="11" fill="#494c4e"> - </tspan><tspan x="359.615997314" y="26.577999115" font-family="Century Gothic" font-weight="normal" font-style="normal" font-size="11" fill="#494c4e">03/2015</tspan><tspan x="401" y="26.577999115" font-family="Century Gothic" font-weight="normal" font-style="normal" font-size="11" fill="#494c4e"> </tspan></text></g><path d="M-1.450000048,201.5 L403.449981689,201.5 " stroke-width="5" stroke-miterlimit="10" stroke="#ffffff" fill="none" fill-rule="evenodd"></path><g transform="matrix(1,0,0,1,14.949999809,204)"><text><tspan x="-0.5" y="10.828000069" font-family="Symbol" font-weight="normal" font-style="normal" font-size="8.25" fill="#494c4e">●</tspan><tspan x="18.049999237" y="11.578000069" font-family="Century Gothic" font-weight="normal" font-style="normal" font-size="11" fill="#494c4e">Maintained organized, presentable merchandise to drive continuous </tspan><tspan x="18.049999237" y="25.577999115" font-family="Century Gothic" font-weight="normal" font-style="normal" font-size="11" fill="#494c4e">sales</tspan></text></g><g transform="matrix(1,0,0,1,14.949999809,232)"><text><tspan x="-0.5" y="10.828000069" font-family="Symbol" font-weight="normal" font-style="normal" font-size="8.25" fill="#494c4e">●</tspan><tspan x="18.049999237" y="11.578000069" font-family="Century Gothic" font-weight="normal" font-style="normal" font-size="11" fill="#494c4e">Organized racks and shelves to maintain store visual appeal, </tspan><tspan x="18.049999237" y="25.577999115" font-family="Century Gothic" font-weight="normal" font-style="normal" font-size="11" fill="#494c4e">engage customers and promote merchandise</tspan></text></g><g transform="matrix(1,0,0,1,14.949999809,260)"><text><tspan x="-0.5" y="10.828000069" font-family="Symbol" font-weight="normal" font-style="normal" font-size="8.25" fill="#494c4e">●</tspan><tspan x="18.049999237" y="11.578000069" font-family="Century Gothic" font-weight="normal" font-style="normal" font-size="11" fill="#494c4e">Evaluated inventory and delivery needs, optimizing strategies to </tspan><tspan x="18.049999237" y="25.577999115" font-family="Century Gothic" font-weight="normal" font-style="normal" font-size="11" fill="#494c4e">meet customer demands</tspan></text></g><g transform="matrix(1,0,0,1,14.949999809,288)"><text><tspan x="-0.5" y="10.828000069" font-family="Symbol" font-weight="normal" font-style="normal" font-size="8.25" fill="#494c4e">●</tspan><tspan x="18.049999237" y="11.578000069" font-family="Century Gothic" font-weight="normal" font-style="normal" font-size="11" fill="#494c4e">Analyzed and processed returns, assisting customers with finding </tspan><tspan x="18.049999237" y="25.577999115" font-family="Century Gothic" font-weight="normal" font-style="normal" font-size="11" fill="#494c4e">alternative merchandise to meet needs</tspan></text></g></g></g><g transform="matrix(1,0,0,1,0,548.5)"><g transform="matrix(1,0,0,1,0,0)" clip-path="url(#clip12)"><g transform="matrix(1,0,0,1,0,25)"><text><tspan x="52.749000549" y="11.578000069" font-family="Century Gothic" font-weight="bold" font-style="normal" font-size="11" fill="#4a4a4a">EDUCATION</tspan></text></g></g><g transform="matrix(1,0,0,1,140,0)" clip-path="url(#clip13)"><g transform="matrix(1,0,0,1,0,25)"><text><tspan x="0" y="11.578000069" font-family="Century Gothic" font-weight="normal" font-style="normal" font-size="11" fill="#494c4e">San Francisco State University, San Francisco, CA </tspan><tspan x="373.571014404" y="11.578000069" font-family="Century Gothic" font-weight="normal" font-style="normal" font-size="11" fill="#494c4e"> 2013 </tspan></text></g><g transform="matrix(1,0,0,1,0,39)"><text><tspan x="0" y="11.578000069" font-family="Century Gothic" font-weight="bold" font-style="normal" font-size="11" fill="#494c4e">Bachelor of Arts</tspan><tspan x="83.589996338" y="11.578000069" font-family="Century Gothic" font-weight="normal" font-style="normal" font-size="11" fill="#494c4e">: Business Administration</tspan></text></g><path d="M-1.450000048,55.5 L403.449981689,55.5 " stroke-width="5" stroke-miterlimit="10" stroke="#ffffff" fill="none" fill-rule="evenodd"></path></g></g></g></g></g></svg>