<?xml version="1.0" encoding="utf-8" standalone="yes"?><svg xmlns="http://www.w3.org/2000/svg" xmlns:xlink="http://www.w3.org/1999/xlink" version="1.1" width="816" height="1056"><!--Generated by Aspose.Words for .NET 18.5--><defs><clipPath id="clip1"><path d="M-1,-1 L244.899993896,-1 L244.899993896,49.5 L-1,49.5 Z" clip-rule="evenodd"></path></clipPath><clipPath id="clip2"><path d="M-0.5,-1 L244.899993896,-1 L244.899993896,49.5 L-0.5,49.5 Z" clip-rule="evenodd"></path></clipPath><style type="text/css">svg{background:white}</style></defs><g transform="scale(1.33333)"><g><path d="M0,0 L600,0 L600,450 L0,450 Z" fill="#ffffff" fill-rule="evenodd"></path><g transform="matrix(1,0,0,1,600,0)"><path d="M0,0 L600,0 L600,450 L0,450 Z" fill="#ffffff" fill-rule="evenodd"></path></g><g transform="matrix(1,0,0,1,0,450)"><path d="M0,0 L600,0 L600,450 L0,450 Z" fill="#ffffff" fill-rule="evenodd"></path></g><g transform="matrix(1,0,0,1,600,450)"><path d="M0,0 L600,0 L600,450 L0,450 Z" fill="#ffffff" fill-rule="evenodd"></path></g><g transform="matrix(1,0,0,1,62,37)"><text><tspan x="132.598007202" y="43.5" font-family="Roboto" font-weight="normal" font-style="normal" font-size="30" fill="#424243">JESSICA CLAIRE</tspan></text><path d="M-1.450000048,6.5 L489.449981689,6.5 " stroke-width="13" stroke-miterlimit="10" stroke="#663399" fill="none" fill-rule="evenodd"></path><g transform="matrix(1,0,0,1,0,51)"><text><tspan x="178.498001099" y="13" font-family="Roboto Condensed" font-weight="normal" font-style="normal" font-size="12" fill="#000000">SAN FRANCISCO, CA 94105 </tspan><tspan x="121.948997498" y="29" font-family="Roboto Condensed" font-weight="normal" font-style="normal" font-size="12" fill="#000000">(555) 432-1000 | RESUMESAMPLE@EXAMPLE.COM</tspan></text></g><g transform="matrix(1,0,0,1,0,93)"><text><tspan x="0" y="15" font-family="Roboto Condensed" font-weight="normal" font-style="normal" font-size="12" fill="#000000">Highly motivated Sales Associate with extensive customer service and sales experience. Outgoing </tspan><tspan x="0" y="31" font-family="Roboto Condensed" font-weight="normal" font-style="normal" font-size="12" fill="#000000">sales professional with track record of driving increased sales, improving buying experience and </tspan><tspan x="0" y="47" font-family="Roboto Condensed" font-weight="normal" font-style="normal" font-size="12" fill="#000000">elevating company profile with target market.</tspan></text></g><path d="M-1.450000048,94 L489.449981689,94 " stroke-width="2" stroke-miterlimit="10" stroke="#663399" stroke-dashoffset="0" stroke-dasharray="2 2" fill="none" fill-rule="evenodd"></path><path d="M-1.450000048,152 L489.449981689,152 " stroke-width="2" stroke-miterlimit="10" stroke="#663399" stroke-dashoffset="0" stroke-dasharray="2 2" fill="none" fill-rule="evenodd"></path><g transform="matrix(1,0,0,1,0,153)"><text><tspan x="0" y="26.5" font-family="Roboto Condensed" font-weight="bold" font-style="normal" font-size="14" fill="#231f20">SKILLS</tspan></text></g><g transform="matrix(1,0,0,1,0,183)"><g transform="matrix(1,0,0,1,0,0)" clip-path="url(#clip1)"><g transform="matrix(1,0,0,1,12.75,0.25)"><text><tspan x="-0.5" y="12.25" font-family="Symbol" font-weight="normal" font-style="normal" font-size="9" fill="#000000">●</tspan><tspan x="10.5" y="13" font-family="Roboto Condensed" font-weight="normal" font-style="normal" font-size="12" fill="#000000">Guest services</tspan></text></g><g transform="matrix(1,0,0,1,12.75,16.25)"><text><tspan x="-0.5" y="12.25" font-family="Symbol" font-weight="normal" font-style="normal" font-size="9" fill="#000000">●</tspan><tspan x="10.5" y="13" font-family="Roboto Condensed" font-weight="normal" font-style="normal" font-size="12" fill="#000000">Inventory control procedures</tspan></text></g><g transform="matrix(1,0,0,1,12.75,32.25)"><text><tspan x="-0.5" y="12.25" font-family="Symbol" font-weight="normal" font-style="normal" font-size="9" fill="#000000">●</tspan><tspan x="10.5" y="13" font-family="Roboto Condensed" font-weight="normal" font-style="normal" font-size="12" fill="#000000">Merchandising expertise</tspan></text></g></g><g transform="matrix(1,0,0,1,243.899993896,0)" clip-path="url(#clip2)"><g transform="matrix(1,0,0,1,13,0.25)"><text><tspan x="-0.5" y="12.25" font-family="Symbol" font-weight="normal" font-style="normal" font-size="9" fill="#000000">●</tspan><tspan x="10.5" y="13" font-family="Roboto Condensed" font-weight="normal" font-style="normal" font-size="12" fill="#000000">Loss prevention</tspan></text></g><g transform="matrix(1,0,0,1,13,16.25)"><text><tspan x="-0.5" y="12.25" font-family="Symbol" font-weight="normal" font-style="normal" font-size="9" fill="#000000">●</tspan><tspan x="10.5" y="13" font-family="Roboto Condensed" font-weight="normal" font-style="normal" font-size="12" fill="#000000">Cash register operations</tspan></text></g><g transform="matrix(1,0,0,1,13,32.25)"><text><tspan x="-0.5" y="12.25" font-family="Symbol" font-weight="normal" font-style="normal" font-size="9" fill="#000000">●</tspan><tspan x="10.5" y="13" font-family="Roboto Condensed" font-weight="normal" font-style="normal" font-size="12" fill="#000000">Product promotions</tspan></text></g></g><path d="M243.899993896,0 L243.899993896,48.5 " stroke-width="1" stroke-miterlimit="10" stroke="#ffffff" fill="none" fill-rule="evenodd"></path></g><g transform="matrix(1,0,0,1,0,231.5)"><text><tspan x="0" y="26.5" font-family="Roboto Condensed" font-weight="bold" font-style="normal" font-size="14" fill="#231f20">WORK HISTORY</tspan></text></g><g transform="matrix(1,0,0,1,0,261.5)"><text><tspan x="0" y="13" font-family="Roboto Condensed" font-weight="normal" font-style="normal" font-size="12" fill="#000000">Bed Bath &amp; Beyond, Inc. </tspan></text></g><g transform="matrix(1,0,0,1,0,277.5)"><text><tspan x="0" y="13" font-family="Roboto Condensed" font-weight="normal" font-style="normal" font-size="12" fill="#000000">Senior Sales Associate // San Francisco, CA // March 2015 to Current</tspan></text></g><g transform="matrix(1,0,0,1,12.5,293.5)"><text><tspan x="-0.5" y="12.25" font-family="Symbol" font-weight="normal" font-style="normal" font-size="9" fill="#000000">●</tspan><tspan x="10.5" y="13" font-family="Roboto Condensed" font-weight="normal" font-style="normal" font-size="12" fill="#000000">Applied security and loss prevention training toward recognizing risks and reducing store theft</tspan></text></g><g transform="matrix(1,0,0,1,12.5,309.5)"><text><tspan x="-0.5" y="12.25" font-family="Symbol" font-weight="normal" font-style="normal" font-size="9" fill="#000000">●</tspan><tspan x="10.5" y="13" font-family="Roboto Condensed" font-weight="normal" font-style="normal" font-size="12" fill="#000000">Trained and developed sales team associates in products, selling techniques and procedures</tspan></text></g><g transform="matrix(1,0,0,1,12.5,325.5)"><text><tspan x="-0.5" y="12.25" font-family="Symbol" font-weight="normal" font-style="normal" font-size="9" fill="#000000">●</tspan><tspan x="10.5" y="13" font-family="Roboto Condensed" font-weight="normal" font-style="normal" font-size="12" fill="#000000">Maintained organized, presentable merchandise to drive continuous sales</tspan></text></g><g transform="matrix(1,0,0,1,12.5,341.5)"><text><tspan x="-0.5" y="12.25" font-family="Symbol" font-weight="normal" font-style="normal" font-size="9" fill="#000000">●</tspan><tspan x="10.5" y="13" font-family="Roboto Condensed" font-weight="normal" font-style="normal" font-size="12" fill="#000000">Implemented up-selling strategies for recommending accessories and complementary purchases</tspan></text></g><g transform="matrix(1,0,0,1,0,357.5)"><text><tspan x="0" y="19" font-family="Roboto Condensed" font-weight="normal" font-style="normal" font-size="12" fill="#000000">Target </tspan></text></g><g transform="matrix(1,0,0,1,0,379.5)"><text><tspan x="0" y="13" font-family="Roboto Condensed" font-weight="normal" font-style="normal" font-size="12" fill="#000000">Sales Associate // San Francisco, CA // June 2013 to March 2015</tspan></text></g><g transform="matrix(1,0,0,1,12.5,395.5)"><text><tspan x="-0.5" y="12.25" font-family="Symbol" font-weight="normal" font-style="normal" font-size="9" fill="#000000">●</tspan><tspan x="10.5" y="13" font-family="Roboto Condensed" font-weight="normal" font-style="normal" font-size="12" fill="#000000">Maintained organized, presentable merchandise to drive continuous sales</tspan></text></g><g transform="matrix(1,0,0,1,12.5,411.5)"><text><tspan x="-0.5" y="12.25" font-family="Symbol" font-weight="normal" font-style="normal" font-size="9" fill="#000000">●</tspan><tspan x="10.5" y="13" font-family="Roboto Condensed" font-weight="normal" font-style="normal" font-size="12" fill="#000000">Organized racks and shelves to maintain store visual appeal, engage customers and promote </tspan><tspan x="10.5" y="29" font-family="Roboto Condensed" font-weight="normal" font-style="normal" font-size="12" fill="#000000">merchandise</tspan></text></g><g transform="matrix(1,0,0,1,12.5,443.5)"><text><tspan x="-0.5" y="12.25" font-family="Symbol" font-weight="normal" font-style="normal" font-size="9" fill="#000000">●</tspan><tspan x="10.5" y="13" font-family="Roboto Condensed" font-weight="normal" font-style="normal" font-size="12" fill="#000000">Evaluated inventory and delivery needs, optimizing strategies to meet customer demands</tspan></text></g><g transform="matrix(1,0,0,1,12.5,459.5)"><text><tspan x="-0.5" y="12.25" font-family="Symbol" font-weight="normal" font-style="normal" font-size="9" fill="#000000">●</tspan><tspan x="10.5" y="13" font-family="Roboto Condensed" font-weight="normal" font-style="normal" font-size="12" fill="#000000">Analyzed and processed returns, assisting customers with finding alternative merchandise to </tspan><tspan x="10.5" y="29" font-family="Roboto Condensed" font-weight="normal" font-style="normal" font-size="12" fill="#000000">meet needs</tspan></text></g><g transform="matrix(1,0,0,1,0,491.5)"><text><tspan x="0" y="26.5" font-family="Roboto Condensed" font-weight="bold" font-style="normal" font-size="14" fill="#231f20">EDUCATION</tspan></text></g><g transform="matrix(1,0,0,1,0,521.5)"><text><tspan x="0" y="13" font-family="Roboto Condensed" font-weight="normal" font-style="normal" font-size="12" fill="#000000">Bachelor of Arts - Business Administration </tspan></text></g><g transform="matrix(1,0,0,1,0,537.5)"><text><tspan x="0" y="13" font-family="Roboto Condensed" font-weight="normal" font-style="normal" font-size="12" fill="#000000">San Francisco State University // San Francisco, CA // 2013</tspan></text></g></g></g></g></svg>