<?xml version="1.0" encoding="utf-8" standalone="yes"?><svg xmlns="http://www.w3.org/2000/svg" xmlns:xlink="http://www.w3.org/1999/xlink" version="1.1" width="816" height="1056"><!--Generated by Aspose.Words for .NET 18.5--><defs><clipPath id="clip1"><path d="M-1,-1 L263.899993896,-1 L263.899993896,52.5 L-1,52.5 Z" clip-rule="evenodd"></path></clipPath><clipPath id="clip2"><path d="M-0.5,-1 L263.899993896,-1 L263.899993896,52.5 L-0.5,52.5 Z" clip-rule="evenodd"></path></clipPath><style type="text/css">svg{background:white}@font-face{font-family:'Century Gothic';font-weight:normal;font-style:normal;src:local('Century Gothic'),url('https://content.livecareer.com/zty/fonts/CenturyGothic.ttf') format('truetype')}@font-face{font-family:'Century Gothic';font-weight:bold;font-style:normal;src:local('Century Gothic Bold'),url('https://content.livecareer.com/zty/fonts/CenturyGothicBold.ttf') format('truetype')}@font-face{font-family:'Century Gothic';font-weight:bold;font-style:italic;src:local('Century Gothic Bold Italic'),url('https://content.livecareer.com/zty/fonts/CenturyGothicBoldItalic.ttf') format('truetype')}@font-face{font-family:'Century Gothic';font-weight:normal;font-style:italic;src:local('Century Gothic Italic'),url('https://content.livecareer.com/zty/fonts/CenturyGothicItalic.ttf') format('truetype')}</style></defs><g transform="scale(1.33333)"><g><path d="M0,0 L600,0 L600,450 L0,450 Z" fill="#ffffff" fill-rule="evenodd"></path><g transform="matrix(1,0,0,1,600,0)"><path d="M0,0 L600,0 L600,450 L0,450 Z" fill="#ffffff" fill-rule="evenodd"></path></g><g transform="matrix(1,0,0,1,0,450)"><path d="M0,0 L600,0 L600,450 L0,450 Z" fill="#ffffff" fill-rule="evenodd"></path></g><g transform="matrix(1,0,0,1,600,450)"><path d="M0,0 L600,0 L600,450 L0,450 Z" fill="#ffffff" fill-rule="evenodd"></path></g><g transform="matrix(1,0,0,1,43,25)"><text><tspan x="294.786987305" y="48.173000336" font-family="Century Gothic" font-weight="bold" font-style="normal" font-size="31" fill="#000000">JESSICA CLAIRE</tspan></text><g transform="matrix(1,0,0,1,0,55)"><text><tspan x="166.781997681" y="21.798000336" font-family="Century Gothic" font-weight="normal" font-style="normal" font-size="10" fill="#000000">San Francisco, CA 94105 | (555) 432-1000 | resumesample@example.com</tspan></text></g><g transform="matrix(1,0,0,1,0,97)"><text><tspan x="0" y="16.916999817" font-family="Century Gothic" font-weight="bold" font-style="normal" font-size="14" fill="#000000">Professional Summary</tspan></text></g><g transform="matrix(1,0,0,1,0,121)"><text><tspan x="0" y="14.578000069" font-family="Century Gothic" font-weight="normal" font-style="normal" font-size="11" fill="#666666">Highly motivated Sales Associate with extensive customer service and sales experience. Outgoing </tspan><tspan x="0" y="31.577999115" font-family="Century Gothic" font-weight="normal" font-style="normal" font-size="11" fill="#666666">sales professional with track record of driving increased sales, improving buying experience and </tspan><tspan x="0" y="48.577999115" font-family="Century Gothic" font-weight="normal" font-style="normal" font-size="11" fill="#666666">elevating company profile with target market.</tspan></text></g><g transform="matrix(1,0,0,1,0,172)"><text><tspan x="0" y="28.916999817" font-family="Century Gothic" font-weight="bold" font-style="normal" font-size="14" fill="#000000">Skills</tspan></text></g><g transform="matrix(1,0,0,1,0,208)"><g transform="matrix(1,0,0,1,0,0)" clip-path="url(#clip1)"><g transform="matrix(1,0,0,1,13.199999809,0.25)"><text><tspan x="-0.5" y="13.828000069" font-family="Symbol" font-weight="normal" font-style="normal" font-size="8.25" fill="#666666">●</tspan><tspan x="10.050000191" y="14.578000069" font-family="Century Gothic" font-weight="normal" font-style="normal" font-size="11" fill="#666666">Guest services</tspan></text></g><g transform="matrix(1,0,0,1,13.199999809,17.25)"><text><tspan x="-0.5" y="13.828000069" font-family="Symbol" font-weight="normal" font-style="normal" font-size="8.25" fill="#666666">●</tspan><tspan x="10.050000191" y="14.578000069" font-family="Century Gothic" font-weight="normal" font-style="normal" font-size="11" fill="#666666">Inventory control procedures</tspan></text></g><g transform="matrix(1,0,0,1,13.199999809,34.25)"><text><tspan x="-0.5" y="13.828000069" font-family="Symbol" font-weight="normal" font-style="normal" font-size="8.25" fill="#666666">●</tspan><tspan x="10.050000191" y="14.578000069" font-family="Century Gothic" font-weight="normal" font-style="normal" font-size="11" fill="#666666">Merchandising expertise</tspan></text></g></g><g transform="matrix(1,0,0,1,262.899993896,0)" clip-path="url(#clip2)"><g transform="matrix(1,0,0,1,13.449999809,0.25)"><text><tspan x="-0.5" y="13.828000069" font-family="Symbol" font-weight="normal" font-style="normal" font-size="8.25" fill="#666666">●</tspan><tspan x="10.050000191" y="14.578000069" font-family="Century Gothic" font-weight="normal" font-style="normal" font-size="11" fill="#666666">Loss prevention</tspan></text></g><g transform="matrix(1,0,0,1,13.449999809,17.25)"><text><tspan x="-0.5" y="13.828000069" font-family="Symbol" font-weight="normal" font-style="normal" font-size="8.25" fill="#666666">●</tspan><tspan x="10.050000191" y="14.578000069" font-family="Century Gothic" font-weight="normal" font-style="normal" font-size="11" fill="#666666">Cash register operations</tspan></text></g><g transform="matrix(1,0,0,1,13.449999809,34.25)"><text><tspan x="-0.5" y="13.828000069" font-family="Symbol" font-weight="normal" font-style="normal" font-size="8.25" fill="#666666">●</tspan><tspan x="10.050000191" y="14.578000069" font-family="Century Gothic" font-weight="normal" font-style="normal" font-size="11" fill="#666666">Product promotions</tspan></text></g></g><path d="M262.899993896,0 L262.899993896,51.5 " stroke-width="1" stroke-miterlimit="10" stroke="#fefdfd" fill="none" fill-rule="evenodd"></path></g><g transform="matrix(1,0,0,1,0,259.5)"><text><tspan x="0" y="28.916999817" font-family="Century Gothic" font-weight="bold" font-style="normal" font-size="14" fill="#000000">Work History</tspan></text></g><g transform="matrix(1,0,0,1,0,295.5)"><text><tspan x="0" y="14.578000069" font-family="Century Gothic" font-weight="bold" font-style="normal" font-size="11" fill="#000000">Senior Sales Associate</tspan><tspan x="118.352996826" y="14.578000069" font-family="Century Gothic" font-weight="normal" font-style="normal" font-size="11" fill="#666666"> </tspan><tspan x="424.019989014" y="14.578000069" font-family="Century Gothic" font-weight="normal" font-style="normal" font-size="11" fill="#666666"> </tspan><tspan x="427.065002441" y="14.578000069" font-family="Century Gothic" font-weight="normal" font-style="normal" font-size="11" fill="#000000">Mar 2015</tspan><tspan x="475.425994873" y="14.578000069" font-family="Century Gothic" font-weight="normal" font-style="normal" font-size="11" fill="#666666"> - </tspan><tspan x="485.167999268" y="14.578000069" font-family="Century Gothic" font-weight="normal" font-style="normal" font-size="11" fill="#000000">Current</tspan><tspan x="525" y="14.578000069" font-family="Century Gothic" font-weight="normal" font-style="normal" font-size="11" fill="#666666"> </tspan></text></g><g transform="matrix(1,0,0,1,0,312.5)"><text><tspan x="0" y="14.578000069" font-family="Century Gothic" font-weight="normal" font-style="normal" font-size="11" fill="#666666">Bed Bath &amp; Beyond, Inc. </tspan><tspan x="425.265991211" y="14.578000069" font-family="Century Gothic" font-weight="normal" font-style="normal" font-size="11" fill="#666666"> San Francisco, CA </tspan></text></g><g transform="matrix(1,0,0,1,12.949999809,329.5)"><text><tspan x="-0.5" y="13.828000069" font-family="Symbol" font-weight="normal" font-style="normal" font-size="8.25" fill="#666666">●</tspan><tspan x="10.050000191" y="14.578000069" font-family="Century Gothic" font-weight="normal" font-style="normal" font-size="11" fill="#666666">Applied security and loss prevention training toward recognizing risks and reducing store theft</tspan></text></g><g transform="matrix(1,0,0,1,12.949999809,346.5)"><text><tspan x="-0.5" y="13.828000069" font-family="Symbol" font-weight="normal" font-style="normal" font-size="8.25" fill="#666666">●</tspan><tspan x="10.050000191" y="14.578000069" font-family="Century Gothic" font-weight="normal" font-style="normal" font-size="11" fill="#666666">Trained and developed sales team associates in products, selling techniques and procedures</tspan></text></g><g transform="matrix(1,0,0,1,12.949999809,363.5)"><text><tspan x="-0.5" y="13.828000069" font-family="Symbol" font-weight="normal" font-style="normal" font-size="8.25" fill="#666666">●</tspan><tspan x="10.050000191" y="14.578000069" font-family="Century Gothic" font-weight="normal" font-style="normal" font-size="11" fill="#666666">Maintained organized, presentable merchandise to drive continuous sales</tspan></text></g><g transform="matrix(1,0,0,1,12.949999809,380.5)"><text><tspan x="-0.5" y="13.828000069" font-family="Symbol" font-weight="normal" font-style="normal" font-size="8.25" fill="#666666">●</tspan><tspan x="10.050000191" y="14.578000069" font-family="Century Gothic" font-weight="normal" font-style="normal" font-size="11" fill="#666666">Implemented up-selling strategies for recommending accessories and complementary </tspan><tspan x="10.050000191" y="31.577999115" font-family="Century Gothic" font-weight="normal" font-style="normal" font-size="11" fill="#666666">purchases</tspan></text></g><g transform="matrix(1,0,0,1,0,414.5)"><text><tspan x="0" y="22.577999115" font-family="Century Gothic" font-weight="bold" font-style="normal" font-size="11" fill="#000000">Sales Associate</tspan><tspan x="82.714996338" y="22.577999115" font-family="Century Gothic" font-weight="normal" font-style="normal" font-size="11" fill="#666666"> </tspan><tspan x="417.725006104" y="22.577999115" font-family="Century Gothic" font-weight="normal" font-style="normal" font-size="11" fill="#666666"> </tspan><tspan x="420.769989014" y="22.577999115" font-family="Century Gothic" font-weight="normal" font-style="normal" font-size="11" fill="#000000">Jun 2013</tspan><tspan x="466.897003174" y="22.577999115" font-family="Century Gothic" font-weight="normal" font-style="normal" font-size="11" fill="#666666"> - </tspan><tspan x="476.639007568" y="22.577999115" font-family="Century Gothic" font-weight="normal" font-style="normal" font-size="11" fill="#000000">Mar 2015</tspan><tspan x="525" y="22.577999115" font-family="Century Gothic" font-weight="normal" font-style="normal" font-size="11" fill="#666666"> </tspan></text></g><g transform="matrix(1,0,0,1,0,439.5)"><text><tspan x="0" y="14.578000069" font-family="Century Gothic" font-weight="normal" font-style="normal" font-size="11" fill="#666666">Target </tspan><tspan x="425.265991211" y="14.578000069" font-family="Century Gothic" font-weight="normal" font-style="normal" font-size="11" fill="#666666"> San Francisco, CA </tspan></text></g><g transform="matrix(1,0,0,1,12.949999809,456.5)"><text><tspan x="-0.5" y="13.828000069" font-family="Symbol" font-weight="normal" font-style="normal" font-size="8.25" fill="#666666">●</tspan><tspan x="10.050000191" y="14.578000069" font-family="Century Gothic" font-weight="normal" font-style="normal" font-size="11" fill="#666666">Maintained organized, presentable merchandise to drive continuous sales</tspan></text></g><g transform="matrix(1,0,0,1,12.949999809,473.5)"><text><tspan x="-0.5" y="13.828000069" font-family="Symbol" font-weight="normal" font-style="normal" font-size="8.25" fill="#666666">●</tspan><tspan x="10.050000191" y="14.578000069" font-family="Century Gothic" font-weight="normal" font-style="normal" font-size="11" fill="#666666">Organized racks and shelves to maintain store visual appeal, engage customers and promote </tspan><tspan x="10.050000191" y="31.577999115" font-family="Century Gothic" font-weight="normal" font-style="normal" font-size="11" fill="#666666">merchandise</tspan></text></g><g transform="matrix(1,0,0,1,12.949999809,507.5)"><text><tspan x="-0.5" y="13.828000069" font-family="Symbol" font-weight="normal" font-style="normal" font-size="8.25" fill="#666666">●</tspan><tspan x="10.050000191" y="14.578000069" font-family="Century Gothic" font-weight="normal" font-style="normal" font-size="11" fill="#666666">Evaluated inventory and delivery needs, optimizing strategies to meet customer demands</tspan></text></g><g transform="matrix(1,0,0,1,12.949999809,524.5)"><text><tspan x="-0.5" y="13.828000069" font-family="Symbol" font-weight="normal" font-style="normal" font-size="8.25" fill="#666666">●</tspan><tspan x="10.050000191" y="14.578000069" font-family="Century Gothic" font-weight="normal" font-style="normal" font-size="11" fill="#666666">Analyzed and processed returns, assisting customers with finding alternative merchandise to </tspan><tspan x="10.050000191" y="31.577999115" font-family="Century Gothic" font-weight="normal" font-style="normal" font-size="11" fill="#666666">meet needs</tspan></text></g><g transform="matrix(1,0,0,1,0,558.5)"><text><tspan x="0" y="28.916999817" font-family="Century Gothic" font-weight="bold" font-style="normal" font-size="14" fill="#000000">Education</tspan></text></g><g transform="matrix(1,0,0,1,0,594.5)"><text><tspan x="0" y="14.578000069" font-family="Century Gothic" font-weight="bold" font-style="normal" font-size="11" fill="#000000">Bachelor of Arts</tspan><tspan x="83.589996338" y="14.578000069" font-family="Century Gothic" font-weight="normal" font-style="normal" font-size="11" fill="#666666">: </tspan><tspan x="89.680000305" y="14.578000069" font-family="Century Gothic" font-weight="bold" font-style="normal" font-size="11" fill="#000000">Business Administration</tspan><tspan x="212.645996094" y="14.578000069" font-family="Century Gothic" font-weight="normal" font-style="normal" font-size="11" fill="#666666"> </tspan><tspan x="497.570007324" y="14.578000069" font-family="Century Gothic" font-weight="normal" font-style="normal" font-size="11" fill="#000000"> 2013 </tspan></text></g><g transform="matrix(1,0,0,1,0,611.5)"><text><tspan x="0" y="14.578000069" font-family="Century Gothic" font-weight="normal" font-style="normal" font-size="11" fill="#666666">San Francisco State University </tspan><tspan x="425.265991211" y="14.578000069" font-family="Century Gothic" font-weight="normal" font-style="normal" font-size="11" fill="#666666"> San Francisco, CA </tspan></text></g></g></g></g></svg>