<?xml version="1.0" encoding="utf-8" standalone="yes"?><svg xmlns="http://www.w3.org/2000/svg" xmlns:xlink="http://www.w3.org/1999/xlink" version="1.1" width="816" height="1056"><!--Generated by Aspose.Words for .NET 18.5--><defs><clipPath id="clip1"><path d="M-1,-1 L249.399993896,-1 L249.399993896,43.5 L-1,43.5 Z" clip-rule="evenodd"></path></clipPath><clipPath id="clip2"><path d="M-0.5,-1 L249.399993896,-1 L249.399993896,43.5 L-0.5,43.5 Z" clip-rule="evenodd"></path></clipPath><style type="text/css">svg{background:white}@font-face{font-family:'Century Gothic';font-weight:normal;font-style:normal;src:local('Century Gothic'),url('https://content.livecareer.com/zty/fonts/CenturyGothic.ttf') format('truetype')}@font-face{font-family:'Century Gothic';font-weight:bold;font-style:normal;src:local('Century Gothic Bold'),url('https://content.livecareer.com/zty/fonts/CenturyGothicBold.ttf') format('truetype')}@font-face{font-family:'Century Gothic';font-weight:bold;font-style:italic;src:local('Century Gothic Bold Italic'),url('https://content.livecareer.com/zty/fonts/CenturyGothicBoldItalic.ttf') format('truetype')}@font-face{font-family:'Century Gothic';font-weight:normal;font-style:italic;src:local('Century Gothic Italic'),url('https://content.livecareer.com/zty/fonts/CenturyGothicItalic.ttf') format('truetype')}</style></defs><g transform="scale(1.33333)"><g><path d="M0,0 L600,0 L600,450 L0,450 Z" fill="#ffffff" fill-rule="evenodd"></path><g transform="matrix(1,0,0,1,600,0)"><path d="M0,0 L600,0 L600,450 L0,450 Z" fill="#ffffff" fill-rule="evenodd"></path></g><g transform="matrix(1,0,0,1,0,450)"><path d="M0,0 L600,0 L600,450 L0,450 Z" fill="#ffffff" fill-rule="evenodd"></path></g><g transform="matrix(1,0,0,1,600,450)"><path d="M0,0 L600,0 L600,450 L0,450 Z" fill="#ffffff" fill-rule="evenodd"></path></g><g transform="matrix(1,0,0,1,40,30)"><text><tspan x="158.522994995" y="38.841999054" font-family="Palatino Linotype" font-weight="normal" font-style="normal" font-size="37" fill="#000000">Jessica Claire</tspan></text><g transform="matrix(1,0,0,1,0,59.916999817)"><text><tspan x="206.809997559" y="10.798000336" font-family="Century Gothic" font-weight="normal" font-style="normal" font-size="10" fill="#231f20">San Francisco, CA 94105</tspan></text></g><g transform="matrix(1,0,0,1,0,72.916999817)"><text><tspan x="156.45300293" y="10.798000336" font-family="Century Gothic" font-weight="normal" font-style="normal" font-size="10" fill="#231f20">(555) 432-1000 resumesample@example.com</tspan></text></g><path d="M-1.450000048,116.416999817 L533.450012207,116.416999817 " stroke-width="1" stroke-miterlimit="10" stroke="#cccccc" stroke-dashoffset="0" stroke-dasharray="4 1" fill="none" fill-rule="evenodd"></path><g transform="matrix(1,0,0,1,0,116.916999817)"><text><tspan x="0" y="26.548000336" font-family="Palatino Linotype" font-weight="bold" font-style="normal" font-size="11" fill="#000000">PROFESSIONAL SUMMARY</tspan></text></g><g transform="matrix(1,0,0,1,35,150.757003784)"><text><tspan x="0" y="11.578000069" font-family="Century Gothic" font-weight="normal" font-style="normal" font-size="11" fill="#231f20">Highly motivated Sales Associate with extensive customer service and sales experience. </tspan><tspan x="0" y="25.577999115" font-family="Century Gothic" font-weight="normal" font-style="normal" font-size="11" fill="#231f20">Outgoing sales professional with track record of driving increased sales, improving buying </tspan><tspan x="0" y="39.577999115" font-family="Century Gothic" font-weight="normal" font-style="normal" font-size="11" fill="#231f20">experience and elevating company profile with target market.</tspan></text></g><g transform="matrix(1,0,0,1,0,192.757003784)"><text><tspan x="0" y="26.548000336" font-family="Palatino Linotype" font-weight="bold" font-style="normal" font-size="11" fill="#000000">SKILLS</tspan></text></g><g transform="matrix(1,0,0,1,35,226.597000122)"><g transform="matrix(1,0,0,1,0,0)" clip-path="url(#clip1)"><g transform="matrix(1,0,0,1,0.200000003,0.25)"><text><tspan x="-0.5" y="10.828000069" font-family="Symbol" font-weight="normal" font-style="normal" font-size="8.25" fill="#231f20">●</tspan><tspan x="12.050000191" y="11.578000069" font-family="Century Gothic" font-weight="normal" font-style="normal" font-size="11" fill="#231f20">Guest services</tspan></text></g><g transform="matrix(1,0,0,1,0.200000003,14.25)"><text><tspan x="-0.5" y="10.828000069" font-family="Symbol" font-weight="normal" font-style="normal" font-size="8.25" fill="#231f20">●</tspan><tspan x="12.050000191" y="11.578000069" font-family="Century Gothic" font-weight="normal" font-style="normal" font-size="11" fill="#231f20">Inventory control procedures</tspan></text></g><g transform="matrix(1,0,0,1,0.200000003,28.25)"><text><tspan x="-0.5" y="10.828000069" font-family="Symbol" font-weight="normal" font-style="normal" font-size="8.25" fill="#231f20">●</tspan><tspan x="12.050000191" y="11.578000069" font-family="Century Gothic" font-weight="normal" font-style="normal" font-size="11" fill="#231f20">Merchandising expertise</tspan></text></g></g><g transform="matrix(1,0,0,1,248.399993896,0)" clip-path="url(#clip2)"><g transform="matrix(1,0,0,1,0.449999988,0.25)"><text><tspan x="-0.5" y="10.828000069" font-family="Symbol" font-weight="normal" font-style="normal" font-size="8.25" fill="#231f20">●</tspan><tspan x="12.050000191" y="11.578000069" font-family="Century Gothic" font-weight="normal" font-style="normal" font-size="11" fill="#231f20">Loss prevention</tspan></text></g><g transform="matrix(1,0,0,1,0.449999988,14.25)"><text><tspan x="-0.5" y="10.828000069" font-family="Symbol" font-weight="normal" font-style="normal" font-size="8.25" fill="#231f20">●</tspan><tspan x="12.050000191" y="11.578000069" font-family="Century Gothic" font-weight="normal" font-style="normal" font-size="11" fill="#231f20">Cash register operations</tspan></text></g><g transform="matrix(1,0,0,1,0.449999988,28.25)"><text><tspan x="-0.5" y="10.828000069" font-family="Symbol" font-weight="normal" font-style="normal" font-size="8.25" fill="#231f20">●</tspan><tspan x="12.050000191" y="11.578000069" font-family="Century Gothic" font-weight="normal" font-style="normal" font-size="11" fill="#231f20">Product promotions</tspan></text></g></g><path d="M248.399993896,0 L248.399993896,42.5 " stroke-width="1" stroke-miterlimit="10" stroke="#fefdfd" fill="none" fill-rule="evenodd"></path></g><g transform="matrix(1,0,0,1,0,269.096984863)"><text><tspan x="0" y="26.548000336" font-family="Palatino Linotype" font-weight="bold" font-style="normal" font-size="11" fill="#000000">WORK HISTORY</tspan></text></g><g transform="matrix(1,0,0,1,35,302.937011719)"><text><tspan x="0" y="11.578000069" font-family="Century Gothic" font-weight="bold" font-style="normal" font-size="11" fill="#231f20">SENIOR SALES ASSOCIATE</tspan><tspan x="133.51499939" y="11.578000069" font-family="Century Gothic" font-weight="normal" font-style="normal" font-size="11" fill="#231f20"> | 03/2015 to Current </tspan></text></g><g transform="matrix(1,0,0,1,35,316.937011719)"><text><tspan x="0" y="11.578000069" font-family="Century Gothic" font-weight="bold" font-style="normal" font-size="11" fill="#231f20">Bed Bath &amp; Beyond, Inc. - San Francisco, CA</tspan></text></g><g transform="matrix(1,0,0,1,34.950000763,333.937011719)"><text><tspan x="-0.5" y="10.828000069" font-family="Symbol" font-weight="normal" font-style="normal" font-size="8.25" fill="#231f20">●</tspan><tspan x="12.050000191" y="11.578000069" font-family="Century Gothic" font-weight="normal" font-style="normal" font-size="11" fill="#231f20">Applied security and loss prevention training toward recognizing risks and reducing store </tspan><tspan x="12.050000191" y="25.577999115" font-family="Century Gothic" font-weight="normal" font-style="normal" font-size="11" fill="#231f20">theft</tspan></text></g><g transform="matrix(1,0,0,1,34.950000763,361.937011719)"><text><tspan x="-0.5" y="10.828000069" font-family="Symbol" font-weight="normal" font-style="normal" font-size="8.25" fill="#231f20">●</tspan><tspan x="12.050000191" y="11.578000069" font-family="Century Gothic" font-weight="normal" font-style="normal" font-size="11" fill="#231f20">Trained and developed sales team associates in products, selling techniques and </tspan><tspan x="12.050000191" y="25.577999115" font-family="Century Gothic" font-weight="normal" font-style="normal" font-size="11" fill="#231f20">procedures</tspan></text></g><g transform="matrix(1,0,0,1,34.950000763,389.937011719)"><text><tspan x="-0.5" y="10.828000069" font-family="Symbol" font-weight="normal" font-style="normal" font-size="8.25" fill="#231f20">●</tspan><tspan x="12.050000191" y="11.578000069" font-family="Century Gothic" font-weight="normal" font-style="normal" font-size="11" fill="#231f20">Maintained organized, presentable merchandise to drive continuous sales</tspan></text></g><g transform="matrix(1,0,0,1,34.950000763,403.937011719)"><text><tspan x="-0.5" y="10.828000069" font-family="Symbol" font-weight="normal" font-style="normal" font-size="8.25" fill="#231f20">●</tspan><tspan x="12.050000191" y="11.578000069" font-family="Century Gothic" font-weight="normal" font-style="normal" font-size="11" fill="#231f20">Implemented up-selling strategies for recommending accessories and complementary </tspan><tspan x="12.050000191" y="25.577999115" font-family="Century Gothic" font-weight="normal" font-style="normal" font-size="11" fill="#231f20">purchases</tspan></text></g><g transform="matrix(1,0,0,1,35,431.937011719)"><text><tspan x="0" y="19.577999115" font-family="Century Gothic" font-weight="bold" font-style="normal" font-size="11" fill="#231f20">SALES ASSOCIATE</tspan><tspan x="92.163002014" y="19.577999115" font-family="Century Gothic" font-weight="normal" font-style="normal" font-size="11" fill="#231f20"> | 06/2013 to 03/2015 </tspan></text></g><g transform="matrix(1,0,0,1,35,453.937011719)"><text><tspan x="0" y="11.578000069" font-family="Century Gothic" font-weight="bold" font-style="normal" font-size="11" fill="#231f20">Target - San Francisco, CA</tspan></text></g><g transform="matrix(1,0,0,1,34.950000763,470.937011719)"><text><tspan x="-0.5" y="10.828000069" font-family="Symbol" font-weight="normal" font-style="normal" font-size="8.25" fill="#231f20">●</tspan><tspan x="12.050000191" y="11.578000069" font-family="Century Gothic" font-weight="normal" font-style="normal" font-size="11" fill="#231f20">Maintained organized, presentable merchandise to drive continuous sales</tspan></text></g><g transform="matrix(1,0,0,1,34.950000763,484.937011719)"><text><tspan x="-0.5" y="10.828000069" font-family="Symbol" font-weight="normal" font-style="normal" font-size="8.25" fill="#231f20">●</tspan><tspan x="12.050000191" y="11.578000069" font-family="Century Gothic" font-weight="normal" font-style="normal" font-size="11" fill="#231f20">Organized racks and shelves to maintain store visual appeal, engage customers and </tspan><tspan x="12.050000191" y="25.577999115" font-family="Century Gothic" font-weight="normal" font-style="normal" font-size="11" fill="#231f20">promote merchandise</tspan></text></g><g transform="matrix(1,0,0,1,34.950000763,512.937011719)"><text><tspan x="-0.5" y="10.828000069" font-family="Symbol" font-weight="normal" font-style="normal" font-size="8.25" fill="#231f20">●</tspan><tspan x="12.050000191" y="11.578000069" font-family="Century Gothic" font-weight="normal" font-style="normal" font-size="11" fill="#231f20">Evaluated inventory and delivery needs, optimizing strategies to meet customer demands</tspan></text></g><g transform="matrix(1,0,0,1,34.950000763,526.937011719)"><text><tspan x="-0.5" y="10.828000069" font-family="Symbol" font-weight="normal" font-style="normal" font-size="8.25" fill="#231f20">●</tspan><tspan x="12.050000191" y="11.578000069" font-family="Century Gothic" font-weight="normal" font-style="normal" font-size="11" fill="#231f20">Analyzed and processed returns, assisting customers with finding alternative merchandise </tspan><tspan x="12.050000191" y="25.577999115" font-family="Century Gothic" font-weight="normal" font-style="normal" font-size="11" fill="#231f20">to meet needs</tspan></text></g><g transform="matrix(1,0,0,1,0,554.937011719)"><text><tspan x="0" y="26.548000336" font-family="Palatino Linotype" font-weight="bold" font-style="normal" font-size="11" fill="#000000">EDUCATION</tspan></text></g><g transform="matrix(1,0,0,1,35,588.776977539)"><text><tspan x="0" y="11.578000069" font-family="Century Gothic" font-weight="bold" font-style="normal" font-size="11" fill="#231f20">San Francisco State University - San Francisco, CA | Bachelor of Arts </tspan></text></g><g transform="matrix(1,0,0,1,35,602.776977539)"><text><tspan x="0" y="11.578000069" font-family="Century Gothic" font-weight="normal" font-style="normal" font-size="11" fill="#231f20">Business Administration, 2013</tspan></text></g></g></g></g></svg>