<?xml version="1.0" encoding="utf-8" standalone="yes"?><svg xmlns="http://www.w3.org/2000/svg" xmlns:xlink="http://www.w3.org/1999/xlink" version="1.1" width="816" height="1056"><!--Generated by Aspose.Words for .NET 18.5--><defs><clipPath id="clip1"><path d="M-1,-1 L533,-1 L533,16 L-1,16 Z" clip-rule="evenodd"></path></clipPath><clipPath id="clip10"><path d="M-1,-1 L533,-1 L533,16 L-1,16 Z" clip-rule="evenodd"></path></clipPath><clipPath id="clip2"><path d="M-1,-1 L533,-1 L533,16 L-1,16 Z" clip-rule="evenodd"></path></clipPath><clipPath id="clip3"><path d="M-1,-1 L261.899993896,-1 L261.899993896,76.5 L-1,76.5 Z" clip-rule="evenodd"></path></clipPath><clipPath id="clip4"><path d="M-0.5,-1 L261.899993896,-1 L261.899993896,76.5 L-0.5,76.5 Z" clip-rule="evenodd"></path></clipPath><clipPath id="clip5"><path d="M-1,-1 L533,-1 L533,16 L-1,16 Z" clip-rule="evenodd"></path></clipPath><clipPath id="clip6"><path d="M-1,-1 L186,-1 L186,126 L-1,126 Z" clip-rule="evenodd"></path></clipPath><clipPath id="clip7"><path d="M-1,-1 L348,-1 L348,126 L-1,126 Z" clip-rule="evenodd"></path></clipPath><clipPath id="clip8"><path d="M-1,-1 L186,-1 L186,156 L-1,156 Z" clip-rule="evenodd"></path></clipPath><clipPath id="clip9"><path d="M-1,-1 L348,-1 L348,156 L-1,156 Z" clip-rule="evenodd"></path></clipPath><style type="text/css">svg{background:white}@font-face{font-family:'Century Gothic';font-weight:normal;font-style:normal;src:local('Century Gothic'),url('https://content.livecareer.com/zty/fonts/CenturyGothic.ttf') format('truetype')}@font-face{font-family:'Century Gothic';font-weight:bold;font-style:normal;src:local('Century Gothic Bold'),url('https://content.livecareer.com/zty/fonts/CenturyGothicBold.ttf') format('truetype')}@font-face{font-family:'Century Gothic';font-weight:bold;font-style:italic;src:local('Century Gothic Bold Italic'),url('https://content.livecareer.com/zty/fonts/CenturyGothicBoldItalic.ttf') format('truetype')}@font-face{font-family:'Century Gothic';font-weight:normal;font-style:italic;src:local('Century Gothic Italic'),url('https://content.livecareer.com/zty/fonts/CenturyGothicItalic.ttf') format('truetype')}</style></defs><g transform="scale(1.33333)"><g><path d="M0,0 L600,0 L600,450 L0,450 Z" fill="#ffffff" fill-rule="evenodd"></path><g transform="matrix(1,0,0,1,600,0)"><path d="M0,0 L600,0 L600,450 L0,450 Z" fill="#ffffff" fill-rule="evenodd"></path></g><g transform="matrix(1,0,0,1,0,450)"><path d="M0,0 L600,0 L600,450 L0,450 Z" fill="#ffffff" fill-rule="evenodd"></path></g><g transform="matrix(1,0,0,1,600,450)"><path d="M0,0 L600,0 L600,450 L0,450 Z" fill="#ffffff" fill-rule="evenodd"></path></g><g transform="matrix(1,0,0,1,40,40)"><text><tspan x="116.927001953" y="40.23400116" font-family="Century Gothic" font-weight="normal" font-style="normal" font-size="40" fill="#4a4a4a">JESSICA CLAIRE</tspan></text><g transform="matrix(1,0,0,1,0,49.042999268)"><text><tspan x="68.432998657" y="12.578000069" font-family="Century Gothic" font-weight="normal" font-style="normal" font-size="11" fill="#4a4a4a">resumesample@example.com | (555) 432-1000 | San Francisco, CA 94105</tspan></text></g><g transform="matrix(1,0,0,1,0,89.042999268)"><path d="M0,0 L532,0 L532,15 L0,15 Z" fill="#bcbfc3" fill-rule="evenodd"></path><g transform="matrix(1,0,0,1,0,0)" clip-path="url(#clip1)"><g transform="matrix(1,0,0,1,10,0)"><text><tspan x="0" y="11.820999146" font-family="Century Gothic" font-weight="bold" font-style="normal" font-size="11" fill="#4a4a4a">PROFESSIONAL SUMMARY</tspan></text></g></g></g><g transform="matrix(1,0,0,1,10,104.042999268)"><text><tspan x="0" y="17.577999115" font-family="Century Gothic" font-weight="normal" font-style="normal" font-size="11" fill="#4a4a4a">Highly motivated Sales Associate with extensive customer service and sales experience. </tspan><tspan x="0" y="32.577999115" font-family="Century Gothic" font-weight="normal" font-style="normal" font-size="11" fill="#4a4a4a">Outgoing sales professional with track record of driving increased sales, improving buying </tspan><tspan x="0" y="47.577999115" font-family="Century Gothic" font-weight="normal" font-style="normal" font-size="11" fill="#4a4a4a">experience and elevating company profile with target market.</tspan></text></g><g transform="matrix(1,0,0,1,0,179.042999268)"><path d="M0,0 L532,0 L532,15 L0,15 Z" fill="#bcbfc3" fill-rule="evenodd"></path><g transform="matrix(1,0,0,1,0,0)" clip-path="url(#clip2)"><g transform="matrix(1,0,0,1,10,0)"><text><tspan x="0" y="11.820999146" font-family="Century Gothic" font-weight="bold" font-style="normal" font-size="11" fill="#4a4a4a">SKILLS</tspan></text></g></g></g><g transform="matrix(1,0,0,1,10,194.042999268)"><g transform="matrix(1,0,0,1,0,0)" clip-path="url(#clip3)"><g transform="matrix(1,0,0,1,0.200000003,5.25)"><text><tspan x="-0.5" y="11.828000069" font-family="Symbol" font-weight="normal" font-style="normal" font-size="8.25" fill="#4a4a4a">●</tspan><tspan x="12.050000191" y="12.578000069" font-family="Century Gothic" font-weight="normal" font-style="normal" font-size="11" fill="#4a4a4a">Guest services</tspan></text></g><g transform="matrix(1,0,0,1,0.200000003,20.25)"><text><tspan x="-0.5" y="11.828000069" font-family="Symbol" font-weight="normal" font-style="normal" font-size="8.25" fill="#4a4a4a">●</tspan><tspan x="12.050000191" y="12.578000069" font-family="Century Gothic" font-weight="normal" font-style="normal" font-size="11" fill="#4a4a4a">Inventory control procedures</tspan></text></g><g transform="matrix(1,0,0,1,0.200000003,35.25)"><text><tspan x="-0.5" y="11.828000069" font-family="Symbol" font-weight="normal" font-style="normal" font-size="8.25" fill="#4a4a4a">●</tspan><tspan x="12.050000191" y="12.578000069" font-family="Century Gothic" font-weight="normal" font-style="normal" font-size="11" fill="#4a4a4a">Merchandising expertise</tspan></text></g></g><g transform="matrix(1,0,0,1,260.899993896,0)" clip-path="url(#clip4)"><g transform="matrix(1,0,0,1,0.449999988,5.25)"><text><tspan x="-0.5" y="11.828000069" font-family="Symbol" font-weight="normal" font-style="normal" font-size="8.25" fill="#4a4a4a">●</tspan><tspan x="12.050000191" y="12.578000069" font-family="Century Gothic" font-weight="normal" font-style="normal" font-size="11" fill="#4a4a4a">Loss prevention</tspan></text></g><g transform="matrix(1,0,0,1,0.449999988,20.25)"><text><tspan x="-0.5" y="11.828000069" font-family="Symbol" font-weight="normal" font-style="normal" font-size="8.25" fill="#4a4a4a">●</tspan><tspan x="12.050000191" y="12.578000069" font-family="Century Gothic" font-weight="normal" font-style="normal" font-size="11" fill="#4a4a4a">Cash register operations</tspan></text></g><g transform="matrix(1,0,0,1,0.449999988,35.25)"><text><tspan x="-0.5" y="11.828000069" font-family="Symbol" font-weight="normal" font-style="normal" font-size="8.25" fill="#4a4a4a">●</tspan><tspan x="12.050000191" y="12.578000069" font-family="Century Gothic" font-weight="normal" font-style="normal" font-size="11" fill="#4a4a4a">Product promotions</tspan></text></g></g><path d="M260.899993896,0 L260.899993896,75.5 " stroke-width="1" stroke-miterlimit="10" stroke="#fefdfd" fill="none" fill-rule="evenodd"></path></g><g transform="matrix(1,0,0,1,0,269.542999268)"><path d="M0,0 L532,0 L532,15 L0,15 Z" fill="#bcbfc3" fill-rule="evenodd"></path><g transform="matrix(1,0,0,1,0,0)" clip-path="url(#clip5)"><g transform="matrix(1,0,0,1,10,0)"><text><tspan x="0" y="11.820999146" font-family="Century Gothic" font-weight="bold" font-style="normal" font-size="11" fill="#4a4a4a">WORK HISTORY</tspan></text></g></g></g><g transform="matrix(1,0,0,1,0,284.542999268)"><g transform="matrix(1,0,0,1,0,0)" clip-path="url(#clip6)"><g transform="matrix(1,0,0,1,10,5)"><text><tspan x="0" y="12.578000069" font-family="Century Gothic" font-weight="normal" font-style="normal" font-size="11" fill="#4a4a4a">Mar 2015 - Current</tspan></text></g><g transform="matrix(1,0,0,1,10,20)"><text><tspan x="0" y="12.578000069" font-family="Century Gothic" font-weight="bold" font-style="normal" font-size="11" fill="#4a4a4a">Senior Sales Associate</tspan></text></g><g transform="matrix(1,0,0,1,10,35)"><text><tspan x="0" y="12.578000069" font-family="Century Gothic" font-weight="normal" font-style="normal" font-size="11" fill="#4a4a4a">Bed Bath &amp; Beyond, Inc. - San </tspan><tspan x="0" y="27.577999115" font-family="Century Gothic" font-weight="normal" font-style="normal" font-size="11" fill="#4a4a4a">Francisco, CA</tspan></text></g></g><g transform="matrix(1,0,0,1,185,0)" clip-path="url(#clip7)"><g transform="matrix(1,0,0,1,4.949999809,5)"><text><tspan x="-0.5" y="11.828000069" font-family="Symbol" font-weight="normal" font-style="normal" font-size="8.25" fill="#4a4a4a">●</tspan><tspan x="15.050000191" y="12.578000069" font-family="Century Gothic" font-weight="normal" font-style="normal" font-size="11" fill="#4a4a4a">Applied security and loss prevention training toward </tspan><tspan x="15.050000191" y="27.577999115" font-family="Century Gothic" font-weight="normal" font-style="normal" font-size="11" fill="#4a4a4a">recognizing risks and reducing store theft</tspan></text></g><g transform="matrix(1,0,0,1,4.949999809,35)"><text><tspan x="-0.5" y="11.828000069" font-family="Symbol" font-weight="normal" font-style="normal" font-size="8.25" fill="#4a4a4a">●</tspan><tspan x="15.050000191" y="12.578000069" font-family="Century Gothic" font-weight="normal" font-style="normal" font-size="11" fill="#4a4a4a">Trained and developed sales team associates in products, </tspan><tspan x="15.050000191" y="27.577999115" font-family="Century Gothic" font-weight="normal" font-style="normal" font-size="11" fill="#4a4a4a">selling techniques and procedures</tspan></text></g><g transform="matrix(1,0,0,1,4.949999809,65)"><text><tspan x="-0.5" y="11.828000069" font-family="Symbol" font-weight="normal" font-style="normal" font-size="8.25" fill="#4a4a4a">●</tspan><tspan x="15.050000191" y="12.578000069" font-family="Century Gothic" font-weight="normal" font-style="normal" font-size="11" fill="#4a4a4a">Maintained organized, presentable merchandise to drive </tspan><tspan x="15.050000191" y="27.577999115" font-family="Century Gothic" font-weight="normal" font-style="normal" font-size="11" fill="#4a4a4a">continuous sales</tspan></text></g><g transform="matrix(1,0,0,1,4.949999809,95)"><text><tspan x="-0.5" y="11.828000069" font-family="Symbol" font-weight="normal" font-style="normal" font-size="8.25" fill="#4a4a4a">●</tspan><tspan x="15.050000191" y="12.578000069" font-family="Century Gothic" font-weight="normal" font-style="normal" font-size="11" fill="#4a4a4a">Implemented up-selling strategies for recommending </tspan><tspan x="15.050000191" y="27.577999115" font-family="Century Gothic" font-weight="normal" font-style="normal" font-size="11" fill="#4a4a4a">accessories and complementary purchases</tspan></text></g></g></g><g transform="matrix(1,0,0,1,0,409.542999268)"><g transform="matrix(1,0,0,1,0,0)" clip-path="url(#clip8)"><g transform="matrix(1,0,0,1,10,10)"><text><tspan x="0" y="12.578000069" font-family="Century Gothic" font-weight="normal" font-style="normal" font-size="11" fill="#4a4a4a">Jun 2013 - Mar 2015</tspan></text></g><g transform="matrix(1,0,0,1,10,25)"><text><tspan x="0" y="12.578000069" font-family="Century Gothic" font-weight="bold" font-style="normal" font-size="11" fill="#4a4a4a">Sales Associate</tspan></text></g><g transform="matrix(1,0,0,1,10,40)"><text><tspan x="0" y="12.578000069" font-family="Century Gothic" font-weight="normal" font-style="normal" font-size="11" fill="#4a4a4a">Target - San Francisco, CA</tspan></text></g></g><g transform="matrix(1,0,0,1,185,0)" clip-path="url(#clip9)"><g transform="matrix(1,0,0,1,4.949999809,10)"><text><tspan x="-0.5" y="11.828000069" font-family="Symbol" font-weight="normal" font-style="normal" font-size="8.25" fill="#4a4a4a">●</tspan><tspan x="15.050000191" y="12.578000069" font-family="Century Gothic" font-weight="normal" font-style="normal" font-size="11" fill="#4a4a4a">Maintained organized, presentable merchandise to drive </tspan><tspan x="15.050000191" y="27.577999115" font-family="Century Gothic" font-weight="normal" font-style="normal" font-size="11" fill="#4a4a4a">continuous sales</tspan></text></g><g transform="matrix(1,0,0,1,4.949999809,40)"><text><tspan x="-0.5" y="11.828000069" font-family="Symbol" font-weight="normal" font-style="normal" font-size="8.25" fill="#4a4a4a">●</tspan><tspan x="15.050000191" y="12.578000069" font-family="Century Gothic" font-weight="normal" font-style="normal" font-size="11" fill="#4a4a4a">Organized racks and shelves to maintain store visual appeal, </tspan><tspan x="15.050000191" y="27.577999115" font-family="Century Gothic" font-weight="normal" font-style="normal" font-size="11" fill="#4a4a4a">engage customers and promote merchandise</tspan></text></g><g transform="matrix(1,0,0,1,4.949999809,70)"><text><tspan x="-0.5" y="11.828000069" font-family="Symbol" font-weight="normal" font-style="normal" font-size="8.25" fill="#4a4a4a">●</tspan><tspan x="15.050000191" y="12.578000069" font-family="Century Gothic" font-weight="normal" font-style="normal" font-size="11" fill="#4a4a4a">Evaluated inventory and delivery needs, optimizing strategies </tspan><tspan x="15.050000191" y="27.577999115" font-family="Century Gothic" font-weight="normal" font-style="normal" font-size="11" fill="#4a4a4a">to meet customer demands</tspan></text></g><g transform="matrix(1,0,0,1,4.949999809,100)"><text><tspan x="-0.5" y="11.828000069" font-family="Symbol" font-weight="normal" font-style="normal" font-size="8.25" fill="#4a4a4a">●</tspan><tspan x="15.050000191" y="12.578000069" font-family="Century Gothic" font-weight="normal" font-style="normal" font-size="11" fill="#4a4a4a">Analyzed and processed returns, assisting customers with </tspan><tspan x="15.050000191" y="27.577999115" font-family="Century Gothic" font-weight="normal" font-style="normal" font-size="11" fill="#4a4a4a">finding alternative merchandise to meet needs</tspan></text></g></g></g><g transform="matrix(1,0,0,1,0,564.543029785)"><path d="M0,0 L532,0 L532,15 L0,15 Z" fill="#bcbfc3" fill-rule="evenodd"></path><g transform="matrix(1,0,0,1,0,0)" clip-path="url(#clip10)"><g transform="matrix(1,0,0,1,10,0)"><text><tspan x="0" y="11.820999146" font-family="Century Gothic" font-weight="bold" font-style="normal" font-size="11" fill="#4a4a4a">EDUCATION</tspan></text></g></g></g><g transform="matrix(1,0,0,1,10,579.543029785)"><text><tspan x="0" y="17.577999115" font-family="Century Gothic" font-weight="normal" font-style="normal" font-size="11" fill="#4a4a4a">2013 </tspan></text></g><g transform="matrix(1,0,0,1,10,599.543029785)"><text><tspan x="0" y="12.578000069" font-family="Century Gothic" font-weight="bold" font-style="normal" font-size="11" fill="#4a4a4a">Bachelor of Arts</tspan><tspan x="83.589996338" y="12.578000069" font-family="Century Gothic" font-weight="normal" font-style="normal" font-size="11" fill="#4a4a4a">: Business Administration</tspan></text></g><g transform="matrix(1,0,0,1,10,614.543029785)"><text><tspan x="0" y="12.578000069" font-family="Century Gothic" font-weight="normal" font-style="normal" font-size="11" fill="#4a4a4a">San Francisco State University | San Francisco, CA</tspan></text></g><g transform="matrix(1,0,0,1,10,629.543029785)"><text><tspan x="0" y="22.577999115" font-family="Century Gothic" font-weight="normal" font-style="normal" font-size="11" fill="#4a4a4a"> </tspan></text></g></g></g></g></svg>