<?xml version="1.0" encoding="utf-8" standalone="yes"?><svg xmlns="http://www.w3.org/2000/svg" xmlns:xlink="http://www.w3.org/1999/xlink" version="1.1" width="816" height="1056"><!--Generated by Aspose.Words for .NET 18.5--><defs><clipPath id="clip1"><path d="M-1,-1 L507.5,-1 L507.5,88 L-1,88 Z" clip-rule="evenodd"></path></clipPath><clipPath id="clip10"><path d="M0,0 L1000,0 L1000,1000 L0,1000 Z" clip-rule="evenodd"></path></clipPath><clipPath id="clip11"><path d="M0,0 L11.227854729,0 L11.227854729,11.211240768 L0,11.211240768 Z" clip-rule="evenodd"></path></clipPath><clipPath id="clip12"><path d="M0,0 L1000,0 L1000,1000 L0,1000 Z" clip-rule="evenodd"></path></clipPath><clipPath id="clip13"><path d="M0,0 L11.227854729,0 L11.227854729,11.211240768 L0,11.211240768 Z" clip-rule="evenodd"></path></clipPath><clipPath id="clip14"><path d="M0,0 L1000,0 L1000,1000 L0,1000 Z" clip-rule="evenodd"></path></clipPath><clipPath id="clip2"><path d="M-1,-1 L507.5,-1 L507.5,93.5 L-1,93.5 Z" clip-rule="evenodd"></path></clipPath><clipPath id="clip3"><path d="M-1,-1 L254.25,-1 L254.25,48.5 L-1,48.5 Z" clip-rule="evenodd"></path></clipPath><clipPath id="clip4"><path d="M-1,-1 L254.25,-1 L254.25,48.5 L-1,48.5 Z" clip-rule="evenodd"></path></clipPath><clipPath id="clip5"><path d="M-1,-1 L507.5,-1 L507.5,304 L-1,304 Z" clip-rule="evenodd"></path></clipPath><clipPath id="clip6"><path d="M-1,-1 L507.5,-1 L507.5,74 L-1,74 Z" clip-rule="evenodd"></path></clipPath><clipPath id="clip7"><path d="M0,0 L11.227854729,0 L11.227854729,20.180202484 L0,20.180202484 Z" clip-rule="evenodd"></path></clipPath><clipPath id="clip8"><path d="M0,0 L1000,0 L1000,1000 L0,1000 Z" clip-rule="evenodd"></path></clipPath><clipPath id="clip9"><path d="M0,0 L11.227854729,0 L11.227854729,11.211240768 L0,11.211240768 Z" clip-rule="evenodd"></path></clipPath><style type="text/css">svg{background:white}</style></defs><g transform="scale(1.33333)"><g><path d="M0,0 L600,0 L600,450 L0,450 Z" fill="#ffffff" fill-rule="evenodd"></path><g transform="matrix(1,0,0,1,600,0)"><path d="M0,0 L600,0 L600,450 L0,450 Z" fill="#ffffff" fill-rule="evenodd"></path></g><g transform="matrix(1,0,0,1,0,450)"><path d="M0,0 L600,0 L600,450 L0,450 Z" fill="#ffffff" fill-rule="evenodd"></path></g><g transform="matrix(1,0,0,1,600,450)"><path d="M0,0 L600,0 L600,450 L0,450 Z" fill="#ffffff" fill-rule="evenodd"></path></g><g transform="matrix(1,0,0,1,18,30)"><g transform="matrix(1,0,0,1,57,0)"><text><tspan x="0" y="28.149999619" font-family="Verdana" font-weight="bold" font-style="normal" font-size="28" fill="#343b40">JESSICA </tspan><tspan x="0" y="62.179000854" font-family="Verdana" font-weight="bold" font-style="normal" font-size="28" fill="#343b40">CLAIRE</tspan></text></g><g transform="matrix(1,0,0,1,57,68.057998657)"><text><tspan x="0" y="11.68999958" font-family="Verdana" font-weight="normal" font-style="normal" font-size="11" fill="#343b40">resumesample@example.com | (555) 432-1000 San Francisco, CA 94105</tspan></text></g><g transform="matrix(1,0,0,1,0,102.057998657)"><g transform="matrix(1,0,0,1,57.5,0)" clip-path="url(#clip1)"><text><tspan x="0" y="17.690000534" font-family="Verdana" font-weight="bold" font-style="normal" font-size="11" fill="#343b40">PROFESSIONAL SUMMARY</tspan></text><g transform="matrix(1,0,0,1,0,25)"><text><tspan x="0" y="11.68999958" font-family="Verdana" font-weight="normal" font-style="normal" font-size="11" fill="#343b40">Highly motivated Sales Associate with extensive customer service and sales experience. </tspan><tspan x="0" y="25.689998627" font-family="Verdana" font-weight="normal" font-style="normal" font-size="11" fill="#343b40">Outgoing sales professional with track record of driving increased sales, improving buying </tspan><tspan x="0" y="39.689998627" font-family="Verdana" font-weight="normal" font-style="normal" font-size="11" fill="#343b40">experience and elevating company profile with target market.</tspan></text></g></g><path d="M37,0 L37,87 " stroke-width="1" stroke-miterlimit="10" stroke="#343b40" fill="none" fill-rule="evenodd"></path></g><g transform="matrix(1,0,0,1,0,189.057998657)"><g transform="matrix(1,0,0,1,57.5,0)" clip-path="url(#clip2)"><text><tspan x="0" y="17.690000534" font-family="Verdana" font-weight="bold" font-style="normal" font-size="11" fill="#343b40">SKILLS</tspan></text></g></g><g transform="matrix(1,0,0,1,57.5,214.057998657)"><g transform="matrix(1,0,0,1,0,0)" clip-path="url(#clip3)"><g transform="matrix(1,0,0,1,13.199999809,0.25)"><text><tspan x="-0.5" y="15.940000534" font-family="Symbol" font-weight="normal" font-style="normal" font-size="8.25" fill="#343b40">●</tspan><tspan x="20.049999237" y="16.690000534" font-family="Verdana" font-weight="normal" font-style="normal" font-size="11" fill="#343b40">Guest services</tspan></text></g><g transform="matrix(1,0,0,1,13.199999809,19.25)"><text><tspan x="-0.5" y="10.93999958" font-family="Symbol" font-weight="normal" font-style="normal" font-size="8.25" fill="#343b40">●</tspan><tspan x="20.049999237" y="11.68999958" font-family="Verdana" font-weight="normal" font-style="normal" font-size="11" fill="#343b40">Inventory control procedures</tspan></text></g><g transform="matrix(1,0,0,1,13.199999809,33.25)"><text><tspan x="-0.5" y="10.93999958" font-family="Symbol" font-weight="normal" font-style="normal" font-size="8.25" fill="#343b40">●</tspan><tspan x="20.049999237" y="11.68999958" font-family="Verdana" font-weight="normal" font-style="normal" font-size="11" fill="#343b40">Merchandising expertise</tspan></text></g></g><g transform="matrix(1,0,0,1,253.25,0)" clip-path="url(#clip4)"><g transform="matrix(1,0,0,1,13.199999809,0.25)"><text><tspan x="-0.5" y="15.940000534" font-family="Symbol" font-weight="normal" font-style="normal" font-size="8.25" fill="#343b40">●</tspan><tspan x="20.049999237" y="16.690000534" font-family="Verdana" font-weight="normal" font-style="normal" font-size="11" fill="#343b40">Loss prevention</tspan></text></g><g transform="matrix(1,0,0,1,13.199999809,19.25)"><text><tspan x="-0.5" y="10.93999958" font-family="Symbol" font-weight="normal" font-style="normal" font-size="8.25" fill="#343b40">●</tspan><tspan x="20.049999237" y="11.68999958" font-family="Verdana" font-weight="normal" font-style="normal" font-size="11" fill="#343b40">Cash register operations</tspan></text></g><g transform="matrix(1,0,0,1,13.199999809,33.25)"><text><tspan x="-0.5" y="10.93999958" font-family="Symbol" font-weight="normal" font-style="normal" font-size="8.25" fill="#343b40">●</tspan><tspan x="20.049999237" y="11.68999958" font-family="Verdana" font-weight="normal" font-style="normal" font-size="11" fill="#343b40">Product promotions</tspan></text></g></g></g><g transform="matrix(1,0,0,1,0,189.057998657)"><path d="M37,0 L37,92.5 " stroke-width="1" stroke-miterlimit="10" stroke="#343b40" fill="none" fill-rule="evenodd"></path></g><g transform="matrix(1,0,0,1,0,281.558013916)"><g transform="matrix(1,0,0,1,57.5,0)" clip-path="url(#clip5)"><text><tspan x="0" y="17.690000534" font-family="Verdana" font-weight="bold" font-style="normal" font-size="11" fill="#343b40">WORK HISTORY</tspan></text><g transform="matrix(1,0,0,1,0,25)"><text><tspan x="0" y="11.68999958" font-family="Verdana" font-weight="bold" font-style="normal" font-size="11" fill="#343b40">Senior Sales Associate</tspan><tspan x="139.04699707" y="11.68999958" font-family="Verdana" font-weight="normal" font-style="normal" font-size="11" fill="#343b40"> | Bed Bath &amp; Beyond, Inc. - San Francisco, CA </tspan><tspan x="399.071990967" y="25.689998627" font-family="Verdana" font-weight="normal" font-style="italic" font-size="11" fill="#343b40"> 03/2015 - Current </tspan></text></g><g transform="matrix(1,0,0,1,12.949999809,53)"><text><tspan x="-0.5" y="15.940000534" font-family="Symbol" font-weight="normal" font-style="normal" font-size="8.25" fill="#343b40">●</tspan><tspan x="20.049999237" y="16.690000534" font-family="Verdana" font-weight="normal" font-style="normal" font-size="11" fill="#343b40">Applied security and loss prevention training toward recognizing risks and reducing </tspan><tspan x="20.049999237" y="30.689998627" font-family="Verdana" font-weight="normal" font-style="normal" font-size="11" fill="#343b40">store theft</tspan></text></g><g transform="matrix(1,0,0,1,12.949999809,86)"><text><tspan x="-0.5" y="10.93999958" font-family="Symbol" font-weight="normal" font-style="normal" font-size="8.25" fill="#343b40">●</tspan><tspan x="20.049999237" y="11.68999958" font-family="Verdana" font-weight="normal" font-style="normal" font-size="11" fill="#343b40">Trained and developed sales team associates in products, selling techniques and </tspan><tspan x="20.049999237" y="25.689998627" font-family="Verdana" font-weight="normal" font-style="normal" font-size="11" fill="#343b40">procedures</tspan></text></g><g transform="matrix(1,0,0,1,12.949999809,114)"><text><tspan x="-0.5" y="10.93999958" font-family="Symbol" font-weight="normal" font-style="normal" font-size="8.25" fill="#343b40">●</tspan><tspan x="20.049999237" y="11.68999958" font-family="Verdana" font-weight="normal" font-style="normal" font-size="11" fill="#343b40">Maintained organized, presentable merchandise to drive continuous sales</tspan></text></g><g transform="matrix(1,0,0,1,12.949999809,128)"><text><tspan x="-0.5" y="10.93999958" font-family="Symbol" font-weight="normal" font-style="normal" font-size="8.25" fill="#343b40">●</tspan><tspan x="20.049999237" y="11.68999958" font-family="Verdana" font-weight="normal" font-style="normal" font-size="11" fill="#343b40">Implemented up-selling strategies for recommending accessories and </tspan><tspan x="20.049999237" y="25.689998627" font-family="Verdana" font-weight="normal" font-style="normal" font-size="11" fill="#343b40">complementary purchases</tspan></text></g><g transform="matrix(1,0,0,1,0,156)"><text><tspan x="0" y="21.690000534" font-family="Verdana" font-weight="bold" font-style="normal" font-size="11" fill="#343b40">Sales Associate</tspan><tspan x="95.552001953" y="21.690000534" font-family="Verdana" font-weight="normal" font-style="normal" font-size="11" fill="#343b40"> | Target - San Francisco, CA </tspan><tspan x="393.997009277" y="21.690000534" font-family="Verdana" font-weight="normal" font-style="italic" font-size="11" fill="#343b40"> 06/2013 - 03/2015 </tspan></text></g><g transform="matrix(1,0,0,1,12.949999809,180)"><text><tspan x="-0.5" y="15.940000534" font-family="Symbol" font-weight="normal" font-style="normal" font-size="8.25" fill="#343b40">●</tspan><tspan x="20.049999237" y="16.690000534" font-family="Verdana" font-weight="normal" font-style="normal" font-size="11" fill="#343b40">Maintained organized, presentable merchandise to drive continuous sales</tspan></text></g><g transform="matrix(1,0,0,1,12.949999809,199)"><text><tspan x="-0.5" y="10.93999958" font-family="Symbol" font-weight="normal" font-style="normal" font-size="8.25" fill="#343b40">●</tspan><tspan x="20.049999237" y="11.68999958" font-family="Verdana" font-weight="normal" font-style="normal" font-size="11" fill="#343b40">Organized racks and shelves to maintain store visual appeal, engage customers and </tspan><tspan x="20.049999237" y="25.689998627" font-family="Verdana" font-weight="normal" font-style="normal" font-size="11" fill="#343b40">promote merchandise</tspan></text></g><g transform="matrix(1,0,0,1,12.949999809,227)"><text><tspan x="-0.5" y="10.93999958" font-family="Symbol" font-weight="normal" font-style="normal" font-size="8.25" fill="#343b40">●</tspan><tspan x="20.049999237" y="11.68999958" font-family="Verdana" font-weight="normal" font-style="normal" font-size="11" fill="#343b40">Evaluated inventory and delivery needs, optimizing strategies to meet customer </tspan><tspan x="20.049999237" y="25.689998627" font-family="Verdana" font-weight="normal" font-style="normal" font-size="11" fill="#343b40">demands</tspan></text></g><g transform="matrix(1,0,0,1,12.949999809,255)"><text><tspan x="-0.5" y="10.93999958" font-family="Symbol" font-weight="normal" font-style="normal" font-size="8.25" fill="#343b40">●</tspan><tspan x="20.049999237" y="11.68999958" font-family="Verdana" font-weight="normal" font-style="normal" font-size="11" fill="#343b40">Analyzed and processed returns, assisting customers with finding alternative </tspan><tspan x="20.049999237" y="25.689998627" font-family="Verdana" font-weight="normal" font-style="normal" font-size="11" fill="#343b40">merchandise to meet needs</tspan></text></g></g><path d="M37,0 L37,303 " stroke-width="1" stroke-miterlimit="10" stroke="#343b40" fill="none" fill-rule="evenodd"></path></g><g transform="matrix(1,0,0,1,0,584.557983398)"><g transform="matrix(1,0,0,1,57.5,0)" clip-path="url(#clip6)"><text><tspan x="0" y="17.690000534" font-family="Verdana" font-weight="bold" font-style="normal" font-size="11" fill="#343b40">EDUCATION</tspan></text><g transform="matrix(1,0,0,1,0,25)"><text><tspan x="0" y="11.68999958" font-family="Verdana" font-weight="normal" font-style="normal" font-size="11" fill="#343b40">San Francisco State University - San Francisco, CA </tspan><tspan x="472.661010742" y="11.68999958" font-family="Verdana" font-weight="normal" font-style="italic" font-size="11" fill="#343b40"> 2013 </tspan></text></g><g transform="matrix(1,0,0,1,0,39)"><text><tspan x="0" y="11.68999958" font-family="Verdana" font-weight="bold" font-style="normal" font-size="11" fill="#343b40">Bachelor of Arts</tspan><tspan x="99.382003784" y="11.68999958" font-family="Verdana" font-weight="normal" font-style="normal" font-size="11" fill="#343b40">: Business Administration</tspan></text></g></g><path d="M37,0 L37,73 " stroke-width="1" stroke-miterlimit="10" stroke="#343b40" fill="none" fill-rule="evenodd"></path></g></g><g transform="matrix(1,0,0,1,49,132.058013916)"><g clip-path="url(#clip7)"><g transform="matrix(0.011227855,0,0,0.020180203,0,0)" clip-path="url(#clip8)"><g><path d="M0.000030518,0 L1000,0 L1000,1000 L0.000030518,1000 Z" transform="matrix(1,0,0,1,0,0)" fill="#ffffff" fill-rule="evenodd"></path><path d="M888.888916016,691.358032227 C888.888916016,813.26550293 708.322387695,913.58026123 488.888885498,913.58026123 L488.888885498,913.58026123 L488.888885498,913.58026123 L488.888885498,913.58026123 C269.455413818,913.58026123 88.888916016,813.26550293 88.888916016,691.358032227 L88.888916016,691.358032227 L88.888916016,691.358032227 L88.888916016,691.358032227 C88.888916016,569.450561523 269.455413818,469.135803223 488.888885498,469.135803223 L488.888885498,469.135803223 L488.888885498,469.135803223 L488.888885498,469.135803223 C708.322387695,469.135803223 888.888916016,569.450561523 888.888916016,691.358032227 " transform="matrix(1,0,0,1,0,0)" fill="#ffffff" fill-rule="evenodd"></path><path d="M493.827209473,691.358032227 C493.827209473,813.26550293 393.512481689,913.58026123 271.604980469,913.58026123 L271.604980469,913.58026123 L271.604980469,913.58026123 L271.604980469,913.58026123 C149.69744873,913.58026123 49.382732391,813.26550293 49.382732391,691.358032227 L49.382732391,691.358032227 L49.382732391,691.358032227 L49.382732391,691.358032227 C49.382732391,569.450561523 149.69744873,469.135803223 271.604980469,469.135803223 L271.604980469,469.135803223 L271.604980469,469.135803223 L271.604980469,469.135803223 C393.512481689,469.135803223 493.827209473,569.450561523 493.827209473,691.358032227 " transform="matrix(1.799999833,0,0,1,0,0)" stroke-width="49.382717133" stroke-miterlimit="10" stroke="#343b40" fill="none" fill-rule="evenodd"></path></g></g></g></g><g transform="matrix(1,0,0,1,49,228.057998657)"><g clip-path="url(#clip9)"><g transform="matrix(0.011227855,0,0,0.011211241,0,0)" clip-path="url(#clip10)"><g><path d="M0.000030518,0.000030518 L1000,0.000030518 L1000,1000 L0.000030518,1000 Z" transform="matrix(1,0,0,1,0,0)" fill="#ffffff" fill-rule="evenodd"></path><path d="M888.888916016,488.888885498 C888.888916016,708.322387695 708.322387695,888.888916016 488.888885498,888.888916016 L488.888885498,888.888916016 L488.888885498,888.888916016 L488.888885498,888.888916016 C269.455413818,888.888916016 88.888916016,708.322387695 88.888916016,488.888885498 L88.888916016,488.888885498 L88.888916016,488.888885498 L88.888916016,488.888885498 C88.888916016,269.455413818 269.455413818,88.888916016 488.888885498,88.888916016 L488.888885498,88.888916016 L488.888885498,88.888916016 L488.888885498,88.888916016 C708.322387695,88.888916016 888.888916016,269.455413818 888.888916016,488.888885498 " transform="matrix(1,0,0,1,0,0)" fill="#ffffff" fill-rule="evenodd"></path><path d="M888.888916016,488.888885498 C888.888916016,708.322387695 708.322387695,888.888916016 488.888885498,888.888916016 L488.888885498,888.888916016 L488.888885498,888.888916016 L488.888885498,888.888916016 C269.455413818,888.888916016 88.888916016,708.322387695 88.888916016,488.888885498 L88.888916016,488.888885498 L88.888916016,488.888885498 L88.888916016,488.888885498 C88.888916016,269.455413818 269.455413818,88.888916016 488.888885498,88.888916016 L488.888885498,88.888916016 L488.888885498,88.888916016 L488.888885498,88.888916016 C708.322387695,88.888916016 888.888916016,269.455413818 888.888916016,488.888885498 " transform="matrix(1,0,0,1,0,0)" stroke-width="88.888885498" stroke-miterlimit="10" stroke="#343b40" fill="none" fill-rule="evenodd"></path></g></g></g></g><g transform="matrix(1,0,0,1,49,320.558013916)"><g clip-path="url(#clip11)"><g transform="matrix(0.011227855,0,0,0.011211241,0,0)" clip-path="url(#clip12)"><g><path d="M0.000030518,0.000030518 L1000,0.000030518 L1000,1000 L0.000030518,1000 Z" transform="matrix(1,0,0,1,0,0)" fill="#ffffff" fill-rule="evenodd"></path><path d="M888.888916016,488.888885498 C888.888916016,708.322387695 708.322387695,888.888916016 488.888885498,888.888916016 L488.888885498,888.888916016 L488.888885498,888.888916016 L488.888885498,888.888916016 C269.455413818,888.888916016 88.888916016,708.322387695 88.888916016,488.888885498 L88.888916016,488.888885498 L88.888916016,488.888885498 L88.888916016,488.888885498 C88.888916016,269.455413818 269.455413818,88.888916016 488.888885498,88.888916016 L488.888885498,88.888916016 L488.888885498,88.888916016 L488.888885498,88.888916016 C708.322387695,88.888916016 888.888916016,269.455413818 888.888916016,488.888885498 " transform="matrix(1,0,0,1,0,0)" fill="#ffffff" fill-rule="evenodd"></path><path d="M888.888916016,488.888885498 C888.888916016,708.322387695 708.322387695,888.888916016 488.888885498,888.888916016 L488.888885498,888.888916016 L488.888885498,888.888916016 L488.888885498,888.888916016 C269.455413818,888.888916016 88.888916016,708.322387695 88.888916016,488.888885498 L88.888916016,488.888885498 L88.888916016,488.888885498 L88.888916016,488.888885498 C88.888916016,269.455413818 269.455413818,88.888916016 488.888885498,88.888916016 L488.888885498,88.888916016 L488.888885498,88.888916016 L488.888885498,88.888916016 C708.322387695,88.888916016 888.888916016,269.455413818 888.888916016,488.888885498 " transform="matrix(1,0,0,1,0,0)" stroke-width="88.888885498" stroke-miterlimit="10" stroke="#343b40" fill="none" fill-rule="evenodd"></path></g></g></g></g><g transform="matrix(1,0,0,1,49,623.557983398)"><g clip-path="url(#clip13)"><g transform="matrix(0.011227855,0,0,0.011211241,0,0)" clip-path="url(#clip14)"><g><path d="M0.000030518,0.000030518 L1000,0.000030518 L1000,1000 L0.000030518,1000 Z" transform="matrix(1,0,0,1,0,0)" fill="#ffffff" fill-rule="evenodd"></path><path d="M888.888916016,488.888885498 C888.888916016,708.322387695 708.322387695,888.888916016 488.888885498,888.888916016 L488.888885498,888.888916016 L488.888885498,888.888916016 L488.888885498,888.888916016 C269.455413818,888.888916016 88.888916016,708.322387695 88.888916016,488.888885498 L88.888916016,488.888885498 L88.888916016,488.888885498 L88.888916016,488.888885498 C88.888916016,269.455413818 269.455413818,88.888916016 488.888885498,88.888916016 L488.888885498,88.888916016 L488.888885498,88.888916016 L488.888885498,88.888916016 C708.322387695,88.888916016 888.888916016,269.455413818 888.888916016,488.888885498 " transform="matrix(1,0,0,1,0,0)" fill="#ffffff" fill-rule="evenodd"></path><path d="M888.888916016,488.888885498 C888.888916016,708.322387695 708.322387695,888.888916016 488.888885498,888.888916016 L488.888885498,888.888916016 L488.888885498,888.888916016 L488.888885498,888.888916016 C269.455413818,888.888916016 88.888916016,708.322387695 88.888916016,488.888885498 L88.888916016,488.888885498 L88.888916016,488.888885498 L88.888916016,488.888885498 C88.888916016,269.455413818 269.455413818,88.888916016 488.888885498,88.888916016 L488.888885498,88.888916016 L488.888885498,88.888916016 L488.888885498,88.888916016 C708.322387695,88.888916016 888.888916016,269.455413818 888.888916016,488.888885498 " transform="matrix(1,0,0,1,0,0)" stroke-width="88.888885498" stroke-miterlimit="10" stroke="#343b40" fill="none" fill-rule="evenodd"></path></g></g></g></g></g></g></svg>