<?xml version="1.0" encoding="utf-8" standalone="yes"?><svg xmlns="http://www.w3.org/2000/svg" xmlns:xlink="http://www.w3.org/1999/xlink" version="1.1" width="816" height="1056"><!--Generated by Aspose.Words for .NET 18.5--><defs><clipPath id="clip1"><path d="M-1,-1 L141,-1 L141,87.097000122 L-1,87.097000122 Z" clip-rule="evenodd"></path></clipPath><clipPath id="clip10"><path d="M-1,-1 L141,-1 L141,314 L-1,314 Z" clip-rule="evenodd"></path></clipPath><clipPath id="clip11"><path d="M-1,-1 L394.5,-1 L394.5,160 L-1,160 Z" clip-rule="evenodd"></path></clipPath><clipPath id="clip12"><path d="M-1,-1 L394.5,-1 L394.5,155 L-1,155 Z" clip-rule="evenodd"></path></clipPath><clipPath id="clip13"><path d="M-1,-1 L141,-1 L141,48 L-1,48 Z" clip-rule="evenodd"></path></clipPath><clipPath id="clip14"><path d="M-1,-1 L394.5,-1 L394.5,48 L-1,48 Z" clip-rule="evenodd"></path></clipPath><clipPath id="clip15"><path d="M0,0 L11.227854729,0 L11.227854729,29.896640778 L0,29.896640778 Z" clip-rule="evenodd"></path></clipPath><clipPath id="clip16"><path d="M0,0 L1000,0 L1000,1000 L0,1000 Z" clip-rule="evenodd"></path></clipPath><clipPath id="clip17"><path d="M0,0 L11.227854729,0 L11.227854729,11.211240768 L0,11.211240768 Z" clip-rule="evenodd"></path></clipPath><clipPath id="clip18"><path d="M0,0 L1000,0 L1000,1000 L0,1000 Z" clip-rule="evenodd"></path></clipPath><clipPath id="clip19"><path d="M0,0 L11.227854729,0 L11.227854729,11.211240768 L0,11.211240768 Z" clip-rule="evenodd"></path></clipPath><clipPath id="clip2"><path d="M0,0 L139.973846436,0 L139.973846436,53.813983917 L0,53.813983917 Z" clip-rule="evenodd"></path></clipPath><clipPath id="clip20"><path d="M0,0 L1000,0 L1000,1000 L0,1000 Z" clip-rule="evenodd"></path></clipPath><clipPath id="clip21"><path d="M0,0 L11.227854729,0 L11.227854729,11.211240768 L0,11.211240768 Z" clip-rule="evenodd"></path></clipPath><clipPath id="clip22"><path d="M0,0 L1000,0 L1000,1000 L0,1000 Z" clip-rule="evenodd"></path></clipPath><clipPath id="clip23"><path d="M0,0 L11.227854729,0 L11.227854729,11.211240768 L0,11.211240768 Z" clip-rule="evenodd"></path></clipPath><clipPath id="clip24"><path d="M0,0 L1000,0 L1000,1000 L0,1000 Z" clip-rule="evenodd"></path></clipPath><clipPath id="clip3"><path d="M0,0 L1000,0 L1000,1000 L0,1000 Z" clip-rule="evenodd"></path></clipPath><clipPath id="clip4"><path d="M-1,-1 L409,-1 L409,87.097000122 L-1,87.097000122 Z" clip-rule="evenodd"></path></clipPath><clipPath id="clip5"><path d="M-1,-1 L141,-1 L141,80 L-1,80 Z" clip-rule="evenodd"></path></clipPath><clipPath id="clip6"><path d="M-1,-1 L394.5,-1 L394.5,80 L-1,80 Z" clip-rule="evenodd"></path></clipPath><clipPath id="clip7"><path d="M-1,-1 L141,-1 L141,64.5 L-1,64.5 Z" clip-rule="evenodd"></path></clipPath><clipPath id="clip8"><path d="M-1,-1 L197.5,-1 L197.5,49.5 L-1,49.5 Z" clip-rule="evenodd"></path></clipPath><clipPath id="clip9"><path d="M-1,-1 L197.5,-1 L197.5,49.5 L-1,49.5 Z" clip-rule="evenodd"></path></clipPath><style type="text/css">svg{background:white}</style></defs><g transform="scale(1.33333)"><g><path d="M0,0 L600,0 L600,450 L0,450 Z" fill="#ffffff" fill-rule="evenodd"></path><g transform="matrix(1,0,0,1,600,0)"><path d="M0,0 L600,0 L600,450 L0,450 Z" fill="#ffffff" fill-rule="evenodd"></path></g><g transform="matrix(1,0,0,1,0,450)"><path d="M0,0 L600,0 L600,450 L0,450 Z" fill="#ffffff" fill-rule="evenodd"></path></g><g transform="matrix(1,0,0,1,600,450)"><path d="M0,0 L600,0 L600,450 L0,450 Z" fill="#ffffff" fill-rule="evenodd"></path></g><g transform="matrix(1,0,0,1,32,32)"><g transform="matrix(1,0,0,1,0,0)" clip-path="url(#clip1)"><g clip-path="url(#clip2)"><g transform="matrix(0.139973849,0,0,0.053813983,0,0)" clip-path="url(#clip3)"><g><path d="M-0.000030518,0 L1000,0 L1000,1000 L-0.000030518,1000 Z" transform="matrix(1,0,0,1,0,0)" fill="#ffffff" fill-rule="evenodd"></path><path d="M919.786132813,462.963012695 C919.786132813,706.778076172 842.538330078,907.407470703 748.663085938,907.407470703 L748.663085938,907.407470703 L748.663085938,907.407470703 L748.663085938,907.407470703 C654.787841797,907.407470703 577.540039063,706.778076172 577.540039063,462.963012695 L577.540039063,462.963012695 L577.540039063,462.963012695 L577.540039063,462.963012695 C577.540039063,219.147964478 654.787841797,18.518520355 748.663085938,18.518520355 L748.663085938,18.518520355 L748.663085938,18.518520355 L748.663085938,18.518520355 C842.538330078,18.518520355 919.786132813,219.147964478 919.786132813,462.963012695 " transform="matrix(1,0,0,1,0,0)" fill="#ffffff" fill-rule="evenodd"></path><path d="M919.786132813,178.253128052 C919.786132813,272.128448486 842.538330078,349.37612915 748.663085938,349.37612915 L748.663085938,349.37612915 L748.663085938,349.37612915 L748.663085938,349.37612915 C654.787841797,349.37612915 577.540039063,272.128448486 577.540039063,178.253128052 L577.540039063,178.253128052 L577.540039063,178.253128052 L577.540039063,178.253128052 C577.540039063,84.377822876 654.787841797,7.130125046 748.663085938,7.130125046 L748.663085938,7.130125046 L748.663085938,7.130125046 L748.663085938,7.130125046 C842.538330078,7.130125046 919.786132813,84.377822876 919.786132813,178.253128052 " transform="matrix(1,0,0,2.597222328,0,0)" stroke-width="5.347593784" stroke-miterlimit="10" stroke="#0187de" fill="none" fill-rule="evenodd"></path><text transform="matrix(1,0,0,2.597222328,0,0)"><tspan x="639.735473633" y="235.2940979" font-family="Arial" font-weight="normal" font-style="normal" font-size="178.253112793" fill="#000000">JC</tspan></text></g></g></g></g><g transform="matrix(1,0,0,1,140,0)" clip-path="url(#clip4)"><text><tspan x="0" y="31.892000198" font-family="Arial" font-weight="normal" font-style="normal" font-size="34" fill="#0187de">Jessica Claire</tspan></text><g transform="matrix(1,0,0,1,0,39.097000122)"><text><tspan x="0" y="13.668999672" font-family="Arial" font-weight="normal" font-style="normal" font-size="11" fill="#4a4a4a">(555) 432-1000 | </tspan><tspan x="84.191001892" y="13.668999672" font-family="Arial" font-weight="bold" font-style="normal" font-size="11" fill="#4a4a4a">E: </tspan><tspan x="98.247001648" y="13.668999672" font-family="Arial" font-weight="normal" font-style="normal" font-size="11" fill="#4a4a4a">resumesample@example.com</tspan></text></g><g transform="matrix(1,0,0,1,0,55.097000122)"><text><tspan x="0" y="13.668999672" font-family="Arial" font-weight="normal" font-style="normal" font-size="11" fill="#4a4a4a">San Francisco, CA 94105</tspan></text></g></g><g transform="matrix(1,0,0,1,0,86.097000122)"><g transform="matrix(1,0,0,1,0,0)" clip-path="url(#clip5)"><text><tspan x="38.214000702" y="28.669000626" font-family="Arial" font-weight="bold" font-style="normal" font-size="11" fill="#0187de">PROFESSIONAL </tspan><tspan x="68.167999268" y="44.668998718" font-family="Arial" font-weight="bold" font-style="normal" font-size="11" fill="#0187de">SUMMARY</tspan></text></g></g><g transform="matrix(1,0,0,1,140.5,86.097000122)"><g transform="matrix(1,0,0,1,14,0)" clip-path="url(#clip6)"><g transform="matrix(1,0,0,1,0,15)"><text><tspan x="0" y="13.668999672" font-family="Arial" font-weight="normal" font-style="normal" font-size="11" fill="#231f20">Highly motivated Sales Associate with extensive customer service and sales </tspan><tspan x="0" y="29.668998718" font-family="Arial" font-weight="normal" font-style="normal" font-size="11" fill="#231f20">experience. Outgoing sales professional with track record of driving increased </tspan><tspan x="0" y="45.668998718" font-family="Arial" font-weight="normal" font-style="normal" font-size="11" fill="#231f20">sales, improving buying experience and elevating company profile with target </tspan><tspan x="0" y="61.668998718" font-family="Arial" font-weight="normal" font-style="normal" font-size="11" fill="#231f20">market.</tspan></text></g></g></g><g transform="matrix(1,0,0,1,0,86.097000122)"><path d="M140,0 L140,79 " stroke-width="1" stroke-miterlimit="10" stroke="#979797" fill="none" fill-rule="evenodd"></path></g><g transform="matrix(1,0,0,1,0,165.097000122)"><g transform="matrix(1,0,0,1,0,0)" clip-path="url(#clip7)"><text><tspan x="85.888000488" y="28.669000626" font-family="Arial" font-weight="bold" font-style="normal" font-size="11" fill="#0187de">SKILLS</tspan></text></g></g><g transform="matrix(1,0,0,1,154.5,180.097000122)"><g transform="matrix(1,0,0,1,0,0)" clip-path="url(#clip8)"><g transform="matrix(1,0,0,1,8.199999809,0.25)"><text><tspan x="-0.5" y="12.918999672" font-family="Symbol" font-weight="normal" font-style="normal" font-size="8.25" fill="#231f20">●</tspan><tspan x="18.049999237" y="13.668999672" font-family="Arial" font-weight="normal" font-style="normal" font-size="11" fill="#231f20">Guest services</tspan></text></g><g transform="matrix(1,0,0,1,8.199999809,16.25)"><text><tspan x="-0.5" y="12.918999672" font-family="Symbol" font-weight="normal" font-style="normal" font-size="8.25" fill="#231f20">●</tspan><tspan x="18.049999237" y="13.668999672" font-family="Arial" font-weight="normal" font-style="normal" font-size="11" fill="#231f20">Inventory control procedures</tspan></text></g><g transform="matrix(1,0,0,1,8.199999809,32.25)"><text><tspan x="-0.5" y="12.918999672" font-family="Symbol" font-weight="normal" font-style="normal" font-size="8.25" fill="#231f20">●</tspan><tspan x="18.049999237" y="13.668999672" font-family="Arial" font-weight="normal" font-style="normal" font-size="11" fill="#231f20">Merchandising expertise</tspan></text></g></g><g transform="matrix(1,0,0,1,196.5,0)" clip-path="url(#clip9)"><g transform="matrix(1,0,0,1,8.199999809,0.25)"><text><tspan x="-0.5" y="12.918999672" font-family="Symbol" font-weight="normal" font-style="normal" font-size="8.25" fill="#231f20">●</tspan><tspan x="18.049999237" y="13.668999672" font-family="Arial" font-weight="normal" font-style="normal" font-size="11" fill="#231f20">Loss prevention</tspan></text></g><g transform="matrix(1,0,0,1,8.199999809,16.25)"><text><tspan x="-0.5" y="12.918999672" font-family="Symbol" font-weight="normal" font-style="normal" font-size="8.25" fill="#231f20">●</tspan><tspan x="18.049999237" y="13.668999672" font-family="Arial" font-weight="normal" font-style="normal" font-size="11" fill="#231f20">Cash register operations</tspan></text></g><g transform="matrix(1,0,0,1,8.199999809,32.25)"><text><tspan x="-0.5" y="12.918999672" font-family="Symbol" font-weight="normal" font-style="normal" font-size="8.25" fill="#231f20">●</tspan><tspan x="18.049999237" y="13.668999672" font-family="Arial" font-weight="normal" font-style="normal" font-size="11" fill="#231f20">Product promotions</tspan></text></g></g></g><g transform="matrix(1,0,0,1,0,165.097000122)"><path d="M140,0 L140,63.5 " stroke-width="1" stroke-miterlimit="10" stroke="#979797" fill="none" fill-rule="evenodd"></path></g><g transform="matrix(1,0,0,1,0,228.597000122)"><g transform="matrix(1,0,0,1,0,0)" clip-path="url(#clip10)"><text><tspan x="38.224998474" y="28.669000626" font-family="Arial" font-weight="bold" font-style="normal" font-size="11" fill="#0187de">WORK HISTORY</tspan></text></g></g><g transform="matrix(1,0,0,1,140.5,228.597000122)"><g transform="matrix(1,0,0,1,14,0)" clip-path="url(#clip11)"><g transform="matrix(1,0,0,1,0,15)"><text><tspan x="0" y="13.668999672" font-family="Arial" font-weight="bold" font-style="normal" font-size="11" fill="#0187de">SENIOR SALES ASSOCIATE</tspan><tspan x="149.134002686" y="13.668999672" font-family="Arial" font-weight="normal" font-style="normal" font-size="11" fill="#231f20"> </tspan><tspan x="279.121002197" y="13.668999672" font-family="Arial" font-weight="normal" font-style="italic" font-size="11" fill="#231f20"> </tspan><tspan x="282.177001953" y="13.668999672" font-family="Arial" font-weight="normal" font-style="italic" font-size="11" fill="#231f20">03/2015</tspan><tspan x="321.938995361" y="13.668999672" font-family="Arial" font-weight="normal" font-style="italic" font-size="11" fill="#231f20"> to </tspan><tspan x="337.225006104" y="13.668999672" font-family="Arial" font-weight="normal" font-style="italic" font-size="11" fill="#231f20">CURRENT</tspan><tspan x="391" y="13.668999672" font-family="Arial" font-weight="normal" font-style="italic" font-size="11" fill="#231f20"> </tspan></text></g><g transform="matrix(1,0,0,1,0,31)"><text><tspan x="0" y="13.668999672" font-family="Arial" font-weight="bold" font-style="normal" font-size="11" fill="#231f20">Bed Bath &amp; Beyond, Inc. | San Francisco, CA</tspan></text></g><g transform="matrix(1,0,0,1,7.949999809,47)"><text><tspan x="-0.5" y="12.918999672" font-family="Symbol" font-weight="normal" font-style="normal" font-size="8.25" fill="#231f20">●</tspan><tspan x="18.049999237" y="13.668999672" font-family="Arial" font-weight="normal" font-style="normal" font-size="11" fill="#231f20">Applied security and loss prevention training toward recognizing risks and </tspan><tspan x="18.049999237" y="29.668998718" font-family="Arial" font-weight="normal" font-style="normal" font-size="11" fill="#231f20">reducing store theft</tspan></text></g><g transform="matrix(1,0,0,1,7.949999809,79)"><text><tspan x="-0.5" y="12.918999672" font-family="Symbol" font-weight="normal" font-style="normal" font-size="8.25" fill="#231f20">●</tspan><tspan x="18.049999237" y="13.668999672" font-family="Arial" font-weight="normal" font-style="normal" font-size="11" fill="#231f20">Trained and developed sales team associates in products, selling </tspan><tspan x="18.049999237" y="29.668998718" font-family="Arial" font-weight="normal" font-style="normal" font-size="11" fill="#231f20">techniques and procedures</tspan></text></g><g transform="matrix(1,0,0,1,7.949999809,111)"><text><tspan x="-0.5" y="12.918999672" font-family="Symbol" font-weight="normal" font-style="normal" font-size="8.25" fill="#231f20">●</tspan><tspan x="18.049999237" y="13.668999672" font-family="Arial" font-weight="normal" font-style="normal" font-size="11" fill="#231f20">Maintained organized, presentable merchandise to drive continuous sales</tspan></text></g><g transform="matrix(1,0,0,1,7.949999809,127)"><text><tspan x="-0.5" y="12.918999672" font-family="Symbol" font-weight="normal" font-style="normal" font-size="8.25" fill="#231f20">●</tspan><tspan x="18.049999237" y="13.668999672" font-family="Arial" font-weight="normal" font-style="normal" font-size="11" fill="#231f20">Implemented up-selling strategies for recommending accessories and </tspan><tspan x="18.049999237" y="29.668998718" font-family="Arial" font-weight="normal" font-style="normal" font-size="11" fill="#231f20">complementary purchases</tspan></text></g></g></g><g transform="matrix(1,0,0,1,140.5,387.596984863)"><g transform="matrix(1,0,0,1,14,0)" clip-path="url(#clip12)"><g transform="matrix(1,0,0,1,0,10)"><text><tspan x="0" y="13.668999672" font-family="Arial" font-weight="bold" font-style="normal" font-size="11" fill="#0187de">SALES ASSOCIATE</tspan><tspan x="103.903999329" y="13.668999672" font-family="Arial" font-weight="normal" font-style="normal" font-size="11" fill="#231f20"> </tspan><tspan x="293.134002686" y="13.668999672" font-family="Arial" font-weight="normal" font-style="italic" font-size="11" fill="#231f20"> </tspan><tspan x="296.190002441" y="13.668999672" font-family="Arial" font-weight="normal" font-style="italic" font-size="11" fill="#231f20">06/2013</tspan><tspan x="335.95199585" y="13.668999672" font-family="Arial" font-weight="normal" font-style="italic" font-size="11" fill="#231f20"> to </tspan><tspan x="351.238006592" y="13.668999672" font-family="Arial" font-weight="normal" font-style="italic" font-size="11" fill="#231f20">03/2015</tspan><tspan x="391" y="13.668999672" font-family="Arial" font-weight="normal" font-style="italic" font-size="11" fill="#231f20"> </tspan></text></g><g transform="matrix(1,0,0,1,0,26)"><text><tspan x="0" y="13.668999672" font-family="Arial" font-weight="bold" font-style="normal" font-size="11" fill="#231f20">Target | San Francisco, CA</tspan></text></g><g transform="matrix(1,0,0,1,7.949999809,42)"><text><tspan x="-0.5" y="12.918999672" font-family="Symbol" font-weight="normal" font-style="normal" font-size="8.25" fill="#231f20">●</tspan><tspan x="18.049999237" y="13.668999672" font-family="Arial" font-weight="normal" font-style="normal" font-size="11" fill="#231f20">Maintained organized, presentable merchandise to drive continuous sales</tspan></text></g><g transform="matrix(1,0,0,1,7.949999809,58)"><text><tspan x="-0.5" y="12.918999672" font-family="Symbol" font-weight="normal" font-style="normal" font-size="8.25" fill="#231f20">●</tspan><tspan x="18.049999237" y="13.668999672" font-family="Arial" font-weight="normal" font-style="normal" font-size="11" fill="#231f20">Organized racks and shelves to maintain store visual appeal, engage </tspan><tspan x="18.049999237" y="29.668998718" font-family="Arial" font-weight="normal" font-style="normal" font-size="11" fill="#231f20">customers and promote merchandise</tspan></text></g><g transform="matrix(1,0,0,1,7.949999809,90)"><text><tspan x="-0.5" y="12.918999672" font-family="Symbol" font-weight="normal" font-style="normal" font-size="8.25" fill="#231f20">●</tspan><tspan x="18.049999237" y="13.668999672" font-family="Arial" font-weight="normal" font-style="normal" font-size="11" fill="#231f20">Evaluated inventory and delivery needs, optimizing strategies to meet </tspan><tspan x="18.049999237" y="29.668998718" font-family="Arial" font-weight="normal" font-style="normal" font-size="11" fill="#231f20">customer demands</tspan></text></g><g transform="matrix(1,0,0,1,7.949999809,122)"><text><tspan x="-0.5" y="12.918999672" font-family="Symbol" font-weight="normal" font-style="normal" font-size="8.25" fill="#231f20">●</tspan><tspan x="18.049999237" y="13.668999672" font-family="Arial" font-weight="normal" font-style="normal" font-size="11" fill="#231f20">Analyzed and processed returns, assisting customers with finding </tspan><tspan x="18.049999237" y="29.668998718" font-family="Arial" font-weight="normal" font-style="normal" font-size="11" fill="#231f20">alternative merchandise to meet needs</tspan></text></g></g></g><g transform="matrix(1,0,0,1,0,228.597000122)"><path d="M140,0 L140,313 " stroke-width="1" stroke-miterlimit="10" stroke="#979797" fill="none" fill-rule="evenodd"></path></g><g transform="matrix(1,0,0,1,0,541.596984863)"><g transform="matrix(1,0,0,1,0,0)" clip-path="url(#clip13)"><text><tspan x="59.611999512" y="28.669000626" font-family="Arial" font-weight="bold" font-style="normal" font-size="11" fill="#0187de">EDUCATION</tspan></text></g></g><g transform="matrix(1,0,0,1,140.5,541.596984863)"><g transform="matrix(1,0,0,1,14,0)" clip-path="url(#clip14)"><g transform="matrix(1,0,0,1,0,15)"><text><tspan x="0" y="13.668999672" font-family="Arial" font-weight="bold" font-style="normal" font-size="11" fill="#231f20">Bachelor of Arts</tspan><tspan x="85.570999146" y="13.668999672" font-family="Arial" font-weight="normal" font-style="normal" font-size="11" fill="#231f20"> | Business Administration </tspan><tspan x="366.528991699" y="13.668999672" font-family="Arial" font-weight="normal" font-style="italic" font-size="11" fill="#231f20">2013 </tspan></text></g><g transform="matrix(1,0,0,1,0,31)"><text><tspan x="0" y="13.668999672" font-family="Arial" font-weight="bold" font-style="normal" font-size="11" fill="#231f20">San Francisco State University, San Francisco, CA</tspan></text></g></g></g><g transform="matrix(1,0,0,1,0,541.596984863)"><path d="M140,0 L140,47 " stroke-width="1" stroke-miterlimit="10" stroke="#979797" fill="none" fill-rule="evenodd"></path></g></g><g transform="matrix(1,0,0,1,166.5,118.097000122)"><g clip-path="url(#clip15)"><g transform="matrix(0.011227855,0,0,0.029896641,0,0)" clip-path="url(#clip16)"><g><path d="M0.000030518,0 L1000,0 L1000,1000 L0.000030518,1000 Z" transform="matrix(1,0,0,1,0,0)" fill="#ffffff" fill-rule="evenodd"></path><path d="M888.888916016,833.333374023 C888.888916016,915.620910645 708.322387695,983.333435059 488.888885498,983.333435059 L488.888885498,983.333435059 L488.888885498,983.333435059 L488.888885498,983.333435059 C269.455413818,983.333435059 88.888916016,915.620910645 88.888916016,833.333374023 L88.888916016,833.333374023 L88.888916016,833.333374023 L88.888916016,833.333374023 C88.888916016,751.045837402 269.455413818,683.333374023 488.888885498,683.333374023 L488.888885498,683.333374023 L488.888885498,683.333374023 L488.888885498,683.333374023 C708.322387695,683.333374023 888.888916016,751.045837402 888.888916016,833.333374023 " transform="matrix(1,0,0,1,0,0)" fill="#ffffff" fill-rule="evenodd"></path><path d="M333.333374023,833.333374023 C333.333374023,915.620910645 265.620910645,983.333435059 183.333358765,983.333435059 L183.333358765,983.333435059 L183.333358765,983.333435059 L183.333358765,983.333435059 C101.045791626,983.333435059 33.333347321,915.620910645 33.333347321,833.333374023 L33.333347321,833.333374023 L33.333347321,833.333374023 L33.333347321,833.333374023 C33.333347321,751.045837402 101.045791626,683.333374023 183.333358765,683.333374023 L183.333358765,683.333374023 L183.333358765,683.333374023 L183.333358765,683.333374023 C265.620910645,683.333374023 333.333374023,751.045837402 333.333374023,833.333374023 " transform="matrix(2.666666269,0,0,1,0,0)" stroke-width="33.333335876" stroke-miterlimit="10" stroke="#979797" fill="none" fill-rule="evenodd"></path></g></g></g></g><g transform="matrix(1,0,0,1,166.5,216.097000122)"><g clip-path="url(#clip17)"><g transform="matrix(0.011227855,0,0,0.011211241,0,0)" clip-path="url(#clip18)"><g><path d="M0.000030518,0.000030518 L1000,0.000030518 L1000,1000 L0.000030518,1000 Z" transform="matrix(1,0,0,1,0,0)" fill="#ffffff" fill-rule="evenodd"></path><path d="M888.888916016,488.888885498 C888.888916016,708.322387695 708.322387695,888.888916016 488.888885498,888.888916016 L488.888885498,888.888916016 L488.888885498,888.888916016 L488.888885498,888.888916016 C269.455413818,888.888916016 88.888916016,708.322387695 88.888916016,488.888885498 L88.888916016,488.888885498 L88.888916016,488.888885498 L88.888916016,488.888885498 C88.888916016,269.455413818 269.455413818,88.888916016 488.888885498,88.888916016 L488.888885498,88.888916016 L488.888885498,88.888916016 L488.888885498,88.888916016 C708.322387695,88.888916016 888.888916016,269.455413818 888.888916016,488.888885498 " transform="matrix(1,0,0,1,0,0)" fill="#ffffff" fill-rule="evenodd"></path><path d="M888.888916016,488.888885498 C888.888916016,708.322387695 708.322387695,888.888916016 488.888885498,888.888916016 L488.888885498,888.888916016 L488.888885498,888.888916016 L488.888885498,888.888916016 C269.455413818,888.888916016 88.888916016,708.322387695 88.888916016,488.888885498 L88.888916016,488.888885498 L88.888916016,488.888885498 L88.888916016,488.888885498 C88.888916016,269.455413818 269.455413818,88.888916016 488.888885498,88.888916016 L488.888885498,88.888916016 L488.888885498,88.888916016 L488.888885498,88.888916016 C708.322387695,88.888916016 888.888916016,269.455413818 888.888916016,488.888885498 " transform="matrix(1,0,0,1,0,0)" stroke-width="88.888885498" stroke-miterlimit="10" stroke="#979797" fill="none" fill-rule="evenodd"></path></g></g></g></g><g transform="matrix(1,0,0,1,166.5,279.596984863)"><g clip-path="url(#clip19)"><g transform="matrix(0.011227855,0,0,0.011211241,0,0)" clip-path="url(#clip20)"><g><path d="M0.000030518,0.000030518 L1000,0.000030518 L1000,1000 L0.000030518,1000 Z" transform="matrix(1,0,0,1,0,0)" fill="#ffffff" fill-rule="evenodd"></path><path d="M888.888916016,488.888885498 C888.888916016,708.322387695 708.322387695,888.888916016 488.888885498,888.888916016 L488.888885498,888.888916016 L488.888885498,888.888916016 L488.888885498,888.888916016 C269.455413818,888.888916016 88.888916016,708.322387695 88.888916016,488.888885498 L88.888916016,488.888885498 L88.888916016,488.888885498 L88.888916016,488.888885498 C88.888916016,269.455413818 269.455413818,88.888916016 488.888885498,88.888916016 L488.888885498,88.888916016 L488.888885498,88.888916016 L488.888885498,88.888916016 C708.322387695,88.888916016 888.888916016,269.455413818 888.888916016,488.888885498 " transform="matrix(1,0,0,1,0,0)" fill="#ffffff" fill-rule="evenodd"></path><path d="M888.888916016,488.888885498 C888.888916016,708.322387695 708.322387695,888.888916016 488.888885498,888.888916016 L488.888885498,888.888916016 L488.888885498,888.888916016 L488.888885498,888.888916016 C269.455413818,888.888916016 88.888916016,708.322387695 88.888916016,488.888885498 L88.888916016,488.888885498 L88.888916016,488.888885498 L88.888916016,488.888885498 C88.888916016,269.455413818 269.455413818,88.888916016 488.888885498,88.888916016 L488.888885498,88.888916016 L488.888885498,88.888916016 L488.888885498,88.888916016 C708.322387695,88.888916016 888.888916016,269.455413818 888.888916016,488.888885498 " transform="matrix(1,0,0,1,0,0)" stroke-width="88.888885498" stroke-miterlimit="10" stroke="#979797" fill="none" fill-rule="evenodd"></path></g></g></g></g><g transform="matrix(1,0,0,1,166.5,433.596984863)"><g clip-path="url(#clip21)"><g transform="matrix(0.011227855,0,0,0.011211241,0,0)" clip-path="url(#clip22)"><g><path d="M0.000030518,0.000030518 L1000,0.000030518 L1000,1000 L0.000030518,1000 Z" transform="matrix(1,0,0,1,0,0)" fill="#ffffff" fill-rule="evenodd"></path><path d="M888.888916016,488.888885498 C888.888916016,708.322387695 708.322387695,888.888916016 488.888885498,888.888916016 L488.888885498,888.888916016 L488.888885498,888.888916016 L488.888885498,888.888916016 C269.455413818,888.888916016 88.888916016,708.322387695 88.888916016,488.888885498 L88.888916016,488.888885498 L88.888916016,488.888885498 L88.888916016,488.888885498 C88.888916016,269.455413818 269.455413818,88.888916016 488.888885498,88.888916016 L488.888885498,88.888916016 L488.888885498,88.888916016 L488.888885498,88.888916016 C708.322387695,88.888916016 888.888916016,269.455413818 888.888916016,488.888885498 " transform="matrix(1,0,0,1,0,0)" fill="#ffffff" fill-rule="evenodd"></path><path d="M888.888916016,488.888885498 C888.888916016,708.322387695 708.322387695,888.888916016 488.888885498,888.888916016 L488.888885498,888.888916016 L488.888885498,888.888916016 L488.888885498,888.888916016 C269.455413818,888.888916016 88.888916016,708.322387695 88.888916016,488.888885498 L88.888916016,488.888885498 L88.888916016,488.888885498 L88.888916016,488.888885498 C88.888916016,269.455413818 269.455413818,88.888916016 488.888885498,88.888916016 L488.888885498,88.888916016 L488.888885498,88.888916016 L488.888885498,88.888916016 C708.322387695,88.888916016 888.888916016,269.455413818 888.888916016,488.888885498 " transform="matrix(1,0,0,1,0,0)" stroke-width="88.888885498" stroke-miterlimit="10" stroke="#979797" fill="none" fill-rule="evenodd"></path></g></g></g></g><g transform="matrix(1,0,0,1,166.5,592.596984863)"><g clip-path="url(#clip23)"><g transform="matrix(0.011227855,0,0,0.011211241,0,0)" clip-path="url(#clip24)"><g><path d="M0.000030518,0.000030518 L1000,0.000030518 L1000,1000 L0.000030518,1000 Z" transform="matrix(1,0,0,1,0,0)" fill="#ffffff" fill-rule="evenodd"></path><path d="M888.888916016,488.888885498 C888.888916016,708.322387695 708.322387695,888.888916016 488.888885498,888.888916016 L488.888885498,888.888916016 L488.888885498,888.888916016 L488.888885498,888.888916016 C269.455413818,888.888916016 88.888916016,708.322387695 88.888916016,488.888885498 L88.888916016,488.888885498 L88.888916016,488.888885498 L88.888916016,488.888885498 C88.888916016,269.455413818 269.455413818,88.888916016 488.888885498,88.888916016 L488.888885498,88.888916016 L488.888885498,88.888916016 L488.888885498,88.888916016 C708.322387695,88.888916016 888.888916016,269.455413818 888.888916016,488.888885498 " transform="matrix(1,0,0,1,0,0)" fill="#ffffff" fill-rule="evenodd"></path><path d="M888.888916016,488.888885498 C888.888916016,708.322387695 708.322387695,888.888916016 488.888885498,888.888916016 L488.888885498,888.888916016 L488.888885498,888.888916016 L488.888885498,888.888916016 C269.455413818,888.888916016 88.888916016,708.322387695 88.888916016,488.888885498 L88.888916016,488.888885498 L88.888916016,488.888885498 L88.888916016,488.888885498 C88.888916016,269.455413818 269.455413818,88.888916016 488.888885498,88.888916016 L488.888885498,88.888916016 L488.888885498,88.888916016 L488.888885498,88.888916016 C708.322387695,88.888916016 888.888916016,269.455413818 888.888916016,488.888885498 " transform="matrix(1,0,0,1,0,0)" stroke-width="88.888885498" stroke-miterlimit="10" stroke="#979797" fill="none" fill-rule="evenodd"></path></g></g></g></g></g></g></svg>